<svg width="233" height="446" viewBox="0 0 233 446" fill="none" xmlns="http://www.w3.org/2000/svg">
<path fill-rule="evenodd" clip-rule="evenodd" d="M22.59 36.28C21.4032 37.4741 18.2047 43.0131 25.7584 51.2582C33.7148 59.9451 40.3896 57.5473 41.6729 56.4288L36.3222 50.7718C35.2513 51.6763 34.2224 50.9993 32.2944 49.4338C31.0278 48.3967 29.6065 46.9841 28.445 45.364C27.6393 44.2259 26.9603 43.0205 28.0824 42.0735L22.59 36.28Z" fill="#FEF17F"/>
<path fill-rule="evenodd" clip-rule="evenodd" d="M44.4484 54.1018C44.9476 53.6791 45.0223 53.08 44.7093 52.7465L44.7045 52.7414C44.7045 52.7414 40.5339 48.3346 40.5327 48.3308C40.2005 47.9822 39.5544 48.032 39.0833 48.4296L36.9048 50.2701L42.27 55.9423C42.27 55.9423 44.4475 54.106 44.4484 54.1018Z" fill="#FEF17F"/>
<path fill-rule="evenodd" clip-rule="evenodd" d="M30.8555 39.7305C31.3546 39.3078 31.4294 38.7087 31.1164 38.3751L31.1116 38.3701C31.1116 38.3701 26.8206 33.8361 26.8195 33.8323C26.4873 33.4837 25.8411 33.5335 25.3701 33.9311L23.1916 35.7716L28.677 41.571C28.677 41.571 30.8545 39.7347 30.8555 39.7305Z" fill="#FEF17F"/>
<path fill-rule="evenodd" clip-rule="evenodd" d="M72.59 36.28C71.4032 37.4741 68.2047 43.0131 75.7584 51.2582C83.7148 59.9451 90.3896 57.5473 91.6729 56.4288L86.3222 50.7718C85.2513 51.6763 84.2224 50.9993 82.2944 49.4338C81.0278 48.3967 79.6065 46.9841 78.445 45.364C77.6393 44.2259 76.9603 43.0205 78.0824 42.0735L72.59 36.28Z" fill="#F1F1F1"/>
<path fill-rule="evenodd" clip-rule="evenodd" d="M94.4484 54.1018C94.9476 53.6791 95.0223 53.08 94.7093 52.7465L94.7045 52.7414C94.7045 52.7414 90.5339 48.3346 90.5327 48.3308C90.2005 47.9822 89.5544 48.032 89.0833 48.4296L86.9048 50.2701L92.27 55.9423C92.27 55.9423 94.4475 54.106 94.4484 54.1018Z" fill="#F1F1F1"/>
<path fill-rule="evenodd" clip-rule="evenodd" d="M80.8555 39.7305C81.3546 39.3078 81.4294 38.7087 81.1164 38.3751L81.1116 38.3701C81.1116 38.3701 76.8206 33.8361 76.8195 33.8323C76.4873 33.4837 75.8411 33.5335 75.3701 33.9311L73.1916 35.7716L78.677 41.571C78.677 41.571 80.8545 39.7347 80.8555 39.7305Z" fill="#F1F1F1"/>
<g filter="url(#filter0_d)">
<circle cx="153.905" cy="46.6872" r="25.905" fill="#F1F1F1"/>
</g>
<path d="M165.021 54.0175L165.021 54.0176L165.021 54.0176L165.025 54.0214C165.025 54.0215 165.025 54.0217 165.025 54.0218C165.089 54.0946 165.17 54.4029 164.809 54.7264L164.688 54.8349L164.687 54.8359L164.474 55.027C164.274 55.2064 164.006 55.4453 163.739 55.6842L163.042 56.3066L158.436 51.1545L160.204 49.5743C160.361 49.4341 160.533 49.3681 160.671 49.3577C160.805 49.3477 160.881 49.3881 160.921 49.4308L160.922 49.4321L160.933 49.4438L160.968 49.4833L161.098 49.6298L161.563 50.15C161.947 50.5802 162.46 51.1533 162.972 51.7263L164.381 53.3017L164.845 53.8208L164.975 53.9662L165.01 54.0045L165.018 54.0143L165.021 54.0168L165.021 54.0175ZM164.798 54.7363L164.798 54.7367C164.799 54.7353 164.8 54.7348 164.798 54.7363ZM149.685 41.3648L144.961 36.0805L146.729 34.5003C146.729 34.5003 146.729 34.5003 146.729 34.5003C146.886 34.3601 147.059 34.2941 147.196 34.2837C147.33 34.2737 147.406 34.3141 147.446 34.3568L147.447 34.3583L147.458 34.3702L147.494 34.4108L147.629 34.5615L148.107 35.0967C148.502 35.5392 149.029 36.1289 149.556 36.7184L151.006 38.3393L151.484 38.8733L151.617 39.0229L151.653 39.0624L151.662 39.0725L151.664 39.075L151.665 39.0757L151.665 39.0758L151.665 39.0758L151.668 39.0796C151.668 39.0797 151.668 39.0799 151.669 39.08C151.732 39.1528 151.813 39.4611 151.452 39.7846L151.331 39.8932L151.331 39.8942L151.118 40.0852C150.917 40.2646 150.65 40.5036 150.382 40.7425L149.685 41.3648ZM147.155 51.8151L147.155 51.815C143.505 47.5993 142.497 44.1288 142.5 41.6075C142.503 39.5661 143.169 38.1122 143.688 37.3459L148.387 42.5896C148.236 42.7914 148.127 43.0074 148.06 43.2364C147.951 43.6089 147.963 43.9823 148.04 44.336C148.191 45.023 148.607 45.7028 149.002 46.2922L149.002 46.2922L149.003 46.2946C150.173 48.0211 151.601 49.5217 152.872 50.6234L152.874 50.6247C153.806 51.4256 154.593 52.0666 155.3 52.3647C155.668 52.52 156.047 52.5976 156.436 52.5393C156.667 52.5047 156.883 52.4248 157.086 52.3067L161.672 57.437C159.919 58.4582 154.133 59.876 147.155 51.8151Z" fill="#FEE46D" stroke="#121212"/>
<path d="M86 219.046L86 204.482L110 204.482V209.415H115.755L126.267 219.046V226.504H123.977L122.391 229.851L118.28 231.025L115.227 229.146L114.581 226.504H102.366L101.133 229.499L97.9033 231.025L94.3799 229.499L92.4421 226.504H88.625V219.046H86Z" fill="#FEE46D"/>
<path fill-rule="evenodd" clip-rule="evenodd" d="M118.276 219.911L125.232 219.889V225.784H124.388C124.015 223.284 121.772 221.362 119.06 221.362C116.349 221.362 114.106 223.284 113.733 225.784H110.603V203.678H109.108V225.784H102.86C102.487 223.284 100.244 221.362 97.5327 221.362C94.8214 221.362 92.5783 223.284 92.2052 225.784H89.054V219.889H90.613V218.415H86V219.889H87.5591V225.784L87.5377 227.257H92.2052C92.5783 229.757 94.8214 231.678 97.5327 231.678C100.244 231.678 102.487 229.757 102.86 227.257H113.733C114.106 229.757 116.349 231.678 119.06 231.678C121.772 231.678 124.015 229.757 124.388 227.257H125.232H126.727L126.542 218.138L116.516 208.476L110.603 208.297V209.573H115.237V216.904V217.047H115.37L118.276 219.911ZM116.732 216.306L118.872 218.415H125.232V218.322L124.952 218.067L124.913 218.105L123.954 217.159L116.732 210.589V216.306ZM86 203.678H109.065V205.152H96.6902H86V203.678ZM86 206.626H102.915V208.099H86V206.626ZM86 209.573H99.8392V211.047H86V209.573ZM86 212.52H96.7638V213.994H86V212.52ZM86 215.468H93.6884V216.941H86V215.468ZM97.5327 230.205C99.6558 230.205 101.377 228.555 101.377 226.52C101.377 224.486 99.6558 222.836 97.5327 222.836C95.4096 222.836 93.6884 224.486 93.6884 226.52C93.6884 228.555 95.4096 230.205 97.5327 230.205ZM119.06 230.205C121.183 230.205 122.904 228.555 122.904 226.52C122.904 224.486 121.183 222.836 119.06 222.836C116.937 222.836 115.216 224.486 115.216 226.52C115.216 228.555 116.937 230.205 119.06 230.205Z" fill="#121212"/>
<path fill-rule="evenodd" clip-rule="evenodd" d="M118.276 219.911L125.232 219.889V225.784H124.388C124.015 223.284 121.772 221.362 119.06 221.362C116.349 221.362 114.106 223.284 113.733 225.784H110.603V203.678H109.108V225.784H102.86C102.487 223.284 100.244 221.362 97.5327 221.362C94.8214 221.362 92.5783 223.284 92.2052 225.784H89.054V219.889H90.613V218.415H86V219.889H87.5591V225.784L87.5377 227.257H92.2052C92.5783 229.757 94.8214 231.678 97.5327 231.678C100.244 231.678 102.487 229.757 102.86 227.257H113.733C114.106 229.757 116.349 231.678 119.06 231.678C121.772 231.678 124.015 229.757 124.388 227.257H125.232H126.727L126.542 218.138L116.516 208.476L110.603 208.297V209.573H115.237V216.904V217.047H115.37L118.276 219.911ZM116.732 216.306L118.872 218.415H125.232V218.322L124.952 218.067L124.913 218.105L123.954 217.159L116.732 210.589V216.306ZM86 203.678H109.065V205.152H96.6902H86V203.678ZM86 206.626H102.915V208.099H86V206.626ZM86 209.573H99.8392V211.047H86V209.573ZM86 212.52H96.7638V213.994H86V212.52ZM86 215.468H93.6884V216.941H86V215.468ZM97.5327 230.205C99.6558 230.205 101.377 228.555 101.377 226.52C101.377 224.486 99.6558 222.836 97.5327 222.836C95.4096 222.836 93.6884 224.486 93.6884 226.52C93.6884 228.555 95.4096 230.205 97.5327 230.205ZM119.06 230.205C121.183 230.205 122.904 228.555 122.904 226.52C122.904 224.486 121.183 222.836 119.06 222.836C116.937 222.836 115.216 224.486 115.216 226.52C115.216 228.555 116.937 230.205 119.06 230.205Z" fill="white" fill-opacity="0.05"/>
<path d="M20 218.753L20 207.31L38.8574 207.31V211.186H43.3791L51.6382 218.753V224.612H49.8387L48.5929 227.242L45.3631 228.165L42.9639 226.689L42.4563 224.612H32.8593L31.8903 226.966L29.3526 228.165L26.5842 226.966L25.0616 224.612H22.0625V218.753H20Z" fill="#FEE46D"/>
<path fill-rule="evenodd" clip-rule="evenodd" d="M45.3595 219.433L50.8255 219.415V224.047H50.1617C49.8686 222.083 48.1062 220.573 45.9759 220.573C43.8456 220.573 42.0832 222.083 41.7901 224.047H39.3309V206.678H38.1564V224.047H33.2472C32.9541 222.083 31.1917 220.573 29.0614 220.573C26.9311 220.573 25.1687 222.083 24.8755 224.047H22.3995V219.415H23.6245V218.257H20V219.415H21.225V224.047L21.2082 225.205H24.8755C25.1687 227.169 26.9311 228.678 29.0614 228.678C31.1917 228.678 32.9541 227.169 33.2472 225.205H41.7901C42.0832 227.169 43.8456 228.678 45.9759 228.678C48.1062 228.678 49.8686 227.169 50.1617 225.205H50.8255H52L51.8544 218.04L43.9771 210.448L39.3309 210.308V211.31H42.9723V217.07V217.182H43.0764L45.3595 219.433ZM44.1468 216.6L45.8278 218.257H50.8255V218.184L50.6049 217.984L50.5746 218.013L49.8211 217.271L44.1468 212.108V216.6ZM20 206.678H38.1227V207.836H28.3995H20V206.678ZM20 208.994H33.29V210.152H20V208.994ZM20 211.31H30.8736V212.468H20V211.31ZM20 213.626H28.4573V214.784H20V213.626ZM20 215.941H26.0409V217.099H20V215.941ZM29.0614 227.52C30.7295 227.52 32.0818 226.224 32.0818 224.626C32.0818 223.027 30.7295 221.731 29.0614 221.731C27.3932 221.731 26.0409 223.027 26.0409 224.626C26.0409 226.224 27.3932 227.52 29.0614 227.52ZM45.9759 227.52C47.6441 227.52 48.9964 226.224 48.9964 224.626C48.9964 223.027 47.6441 221.731 45.9759 221.731C44.3078 221.731 42.9555 223.027 42.9555 224.626C42.9555 226.224 44.3078 227.52 45.9759 227.52Z" fill="#121212"/>
<g filter="url(#filter1_d)">
<circle cx="186.633" cy="217.583" r="25.905" fill="#F1F1F1"/>
</g>
<path d="M170.633 218.158L170.633 206.715L189.49 206.715V210.591H194.012L202.271 218.158V224.018H200.472L199.226 226.648L195.996 227.571L193.597 226.094L193.089 224.018H183.492L182.523 226.371L179.985 227.571L177.217 226.371L175.694 224.018H172.695V218.158H170.633Z" fill="#FEE46D"/>
<path fill-rule="evenodd" clip-rule="evenodd" d="M195.992 218.838L201.458 218.82V223.451H200.795C200.501 221.488 198.739 219.978 196.609 219.978C194.478 219.978 192.716 221.488 192.423 223.451H189.964V206.083H188.789V223.451H183.88C183.587 221.488 181.824 219.978 179.694 219.978C177.564 219.978 175.801 221.488 175.508 223.451H173.032V218.82H174.257V217.662H170.633V218.82H171.858V223.451L171.841 224.609H175.508C175.801 226.573 177.564 228.083 179.694 228.083C181.824 228.083 183.587 226.573 183.88 224.609H192.423C192.716 226.573 194.478 228.083 196.609 228.083C198.739 228.083 200.501 226.573 200.795 224.609H201.458H202.633L202.487 217.444L194.61 209.853L189.964 209.712V210.715H193.605V216.475V216.587H193.709L195.992 218.838ZM194.78 216.005L196.461 217.662H201.458V217.589L201.238 217.388L201.207 217.418L200.454 216.675L194.78 211.513V216.005ZM170.633 206.083H188.756V207.241H179.032H170.633V206.083ZM170.633 208.399H183.923V209.557H170.633V208.399ZM170.633 210.715H181.506V211.872H170.633V210.715ZM170.633 213.03H179.09V214.188H170.633V213.03ZM170.633 215.346H176.674V216.504H170.633V215.346ZM179.694 226.925C181.362 226.925 182.715 225.629 182.715 224.03C182.715 222.432 181.362 221.136 179.694 221.136C178.026 221.136 176.674 222.432 176.674 224.03C176.674 225.629 178.026 226.925 179.694 226.925ZM196.609 226.925C198.277 226.925 199.629 225.629 199.629 224.03C199.629 222.432 198.277 221.136 196.609 221.136C194.941 221.136 193.588 222.432 193.588 224.03C193.588 225.629 194.941 226.925 196.609 226.925Z" fill="#121212"/>
<g filter="url(#filter2_d)">
<circle cx="119.405" cy="399.608" r="25.405" fill="#F1F1F1"/>
</g>
<mask id="mask0" mask-type="alpha" maskUnits="userSpaceOnUse" x="93" y="373" width="52" height="53">
<path d="M93 373.679H144.81V425.489H93V373.679Z" fill="white"/>
</mask>
<g mask="url(#mask0)">
<path fill-rule="evenodd" clip-rule="evenodd" d="M118.41 377.468C118.671 377.188 118.841 377.004 119.08 376.747C118.835 376.507 118.647 376.322 118.4 376.081C118.152 376.34 117.977 376.522 117.752 376.757C117.974 376.997 118.145 377.182 118.41 377.468ZM119.471 376.701C119.572 377.099 119.727 377.348 120.084 377.317C120.425 377.288 120.583 377.053 120.598 376.619C120.448 376.491 120.256 376.328 120.005 376.114C119.782 376.359 119.612 376.546 119.471 376.701ZM122.321 419.721C123.003 419.569 123.659 419.424 124.33 419.275C124.276 419.012 124.232 418.796 124.173 418.508C123.481 418.66 122.823 418.805 122.163 418.95C122.217 419.217 122.262 419.433 122.321 419.721ZM108.398 418.958C109.291 417.424 110.17 415.915 111.068 414.373C110.7 414.16 110.371 413.97 110.024 413.768C109.118 415.324 108.24 416.833 107.351 418.36C107.716 418.568 108.038 418.752 108.398 418.958ZM106.696 411.071C105.495 412.417 104.33 413.725 103.15 415.048C103.999 415.802 104.796 416.508 105.619 417.239C105.857 416.983 106.066 416.76 106.295 416.513C105.749 416.018 105.241 415.557 104.728 415.091C105.687 414.014 106.629 412.957 107.585 411.884C107.281 411.606 107.02 411.367 106.696 411.071ZM129.816 381.67C129.029 382.892 128.262 384.081 127.486 385.285C127.85 385.52 128.159 385.72 128.493 385.935C129.29 384.709 130.061 383.524 130.837 382.331C131.272 382.607 131.652 382.849 132.06 383.109C132.245 382.811 132.414 382.539 132.591 382.254C131.42 381.5 130.301 380.78 129.165 380.048C128.967 380.363 128.804 380.622 128.633 380.894C129.041 381.161 129.407 381.401 129.816 381.67ZM127.185 379.156C126.135 378.826 125.116 378.506 124.087 378.182C123.54 379.906 123.019 381.547 122.484 383.233C122.885 383.361 123.245 383.476 123.624 383.598C123.856 382.896 124.071 382.248 124.292 381.578C124.916 381.773 125.489 381.952 126.089 382.139C126.193 381.832 126.29 381.546 126.398 381.229C125.785 381.025 125.202 380.831 124.585 380.626C124.714 380.217 124.826 379.865 124.946 379.486C125.598 379.69 126.224 379.886 126.882 380.091C126.984 379.776 127.079 379.484 127.185 379.156ZM126.454 420.172C127.447 420.099 128.211 419.789 128.751 419.3C129.288 418.813 129.467 418.226 129.251 417.543C129.055 416.923 128.495 416.569 127.729 416.548C127.373 416.539 127.017 416.568 126.661 416.569C126.344 416.57 126.078 416.487 126.02 416.085C126.308 415.346 127.062 415.401 127.684 415.194C127.611 414.869 127.544 414.572 127.472 414.253C126.496 414.401 125.623 414.667 125.093 415.528C124.54 416.426 125.043 417.513 126.088 417.667C126.517 417.731 126.962 417.673 127.4 417.684C127.726 417.692 128.056 417.752 128.152 418.12C128.25 418.498 127.982 418.721 127.682 418.837C127.242 419.007 126.778 419.118 126.277 419.268C126.33 419.538 126.388 419.836 126.454 420.172ZM134.847 405.036C136.649 405.443 138.314 405.82 140.028 406.208C140.12 405.809 140.201 405.453 140.29 405.063C139.96 404.977 139.682 404.9 139.401 404.833C139.101 404.762 138.799 404.701 138.516 404.64C138.558 404.202 138.624 403.81 138.628 403.416C138.638 402.504 138.121 401.84 137.31 401.676C136.413 401.495 135.691 401.862 135.383 402.775C135.144 403.48 135.033 404.228 134.847 405.036ZM108.25 384.506C108.644 384.137 109.049 383.828 109.363 383.446C109.862 382.839 109.829 382.057 109.353 381.415C108.913 380.821 108.245 380.608 107.513 380.873C106.679 381.173 106.016 381.733 105.354 382.291C106.349 383.794 107.303 385.236 108.255 386.674C108.622 386.424 108.932 386.212 109.236 386.004C108.888 385.475 108.558 384.973 108.25 384.506ZM103.347 383.993C102.614 384.847 101.92 385.654 101.221 386.467C102.57 387.628 103.901 388.775 105.245 389.933C105.62 389.495 105.971 389.083 106.325 388.672C106.693 388.244 107.062 387.817 107.453 387.364C107.201 387.152 106.968 386.955 106.71 386.738C106.223 387.291 105.757 387.818 105.274 388.366C104.941 388.075 104.646 387.818 104.334 387.546C104.765 387.044 105.173 386.57 105.602 386.072C105.371 385.87 105.138 385.667 104.873 385.435C104.433 385.936 104.01 386.418 103.571 386.917C103.287 386.661 103.043 386.44 102.768 386.192C103.223 385.654 103.66 385.135 104.103 384.611C103.838 384.394 103.612 384.209 103.347 383.993ZM130.353 387.355C131.108 388.202 131.851 389.037 132.606 389.884C132.881 389.644 133.102 389.452 133.343 389.241C132.863 388.697 132.394 388.165 131.9 387.606C132.221 387.315 132.522 387.041 132.823 386.767C133.285 387.273 133.707 387.734 134.141 388.209C134.398 387.981 134.625 387.778 134.863 387.567C134.413 387.062 133.996 386.594 133.561 386.107C133.849 385.854 134.114 385.621 134.387 385.381C134.862 385.909 135.316 386.414 135.773 386.921C136.049 386.669 136.274 386.463 136.497 386.259C135.751 385.425 135.042 384.633 134.318 383.824C132.976 385.019 131.677 386.176 130.353 387.355ZM117.431 421.635H120.788V420.684H118.627V419.402H120.554V418.41H118.625V417.305H120.645V416.374H117.431V421.635ZM120.108 377.644C120.108 378.653 120.117 379.633 120.102 380.613C120.097 380.901 120.058 381.2 119.97 381.473C119.841 381.876 119.526 382.06 119.098 382.044C118.56 382.024 118.229 381.685 118.208 381.036C118.182 380.24 118.204 379.442 118.205 378.644C118.205 378.298 118.205 377.952 118.205 377.633H116.957C116.957 378.636 116.948 379.598 116.961 380.56C116.966 380.871 117.001 381.188 117.07 381.491C117.308 382.543 117.954 383.008 119.13 383.004C120.258 383.001 121.073 382.482 121.197 381.478C121.351 380.222 121.34 378.945 121.401 377.644H120.108ZM114.411 380.932C114.494 380.825 114.574 380.728 114.647 380.627C114.984 380.157 115.017 379.661 114.758 379.148C114.495 378.625 114.034 378.367 113.478 378.392C112.534 378.436 111.657 378.752 110.81 379.195C111.325 380.882 111.827 382.523 112.337 384.192C112.758 384.056 113.091 383.947 113.454 383.829C113.259 383.162 113.073 382.527 112.89 381.898C113.625 381.569 113.839 381.623 114.223 382.219C114.47 382.603 114.711 382.991 114.966 383.393C115.373 383.262 115.739 383.144 116.168 383.006C115.55 382.273 115.343 381.31 114.411 380.932ZM137.91 388.481C136.32 389.245 134.764 389.993 133.178 390.755C133.369 391.136 133.541 391.48 133.71 391.817C134.361 391.508 134.956 391.225 135.582 390.927C135.697 391.188 135.796 391.413 135.89 391.624C135.647 392.443 134.758 392.641 134.406 393.297C134.577 393.65 134.739 393.987 134.919 394.358C135.542 393.682 136.455 393.303 136.724 392.312C136.801 392.356 136.853 392.385 136.903 392.415C137.46 392.755 138.012 392.763 138.54 392.363C139.089 391.947 139.228 391.409 139.03 390.747C138.788 389.937 138.386 389.218 137.91 388.481ZM100.501 389.477C100.308 389.324 100.067 389.133 99.8016 388.923C98.9948 389.819 98.5458 390.826 98.6837 392.022C98.8098 393.116 99.5086 393.769 100.496 394.147C101.437 394.508 102.312 394.41 103.06 393.699C103.907 392.892 104.193 391.843 104.338 390.727C103.457 390.344 102.623 389.981 101.768 389.61C101.492 390.239 101.242 390.807 100.979 391.407C101.272 391.535 101.546 391.655 101.822 391.775C101.96 391.499 102.068 391.283 102.188 391.045C102.541 391.209 102.858 391.356 103.22 391.524C103.095 391.809 103.01 392.091 102.86 392.332C102.394 393.084 101.599 393.274 100.716 392.871C99.8708 392.486 99.4964 391.771 99.7828 390.939C99.949 390.456 100.233 390.013 100.501 389.477ZM128.381 413.611C129.59 414.97 130.74 416.264 131.91 417.58C132.231 417.29 132.508 417.04 132.802 416.774C132.296 416.2 131.817 415.657 131.335 415.111C131.838 414.666 132.306 414.251 132.806 413.807C133.313 414.369 133.798 414.904 134.306 415.466C134.619 415.173 134.887 414.923 135.173 414.656C133.976 413.308 132.824 412.012 131.657 410.698C131.342 410.975 131.064 411.219 130.768 411.478C131.239 412.021 131.672 412.52 132.108 413.024C131.604 413.471 131.135 413.885 130.64 414.322C130.176 413.807 129.732 413.314 129.272 412.803C128.961 413.085 128.686 413.335 128.381 413.611ZM100.312 401.757C100.148 401.769 99.9585 401.772 99.7717 401.797C98.4584 401.969 97.4429 402.996 97.4161 404.173C97.3735 406.064 98.8741 407.239 100.784 406.81C102.155 406.502 103.086 405.343 102.936 404.131C102.753 402.666 101.759 401.758 100.312 401.757ZM135.942 412.019C137.292 412.023 138.387 410.882 138.397 409.46C138.407 408.027 137.008 406.719 135.452 406.708C134.09 406.698 132.973 407.833 132.962 409.24C132.951 410.713 134.346 412.014 135.942 412.019ZM111.637 420.439C111.993 419.235 112.348 418.033 112.708 416.813C113.004 418.246 113.292 419.633 113.578 421.013C114.002 421.136 114.375 421.243 114.803 421.367C115.313 419.654 115.81 417.987 116.318 416.282C115.936 416.173 115.606 416.079 115.243 415.976C114.909 417.16 114.594 418.278 114.288 419.365C114.016 418.056 113.745 416.751 113.473 415.447C112.985 415.296 112.553 415.163 112.099 415.023C111.589 416.736 111.092 418.412 110.586 420.113C110.949 420.226 111.265 420.323 111.637 420.439ZM121.993 386.038C120.163 385.679 118.323 385.613 116.485 385.939C109.268 387.22 104.262 393.992 105.132 401.277C105.887 407.594 110.874 412.615 117.199 413.425C117.258 413.44 117.316 413.454 117.374 413.469C117.478 413.475 117.583 413.483 117.687 413.489C123.591 413.798 128.1 411.444 131.11 406.353C132.619 403.802 133.043 400.984 132.79 398.052C132.776 397.994 132.762 397.935 132.748 397.877C132.668 397.425 132.617 396.964 132.502 396.521C131.099 391.138 127.708 387.692 122.373 386.145C122.246 386.109 122.12 386.073 121.993 386.038ZM102.657 408.609C102.684 408.657 102.711 408.705 102.738 408.753C102.099 409.897 101.459 411.04 100.822 412.179C101.061 412.549 101.284 412.894 101.511 413.247C103.021 412.293 104.502 411.358 106.004 410.41C105.794 410.085 105.605 409.791 105.404 409.48C104.456 410.088 103.529 410.682 102.499 411.343C103.186 410.102 103.799 408.994 104.411 407.889C104.136 407.462 103.893 407.083 103.644 406.694C102.122 407.656 100.645 408.59 99.1516 409.534C99.3745 409.87 99.5636 410.156 99.7612 410.454C100.753 409.822 101.705 409.216 102.657 408.609ZM121.993 425.488H115.943C115.724 425.403 115.512 425.276 115.286 425.241C111.487 424.652 107.961 423.356 104.747 421.231C102.207 419.551 100.017 417.499 98.199 415.059C95.5947 411.565 94.0233 407.637 93.3389 403.342C93.3089 403.154 93.1987 402.978 93.126 402.797V396.368C93.1966 396.188 93.2972 396.013 93.3322 395.826C93.444 395.229 93.4624 394.605 93.6416 394.031C94.1397 392.434 94.5932 390.809 95.2585 389.28C96.7653 385.816 98.9319 382.803 101.79 380.304C103.985 378.384 106.4 376.842 109.111 375.735C111.086 374.928 113.111 374.373 115.208 374.038C115.418 374.005 115.614 373.884 115.817 373.804H122.246C122.382 373.873 122.514 373.986 122.657 374.004C124.967 374.284 127.167 374.994 129.278 375.911C132.478 377.302 135.291 379.285 137.698 381.839C139.717 383.983 141.381 386.362 142.532 389.066C143.16 390.543 143.649 392.084 144.117 393.622C144.371 394.456 144.444 395.343 144.613 396.204C144.642 396.35 144.743 396.482 144.81 396.62V402.545C144.73 402.745 144.606 402.94 144.577 403.147C144.316 405.001 143.89 406.818 143.221 408.562C140.712 415.095 136.327 419.928 130.019 422.993C127.605 424.166 125.049 424.864 122.408 425.287C122.263 425.31 122.131 425.419 121.993 425.488Z" fill="#F8BF5E"/>
</g>
<mask id="mask1" mask-type="alpha" maskUnits="userSpaceOnUse" x="93" y="373" width="52" height="53">
<path d="M93 373.679H144.81V425.489H93V373.679Z" fill="white"/>
</mask>
<g mask="url(#mask1)">
<path fill-rule="evenodd" clip-rule="evenodd" d="M126.746 404.641H128.771V395.447H126.746V404.641ZM115.033 397.139V395.439H109.425V404.639H115.265V402.935H111.518V400.772H114.848V399.019H111.518V397.139H115.033ZM122.507 395.427V398.964H119.096V395.429H117.002V404.643H119.122V400.823H122.538V404.638H124.586V395.427H122.507ZM132.79 398.053C133.043 400.985 132.619 403.803 131.11 406.354C128.1 411.445 123.591 413.799 117.687 413.49C117.583 413.484 117.478 413.476 117.374 413.469C117.316 413.455 117.258 413.44 117.2 413.426C110.875 412.615 105.887 407.595 105.132 401.278C104.262 393.992 109.268 387.221 116.485 385.94C118.323 385.613 120.163 385.68 121.993 386.039C122.12 386.074 122.247 386.11 122.373 386.146C127.708 387.693 131.099 391.139 132.502 396.522C132.617 396.965 132.668 397.426 132.749 397.878C132.762 397.936 132.776 397.995 132.79 398.053Z" fill="#C60C0F"/>
<path fill-rule="evenodd" clip-rule="evenodd" d="M102.657 408.609C101.705 409.216 100.754 409.822 99.7615 410.455C99.5637 410.156 99.3747 409.871 99.1519 409.534C100.646 408.59 102.122 407.656 103.644 406.694C103.894 407.083 104.136 407.462 104.411 407.889C103.799 408.995 103.186 410.102 102.499 411.344C103.53 410.683 104.457 410.088 105.404 409.48C105.605 409.791 105.794 410.085 106.004 410.411C104.502 411.359 103.021 412.293 101.511 413.247C101.284 412.895 101.061 412.549 100.823 412.179C101.459 411.041 102.099 409.897 102.738 408.754C102.808 408.661 102.877 408.568 102.947 408.476L102.878 408.42C102.804 408.483 102.731 408.546 102.657 408.609Z" fill="#090502"/>
<path fill-rule="evenodd" clip-rule="evenodd" d="M111.637 420.439C111.265 420.324 110.949 420.226 110.586 420.114C111.091 418.413 111.589 416.737 112.099 415.023C112.553 415.164 112.985 415.297 113.473 415.447C113.744 416.751 114.016 418.056 114.288 419.366C114.594 418.279 114.909 417.16 115.243 415.976C115.606 416.08 115.936 416.174 116.318 416.283C115.81 417.988 115.313 419.654 114.802 421.367C114.375 421.244 114.002 421.136 113.578 421.013C113.292 419.633 113.004 418.246 112.708 416.814C112.348 418.033 111.993 419.236 111.637 420.439Z" fill="#090502"/>
<path fill-rule="evenodd" clip-rule="evenodd" d="M135.423 407.937C134.719 407.905 134.35 408.095 134.11 408.521C133.877 408.934 133.948 409.328 134.197 409.702C134.657 410.393 135.328 410.753 136.131 410.841C136.572 410.89 136.952 410.694 137.201 410.308C137.451 409.921 137.457 409.511 137.22 409.122C136.762 408.371 136.065 408.002 135.423 407.937ZM135.942 412.02C134.346 412.014 132.951 410.713 132.962 409.241C132.973 407.834 134.09 406.698 135.452 406.708C137.008 406.72 138.407 408.027 138.397 409.46C138.387 410.883 137.292 412.024 135.942 412.02Z" fill="#090502"/>
<path fill-rule="evenodd" clip-rule="evenodd" d="M100.566 402.995C99.8375 403.033 99.1869 403.17 98.7063 403.711C98.1527 404.334 98.3873 405.317 99.1747 405.549C100.057 405.809 100.883 405.612 101.569 404.995C101.892 404.704 102.054 404.308 101.9 403.856C101.747 403.406 101.44 403.119 100.96 403.042C100.815 403.018 100.669 403.007 100.566 402.995ZM100.312 401.758C101.759 401.758 102.753 402.666 102.936 404.132C103.087 405.343 102.155 406.503 100.784 406.811C98.8744 407.24 97.3737 406.065 97.4164 404.174C97.443 402.997 98.4585 401.97 99.772 401.798C99.9586 401.773 100.148 401.769 100.312 401.758Z" fill="#090502"/>
<path fill-rule="evenodd" clip-rule="evenodd" d="M128.381 413.611C128.686 413.335 128.961 413.085 129.272 412.803C129.732 413.314 130.176 413.807 130.641 414.322C131.135 413.885 131.604 413.471 132.109 413.024C131.672 412.52 131.239 412.021 130.768 411.478C131.064 411.219 131.342 410.975 131.657 410.698C132.824 412.012 133.976 413.308 135.173 414.656C134.887 414.923 134.619 415.173 134.306 415.466C133.798 414.904 133.313 414.369 132.806 413.807C132.306 414.251 131.838 414.666 131.336 415.111C131.817 415.657 132.296 416.2 132.802 416.774C132.508 417.04 132.231 417.29 131.91 417.58C130.74 416.264 129.59 414.97 128.381 413.611Z" fill="#090502"/>
<path fill-rule="evenodd" clip-rule="evenodd" d="M100.501 389.477C100.233 390.013 99.9492 390.457 99.783 390.94C99.4966 391.772 99.871 392.487 100.716 392.872C101.599 393.275 102.394 393.085 102.86 392.333C103.01 392.092 103.095 391.81 103.22 391.524C102.859 391.357 102.541 391.21 102.188 391.046C102.069 391.284 101.96 391.5 101.822 391.776C101.546 391.655 101.272 391.536 100.979 391.408C101.242 390.808 101.492 390.239 101.768 389.61C102.623 389.982 103.457 390.345 104.338 390.728C104.193 391.843 103.907 392.893 103.06 393.699C102.312 394.411 101.437 394.508 100.497 394.148C99.5088 393.77 98.8101 393.117 98.6839 392.023C98.546 390.826 98.995 389.82 99.8018 388.924C100.067 389.134 100.309 389.325 100.501 389.477Z" fill="#090502"/>
<path fill-rule="evenodd" clip-rule="evenodd" d="M136.352 390.558C136.884 391.56 137.254 391.778 137.764 391.446C138.222 391.147 138.189 390.671 137.646 389.925C137.228 390.13 136.808 390.335 136.352 390.558ZM137.91 388.481C138.386 389.219 138.788 389.938 139.03 390.747C139.228 391.409 139.089 391.948 138.54 392.364C138.012 392.764 137.46 392.756 136.903 392.416C136.853 392.385 136.801 392.357 136.724 392.313C136.454 393.304 135.542 393.683 134.919 394.359C134.739 393.987 134.577 393.651 134.407 393.298C134.758 392.642 135.647 392.444 135.89 391.625C135.796 391.414 135.697 391.189 135.582 390.928C134.956 391.226 134.361 391.508 133.71 391.818C133.541 391.481 133.369 391.137 133.178 390.756C134.764 389.994 136.32 389.246 137.91 388.481Z" fill="#090502"/>
<path fill-rule="evenodd" clip-rule="evenodd" d="M112.616 381.014C113.11 380.847 113.667 380.788 113.768 380.184C113.803 379.971 113.645 379.631 113.464 379.493C113.028 379.159 112.604 379.43 112.194 379.643C112.335 380.103 112.469 380.537 112.616 381.014ZM114.411 380.933C115.343 381.311 115.551 382.274 116.168 383.007C115.739 383.145 115.374 383.263 114.966 383.394C114.712 382.992 114.47 382.604 114.223 382.22C113.839 381.624 113.625 381.57 112.89 381.899C113.073 382.527 113.259 383.163 113.454 383.83C113.091 383.948 112.758 384.056 112.337 384.193C111.827 382.524 111.326 380.883 110.81 379.196C111.657 378.752 112.534 378.437 113.478 378.393C114.034 378.368 114.495 378.626 114.759 379.149C115.017 379.662 114.984 380.158 114.647 380.627C114.574 380.729 114.494 380.826 114.411 380.933Z" fill="#090502"/>
<path fill-rule="evenodd" clip-rule="evenodd" d="M120.107 377.645H121.401C121.34 378.946 121.351 380.223 121.196 381.48C121.073 382.484 120.258 383.002 119.129 383.006C117.954 383.009 117.308 382.544 117.07 381.492C117.001 381.189 116.966 380.872 116.961 380.561C116.948 379.599 116.956 378.637 116.956 377.634H118.205C118.205 377.953 118.205 378.299 118.205 378.646C118.204 379.443 118.182 380.241 118.208 381.037C118.229 381.686 118.559 382.025 119.098 382.045C119.526 382.061 119.84 381.877 119.97 381.474C120.058 381.201 120.097 380.903 120.101 380.614C120.117 379.635 120.107 378.654 120.107 377.645Z" fill="#090502"/>
<path fill-rule="evenodd" clip-rule="evenodd" d="M117.432 421.636V416.375H120.645V417.306H118.625V418.411H120.554V419.403H118.628V420.685H120.788V421.636H117.432Z" fill="#090502"/>
<path fill-rule="evenodd" clip-rule="evenodd" d="M130.354 387.355C131.677 386.177 132.976 385.019 134.318 383.824C135.042 384.633 135.751 385.425 136.497 386.26C136.274 386.464 136.049 386.669 135.773 386.922C135.316 386.414 134.863 385.91 134.387 385.381C134.114 385.621 133.849 385.854 133.561 386.107C133.995 386.594 134.413 387.062 134.863 387.567C134.625 387.779 134.398 387.981 134.141 388.209C133.707 387.734 133.285 387.273 132.823 386.767C132.522 387.041 132.221 387.315 131.901 387.606C132.394 388.165 132.863 388.697 133.343 389.241C133.102 389.452 132.881 389.644 132.606 389.884C131.851 389.037 131.108 388.202 130.354 387.355Z" fill="#090502"/>
<path fill-rule="evenodd" clip-rule="evenodd" d="M103.347 383.994C103.612 384.21 103.838 384.395 104.103 384.612C103.661 385.136 103.223 385.655 102.768 386.193C103.043 386.441 103.287 386.662 103.571 386.918C104.01 386.419 104.433 385.937 104.873 385.436C105.138 385.668 105.371 385.871 105.602 386.073C105.173 386.571 104.765 387.045 104.334 387.547C104.646 387.819 104.941 388.076 105.274 388.367C105.758 387.819 106.223 387.292 106.711 386.739C106.968 386.956 107.201 387.153 107.453 387.365C107.062 387.818 106.693 388.245 106.325 388.673C105.971 389.084 105.62 389.496 105.245 389.933C103.901 388.775 102.57 387.629 101.221 386.467C101.92 385.654 102.614 384.847 103.347 383.994Z" fill="#090502"/>
<path fill-rule="evenodd" clip-rule="evenodd" d="M107.69 383.666C108.171 383.379 108.63 383.127 108.531 382.554C108.489 382.308 108.279 381.992 108.062 381.898C107.582 381.688 107.195 381.989 106.829 382.346C107.11 382.778 107.39 383.207 107.69 383.666ZM108.25 384.507C108.558 384.974 108.888 385.476 109.236 386.005C108.932 386.213 108.622 386.424 108.255 386.675C107.303 385.237 106.348 383.795 105.354 382.292C106.016 381.733 106.679 381.174 107.513 380.874C108.245 380.609 108.913 380.822 109.353 381.416C109.829 382.058 109.862 382.84 109.363 383.447C109.048 383.829 108.644 384.137 108.25 384.507Z" fill="#090502"/>
<path fill-rule="evenodd" clip-rule="evenodd" d="M137.564 404.426C137.662 403.921 137.858 403.431 137.42 403.06C137.23 402.899 136.862 402.798 136.631 402.865C136.077 403.024 136.077 403.559 135.982 404.066C136.517 404.188 137.013 404.3 137.564 404.426ZM134.848 405.037C135.033 404.229 135.144 403.481 135.383 402.776C135.691 401.863 136.414 401.495 137.31 401.677C138.121 401.841 138.638 402.505 138.629 403.417C138.624 403.811 138.558 404.203 138.516 404.641C138.799 404.702 139.101 404.763 139.401 404.834C139.682 404.901 139.96 404.978 140.291 405.064C140.201 405.454 140.12 405.81 140.029 406.209C138.314 405.821 136.649 405.444 134.848 405.037Z" fill="#090502"/>
<path fill-rule="evenodd" clip-rule="evenodd" d="M126.454 420.173C126.388 419.837 126.33 419.539 126.278 419.269C126.779 419.118 127.242 419.008 127.683 418.838C127.982 418.722 128.25 418.499 128.152 418.121C128.056 417.753 127.726 417.692 127.4 417.685C126.963 417.674 126.517 417.731 126.088 417.668C125.044 417.514 124.54 416.427 125.093 415.529C125.623 414.668 126.496 414.402 127.473 414.254C127.545 414.573 127.611 414.87 127.685 415.195C127.062 415.402 126.308 415.346 126.021 416.086C126.078 416.487 126.344 416.571 126.661 416.57C127.017 416.569 127.373 416.539 127.729 416.549C128.495 416.57 129.055 416.923 129.251 417.544C129.467 418.227 129.288 418.814 128.751 419.301C128.211 419.79 127.447 420.099 126.454 420.173Z" fill="#090502"/>
<path fill-rule="evenodd" clip-rule="evenodd" d="M127.185 379.156C127.079 379.484 126.984 379.777 126.882 380.092C126.225 379.886 125.598 379.69 124.946 379.486C124.826 379.866 124.714 380.217 124.585 380.626C125.202 380.831 125.785 381.025 126.398 381.229C126.291 381.546 126.193 381.833 126.089 382.139C125.489 381.952 124.916 381.773 124.292 381.579C124.071 382.248 123.857 382.896 123.625 383.598C123.245 383.477 122.885 383.362 122.484 383.233C123.019 381.548 123.54 379.906 124.087 378.183C125.116 378.506 126.135 378.826 127.185 379.156Z" fill="#090502"/>
<path fill-rule="evenodd" clip-rule="evenodd" d="M129.817 381.67C129.407 381.402 129.041 381.162 128.633 380.894C128.804 380.623 128.967 380.363 129.165 380.049C130.301 380.78 131.42 381.501 132.591 382.255C132.414 382.54 132.245 382.811 132.06 383.109C131.652 382.85 131.272 382.608 130.837 382.332C130.062 383.524 129.291 384.71 128.493 385.936C128.159 385.72 127.85 385.521 127.486 385.286C128.263 384.082 129.029 382.893 129.817 381.67Z" fill="#090502"/>
<path fill-rule="evenodd" clip-rule="evenodd" d="M106.696 411.071C107.02 411.368 107.281 411.607 107.585 411.885C106.629 412.958 105.687 414.015 104.728 415.091C105.241 415.557 105.749 416.018 106.295 416.514C106.066 416.76 105.858 416.984 105.619 417.24C104.796 416.509 104 415.802 103.15 415.049C104.33 413.726 105.495 412.418 106.696 411.071Z" fill="#090502"/>
<path fill-rule="evenodd" clip-rule="evenodd" d="M108.398 418.958C108.038 418.753 107.716 418.569 107.352 418.36C108.24 416.833 109.119 415.324 110.024 413.769C110.372 413.97 110.7 414.16 111.068 414.373C110.17 415.915 109.291 417.424 108.398 418.958Z" fill="#090502"/>
<path fill-rule="evenodd" clip-rule="evenodd" d="M122.321 419.721C122.262 419.434 122.217 419.217 122.163 418.95C122.823 418.805 123.481 418.661 124.172 418.509C124.232 418.796 124.276 419.013 124.33 419.275C123.659 419.424 123.003 419.57 122.321 419.721Z" fill="#090502"/>
<path fill-rule="evenodd" clip-rule="evenodd" d="M119.471 376.701C119.612 376.546 119.782 376.359 120.005 376.114C120.256 376.328 120.448 376.491 120.598 376.619C120.583 377.053 120.425 377.288 120.084 377.317C119.728 377.348 119.572 377.099 119.471 376.701Z" fill="#090502"/>
<path fill-rule="evenodd" clip-rule="evenodd" d="M118.41 377.468C118.146 377.182 117.974 376.997 117.752 376.757C117.977 376.522 118.152 376.34 118.4 376.081C118.647 376.323 118.836 376.508 119.08 376.748C118.841 377.004 118.671 377.188 118.41 377.468Z" fill="#090502"/>
<path fill-rule="evenodd" clip-rule="evenodd" d="M122.373 386.145C122.247 386.109 122.12 386.074 121.993 386.038C122.12 386.074 122.247 386.109 122.373 386.145Z" fill="#EB8B47"/>
<path fill-rule="evenodd" clip-rule="evenodd" d="M117.2 413.426C117.258 413.44 117.316 413.455 117.374 413.469C117.316 413.455 117.258 413.44 117.2 413.426Z" fill="#EB8B47"/>
<path fill-rule="evenodd" clip-rule="evenodd" d="M132.79 398.053C132.776 397.994 132.762 397.936 132.749 397.878C132.762 397.936 132.776 397.994 132.79 398.053Z" fill="#EB8B47"/>
<path fill-rule="evenodd" clip-rule="evenodd" d="M122.507 395.427H124.585V404.638H122.538V400.823H119.121V404.642H117.002V395.429H119.096V398.964H122.507V395.427Z" fill="#FEFEFC"/>
<path fill-rule="evenodd" clip-rule="evenodd" d="M115.033 397.139H111.518V399.019H114.848V400.772H111.518V402.935H115.265V404.639H109.425V395.439H115.033V397.139Z" fill="#FEFEFC"/>
<path fill-rule="evenodd" clip-rule="evenodd" d="M126.746 395.446H128.771V404.641H126.746V395.446Z" fill="#FEFEFC"/>
<path fill-rule="evenodd" clip-rule="evenodd" d="M102.657 408.61C102.73 408.547 102.804 408.484 102.878 408.421L102.947 408.476C102.877 408.569 102.808 408.662 102.738 408.754C102.711 408.706 102.684 408.658 102.657 408.61Z" fill="#F8BF5E"/>
<path fill-rule="evenodd" clip-rule="evenodd" d="M135.423 407.938C136.065 408.003 136.762 408.372 137.22 409.123C137.457 409.511 137.451 409.922 137.201 410.309C136.952 410.694 136.572 410.891 136.131 410.842C135.328 410.753 134.657 410.393 134.197 409.703C133.947 409.328 133.877 408.934 134.11 408.521C134.35 408.096 134.719 407.906 135.423 407.938Z" fill="#F8BF5E"/>
<path fill-rule="evenodd" clip-rule="evenodd" d="M100.566 402.995C100.668 403.007 100.815 403.018 100.96 403.042C101.44 403.119 101.747 403.406 101.9 403.856C102.054 404.308 101.892 404.704 101.568 404.995C100.882 405.612 100.057 405.809 99.1744 405.549C98.3871 405.317 98.1525 404.334 98.706 403.711C99.1866 403.17 99.8372 403.033 100.566 402.995Z" fill="#F8BF5E"/>
<path fill-rule="evenodd" clip-rule="evenodd" d="M136.353 390.557C136.808 390.335 137.229 390.129 137.646 389.925C138.189 390.671 138.222 391.147 137.764 391.445C137.254 391.778 136.885 391.56 136.353 390.557Z" fill="#F8BF5E"/>
<path fill-rule="evenodd" clip-rule="evenodd" d="M112.615 381.014C112.468 380.537 112.335 380.103 112.193 379.643C112.604 379.43 113.027 379.159 113.464 379.493C113.644 379.631 113.803 379.971 113.767 380.184C113.667 380.788 113.11 380.847 112.615 381.014Z" fill="#F8BF5E"/>
<path fill-rule="evenodd" clip-rule="evenodd" d="M107.691 383.665C107.391 383.206 107.111 382.777 106.829 382.346C107.195 381.988 107.582 381.688 108.062 381.897C108.279 381.992 108.489 382.308 108.531 382.553C108.63 383.127 108.171 383.379 107.691 383.665Z" fill="#F8BF5E"/>
<path fill-rule="evenodd" clip-rule="evenodd" d="M137.563 404.425C137.013 404.299 136.517 404.187 135.981 404.065C136.076 403.558 136.077 403.023 136.631 402.864C136.862 402.797 137.23 402.898 137.42 403.059C137.857 403.43 137.662 403.92 137.563 404.425Z" fill="#F8BF5E"/>
</g>
<g filter="url(#filter3_d)">
<circle cx="41.915" cy="404.199" r="21.0849" fill="#F1F1F1"/>
</g>
<mask id="mask2" mask-type="alpha" maskUnits="userSpaceOnUse" x="20" y="382" width="43" height="44">
<path d="M20 382.679H63V425.679H20V382.679Z" fill="white"/>
</mask>
<g mask="url(#mask2)">
<path fill-rule="evenodd" clip-rule="evenodd" d="M41.0892 385.823C41.3053 385.591 41.4468 385.438 41.6449 385.225C41.4421 385.026 41.2856 384.873 41.0809 384.672C40.8746 384.887 40.7297 385.038 40.5427 385.233C40.7269 385.432 40.8694 385.586 41.0892 385.823ZM41.9696 385.187C42.0534 385.517 42.1824 385.724 42.4783 385.698C42.7615 385.674 42.8926 385.479 42.9052 385.119C42.7806 385.013 42.6213 384.877 42.4124 384.7C42.2277 384.903 42.0864 385.059 41.9696 385.187ZM44.3348 420.891C44.9009 420.765 45.4455 420.645 46.0026 420.521C45.9579 420.303 45.9207 420.123 45.8716 419.885C45.2981 420.011 44.752 420.131 44.2035 420.252C44.2489 420.473 44.2859 420.653 44.3348 420.891ZM32.7792 420.258C33.5207 418.985 34.2499 417.733 34.9955 416.453C34.6905 416.276 34.4174 416.118 34.1288 415.951C33.3775 417.242 32.6487 418.494 31.911 419.762C32.2139 419.935 32.4811 420.087 32.7792 420.258ZM31.367 413.712C30.3703 414.83 29.403 415.915 28.4241 417.013C29.1288 417.638 29.7896 418.225 30.473 418.832C30.671 418.619 30.8437 418.434 31.0342 418.229C30.5813 417.818 30.1596 417.435 29.7332 417.048C30.5292 416.155 31.3114 415.277 32.1047 414.387C31.8523 414.156 31.6359 413.958 31.367 413.712ZM50.5558 389.311C49.9019 390.325 49.2659 391.312 48.6217 392.311C48.9238 392.507 49.1799 392.672 49.4572 392.851C50.1191 391.833 50.7591 390.849 51.4028 389.86C51.7635 390.089 52.079 390.29 52.4175 390.505C52.5712 390.258 52.7113 390.032 52.8584 389.796C51.8864 389.17 50.958 388.572 50.0149 387.965C49.8508 388.226 49.7154 388.441 49.5736 388.667C49.9121 388.889 50.2157 389.088 50.5558 389.311ZM48.3716 387.224C47.5002 386.95 46.6546 386.685 45.8005 386.416C45.3465 387.847 44.9144 389.209 44.4704 390.608C44.8029 390.715 45.1019 390.81 45.4167 390.911C45.6092 390.328 45.787 389.79 45.9707 389.235C46.4883 389.396 46.9642 389.545 47.4619 389.7C47.5484 389.446 47.6294 389.208 47.7189 388.945C47.2102 388.776 46.7261 388.615 46.2139 388.444C46.3213 388.105 46.4138 387.813 46.5136 387.498C47.0545 387.667 47.5746 387.83 48.1204 388.001C48.2049 387.739 48.2835 387.496 48.3716 387.224ZM47.7649 421.266C48.5894 421.205 49.2233 420.948 49.6713 420.542C50.1174 420.138 50.2655 419.65 50.0865 419.084C49.9239 418.569 49.4587 418.275 48.8233 418.258C48.5281 418.25 48.2322 418.275 47.9367 418.276C47.6737 418.276 47.4527 418.207 47.4053 417.874C47.6442 417.26 48.2695 417.306 48.7863 417.134C48.7256 416.865 48.6701 416.618 48.6105 416.353C47.7999 416.476 47.0756 416.697 46.6356 417.411C46.1765 418.157 46.5944 419.059 47.4614 419.187C47.8173 419.239 48.1872 419.192 48.5504 419.201C48.821 419.207 49.0949 419.257 49.1743 419.563C49.2559 419.876 49.0336 420.061 48.7847 420.158C48.419 420.299 48.0343 420.391 47.6186 420.515C47.6624 420.74 47.7106 420.987 47.7649 421.266ZM54.7313 408.703C56.2268 409.042 57.6085 409.354 59.0313 409.676C59.1071 409.345 59.1746 409.05 59.2486 408.726C58.9744 408.655 58.7436 408.59 58.5106 408.535C58.2617 408.476 58.0108 408.426 57.7759 408.375C57.811 408.012 57.8658 407.686 57.8694 407.359C57.8775 406.602 57.4481 406.051 56.7748 405.915C56.0309 405.764 55.4315 406.07 55.1754 406.827C54.9777 407.412 54.8854 408.033 54.7313 408.703ZM32.6568 391.665C32.9837 391.358 33.3195 391.102 33.5805 390.785C33.9945 390.281 33.9674 389.632 33.5724 389.099C33.2068 388.606 32.6529 388.43 32.0448 388.649C31.3532 388.899 30.8028 389.363 30.2529 389.827C31.0786 391.074 31.8707 392.27 32.661 393.464C32.9657 393.256 33.2225 393.081 33.4752 392.908C33.186 392.469 32.9121 392.053 32.6568 391.665ZM28.5875 391.239C27.9787 391.947 27.4031 392.617 26.8231 393.292C27.9422 394.256 29.0469 395.207 30.1626 396.168C30.4737 395.805 30.7656 395.463 31.0587 395.122C31.3641 394.767 31.6707 394.413 31.995 394.037C31.7864 393.861 31.5926 393.697 31.379 393.517C30.9741 393.976 30.588 394.414 30.187 394.869C29.9101 394.627 29.6658 394.414 29.4067 394.187C29.7646 393.771 30.1031 393.378 30.4586 392.964C30.267 392.797 30.0738 392.628 29.854 392.436C29.4885 392.852 29.1374 393.251 28.7735 393.666C28.5378 393.453 28.3348 393.27 28.1069 393.064C28.4842 392.617 28.8475 392.187 29.2151 391.752C28.9946 391.572 28.8072 391.419 28.5875 391.239ZM51.0015 394.029C51.6275 394.732 52.2444 395.425 52.8707 396.128C53.0992 395.929 53.2823 395.769 53.4827 395.594C53.0843 395.143 52.6947 394.701 52.2854 394.237C52.5514 393.996 52.8011 393.769 53.0514 393.541C53.4349 393.961 53.7846 394.344 54.1447 394.738C54.3579 394.548 54.5469 394.381 54.7444 394.205C54.3705 393.786 54.0243 393.398 53.6635 392.993C53.9024 392.783 54.1222 392.59 54.3489 392.39C54.7438 392.829 55.1205 393.248 55.4994 393.669C55.7282 393.46 55.915 393.289 56.1002 393.12C55.4809 392.427 54.8925 391.77 54.2922 391.098C53.1784 392.09 52.0999 393.051 51.0015 394.029ZM40.2768 422.48H43.0627V421.691H41.2694V420.627H42.8684V419.803H41.2673V418.886H42.9438V418.114H40.2768V422.48ZM42.498 385.969C42.498 386.807 42.5058 387.621 42.4931 388.434C42.4893 388.673 42.4567 388.921 42.3839 389.148C42.2764 389.482 42.0151 389.634 41.6598 389.621C41.2132 389.605 40.939 389.323 40.9214 388.784C40.8998 388.124 40.9181 387.461 40.9189 386.8C40.9192 386.512 40.919 386.225 40.919 385.96H39.8827C39.8827 386.793 39.8755 387.591 39.8868 388.39C39.8905 388.648 39.9199 388.911 39.977 389.163C40.1747 390.035 40.7107 390.421 41.6862 390.418C42.6226 390.416 43.2995 389.985 43.4018 389.152C43.5298 388.109 43.5206 387.049 43.5718 385.969H42.498ZM37.7698 388.699C37.8386 388.61 37.9051 388.529 37.9658 388.445C38.2459 388.055 38.273 387.644 38.0584 387.218C37.8394 386.783 37.4568 386.569 36.996 386.591C36.2118 386.627 35.4845 386.889 34.7813 387.257C35.2091 388.657 35.6253 390.019 36.0485 391.404C36.3978 391.291 36.6745 391.201 36.9756 391.103C36.8137 390.549 36.6597 390.022 36.5074 389.5C37.1177 389.227 37.2956 389.272 37.6139 389.766C37.819 390.085 38.0194 390.407 38.2303 390.741C38.5689 390.632 38.8718 390.535 39.2284 390.42C38.7157 389.812 38.5432 389.012 37.7698 388.699ZM57.2731 394.963C55.9536 395.598 54.6621 396.218 53.3459 396.851C53.5041 397.167 53.6471 397.453 53.7872 397.732C54.3274 397.476 54.8211 397.241 55.3406 396.994C55.4364 397.21 55.5189 397.397 55.5962 397.572C55.3948 398.252 54.6571 398.416 54.3653 398.961C54.5067 399.254 54.6417 399.533 54.7907 399.842C55.3074 399.28 56.0652 398.966 56.2886 398.143C56.3528 398.18 56.3957 398.203 56.4372 398.229C56.8996 398.511 57.3581 398.518 57.796 398.186C58.2519 397.841 58.3669 397.394 58.2026 396.844C58.0018 396.172 57.6685 395.575 57.2731 394.963ZM26.2252 395.79C26.0655 395.664 25.8649 395.505 25.6449 395.331C24.9753 396.074 24.6026 396.91 24.7171 397.902C24.8218 398.811 25.4018 399.353 26.2216 399.667C27.0023 399.966 27.7285 399.885 28.349 399.294C29.0522 398.625 29.2896 397.754 29.4097 396.828C28.679 396.51 27.9864 396.209 27.2769 395.9C27.0477 396.422 26.8403 396.894 26.6218 397.392C26.8653 397.498 27.0926 397.598 27.322 397.698C27.4365 397.469 27.5262 397.29 27.6252 397.092C27.9185 397.228 28.1819 397.35 28.4816 397.489C28.3783 397.726 28.3074 397.96 28.1833 398.16C27.7964 398.784 27.1369 398.942 26.4038 398.607C25.7023 398.288 25.3916 397.694 25.6293 397.004C25.7673 396.603 26.0026 396.235 26.2252 395.79ZM49.3647 415.82C50.3676 416.948 51.3226 418.022 52.2934 419.114C52.56 418.873 52.7893 418.667 53.034 418.445C52.614 417.969 52.2164 417.519 51.8165 417.066C52.2337 416.696 52.6217 416.352 53.0366 415.983C53.4581 416.449 53.86 416.894 54.2815 417.36C54.5418 417.117 54.7641 416.909 55.0013 416.687C54.008 415.569 53.0518 414.493 52.0833 413.403C51.8218 413.632 51.5909 413.835 51.3455 414.05C51.7363 414.501 52.0956 414.915 52.4581 415.334C52.0391 415.704 51.65 416.048 51.2397 416.41C50.8543 415.983 50.486 415.574 50.1037 415.15C49.8461 415.384 49.6173 415.591 49.3647 415.82ZM26.0687 405.982C25.9324 405.992 25.7752 405.995 25.6201 406.015C24.5301 406.158 23.6873 407.01 23.6651 407.988C23.6298 409.557 24.8752 410.532 26.4599 410.176C27.5979 409.921 28.3711 408.958 28.2459 407.953C28.0945 406.736 27.2695 405.983 26.0687 405.982ZM55.6397 414.499C56.7601 414.503 57.6687 413.555 57.6771 412.375C57.6856 411.186 56.5242 410.1 55.2332 410.091C54.1025 410.083 53.1757 411.025 53.1667 412.193C53.1573 413.415 54.3153 414.495 55.6397 414.499ZM35.4679 421.487C35.763 420.488 36.0577 419.49 36.3565 418.478C36.6027 419.667 36.8411 420.818 37.0784 421.964C37.4307 422.065 37.7405 422.155 38.095 422.257C38.5189 420.836 38.9311 419.453 39.3529 418.037C39.0361 417.947 38.7617 417.869 38.4606 417.783C38.1836 418.766 37.9221 419.694 37.6678 420.596C37.442 419.509 37.2169 418.426 36.9919 417.344C36.5866 417.219 36.2282 417.108 35.851 416.992C35.4283 418.414 35.015 419.805 34.5955 421.217C34.8968 421.31 35.1589 421.391 35.4679 421.487ZM44.0626 392.936C42.5437 392.638 41.017 392.583 39.4912 392.854C33.5015 393.917 29.3467 399.537 30.0692 405.584C30.6956 410.826 34.8349 414.993 40.0843 415.666C40.1326 415.678 40.1808 415.69 40.229 415.702C40.3158 415.708 40.4025 415.714 40.4892 415.719C45.3886 415.976 49.131 414.022 51.6294 409.797C52.8816 407.679 53.2335 405.34 53.0237 402.907C53.0121 402.859 53.0006 402.81 52.9891 402.762C52.9222 402.387 52.8802 402.004 52.7844 401.637C51.6206 397.169 48.8058 394.309 44.3784 393.025C44.2731 392.995 44.1679 392.965 44.0626 392.936ZM28.0145 411.669C28.037 411.709 28.0596 411.749 28.0821 411.789C27.5513 412.738 27.0206 413.687 26.4921 414.632C26.69 414.939 26.8748 415.225 27.0634 415.518C28.317 414.727 29.5462 413.951 30.7925 413.164C30.6185 412.894 30.4612 412.65 30.2949 412.391C29.5081 412.896 28.7389 413.39 27.8838 413.938C28.4539 412.908 28.9627 411.989 29.4701 411.072C29.2424 410.717 29.041 410.403 28.8337 410.08C27.5707 410.878 26.3451 411.653 25.1055 412.437C25.2904 412.716 25.4474 412.953 25.6114 413.2C26.4349 412.676 27.2247 412.172 28.0145 411.669ZM44.0631 425.678H39.0412C38.8598 425.608 38.6839 425.502 38.4963 425.473C35.3435 424.984 32.4168 423.909 29.7494 422.144C27.6414 420.75 25.8238 419.047 24.3148 417.022C22.1534 414.122 20.8492 410.862 20.2812 407.297C20.2563 407.141 20.1649 406.996 20.1045 406.845V401.51C20.1631 401.36 20.2466 401.215 20.2757 401.059C20.3685 400.564 20.3837 400.047 20.5324 399.57C20.9459 398.244 21.3222 396.896 21.8744 395.627C23.125 392.752 24.9231 390.251 27.2948 388.177C29.1167 386.583 31.1214 385.304 33.3715 384.385C35.0101 383.715 36.6911 383.255 38.4317 382.977C38.6059 382.949 38.7686 382.849 38.9366 382.782H44.2724C44.3859 382.839 44.495 382.934 44.6138 382.948C46.5312 383.181 48.3573 383.77 50.1093 384.531C52.7651 385.686 55.0998 387.331 57.0973 389.452C58.7729 391.23 60.1537 393.205 61.1089 395.449C61.6307 396.675 62.0359 397.954 62.4245 399.231C62.6352 399.922 62.6959 400.659 62.8361 401.373C62.86 401.495 62.9438 401.604 62.9999 401.719V406.636C62.9334 406.802 62.8305 406.964 62.8063 407.136C62.59 408.674 62.2363 410.183 61.6807 411.63C59.5988 417.052 55.9595 421.063 50.7239 423.607C48.7204 424.58 46.5987 425.16 44.4068 425.511C44.2865 425.53 44.1775 425.62 44.0631 425.678Z" fill="#F8BF5E"/>
</g>
<mask id="mask3" mask-type="alpha" maskUnits="userSpaceOnUse" x="20" y="382" width="43" height="44">
<path d="M20 382.679H63V425.679H20V382.679Z" fill="white"/>
</mask>
<g mask="url(#mask3)">
<path fill-rule="evenodd" clip-rule="evenodd" d="M48.0073 408.376H49.6883V400.745H48.0073V408.376ZM38.2861 402.149V400.738H33.6317V408.374H38.4786V406.959H35.3688V405.164H38.1326V403.709H35.369V402.149H38.2861ZM44.4892 400.728V403.663H41.6586V400.73H39.9207V408.376H41.6797V405.206H44.515V408.373H46.2145V400.728H44.4892ZM53.0238 402.907C53.2338 405.341 52.8817 407.679 51.6295 409.797C49.1311 414.022 45.3888 415.976 40.4894 415.719C40.4026 415.715 40.3159 415.708 40.2292 415.702C40.1809 415.69 40.1327 415.678 40.0845 415.666C34.835 414.994 30.6957 410.827 30.0694 405.584C29.3468 399.537 33.5016 393.917 39.4914 392.854C41.0172 392.583 42.5438 392.638 44.0628 392.936C44.168 392.966 44.2733 392.995 44.3785 393.025C48.8059 394.309 51.6207 397.169 52.7845 401.637C52.8804 402.005 52.9223 402.387 52.9894 402.762C53.0008 402.811 53.0123 402.859 53.0238 402.907Z" fill="#C60C0F"/>
<path fill-rule="evenodd" clip-rule="evenodd" d="M28.0144 411.67C27.2246 412.174 26.4349 412.677 25.6114 413.202C25.4473 412.954 25.2904 412.717 25.1055 412.438C26.3451 411.654 27.5706 410.88 28.8336 410.081C29.0409 410.404 29.2424 410.718 29.4701 411.073C28.9626 411.99 28.4539 412.909 27.8837 413.94C28.7389 413.391 29.5081 412.898 30.2948 412.393C30.4612 412.651 30.6184 412.895 30.7923 413.165C29.5462 413.952 28.317 414.728 27.0633 415.52C26.8747 415.227 26.6899 414.94 26.4921 414.633C27.0205 413.688 27.5513 412.739 28.0821 411.79C28.1397 411.713 28.1975 411.636 28.2552 411.559L28.1979 411.513C28.1367 411.566 28.0756 411.618 28.0144 411.67Z" fill="#090502"/>
<path fill-rule="evenodd" clip-rule="evenodd" d="M35.4682 421.488C35.1591 421.392 34.897 421.311 34.5957 421.218C35.0152 419.806 35.4285 418.415 35.8512 416.993C36.2284 417.11 36.5868 417.22 36.9921 417.345C37.2171 418.427 37.4422 419.51 37.6681 420.597C37.9223 419.695 38.1838 418.767 38.4608 417.784C38.7619 417.87 39.0363 417.948 39.3531 418.038C38.9313 419.454 38.5191 420.836 38.0952 422.258C37.7407 422.156 37.4309 422.066 37.0786 421.965C36.8413 420.819 36.6029 419.668 36.3567 418.479C36.0579 419.491 35.7632 420.489 35.4682 421.488Z" fill="#090502"/>
<path fill-rule="evenodd" clip-rule="evenodd" d="M55.209 411.111C54.6249 411.084 54.3185 411.242 54.1194 411.595C53.9263 411.938 53.9847 412.265 54.1918 412.576C54.5735 413.149 55.1302 413.448 55.7966 413.521C56.1629 413.562 56.4782 413.399 56.6848 413.079C56.8925 412.758 56.8973 412.417 56.7008 412.095C56.3208 411.471 55.7421 411.165 55.209 411.111ZM55.6399 414.499C54.3156 414.495 53.1576 413.415 53.167 412.193C53.1759 411.025 54.1029 410.083 55.2336 410.091C56.5245 410.1 57.6859 411.186 57.6774 412.375C57.669 413.555 56.7604 414.503 55.6399 414.499Z" fill="#090502"/>
<path fill-rule="evenodd" clip-rule="evenodd" d="M26.2794 407.01C25.6747 407.042 25.1347 407.156 24.7358 407.605C24.2764 408.121 24.4711 408.938 25.1246 409.13C25.857 409.346 26.542 409.182 27.1114 408.67C27.3799 408.429 27.5146 408.1 27.3868 407.725C27.2595 407.351 27.0046 407.113 26.6061 407.049C26.4861 407.03 26.3646 407.02 26.2794 407.01ZM26.0689 405.983C27.2695 405.984 28.0947 406.737 28.2461 407.954C28.3712 408.959 27.5981 409.922 26.4601 410.177C24.8754 410.533 23.6298 409.558 23.6653 407.989C23.6874 407.012 24.5302 406.159 25.6203 406.016C25.7752 405.996 25.9325 405.993 26.0689 405.983Z" fill="#090502"/>
<path fill-rule="evenodd" clip-rule="evenodd" d="M49.3647 415.821C49.6174 415.591 49.8461 415.384 50.1038 415.15C50.4861 415.574 50.8544 415.983 51.2398 416.411C51.65 416.048 52.0391 415.704 52.4581 415.334C52.0956 414.916 51.7363 414.501 51.3456 414.05C51.5909 413.835 51.8218 413.633 52.0834 413.403C53.0519 414.493 54.008 415.57 55.0014 416.688C54.7641 416.909 54.5419 417.117 54.2817 417.36C53.8601 416.894 53.4581 416.45 53.0367 415.984C52.6218 416.352 52.2337 416.696 51.8166 417.066C52.2165 417.519 52.614 417.97 53.0341 418.446C52.7894 418.667 52.5601 418.874 52.2935 419.114C51.3227 418.023 50.3678 416.949 49.3647 415.821Z" fill="#090502"/>
<path fill-rule="evenodd" clip-rule="evenodd" d="M26.2254 395.791C26.0028 396.235 25.7675 396.603 25.6295 397.004C25.3918 397.695 25.7025 398.288 26.404 398.608C27.1371 398.942 27.7965 398.785 28.1834 398.161C28.3076 397.96 28.3784 397.727 28.4818 397.489C28.1821 397.35 27.9186 397.228 27.6254 397.092C27.5264 397.29 27.4366 397.469 27.3222 397.698C27.0927 397.598 26.8655 397.499 26.6219 397.393C26.8405 396.895 27.0478 396.423 27.2771 395.901C27.9865 396.209 28.6791 396.511 29.4098 396.828C29.2898 397.754 29.0523 398.625 28.3491 399.294C27.7286 399.885 27.0024 399.966 26.2217 399.667C25.4019 399.353 24.822 398.811 24.7173 397.903C24.6028 396.91 24.9755 396.075 25.6451 395.331C25.8651 395.505 26.0656 395.664 26.2254 395.791Z" fill="#090502"/>
<path fill-rule="evenodd" clip-rule="evenodd" d="M55.9806 396.687C56.4221 397.519 56.7292 397.7 57.152 397.424C57.5325 397.176 57.5052 396.781 57.0539 396.162C56.7076 396.332 56.3584 396.503 55.9806 396.687ZM57.2734 394.964C57.6688 395.576 58.002 396.173 58.2029 396.844C58.367 397.394 58.2522 397.841 57.7963 398.186C57.3584 398.518 56.8999 398.511 56.4375 398.229C56.3958 398.204 56.3531 398.181 56.2889 398.144C56.0653 398.967 55.3077 399.281 54.7909 399.842C54.6418 399.533 54.507 399.254 54.3656 398.961C54.6573 398.417 55.3951 398.253 55.5965 397.573C55.5191 397.397 55.4367 397.211 55.3409 396.994C54.8213 397.241 54.3277 397.476 53.7874 397.733C53.6474 397.453 53.5044 397.168 53.3462 396.852C54.6622 396.219 55.9539 395.598 57.2734 394.964Z" fill="#090502"/>
<path fill-rule="evenodd" clip-rule="evenodd" d="M36.2799 388.767C36.6902 388.627 37.1525 388.579 37.2359 388.078C37.2654 387.9 37.1339 387.618 36.9842 387.504C36.6217 387.227 36.2703 387.451 35.9296 387.629C36.0471 388.01 36.1579 388.37 36.2799 388.767ZM37.7697 388.699C38.5432 389.013 38.7156 389.812 39.2283 390.42C38.8718 390.535 38.5688 390.633 38.2301 390.742C38.0193 390.408 37.819 390.086 37.6137 389.767C37.2954 389.273 37.1176 389.228 36.5073 389.501C36.6596 390.022 36.8137 390.549 36.9755 391.104C36.6743 391.201 36.3977 391.291 36.0484 391.405C35.6252 390.02 35.2091 388.657 34.7812 387.257C35.4844 386.889 36.2118 386.627 36.9959 386.591C37.4568 386.57 37.8393 386.784 38.0584 387.219C38.2729 387.644 38.2457 388.056 37.9658 388.445C37.905 388.53 37.8385 388.61 37.7697 388.699Z" fill="#090502"/>
<path fill-rule="evenodd" clip-rule="evenodd" d="M42.4979 385.97H43.5717C43.5205 387.05 43.5298 388.11 43.4017 389.153C43.2995 389.986 42.6225 390.416 41.6861 390.419C40.7106 390.422 40.1746 390.036 39.9769 389.163C39.9199 388.912 39.8905 388.649 39.8868 388.391C39.8754 387.592 39.8826 386.794 39.8826 385.961H40.9189C40.9189 386.226 40.9192 386.513 40.9188 386.801C40.9181 387.462 40.8997 388.125 40.9213 388.785C40.939 389.324 41.2131 389.606 41.6598 389.622C42.0151 389.635 42.2763 389.483 42.3838 389.148C42.4568 388.922 42.4892 388.674 42.493 388.435C42.5058 387.622 42.4979 386.808 42.4979 385.97Z" fill="#090502"/>
<path fill-rule="evenodd" clip-rule="evenodd" d="M40.2769 422.48V418.114H42.9439V418.887H41.2673V419.804H42.8685V420.627H41.2694V421.691H43.0628V422.48H40.2769Z" fill="#090502"/>
<path fill-rule="evenodd" clip-rule="evenodd" d="M51.0015 394.029C52.0999 393.051 53.1784 392.091 54.2921 391.099C54.8925 391.77 55.4809 392.428 56.1002 393.12C55.915 393.289 55.7281 393.46 55.4992 393.669C55.1205 393.248 54.7437 392.83 54.3489 392.391C54.1222 392.59 53.9023 392.783 53.6635 392.993C54.0241 393.398 54.3704 393.786 54.7443 394.205C54.5468 394.381 54.3579 394.549 54.1446 394.738C53.7845 394.344 53.4348 393.961 53.0513 393.541C52.8011 393.769 52.5513 393.996 52.2854 394.238C52.6947 394.701 53.0843 395.143 53.4827 395.594C53.2822 395.769 53.0992 395.929 52.8707 396.128C52.2444 395.425 51.6274 394.732 51.0015 394.029Z" fill="#090502"/>
<path fill-rule="evenodd" clip-rule="evenodd" d="M28.5877 391.239C28.8074 391.419 28.9948 391.572 29.2152 391.752C28.8478 392.187 28.4843 392.617 28.1071 393.064C28.3349 393.27 28.5381 393.453 28.7737 393.666C29.1376 393.251 29.4887 392.852 29.8542 392.436C30.0741 392.628 30.2672 392.797 30.4589 392.965C30.1033 393.378 29.7648 393.771 29.4069 394.188C29.666 394.414 29.9104 394.627 30.1873 394.869C30.5883 394.414 30.9743 393.976 31.3792 393.517C31.5928 393.697 31.7866 393.861 31.9952 394.037C31.6708 394.413 31.3643 394.767 31.059 395.122C30.7657 395.463 30.4739 395.805 30.1628 396.168C29.0471 395.207 27.9424 394.256 26.8232 393.292C27.4033 392.617 27.979 391.947 28.5877 391.239Z" fill="#090502"/>
<path fill-rule="evenodd" clip-rule="evenodd" d="M32.1923 390.968C32.591 390.73 32.9721 390.521 32.8902 390.045C32.8551 389.841 32.6806 389.579 32.5009 389.5C32.1022 389.326 31.7814 389.576 31.4773 389.873C31.7111 390.231 31.9435 390.587 32.1923 390.968ZM32.6567 391.666C32.9121 392.054 33.186 392.47 33.4751 392.91C33.2225 393.082 32.9657 393.257 32.661 393.465C31.8707 392.272 31.0785 391.075 30.2529 389.828C30.8027 389.364 31.3532 388.9 32.0448 388.651C32.6529 388.431 33.2068 388.608 33.5724 389.101C33.9675 389.633 33.9946 390.283 33.5806 390.786C33.3195 391.103 32.9837 391.359 32.6567 391.666Z" fill="#090502"/>
<path fill-rule="evenodd" clip-rule="evenodd" d="M56.9858 408.197C57.0676 407.778 57.2297 407.371 56.8666 407.064C56.7087 406.93 56.4032 406.846 56.2114 406.901C55.752 407.034 55.7514 407.477 55.6727 407.898C56.1171 407.999 56.5287 408.093 56.9858 408.197ZM54.7314 408.704C54.8856 408.034 54.9777 407.413 55.1756 406.828C55.4316 406.07 56.0311 405.765 56.7749 405.915C57.4482 406.051 57.8777 406.603 57.8695 407.359C57.8659 407.686 57.8111 408.012 57.7761 408.375C58.011 408.426 58.2618 408.477 58.5107 408.536C58.7437 408.591 58.9745 408.655 59.2487 408.726C59.1747 409.05 59.1072 409.345 59.0314 409.677C57.6087 409.355 56.2268 409.042 54.7314 408.704Z" fill="#090502"/>
<path fill-rule="evenodd" clip-rule="evenodd" d="M47.7648 421.267C47.7105 420.988 47.6623 420.741 47.6186 420.516C48.0343 420.392 48.419 420.3 48.7846 420.159C49.0335 420.063 49.2559 419.878 49.1742 419.564C49.0948 419.259 48.821 419.208 48.5504 419.202C48.1872 419.193 47.8172 419.241 47.4614 419.188C46.5944 419.06 46.1764 418.158 46.6355 417.413C47.0756 416.698 47.8 416.478 48.6105 416.354C48.6701 416.619 48.7256 416.866 48.7864 417.136C48.2695 417.307 47.6441 417.261 47.4053 417.875C47.4526 418.208 47.6736 418.277 47.9367 418.277C48.2323 418.276 48.528 418.251 48.8232 418.259C49.4587 418.276 49.9238 418.57 50.0865 419.085C50.2654 419.652 50.1174 420.139 49.6714 420.543C49.2233 420.949 48.5894 421.206 47.7648 421.267Z" fill="#090502"/>
<path fill-rule="evenodd" clip-rule="evenodd" d="M48.3719 387.225C48.2838 387.497 48.2052 387.74 48.1207 388.001C47.5749 387.831 47.0548 387.668 46.5139 387.499C46.4141 387.814 46.3216 388.106 46.2141 388.445C46.7264 388.615 47.2105 388.776 47.7191 388.946C47.6297 389.209 47.5487 389.446 47.4622 389.701C46.9645 389.545 46.4885 389.397 45.971 389.236C45.7873 389.791 45.6095 390.329 45.417 390.912C45.1022 390.811 44.8032 390.715 44.4707 390.609C44.9147 389.21 45.3468 387.848 45.8008 386.417C46.6549 386.685 47.5005 386.951 48.3719 387.225Z" fill="#090502"/>
<path fill-rule="evenodd" clip-rule="evenodd" d="M50.5557 389.312C50.2156 389.089 49.912 388.889 49.5735 388.667C49.7154 388.442 49.8507 388.227 50.015 387.966C50.9579 388.573 51.8863 389.171 52.8583 389.797C52.7113 390.033 52.5712 390.258 52.4174 390.506C52.079 390.29 51.7634 390.09 51.4029 389.86C50.759 390.85 50.1191 391.834 49.4571 392.852C49.18 392.673 48.9237 392.507 48.6216 392.312C49.2658 391.313 49.9019 390.326 50.5557 389.312Z" fill="#090502"/>
<path fill-rule="evenodd" clip-rule="evenodd" d="M31.3671 413.712C31.6361 413.958 31.8524 414.156 32.1048 414.387C31.3116 415.277 30.5293 416.155 29.7335 417.048C30.1598 417.435 30.5814 417.818 31.0344 418.229C30.8439 418.434 30.6711 418.619 30.4731 418.832C29.7899 418.225 29.1291 417.639 28.4243 417.013C29.4031 415.915 30.3705 414.83 31.3671 413.712Z" fill="#090502"/>
<path fill-rule="evenodd" clip-rule="evenodd" d="M32.7794 420.259C32.4812 420.089 32.2139 419.936 31.9111 419.763C32.6487 418.495 33.3776 417.243 34.1289 415.952C34.4176 416.119 34.6905 416.277 34.9956 416.454C34.2501 417.734 33.5209 418.986 32.7794 420.259Z" fill="#090502"/>
<path fill-rule="evenodd" clip-rule="evenodd" d="M44.3349 420.892C44.286 420.654 44.249 420.474 44.2036 420.252C44.752 420.132 45.2982 420.012 45.8717 419.886C45.9208 420.124 45.9579 420.304 46.0027 420.522C45.4456 420.646 44.901 420.766 44.3349 420.892Z" fill="#090502"/>
<path fill-rule="evenodd" clip-rule="evenodd" d="M41.9697 385.187C42.0864 385.059 42.2278 384.903 42.4125 384.7C42.6214 384.878 42.7806 385.013 42.9053 385.119C42.8926 385.479 42.7616 385.674 42.4784 385.699C42.1825 385.724 42.0534 385.517 41.9697 385.187Z" fill="#090502"/>
<path fill-rule="evenodd" clip-rule="evenodd" d="M41.0895 385.824C40.8697 385.587 40.7272 385.433 40.543 385.234C40.73 385.039 40.8749 384.888 41.0811 384.673C41.2859 384.874 41.4424 385.027 41.6452 385.226C41.4471 385.439 41.3056 385.592 41.0895 385.824Z" fill="#090502"/>
<path fill-rule="evenodd" clip-rule="evenodd" d="M44.3786 393.025C44.2734 392.996 44.1681 392.966 44.063 392.937C44.1681 392.966 44.2734 392.996 44.3786 393.025Z" fill="#EB8B47"/>
<path fill-rule="evenodd" clip-rule="evenodd" d="M40.0845 415.667C40.1327 415.679 40.1809 415.691 40.2292 415.703C40.1809 415.691 40.1327 415.679 40.0845 415.667Z" fill="#EB8B47"/>
<path fill-rule="evenodd" clip-rule="evenodd" d="M53.0238 402.908C53.0123 402.859 53.0008 402.811 52.9893 402.763C53.0008 402.811 53.0123 402.859 53.0238 402.908Z" fill="#EB8B47"/>
<path fill-rule="evenodd" clip-rule="evenodd" d="M44.4895 400.729H46.2148V408.374H44.5153V405.207H41.6799V408.377H39.9209V400.73H41.6589V403.664H44.4895V400.729Z" fill="#FEFEFC"/>
<path fill-rule="evenodd" clip-rule="evenodd" d="M38.2863 402.15H35.3692V403.71H38.1328V405.165H35.369V406.96H38.4788V408.375H33.6318V400.739H38.2863V402.15Z" fill="#FEFEFC"/>
<path fill-rule="evenodd" clip-rule="evenodd" d="M48.0073 400.745H49.6884V408.376H48.0073V400.745Z" fill="#FEFEFC"/>
<path fill-rule="evenodd" clip-rule="evenodd" d="M28.0146 411.67C28.0759 411.617 28.137 411.565 28.1982 411.513L28.2555 411.559C28.1977 411.636 28.14 411.713 28.0823 411.79C28.0597 411.75 28.0372 411.71 28.0146 411.67Z" fill="#F8BF5E"/>
<path fill-rule="evenodd" clip-rule="evenodd" d="M55.2089 411.111C55.742 411.165 56.3207 411.471 56.7007 412.095C56.8972 412.417 56.8924 412.758 56.6847 413.079C56.478 413.399 56.1628 413.562 55.7965 413.521C55.1301 413.448 54.5734 413.149 54.1917 412.576C53.9846 412.265 53.9262 411.938 54.1193 411.595C54.3184 411.242 54.6248 411.085 55.2089 411.111Z" fill="#F8BF5E"/>
<path fill-rule="evenodd" clip-rule="evenodd" d="M26.2792 407.01C26.3643 407.02 26.4859 407.029 26.6059 407.048C27.0044 407.113 27.2593 407.351 27.3866 407.725C27.5144 408.1 27.3797 408.428 27.1111 408.669C26.5418 409.181 25.8568 409.345 25.1243 409.13C24.4709 408.937 24.2762 408.121 24.7356 407.604C25.1345 407.155 25.6745 407.041 26.2792 407.01Z" fill="#F8BF5E"/>
<path fill-rule="evenodd" clip-rule="evenodd" d="M55.9805 396.688C56.3583 396.503 56.7075 396.332 57.0538 396.163C57.505 396.782 57.5323 397.177 57.1518 397.425C56.729 397.701 56.422 397.52 55.9805 396.688Z" fill="#F8BF5E"/>
<path fill-rule="evenodd" clip-rule="evenodd" d="M36.28 388.767C36.158 388.371 36.0472 388.011 35.9297 387.629C36.2704 387.452 36.6218 387.227 36.9843 387.504C37.134 387.619 37.2655 387.901 37.236 388.078C37.1526 388.579 36.6903 388.628 36.28 388.767Z" fill="#F8BF5E"/>
<path fill-rule="evenodd" clip-rule="evenodd" d="M32.1925 390.967C31.9437 390.586 31.7113 390.23 31.4775 389.872C31.7816 389.575 32.1025 389.326 32.5011 389.5C32.6808 389.578 32.8553 389.841 32.8904 390.044C32.9723 390.52 32.5913 390.729 32.1925 390.967Z" fill="#F8BF5E"/>
<path fill-rule="evenodd" clip-rule="evenodd" d="M56.9859 408.197C56.5288 408.093 56.1172 407.999 55.6729 407.898C55.7515 407.477 55.7522 407.034 56.2116 406.901C56.4033 406.846 56.7088 406.93 56.8667 407.064C57.2298 407.371 57.0677 407.778 56.9859 408.197Z" fill="#F8BF5E"/>
</g>
<path d="M88.3012 297.201L90.0553 303.018L89.0399 304.633L85.7623 305.926V312.019L88.6705 313.404L91.8095 316.635L91.3017 320.374H96.9335L98.6415 318.62H101.873L103.304 320.374L109.443 319.959L108.705 314.789L110.874 311.327V306.895L109.12 303.018L101.873 299.417L96.1949 299.694L92.4096 297.478L88.3012 297.201Z" fill="#FEE46D"/>
<path fill-rule="evenodd" clip-rule="evenodd" d="M113.139 304.675C113.356 304.14 113.425 303.516 113.365 302.945C113.295 302.27 113.097 301.613 112.714 301.046L111.037 302.022L111.273 302.436C111.341 302.618 111.392 302.805 111.427 302.996C111.445 303.191 111.445 303.387 111.429 303.582C111.396 303.762 111.348 303.938 111.284 304.11C111.205 304.274 111.113 304.43 111.007 304.579C110.932 304.668 110.851 304.753 110.766 304.834C110.758 304.816 110.749 304.799 110.74 304.781C110.096 303.532 109.178 302.413 108.012 301.457C105.653 299.522 102.529 298.456 99.2139 298.456C98.2471 298.456 97.295 298.548 96.3748 298.729C95.6944 298.006 94.8013 297.467 93.7114 297.121C92.7855 296.828 91.7351 296.679 90.5892 296.679C89.5702 296.679 88.8398 296.801 88.8092 296.806L87.6885 296.996L89.4211 302.65C88.9664 303.182 88.572 303.753 88.2423 304.353L85 305.263V312.582L88.2426 313.491C88.9174 314.72 89.8698 315.825 91.0326 316.73L90.509 320.679H97.6394L98.5545 319.375C98.7739 319.384 98.9943 319.389 99.2139 319.389C100.154 319.389 101.087 319.302 101.996 319.131L103.016 320.679H110.165L109.414 315.021C110.104 314.219 110.651 313.344 111.045 312.413C111.517 311.294 111.757 310.12 111.757 308.922C111.757 308.173 111.664 307.436 111.48 306.717C111.715 306.569 111.937 306.398 112.144 306.201C112.598 305.772 112.907 305.246 113.139 304.675ZM108.006 314.605L108.729 319.562H103.758L102.427 317.465L101.543 317.633C100.571 317.866 100.178 317.898 99.1543 317.898C98.7948 317.898 98.2554 317.768 98.2554 317.768L96.9668 319.562H91.9274L92.5472 316.157L92.0654 315.762C90.8219 314.898 89.9562 313.903 89.3394 312.643L88.9306 312.402L86.3098 311.595V306.23L89.6008 305.407L89.6855 304.922C90.047 304.183 90.2034 303.903 90.7955 303.282L90.9281 302.526L89.3394 297.982C89.4334 297.98 90.9062 297.834 91.0078 297.834C91.9342 297.834 92.7487 298.016 93.4676 298.245C94.3879 298.536 95.0234 299.212 95.4826 299.846L95.7548 300.23L96.2348 300.307C97.1878 300.073 98.6766 299.929 99.7011 299.929C105.514 299.929 110.581 304.229 110.581 308.901C110.581 310.754 109.968 312.296 108.578 313.776L108.006 314.605Z" fill="#FEE46D"/>
<path d="M94.0181 307.619C94.5798 307.619 95.0352 307.165 95.0352 306.606C95.0352 306.046 94.5798 305.593 94.0181 305.593C93.4564 305.593 93.001 306.046 93.001 306.606C93.001 307.165 93.4564 307.619 94.0181 307.619Z" fill="#121212"/>
<path d="M99.0417 304.116L98.6011 302.172C98.7545 302.137 102.395 301.351 105.328 303.472L104.152 305.085C103.011 304.259 101.68 304.04 100.763 304.002C99.7695 303.96 99.0486 304.114 99.0417 304.116Z" fill="#121212"/>
<path d="M24.1265 294.332L26.3191 301.602L25.0498 303.622L20.9529 305.237V312.854L24.5881 314.585L28.5119 318.624L27.8772 323.298H34.9169L37.0519 321.106H41.0911L42.8798 323.298L50.5543 322.779L49.631 316.316L52.343 311.989V306.449L50.1503 301.602L41.0911 297.101L33.9936 297.448L29.262 294.678L24.1265 294.332Z" fill="#FEE46D"/>
<path fill-rule="evenodd" clip-rule="evenodd" d="M55.1737 303.674C55.4453 303.005 55.531 302.226 55.4564 301.511C55.3686 300.667 55.1211 299.847 54.6427 299.137L52.5462 300.358L52.8417 300.876C52.9261 301.103 52.9899 301.337 53.0337 301.575C53.0558 301.82 53.0568 302.064 53.036 302.308C52.9949 302.533 52.935 302.753 52.8555 302.967C52.7565 303.172 52.641 303.368 52.5092 303.554C52.4145 303.666 52.3137 303.772 52.2081 303.873C52.197 303.851 52.1859 303.829 52.1745 303.807C51.3695 302.245 50.2224 300.847 48.7649 299.651C45.8164 297.232 41.9108 295.9 37.7674 295.9C36.5589 295.9 35.3687 296.015 34.2185 296.242C33.368 295.338 32.2517 294.664 30.8892 294.232C29.7319 293.865 28.4188 293.679 26.9865 293.679C25.7128 293.679 24.7998 293.831 24.7615 293.838L23.3606 294.076L25.5263 301.143C24.958 301.808 24.465 302.521 24.0529 303.272L20 304.409V313.557L24.0533 314.695C24.8967 316.23 26.0873 317.611 27.5408 318.743L26.8863 323.679H35.7993L36.9431 322.049C37.2174 322.061 37.4929 322.067 37.7674 322.067C38.9425 322.067 40.1083 321.958 41.2446 321.744L42.5199 323.679H51.4562L50.5178 316.607C51.3797 315.604 52.0639 314.51 52.5557 313.346C53.1468 311.948 53.4466 310.48 53.4466 308.983C53.4466 308.047 53.3301 307.125 53.0996 306.226C53.3937 306.041 53.6707 305.827 53.9306 305.582C54.4974 305.045 54.8836 304.388 55.1737 303.674ZM48.7576 316.087L49.661 322.283H43.4479L41.7843 319.662L40.6785 319.872C39.4632 320.163 38.9724 320.203 37.6929 320.203C37.2435 320.203 36.5692 320.04 36.5692 320.04L34.9585 322.283H28.6593L29.434 318.026L28.8317 317.533C27.2774 316.452 26.1952 315.21 25.4242 313.634L24.9132 313.333L21.6372 312.325V305.618L25.751 304.589L25.8569 303.982C26.3088 303.058 26.5043 302.709 27.2443 301.933L27.4102 300.988L25.4242 295.308C25.5417 295.305 27.3828 295.123 27.5098 295.123C28.6678 295.123 29.6859 295.351 30.5845 295.636C31.7348 296.001 32.5293 296.845 33.1032 297.638L33.4435 298.118L34.0435 298.214C35.2348 297.922 37.0958 297.741 38.3764 297.741C45.6425 297.741 51.9759 303.116 51.9759 308.956C51.9759 311.273 51.2094 313.2 49.4719 315.05L48.7576 316.087Z" fill="#FEE46D"/>
<path d="M31.2729 307.354C31.975 307.354 32.5442 306.787 32.5442 306.088C32.5442 305.388 31.975 304.821 31.2729 304.821C30.5707 304.821 30.0015 305.388 30.0015 306.088C30.0015 306.787 30.5707 307.354 31.2729 307.354Z" fill="#121212"/>
<path d="M37.5522 302.975L37.0015 300.544C37.1933 300.501 41.7441 299.518 45.4102 302.169L43.9405 304.186C42.514 303.154 40.8496 302.88 39.7044 302.832C38.462 302.78 37.5608 302.973 37.5522 302.975Z" fill="#121212"/>
<path fill-rule="evenodd" clip-rule="evenodd" d="M22.4 122.678H41.6C42.92 122.678 44 123.727 44 125.01V138.998C44 140.28 42.92 141.33 41.6 141.33H22.4C21.08 141.33 20 140.28 20 138.998L20.012 125.01C20.012 123.727 21.08 122.678 22.4 122.678ZM32.0001 133.17L41.6001 127.341V125.01L32.0001 130.838L22.4001 125.01V127.341L32.0001 133.17Z" fill="#FEF17F"/>
<path fill-rule="evenodd" clip-rule="evenodd" d="M74.4 122.678H93.6C94.92 122.678 96 123.727 96 125.01V138.998C96 140.28 94.92 141.33 93.6 141.33H74.4C73.08 141.33 72 140.28 72 138.998L72.012 125.01C72.012 123.727 73.08 122.678 74.4 122.678ZM84.0001 133.17L93.6001 127.341V125.01L84.0001 130.838L74.4001 125.01V127.341L84.0001 133.17Z" fill="#F1F1F1"/>
<defs>
<filter id="filter0_d" x="108" y="0.782227" width="91.81" height="91.81" filterUnits="userSpaceOnUse" color-interpolation-filters="sRGB">
<feFlood flood-opacity="0" result="BackgroundImageFix"/>
<feColorMatrix in="SourceAlpha" type="matrix" values="0 0 0 0 0 0 0 0 0 0 0 0 0 0 0 0 0 0 127 0"/>
<feOffset/>
<feGaussianBlur stdDeviation="10"/>
<feColorMatrix type="matrix" values="0 0 0 0 0 0 0 0 0 0 0 0 0 0 0 0 0 0 1 0"/>
<feBlend mode="normal" in2="BackgroundImageFix" result="effect1_dropShadow"/>
<feBlend mode="normal" in="SourceGraphic" in2="effect1_dropShadow" result="shape"/>
</filter>
<filter id="filter1_d" x="140.728" y="171.678" width="91.81" height="91.81" filterUnits="userSpaceOnUse" color-interpolation-filters="sRGB">
<feFlood flood-opacity="0" result="BackgroundImageFix"/>
<feColorMatrix in="SourceAlpha" type="matrix" values="0 0 0 0 0 0 0 0 0 0 0 0 0 0 0 0 0 0 127 0"/>
<feOffset/>
<feGaussianBlur stdDeviation="10"/>
<feColorMatrix type="matrix" values="0 0 0 0 0 0 0 0 0 0 0 0 0 0 0 0 0 0 1 0"/>
<feBlend mode="normal" in2="BackgroundImageFix" result="effect1_dropShadow"/>
<feBlend mode="normal" in="SourceGraphic" in2="effect1_dropShadow" result="shape"/>
</filter>
<filter id="filter2_d" x="74" y="354.203" width="90.81" height="90.81" filterUnits="userSpaceOnUse" color-interpolation-filters="sRGB">
<feFlood flood-opacity="0" result="BackgroundImageFix"/>
<feColorMatrix in="SourceAlpha" type="matrix" values="0 0 0 0 0 0 0 0 0 0 0 0 0 0 0 0 0 0 127 0"/>
<feOffset/>
<feGaussianBlur stdDeviation="10"/>
<feColorMatrix type="matrix" values="0 0 0 0 0 0 0 0 0 0 0 0 0 0 0 0 0 0 1 0"/>
<feBlend mode="normal" in2="BackgroundImageFix" result="effect1_dropShadow"/>
<feBlend mode="normal" in="SourceGraphic" in2="effect1_dropShadow" result="shape"/>
</filter>
<filter id="filter3_d" x="0.830078" y="363.114" width="82.1699" height="82.1699" filterUnits="userSpaceOnUse" color-interpolation-filters="sRGB">
<feFlood flood-opacity="0" result="BackgroundImageFix"/>
<feColorMatrix in="SourceAlpha" type="matrix" values="0 0 0 0 0 0 0 0 0 0 0 0 0 0 0 0 0 0 127 0"/>
<feOffset/>
<feGaussianBlur stdDeviation="10"/>
<feColorMatrix type="matrix" values="0 0 0 0 0 0 0 0 0 0 0 0 0 0 0 0 0 0 1 0"/>
<feBlend mode="normal" in2="BackgroundImageFix" result="effect1_dropShadow"/>
<feBlend mode="normal" in="SourceGraphic" in2="effect1_dropShadow" result="shape"/>
</filter>
</defs>
</svg>
