<svg width="210" height="212" viewBox="0 0 210 212" fill="none" xmlns="http://www.w3.org/2000/svg">
<circle cx="104.5" cy="66.5" r="66" fill="#121212"/>
<circle cx="104.5" cy="66.5" r="66" fill="white" fill-opacity="0.05"/>
<circle cx="104.5" cy="66.5" r="66" stroke="#606060"/>
<path d="M14.1194 190.144C14.1194 189.033 13.3961 188.478 11.9494 188.478H9.5834L9.9614 184.194H14.8474V185.202H11.0254L10.7874 187.736C11.2727 187.652 11.7347 187.61 12.1734 187.61C13.1347 187.61 13.8907 187.825 14.4414 188.254C14.9921 188.674 15.2674 189.313 15.2674 190.172C15.2674 191.031 14.9781 191.745 14.3994 192.314C13.8207 192.874 13.0741 193.154 12.1594 193.154C11.2447 193.154 10.4981 192.925 9.9194 192.468C9.34074 192.001 9.0514 191.362 9.0514 190.55H10.1574C10.1574 191.315 10.5494 191.815 11.3334 192.048C11.5761 192.113 11.8421 192.146 12.1314 192.146C12.7287 192.146 13.2094 191.959 13.5734 191.586C13.9374 191.203 14.1194 190.723 14.1194 190.144ZM19.2894 184.04C19.7841 184.04 20.2088 184.217 20.5634 184.572C20.9181 184.927 21.0954 185.421 21.0954 186.056C21.0954 186.691 20.9181 187.185 20.5634 187.54C20.2181 187.885 19.7934 188.058 19.2894 188.058C18.7854 188.058 18.3608 187.881 18.0154 187.526C17.6794 187.171 17.5114 186.681 17.5114 186.056C17.5114 185.431 17.6841 184.941 18.0294 184.586C18.3748 184.222 18.7948 184.04 19.2894 184.04ZM20.1994 186.056C20.1994 185.617 20.1154 185.295 19.9474 185.09C19.7794 184.885 19.5601 184.782 19.2894 184.782C19.0188 184.782 18.7994 184.885 18.6314 185.09C18.4634 185.295 18.3794 185.617 18.3794 186.056C18.3794 186.495 18.4634 186.812 18.6314 187.008C18.7994 187.204 19.0188 187.302 19.2894 187.302C19.5601 187.302 19.7794 187.204 19.9474 187.008C20.1154 186.812 20.1994 186.495 20.1994 186.056ZM24.1334 184.194H25.2814L19.3594 193H18.2254L24.1334 184.194ZM24.1894 189.136C24.6934 189.136 25.1181 189.313 25.4634 189.668C25.8181 190.013 25.9954 190.508 25.9954 191.152C25.9954 191.787 25.8181 192.281 25.4634 192.636C25.1181 192.981 24.6934 193.154 24.1894 193.154C23.6854 193.154 23.2608 192.977 22.9154 192.622C22.5794 192.267 22.4114 191.777 22.4114 191.152C22.4114 190.517 22.5794 190.023 22.9154 189.668C23.2608 189.313 23.6854 189.136 24.1894 189.136ZM24.1894 189.878C23.9188 189.878 23.6994 189.981 23.5314 190.186C23.3634 190.391 23.2794 190.713 23.2794 191.152C23.2794 191.591 23.3634 191.908 23.5314 192.104C23.6994 192.3 23.9188 192.398 24.1894 192.398C24.4601 192.398 24.6794 192.3 24.8474 192.104C25.0154 191.908 25.0994 191.591 25.0994 191.152C25.0994 190.713 25.0154 190.391 24.8474 190.186C24.6794 189.981 24.4601 189.878 24.1894 189.878ZM35.1736 186.14C36.1069 186.14 36.8582 186.443 37.4276 187.05C38.0062 187.657 38.2956 188.525 38.2956 189.654C38.2956 190.774 38.0062 191.637 37.4276 192.244C36.8582 192.851 36.1069 193.154 35.1736 193.154C34.2402 193.154 33.4842 192.851 32.9056 192.244C32.3362 191.637 32.0516 190.774 32.0516 189.654C32.0516 188.525 32.3362 187.657 32.9056 187.05C33.4842 186.443 34.2402 186.14 35.1736 186.14ZM37.1756 189.654C37.1756 188.851 37.0076 188.226 36.6716 187.778C36.3356 187.321 35.8409 187.092 35.1876 187.092C34.5436 187.092 34.0489 187.321 33.7036 187.778C33.3582 188.226 33.1856 188.851 33.1856 189.654C33.1856 190.447 33.3489 191.073 33.6756 191.53C34.0022 191.978 34.4876 192.202 35.1316 192.202C35.7849 192.202 36.2889 191.978 36.6436 191.53C36.9982 191.073 37.1756 190.447 37.1756 189.654ZM42.0441 187.33C42.4828 186.537 43.1361 186.14 44.0041 186.14C44.8815 186.14 45.6095 186.462 46.1881 187.106C46.7761 187.75 47.0701 188.599 47.0701 189.654C47.0701 190.709 46.7761 191.558 46.1881 192.202C45.6001 192.837 44.8768 193.154 44.0181 193.154C43.1595 193.154 42.5248 192.832 42.1141 192.188V196.29H41.0081V186.308H41.9181L42.0441 187.33ZM43.9621 192.174C44.4848 192.174 44.9421 191.95 45.3341 191.502C45.7355 191.054 45.9361 190.443 45.9361 189.668C45.9361 188.884 45.7448 188.263 45.3621 187.806C44.9888 187.349 44.5315 187.12 43.9901 187.12C43.4488 187.12 43.0055 187.293 42.6601 187.638C42.3148 187.974 42.1328 188.431 42.1141 189.01V190.284C42.1141 190.872 42.2915 191.334 42.6461 191.67C43.0008 192.006 43.4395 192.174 43.9621 192.174ZM54.0646 188.66C54.0646 188.053 53.9386 187.619 53.6866 187.358C53.4346 187.097 53.066 186.966 52.5806 186.966C52.1046 186.966 51.7173 187.064 51.4186 187.26C51.1293 187.447 50.9846 187.745 50.9846 188.156H49.7666C49.7666 187.129 50.3173 186.495 51.4186 186.252C51.7546 186.177 52.1186 186.14 52.5106 186.14C53.3413 186.14 53.99 186.35 54.4566 186.77C54.9233 187.19 55.1566 187.829 55.1566 188.688V193H54.2046L54.0926 191.88C53.682 192.729 52.94 193.154 51.8666 193.154C51.148 193.154 50.5693 192.953 50.1306 192.552C49.7013 192.151 49.4866 191.651 49.4866 191.054C49.4866 190.457 49.7246 189.99 50.2006 189.654C50.686 189.318 51.288 189.15 52.0066 189.15C52.7253 189.15 53.4113 189.271 54.0646 189.514V188.66ZM54.0646 190.214C53.402 190.027 52.8233 189.934 52.3286 189.934C51.834 189.934 51.4326 190.023 51.1246 190.2C50.8166 190.377 50.6626 190.657 50.6626 191.04C50.6626 191.88 51.1386 192.3 52.0906 192.3C52.632 192.3 53.094 192.109 53.4766 191.726C53.8686 191.334 54.0646 190.83 54.0646 190.214ZM60.5806 186.14C61.374 186.14 62.004 186.345 62.4706 186.756C62.9373 187.157 63.2406 187.661 63.3806 188.268L62.2606 188.366C62.1393 187.974 61.9433 187.671 61.6726 187.456C61.402 187.232 61.1033 187.12 60.7766 187.12C60.1793 187.12 59.694 187.344 59.3206 187.792C58.9566 188.24 58.7746 188.851 58.7746 189.626C58.7746 190.391 58.952 191.007 59.3066 191.474C59.6706 191.941 60.1186 192.174 60.6506 192.174C61.192 192.174 61.5933 192.053 61.8546 191.81C62.1253 191.558 62.2606 191.203 62.2606 190.746H63.3946C63.3946 191.465 63.1426 192.048 62.6386 192.496C62.144 192.935 61.4953 193.154 60.6926 193.154C59.8433 193.154 59.12 192.832 58.5226 192.188C57.9346 191.544 57.6406 190.69 57.6406 189.626C57.6406 188.553 57.9346 187.703 58.5226 187.078C59.1106 186.453 59.7966 186.14 60.5806 186.14ZM66.2297 186.294H67.3357V193H66.2297V186.294ZM66.7757 184.726C66.5517 184.726 66.3744 184.665 66.2437 184.544C66.1224 184.413 66.0617 184.245 66.0617 184.04C66.0617 183.825 66.1224 183.657 66.2437 183.536C66.3744 183.405 66.5517 183.34 66.7757 183.34C66.9997 183.34 67.177 183.405 67.3077 183.536C67.4477 183.657 67.5177 183.825 67.5177 184.04C67.5177 184.245 67.4477 184.413 67.3077 184.544C67.177 184.665 66.9997 184.726 66.7757 184.726ZM74.4433 192.804C73.6406 193.177 72.908 193.257 72.2453 193.042C71.7693 192.893 71.4333 192.58 71.2373 192.104C71.1346 191.871 71.0833 191.591 71.0833 191.264V187.148H70.0053V186.308H71.0833V184.446H72.1753V186.308H74.2753V187.148H72.1753V191.25C72.1753 191.931 72.4926 192.272 73.1273 192.272C73.4726 192.272 73.86 192.188 74.2893 192.02L74.4433 192.804ZM75.463 194.946C75.9203 195.301 76.401 195.478 76.905 195.478C77.2783 195.478 77.6003 195.291 77.871 194.918C78.067 194.647 78.2443 194.237 78.403 193.686L78.599 193L75.855 186.308H77.087L79.117 191.642L80.699 186.308H81.819L79.313 194.33C79.0983 195.011 78.8136 195.534 78.459 195.898C78.1136 196.262 77.6703 196.444 77.129 196.444C76.597 196.444 76.0416 196.281 75.463 195.954V194.946ZM92.0302 190.62H89.8742L89.6782 192.566H88.6422L88.8382 190.62H87.4522L87.5222 189.864H88.9222L89.1882 187.372H87.7742L87.8582 186.63H89.2582L89.4682 184.698H90.5042L90.2942 186.63H92.4502L92.6602 184.698H93.6822L93.4722 186.63H94.9142L94.8302 187.372H93.4022L93.1362 189.864H94.5782L94.4942 190.62H93.0522L92.8562 192.566H91.8202L92.0302 190.62ZM89.9582 189.864H92.1002L92.3662 187.372H90.2242L89.9582 189.864ZM97.5015 184.194H102.849V185.146H98.6075V188.072H102.555V189.024H98.6075V193H97.5015V184.194ZM105.443 184.194H110.791V185.146H106.549V188.072H110.497V189.024H106.549V193H105.443V184.194ZM113.385 184.194H118.733V185.146H114.491V188.072H118.439V189.024H114.491V193H113.385V184.194ZM121.327 184.194H126.675V185.146H122.433V188.072H126.381V189.024H122.433V193H121.327V184.194ZM129.269 184.194H134.617V185.146H130.375V188.072H134.323V189.024H130.375V193H129.269V184.194ZM137.21 184.194H142.558V185.146H138.316V188.072H142.264V189.024H138.316V193H137.21V184.194ZM145.208 193.07C144.994 193.051 144.816 192.981 144.676 192.86C144.536 192.739 144.466 192.575 144.466 192.37C144.466 192.165 144.536 191.992 144.676 191.852C144.826 191.712 145.031 191.642 145.292 191.642C145.563 191.642 145.787 191.749 145.964 191.964C146.142 192.169 146.23 192.431 146.23 192.748C146.23 193.065 146.128 193.387 145.922 193.714C145.717 194.05 145.404 194.321 144.984 194.526L144.158 194.12C144.737 193.84 145.087 193.49 145.208 193.07ZM156.534 190.62H154.378L154.182 192.566H153.146L153.342 190.62H151.956L152.026 189.864H153.426L153.692 187.372H152.278L152.362 186.63H153.762L153.972 184.698H155.008L154.798 186.63H156.954L157.164 184.698H158.186L157.976 186.63H159.418L159.334 187.372H157.906L157.64 189.864H159.082L158.998 190.62H157.556L157.36 192.566H156.324L156.534 190.62ZM154.462 189.864H156.604L156.87 187.372H154.728L154.462 189.864ZM161.277 184.88C161.902 184.796 162.448 184.558 162.915 184.166H163.811V193H162.719V185.482C162.252 185.781 161.772 185.944 161.277 185.972V184.88ZM167.828 191.978H172.938V193H166.722V191.698C166.722 190.662 167.114 189.901 167.898 189.416C168.15 189.257 168.43 189.117 168.738 188.996L170.474 188.296C171.37 187.941 171.818 187.358 171.818 186.546C171.818 186.098 171.664 185.734 171.356 185.454C171.048 185.165 170.614 185.02 170.054 185.02C169.503 185.02 169.05 185.137 168.696 185.37C168.35 185.603 168.15 185.953 168.094 186.42H166.876C166.922 185.655 167.23 185.067 167.8 184.656C168.369 184.245 169.097 184.04 169.984 184.04C170.88 184.04 171.608 184.283 172.168 184.768C172.728 185.253 173.008 185.855 173.008 186.574C173.008 187.283 172.821 187.848 172.448 188.268C172.084 188.688 171.58 189.024 170.936 189.276L169.158 189.99C168.71 190.177 168.374 190.391 168.15 190.634C167.935 190.867 167.828 191.175 167.828 191.558V191.978ZM175.233 184.88C175.858 184.796 176.404 184.558 176.871 184.166H177.767V193H176.675V185.482C176.208 185.781 175.728 185.944 175.233 185.972V184.88ZM181.784 191.978H186.894V193H180.678V191.698C180.678 190.662 181.07 189.901 181.854 189.416C182.106 189.257 182.386 189.117 182.694 188.996L184.43 188.296C185.326 187.941 185.774 187.358 185.774 186.546C185.774 186.098 185.62 185.734 185.312 185.454C185.004 185.165 184.57 185.02 184.01 185.02C183.459 185.02 183.006 185.137 182.652 185.37C182.306 185.603 182.106 185.953 182.05 186.42H180.832C180.878 185.655 181.186 185.067 181.756 184.656C182.325 184.245 183.053 184.04 183.94 184.04C184.836 184.04 185.564 184.283 186.124 184.768C186.684 185.253 186.964 185.855 186.964 186.574C186.964 187.283 186.777 187.848 186.404 188.268C186.04 188.688 185.536 189.024 184.892 189.276L183.114 189.99C182.666 190.177 182.33 190.391 182.106 190.634C181.891 190.867 181.784 191.175 181.784 191.558V191.978ZM189.189 184.88C189.814 184.796 190.36 184.558 190.827 184.166H191.723V193H190.631V185.482C190.164 185.781 189.683 185.944 189.189 185.972V184.88ZM195.74 191.978H200.85V193H194.634V191.698C194.634 190.662 195.026 189.901 195.81 189.416C196.062 189.257 196.342 189.117 196.65 188.996L198.386 188.296C199.282 187.941 199.73 187.358 199.73 186.546C199.73 186.098 199.576 185.734 199.268 185.454C198.96 185.165 198.526 185.02 197.966 185.02C197.415 185.02 196.962 185.137 196.608 185.37C196.262 185.603 196.062 185.953 196.006 186.42H194.788C194.834 185.655 195.142 185.067 195.712 184.656C196.281 184.245 197.009 184.04 197.896 184.04C198.792 184.04 199.52 184.283 200.08 184.768C200.64 185.253 200.92 185.855 200.92 186.574C200.92 187.283 200.733 187.848 200.36 188.268C199.996 188.688 199.492 189.024 198.848 189.276L197.07 189.99C196.622 190.177 196.286 190.391 196.062 190.634C195.847 190.867 195.74 191.175 195.74 191.558V191.978Z" fill="#BDBDBD"/>
<path d="M30.3414 160.89C30.9894 160.782 31.6074 160.728 32.1954 160.728C33.4074 160.728 34.3734 161.022 35.0934 161.61C35.8134 162.186 36.1734 163.02 36.1734 164.112C36.1734 165.3 35.7714 166.278 34.9674 167.046C34.1154 167.85 33.0414 168.252 31.7454 168.252C30.4614 168.252 29.4354 167.928 28.6674 167.28C27.8634 166.608 27.4494 165.684 27.4254 164.508H29.6034C29.6034 165.12 29.8074 165.57 30.2154 165.858C30.6234 166.146 31.1454 166.29 31.7814 166.29C32.4174 166.29 32.9394 166.086 33.3474 165.678C33.7674 165.258 33.9774 164.736 33.9774 164.112C33.9774 162.924 33.1734 162.33 31.5654 162.33H28.0014L28.5414 156.318H35.5434V158.262H30.5934L30.3414 160.89ZM41.04 156.084C41.364 156.084 41.676 156.144 41.976 156.264C42.276 156.372 42.54 156.54 42.768 156.768C43.26 157.236 43.506 157.914 43.506 158.802C43.506 159.678 43.26 160.362 42.768 160.854C42.312 161.31 41.73 161.538 41.022 161.538C40.338 161.538 39.768 161.31 39.312 160.854C38.82 160.362 38.574 159.678 38.574 158.802C38.574 157.914 38.82 157.236 39.312 156.768C39.78 156.312 40.356 156.084 41.04 156.084ZM41.904 158.802C41.904 157.89 41.61 157.434 41.022 157.434C40.446 157.434 40.158 157.89 40.158 158.802C40.158 159.726 40.446 160.188 41.022 160.188C41.61 160.188 41.904 159.726 41.904 158.802ZM47.304 156.318H49.446L41.544 168H39.384L47.304 156.318ZM47.79 162.78C48.474 162.78 49.05 163.008 49.518 163.464C50.01 163.932 50.256 164.61 50.256 165.498C50.256 166.386 50.01 167.076 49.518 167.568C49.062 168.024 48.486 168.252 47.79 168.252C47.094 168.252 46.518 168.024 46.062 167.568C45.57 167.076 45.324 166.386 45.324 165.498C45.324 164.61 45.57 163.932 46.062 163.464C46.53 163.008 47.106 162.78 47.79 162.78ZM47.79 164.13C47.214 164.13 46.926 164.592 46.926 165.516C46.926 166.428 47.214 166.884 47.79 166.884C48.042 166.884 48.252 166.782 48.42 166.578C48.588 166.362 48.672 166.008 48.672 165.516C48.672 165.012 48.588 164.658 48.42 164.454C48.252 164.238 48.042 164.13 47.79 164.13ZM59.7284 156.318L62.3024 165.192L64.8044 157.092H66.2444L68.8904 165.228L71.6264 156.318H74.0204L70.0064 168H67.7744L65.5784 161.412L63.4004 168H61.1684L57.3524 156.318H59.7284ZM78.7752 160.674C79.3752 159.57 80.2512 159.018 81.4032 159.018C82.5552 159.018 83.4012 159.372 83.9412 160.08C84.4932 160.788 84.7692 161.724 84.7692 162.888V168H82.6452V162.888C82.6452 162.24 82.4892 161.754 82.1772 161.43C81.8652 161.094 81.4272 160.926 80.8632 160.926C80.2992 160.926 79.8132 161.178 79.4052 161.682C79.0092 162.186 78.7992 162.942 78.7752 163.95V168H76.6512V155.652H78.7752V160.674ZM88.646 159.234H90.77V168H88.646V159.234ZM88.394 156.426C88.394 156.042 88.508 155.742 88.736 155.526C88.964 155.298 89.288 155.184 89.708 155.184C90.116 155.184 90.434 155.298 90.662 155.526C90.902 155.742 91.022 156.042 91.022 156.426C91.022 156.81 90.902 157.116 90.662 157.344C90.434 157.56 90.116 157.668 89.708 157.668C89.288 157.668 88.964 157.56 88.736 157.344C88.508 157.116 88.394 156.81 88.394 156.426ZM99.9042 167.784C99.1122 168.096 98.4882 168.252 98.0322 168.252C97.5762 168.252 97.1742 168.198 96.8262 168.09C96.4902 167.982 96.1902 167.82 95.9262 167.604C95.3742 167.112 95.0982 166.434 95.0982 165.57V160.674H93.8742V159.252H95.0982V156.948H97.2222V159.252H99.5982V160.674H97.2222V165.498C97.2222 166.218 97.5642 166.578 98.2482 166.578C98.5962 166.578 99.0462 166.482 99.5982 166.29L99.9042 167.784ZM108.776 160.296C109.076 160.68 109.298 161.124 109.442 161.628C109.598 162.132 109.676 162.594 109.676 163.014C109.676 163.434 109.652 163.812 109.604 164.148H103.952C103.976 164.856 104.15 165.432 104.474 165.876C104.798 166.32 105.29 166.542 105.95 166.542C106.826 166.542 107.348 166.158 107.516 165.39H109.658C109.514 166.266 109.112 166.956 108.452 167.46C107.768 167.988 106.934 168.252 105.95 168.252C104.798 168.252 103.832 167.832 103.052 166.992C102.248 166.116 101.846 164.994 101.846 163.626C101.846 162.222 102.248 161.094 103.052 160.242C103.82 159.426 104.786 159.018 105.95 159.018C107.162 159.018 108.104 159.444 108.776 160.296ZM105.968 160.71C105.368 160.71 104.9 160.908 104.564 161.304C104.228 161.688 104.03 162.186 103.97 162.798H107.696C107.696 161.85 107.396 161.214 106.796 160.89C106.568 160.77 106.292 160.71 105.968 160.71ZM122.453 156.084C123.233 156.084 123.947 156.216 124.595 156.48C125.243 156.732 125.801 157.11 126.269 157.614C127.253 158.67 127.745 160.182 127.745 162.15C127.745 164.13 127.253 165.66 126.269 166.74C125.333 167.748 124.055 168.252 122.435 168.252C120.827 168.252 119.555 167.736 118.619 166.704C117.635 165.636 117.143 164.118 117.143 162.15C117.143 160.158 117.635 158.634 118.619 157.578C119.543 156.582 120.821 156.084 122.453 156.084ZM125.549 162.186C125.549 160.842 125.267 159.81 124.703 159.09C124.151 158.358 123.401 157.992 122.453 157.992C121.505 157.992 120.749 158.358 120.185 159.09C119.621 159.81 119.339 160.842 119.339 162.186C119.339 163.518 119.621 164.544 120.185 165.264C120.749 165.972 121.505 166.326 122.453 166.326C123.401 166.326 124.151 165.972 124.703 165.264C125.267 164.544 125.549 163.518 125.549 162.186ZM131.849 159.252L133.847 165.894L135.863 159.252H138.311L135.053 168H132.659L129.401 159.252H131.849ZM146.895 160.296C147.195 160.68 147.417 161.124 147.561 161.628C147.717 162.132 147.795 162.594 147.795 163.014C147.795 163.434 147.771 163.812 147.723 164.148H142.071C142.095 164.856 142.269 165.432 142.593 165.876C142.917 166.32 143.409 166.542 144.069 166.542C144.945 166.542 145.467 166.158 145.635 165.39H147.777C147.633 166.266 147.231 166.956 146.571 167.46C145.887 167.988 145.053 168.252 144.069 168.252C142.917 168.252 141.951 167.832 141.171 166.992C140.367 166.116 139.965 164.994 139.965 163.626C139.965 162.222 140.367 161.094 141.171 160.242C141.939 159.426 142.905 159.018 144.069 159.018C145.281 159.018 146.223 159.444 146.895 160.296ZM144.087 160.71C143.487 160.71 143.019 160.908 142.683 161.304C142.347 161.688 142.149 162.186 142.089 162.798H145.815C145.815 161.85 145.515 161.214 144.915 160.89C144.687 160.77 144.411 160.71 144.087 160.71ZM153.061 160.98C153.589 159.72 154.381 159.09 155.437 159.09C155.641 159.09 155.899 159.132 156.211 159.216L156.175 161.34C155.839 161.268 155.509 161.232 155.185 161.232C153.769 161.232 153.061 162.21 153.061 164.166V168H150.937V159.234H153.061V160.98ZM159.026 155.652H161.15V168H159.026V155.652ZM167.973 162.888C168.669 162.888 169.473 163.002 170.385 163.23V162.366C170.385 161.754 170.259 161.304 170.007 161.016C169.767 160.716 169.365 160.566 168.801 160.566C168.249 160.566 167.823 160.68 167.523 160.908C167.223 161.124 167.073 161.436 167.073 161.844H164.751C164.751 160.848 165.099 160.128 165.795 159.684C166.503 159.24 167.487 159.018 168.747 159.018C170.547 159.018 171.711 159.648 172.239 160.908C172.419 161.34 172.509 161.85 172.509 162.438V168H170.655L170.493 166.83C169.929 167.778 169.065 168.252 167.901 168.252C166.773 168.252 165.897 167.976 165.273 167.424C164.697 166.896 164.409 166.23 164.409 165.426C164.409 164.61 164.727 163.986 165.363 163.554C165.999 163.11 166.869 162.888 167.973 162.888ZM170.385 164.58C169.677 164.388 169.017 164.292 168.405 164.292C167.253 164.292 166.677 164.676 166.677 165.444C166.677 165.768 166.809 166.05 167.073 166.29C167.337 166.518 167.757 166.632 168.333 166.632C168.921 166.632 169.401 166.44 169.773 166.056C170.157 165.66 170.361 165.168 170.385 164.58ZM177.284 159.252L179.39 165.552L181.226 159.252H183.386L180.038 169.584C179.69 170.628 179.264 171.378 178.76 171.834C178.268 172.29 177.638 172.518 176.87 172.518C176.09 172.518 175.31 172.326 174.53 171.942V170.07C175.154 170.466 175.784 170.664 176.42 170.664C176.84 170.664 177.182 170.496 177.446 170.16C177.722 169.824 177.944 169.386 178.112 168.846L178.382 168L174.872 159.252H177.284Z" fill="#F1F1F1"/>
</svg>
