<svg width="210" height="212" viewBox="0 0 210 212" fill="none" xmlns="http://www.w3.org/2000/svg">
<circle cx="104.5" cy="66.5" r="66" fill="#121212"/>
<circle cx="104.5" cy="66.5" r="66" fill="white" fill-opacity="0.07"/>
<circle cx="104.5" cy="66.5" r="66" stroke="#606060"/>
<path d="M15.1393 184.194V185.216L11.1073 193H9.62333L13.8513 185.258H9.14733V184.194H15.1393ZM18.6195 184.04C19.1142 184.04 19.5388 184.217 19.8935 184.572C20.2482 184.927 20.4255 185.421 20.4255 186.056C20.4255 186.691 20.2482 187.185 19.8935 187.54C19.5482 187.885 19.1235 188.058 18.6195 188.058C18.1155 188.058 17.6908 187.881 17.3455 187.526C17.0095 187.171 16.8415 186.681 16.8415 186.056C16.8415 185.431 17.0142 184.941 17.3595 184.586C17.7048 184.222 18.1248 184.04 18.6195 184.04ZM19.5295 186.056C19.5295 185.617 19.4455 185.295 19.2775 185.09C19.1095 184.885 18.8902 184.782 18.6195 184.782C18.3488 184.782 18.1295 184.885 17.9615 185.09C17.7935 185.295 17.7095 185.617 17.7095 186.056C17.7095 186.495 17.7935 186.812 17.9615 187.008C18.1295 187.204 18.3488 187.302 18.6195 187.302C18.8902 187.302 19.1095 187.204 19.2775 187.008C19.4455 186.812 19.5295 186.495 19.5295 186.056ZM23.4635 184.194H24.6115L18.6895 193H17.5555L23.4635 184.194ZM23.5195 189.136C24.0235 189.136 24.4482 189.313 24.7935 189.668C25.1482 190.013 25.3255 190.508 25.3255 191.152C25.3255 191.787 25.1482 192.281 24.7935 192.636C24.4482 192.981 24.0235 193.154 23.5195 193.154C23.0155 193.154 22.5908 192.977 22.2455 192.622C21.9095 192.267 21.7415 191.777 21.7415 191.152C21.7415 190.517 21.9095 190.023 22.2455 189.668C22.5908 189.313 23.0155 189.136 23.5195 189.136ZM23.5195 189.878C23.2488 189.878 23.0295 189.981 22.8615 190.186C22.6935 190.391 22.6095 190.713 22.6095 191.152C22.6095 191.591 22.6935 191.908 22.8615 192.104C23.0295 192.3 23.2488 192.398 23.5195 192.398C23.7902 192.398 24.0095 192.3 24.1775 192.104C24.3455 191.908 24.4295 191.591 24.4295 191.152C24.4295 190.713 24.3455 190.391 24.1775 190.186C24.0095 189.981 23.7902 189.878 23.5195 189.878ZM34.5036 186.14C35.437 186.14 36.1883 186.443 36.7576 187.05C37.3363 187.657 37.6256 188.525 37.6256 189.654C37.6256 190.774 37.3363 191.637 36.7576 192.244C36.1883 192.851 35.437 193.154 34.5036 193.154C33.5703 193.154 32.8143 192.851 32.2356 192.244C31.6663 191.637 31.3816 190.774 31.3816 189.654C31.3816 188.525 31.6663 187.657 32.2356 187.05C32.8143 186.443 33.5703 186.14 34.5036 186.14ZM36.5056 189.654C36.5056 188.851 36.3376 188.226 36.0016 187.778C35.6656 187.321 35.171 187.092 34.5176 187.092C33.8736 187.092 33.379 187.321 33.0336 187.778C32.6883 188.226 32.5156 188.851 32.5156 189.654C32.5156 190.447 32.679 191.073 33.0056 191.53C33.3323 191.978 33.8176 192.202 34.4616 192.202C35.115 192.202 35.619 191.978 35.9736 191.53C36.3283 191.073 36.5056 190.447 36.5056 189.654ZM41.3742 187.33C41.8129 186.537 42.4662 186.14 43.3342 186.14C44.2116 186.14 44.9396 186.462 45.5182 187.106C46.1062 187.75 46.4002 188.599 46.4002 189.654C46.4002 190.709 46.1062 191.558 45.5182 192.202C44.9302 192.837 44.2069 193.154 43.3482 193.154C42.4896 193.154 41.8549 192.832 41.4442 192.188V196.29H40.3382V186.308H41.2482L41.3742 187.33ZM43.2922 192.174C43.8149 192.174 44.2722 191.95 44.6642 191.502C45.0656 191.054 45.2662 190.443 45.2662 189.668C45.2662 188.884 45.0749 188.263 44.6922 187.806C44.3189 187.349 43.8616 187.12 43.3202 187.12C42.7789 187.12 42.3356 187.293 41.9902 187.638C41.6449 187.974 41.4629 188.431 41.4442 189.01V190.284C41.4442 190.872 41.6216 191.334 41.9762 191.67C42.3309 192.006 42.7696 192.174 43.2922 192.174ZM53.3947 188.66C53.3947 188.053 53.2687 187.619 53.0167 187.358C52.7647 187.097 52.396 186.966 51.9107 186.966C51.4347 186.966 51.0474 187.064 50.7487 187.26C50.4594 187.447 50.3147 187.745 50.3147 188.156H49.0967C49.0967 187.129 49.6474 186.495 50.7487 186.252C51.0847 186.177 51.4487 186.14 51.8407 186.14C52.6714 186.14 53.32 186.35 53.7867 186.77C54.2534 187.19 54.4867 187.829 54.4867 188.688V193H53.5347L53.4227 191.88C53.012 192.729 52.27 193.154 51.1967 193.154C50.478 193.154 49.8994 192.953 49.4607 192.552C49.0314 192.151 48.8167 191.651 48.8167 191.054C48.8167 190.457 49.0547 189.99 49.5307 189.654C50.016 189.318 50.618 189.15 51.3367 189.15C52.0554 189.15 52.7414 189.271 53.3947 189.514V188.66ZM53.3947 190.214C52.732 190.027 52.1534 189.934 51.6587 189.934C51.164 189.934 50.7627 190.023 50.4547 190.2C50.1467 190.377 49.9927 190.657 49.9927 191.04C49.9927 191.88 50.4687 192.3 51.4207 192.3C51.962 192.3 52.424 192.109 52.8067 191.726C53.1987 191.334 53.3947 190.83 53.3947 190.214ZM59.9107 186.14C60.704 186.14 61.334 186.345 61.8007 186.756C62.2674 187.157 62.5707 187.661 62.7107 188.268L61.5907 188.366C61.4694 187.974 61.2734 187.671 61.0027 187.456C60.732 187.232 60.4334 187.12 60.1067 187.12C59.5094 187.12 59.024 187.344 58.6507 187.792C58.2867 188.24 58.1047 188.851 58.1047 189.626C58.1047 190.391 58.282 191.007 58.6367 191.474C59.0007 191.941 59.4487 192.174 59.9807 192.174C60.522 192.174 60.9234 192.053 61.1847 191.81C61.4554 191.558 61.5907 191.203 61.5907 190.746H62.7247C62.7247 191.465 62.4727 192.048 61.9687 192.496C61.474 192.935 60.8254 193.154 60.0227 193.154C59.1734 193.154 58.45 192.832 57.8527 192.188C57.2647 191.544 56.9707 190.69 56.9707 189.626C56.9707 188.553 57.2647 187.703 57.8527 187.078C58.4407 186.453 59.1267 186.14 59.9107 186.14ZM65.5598 186.294H66.6658V193H65.5598V186.294ZM66.1058 184.726C65.8818 184.726 65.7044 184.665 65.5738 184.544C65.4524 184.413 65.3918 184.245 65.3918 184.04C65.3918 183.825 65.4524 183.657 65.5738 183.536C65.7044 183.405 65.8818 183.34 66.1058 183.34C66.3298 183.34 66.5071 183.405 66.6378 183.536C66.7778 183.657 66.8478 183.825 66.8478 184.04C66.8478 184.245 66.7778 184.413 66.6378 184.544C66.5071 184.665 66.3298 184.726 66.1058 184.726ZM73.7734 192.804C72.9707 193.177 72.238 193.257 71.5754 193.042C71.0994 192.893 70.7634 192.58 70.5674 192.104C70.4647 191.871 70.4134 191.591 70.4134 191.264V187.148H69.3354V186.308H70.4134V184.446H71.5054V186.308H73.6054V187.148H71.5054V191.25C71.5054 191.931 71.8227 192.272 72.4574 192.272C72.8027 192.272 73.19 192.188 73.6194 192.02L73.7734 192.804ZM74.793 194.946C75.2504 195.301 75.731 195.478 76.235 195.478C76.6084 195.478 76.9304 195.291 77.201 194.918C77.397 194.647 77.5744 194.237 77.733 193.686L77.929 193L75.185 186.308H76.417L78.447 191.642L80.029 186.308H81.149L78.643 194.33C78.4284 195.011 78.1437 195.534 77.789 195.898C77.4437 196.262 77.0004 196.444 76.459 196.444C75.927 196.444 75.3717 196.281 74.793 195.954V194.946ZM91.3602 190.62H89.2042L89.0082 192.566H87.9722L88.1682 190.62H86.7822L86.8522 189.864H88.2522L88.5182 187.372H87.1042L87.1882 186.63H88.5882L88.7982 184.698H89.8342L89.6242 186.63H91.7802L91.9902 184.698H93.0122L92.8022 186.63H94.2442L94.1602 187.372H92.7322L92.4662 189.864H93.9082L93.8242 190.62H92.3822L92.1862 192.566H91.1502L91.3602 190.62ZM89.2882 189.864H91.4302L91.6962 187.372H89.5542L89.2882 189.864ZM96.8316 184.194H102.18V185.146H97.9376V188.072H101.886V189.024H97.9376V193H96.8316V184.194ZM104.773 184.194H110.121V185.146H105.879V188.072H109.827V189.024H105.879V193H104.773V184.194ZM112.715 184.194H118.063V185.146H113.821V188.072H117.769V189.024H113.821V193H112.715V184.194ZM120.657 184.194H126.005V185.146H121.763V188.072H125.711V189.024H121.763V193H120.657V184.194ZM128.599 184.194H133.947V185.146H129.705V188.072H133.653V189.024H129.705V193H128.599V184.194ZM136.541 184.194H141.889V185.146H137.647V188.072H141.595V189.024H137.647V193H136.541V184.194ZM144.538 193.07C144.324 193.051 144.146 192.981 144.006 192.86C143.866 192.739 143.796 192.575 143.796 192.37C143.796 192.165 143.866 191.992 144.006 191.852C144.156 191.712 144.361 191.642 144.622 191.642C144.893 191.642 145.117 191.749 145.294 191.964C145.472 192.169 145.56 192.431 145.56 192.748C145.56 193.065 145.458 193.387 145.252 193.714C145.047 194.05 144.734 194.321 144.314 194.526L143.488 194.12C144.067 193.84 144.417 193.49 144.538 193.07ZM155.864 190.62H153.708L153.512 192.566H152.476L152.672 190.62H151.286L151.356 189.864H152.756L153.022 187.372H151.608L151.692 186.63H153.092L153.302 184.698H154.338L154.128 186.63H156.284L156.494 184.698H157.516L157.306 186.63H158.748L158.664 187.372H157.236L156.97 189.864H158.412L158.328 190.62H156.886L156.69 192.566H155.654L155.864 190.62ZM153.792 189.864H155.934L156.2 187.372H154.058L153.792 189.864ZM160.607 184.88C161.232 184.796 161.778 184.558 162.245 184.166H163.141V193H162.049V185.482C161.582 185.781 161.102 185.944 160.607 185.972V184.88ZM167.158 191.978H172.268V193H166.052V191.698C166.052 190.662 166.444 189.901 167.228 189.416C167.48 189.257 167.76 189.117 168.068 188.996L169.804 188.296C170.7 187.941 171.148 187.358 171.148 186.546C171.148 186.098 170.994 185.734 170.686 185.454C170.378 185.165 169.944 185.02 169.384 185.02C168.833 185.02 168.381 185.137 168.026 185.37C167.681 185.603 167.48 185.953 167.424 186.42H166.206C166.253 185.655 166.561 185.067 167.13 184.656C167.699 184.245 168.427 184.04 169.314 184.04C170.21 184.04 170.938 184.283 171.498 184.768C172.058 185.253 172.338 185.855 172.338 186.574C172.338 187.283 172.151 187.848 171.778 188.268C171.414 188.688 170.91 189.024 170.266 189.276L168.488 189.99C168.04 190.177 167.704 190.391 167.48 190.634C167.265 190.867 167.158 191.175 167.158 191.558V191.978ZM174.563 184.88C175.188 184.796 175.734 184.558 176.201 184.166H177.097V193H176.005V185.482C175.538 185.781 175.058 185.944 174.563 185.972V184.88ZM181.114 191.978H186.224V193H180.008V191.698C180.008 190.662 180.4 189.901 181.184 189.416C181.436 189.257 181.716 189.117 182.024 188.996L183.76 188.296C184.656 187.941 185.104 187.358 185.104 186.546C185.104 186.098 184.95 185.734 184.642 185.454C184.334 185.165 183.9 185.02 183.34 185.02C182.789 185.02 182.336 185.137 181.982 185.37C181.636 185.603 181.436 185.953 181.38 186.42H180.162C180.208 185.655 180.516 185.067 181.086 184.656C181.655 184.245 182.383 184.04 183.27 184.04C184.166 184.04 184.894 184.283 185.454 184.768C186.014 185.253 186.294 185.855 186.294 186.574C186.294 187.283 186.107 187.848 185.734 188.268C185.37 188.688 184.866 189.024 184.222 189.276L182.444 189.99C181.996 190.177 181.66 190.391 181.436 190.634C181.221 190.867 181.114 191.175 181.114 191.558V191.978ZM188.519 184.88C189.144 184.796 189.69 184.558 190.157 184.166H191.053V193H189.961V185.482C189.494 185.781 189.013 185.944 188.519 185.972V184.88ZM195.07 191.978H200.18V193H193.964V191.698C193.964 190.662 194.356 189.901 195.14 189.416C195.392 189.257 195.672 189.117 195.98 188.996L197.716 188.296C198.612 187.941 199.06 187.358 199.06 186.546C199.06 186.098 198.906 185.734 198.598 185.454C198.29 185.165 197.856 185.02 197.296 185.02C196.745 185.02 196.292 185.137 195.938 185.37C195.592 185.603 195.392 185.953 195.336 186.42H194.118C194.164 185.655 194.472 185.067 195.042 184.656C195.611 184.245 196.339 184.04 197.226 184.04C198.122 184.04 198.85 184.283 199.41 184.768C199.97 185.253 200.25 185.855 200.25 186.574C200.25 187.283 200.063 187.848 199.69 188.268C199.326 188.688 198.822 189.024 198.178 189.276L196.4 189.99C195.952 190.177 195.616 190.391 195.392 190.634C195.177 190.867 195.07 191.175 195.07 191.558V191.978Z" fill="#BDBDBD"/>
<path d="M35.7953 156.318V158.352L30.8093 168H27.9473L33.2933 158.37H27.5873V156.318H35.7953ZM40.2841 156.084C40.6081 156.084 40.9201 156.144 41.2201 156.264C41.5201 156.372 41.7841 156.54 42.0121 156.768C42.5041 157.236 42.7501 157.914 42.7501 158.802C42.7501 159.678 42.5041 160.362 42.0121 160.854C41.5561 161.31 40.9741 161.538 40.2661 161.538C39.5821 161.538 39.0121 161.31 38.5561 160.854C38.0641 160.362 37.8181 159.678 37.8181 158.802C37.8181 157.914 38.0641 157.236 38.5561 156.768C39.0241 156.312 39.6001 156.084 40.2841 156.084ZM41.1481 158.802C41.1481 157.89 40.8541 157.434 40.2661 157.434C39.6901 157.434 39.4021 157.89 39.4021 158.802C39.4021 159.726 39.6901 160.188 40.2661 160.188C40.8541 160.188 41.1481 159.726 41.1481 158.802ZM46.5481 156.318H48.6901L40.7881 168H38.6281L46.5481 156.318ZM47.0341 162.78C47.7181 162.78 48.2941 163.008 48.7621 163.464C49.2541 163.932 49.5001 164.61 49.5001 165.498C49.5001 166.386 49.2541 167.076 48.7621 167.568C48.3061 168.024 47.7301 168.252 47.0341 168.252C46.3381 168.252 45.7621 168.024 45.3061 167.568C44.8141 167.076 44.5681 166.386 44.5681 165.498C44.5681 164.61 44.8141 163.932 45.3061 163.464C45.7741 163.008 46.3501 162.78 47.0341 162.78ZM47.0341 164.13C46.4581 164.13 46.1701 164.592 46.1701 165.516C46.1701 166.428 46.4581 166.884 47.0341 166.884C47.2861 166.884 47.4961 166.782 47.6641 166.578C47.8321 166.362 47.9161 166.008 47.9161 165.516C47.9161 165.012 47.8321 164.658 47.6641 164.454C47.4961 164.238 47.2861 164.13 47.0341 164.13ZM58.9725 156.318L61.5465 165.192L64.0485 157.092H65.4885L68.1345 165.228L70.8705 156.318H73.2645L69.2505 168H67.0185L64.8225 161.412L62.6445 168H60.4125L56.5965 156.318H58.9725ZM78.0193 160.674C78.6193 159.57 79.4953 159.018 80.6473 159.018C81.7993 159.018 82.6453 159.372 83.1853 160.08C83.7373 160.788 84.0133 161.724 84.0133 162.888V168H81.8893V162.888C81.8893 162.24 81.7333 161.754 81.4213 161.43C81.1093 161.094 80.6713 160.926 80.1073 160.926C79.5433 160.926 79.0573 161.178 78.6493 161.682C78.2533 162.186 78.0433 162.942 78.0193 163.95V168H75.8953V155.652H78.0193V160.674ZM87.8901 159.234H90.0141V168H87.8901V159.234ZM87.6381 156.426C87.6381 156.042 87.7521 155.742 87.9801 155.526C88.2081 155.298 88.5321 155.184 88.9521 155.184C89.3601 155.184 89.6781 155.298 89.9061 155.526C90.1461 155.742 90.2661 156.042 90.2661 156.426C90.2661 156.81 90.1461 157.116 89.9061 157.344C89.6781 157.56 89.3601 157.668 88.9521 157.668C88.5321 157.668 88.2081 157.56 87.9801 157.344C87.7521 157.116 87.6381 156.81 87.6381 156.426ZM99.1484 167.784C98.3564 168.096 97.7324 168.252 97.2764 168.252C96.8204 168.252 96.4184 168.198 96.0704 168.09C95.7344 167.982 95.4344 167.82 95.1704 167.604C94.6184 167.112 94.3424 166.434 94.3424 165.57V160.674H93.1184V159.252H94.3424V156.948H96.4664V159.252H98.8424V160.674H96.4664V165.498C96.4664 166.218 96.8084 166.578 97.4924 166.578C97.8404 166.578 98.2904 166.482 98.8424 166.29L99.1484 167.784ZM108.02 160.296C108.32 160.68 108.542 161.124 108.686 161.628C108.842 162.132 108.92 162.594 108.92 163.014C108.92 163.434 108.896 163.812 108.848 164.148H103.196C103.22 164.856 103.394 165.432 103.718 165.876C104.042 166.32 104.534 166.542 105.194 166.542C106.07 166.542 106.592 166.158 106.76 165.39H108.902C108.758 166.266 108.356 166.956 107.696 167.46C107.012 167.988 106.178 168.252 105.194 168.252C104.042 168.252 103.076 167.832 102.296 166.992C101.492 166.116 101.09 164.994 101.09 163.626C101.09 162.222 101.492 161.094 102.296 160.242C103.064 159.426 104.03 159.018 105.194 159.018C106.406 159.018 107.348 159.444 108.02 160.296ZM105.212 160.71C104.612 160.71 104.144 160.908 103.808 161.304C103.472 161.688 103.274 162.186 103.214 162.798H106.94C106.94 161.85 106.64 161.214 106.04 160.89C105.812 160.77 105.536 160.71 105.212 160.71ZM121.698 156.084C122.478 156.084 123.192 156.216 123.84 156.48C124.488 156.732 125.046 157.11 125.514 157.614C126.498 158.67 126.99 160.182 126.99 162.15C126.99 164.13 126.498 165.66 125.514 166.74C124.578 167.748 123.3 168.252 121.68 168.252C120.072 168.252 118.8 167.736 117.864 166.704C116.88 165.636 116.388 164.118 116.388 162.15C116.388 160.158 116.88 158.634 117.864 157.578C118.788 156.582 120.066 156.084 121.698 156.084ZM124.794 162.186C124.794 160.842 124.512 159.81 123.948 159.09C123.396 158.358 122.646 157.992 121.698 157.992C120.75 157.992 119.994 158.358 119.43 159.09C118.866 159.81 118.584 160.842 118.584 162.186C118.584 163.518 118.866 164.544 119.43 165.264C119.994 165.972 120.75 166.326 121.698 166.326C122.646 166.326 123.396 165.972 123.948 165.264C124.512 164.544 124.794 163.518 124.794 162.186ZM131.093 159.252L133.091 165.894L135.107 159.252H137.555L134.297 168H131.903L128.645 159.252H131.093ZM146.139 160.296C146.439 160.68 146.661 161.124 146.805 161.628C146.961 162.132 147.039 162.594 147.039 163.014C147.039 163.434 147.015 163.812 146.967 164.148H141.315C141.339 164.856 141.513 165.432 141.837 165.876C142.161 166.32 142.653 166.542 143.313 166.542C144.189 166.542 144.711 166.158 144.879 165.39H147.021C146.877 166.266 146.475 166.956 145.815 167.46C145.131 167.988 144.297 168.252 143.313 168.252C142.161 168.252 141.195 167.832 140.415 166.992C139.611 166.116 139.209 164.994 139.209 163.626C139.209 162.222 139.611 161.094 140.415 160.242C141.183 159.426 142.149 159.018 143.313 159.018C144.525 159.018 145.467 159.444 146.139 160.296ZM143.331 160.71C142.731 160.71 142.263 160.908 141.927 161.304C141.591 161.688 141.393 162.186 141.333 162.798H145.059C145.059 161.85 144.759 161.214 144.159 160.89C143.931 160.77 143.655 160.71 143.331 160.71ZM152.306 160.98C152.834 159.72 153.626 159.09 154.682 159.09C154.886 159.09 155.144 159.132 155.456 159.216L155.42 161.34C155.084 161.268 154.754 161.232 154.43 161.232C153.014 161.232 152.306 162.21 152.306 164.166V168H150.182V159.234H152.306V160.98ZM158.27 155.652H160.394V168H158.27V155.652ZM167.217 162.888C167.913 162.888 168.717 163.002 169.629 163.23V162.366C169.629 161.754 169.503 161.304 169.251 161.016C169.011 160.716 168.609 160.566 168.045 160.566C167.493 160.566 167.067 160.68 166.767 160.908C166.467 161.124 166.317 161.436 166.317 161.844H163.995C163.995 160.848 164.343 160.128 165.039 159.684C165.747 159.24 166.731 159.018 167.991 159.018C169.791 159.018 170.955 159.648 171.483 160.908C171.663 161.34 171.753 161.85 171.753 162.438V168H169.899L169.737 166.83C169.173 167.778 168.309 168.252 167.145 168.252C166.017 168.252 165.141 167.976 164.517 167.424C163.941 166.896 163.653 166.23 163.653 165.426C163.653 164.61 163.971 163.986 164.607 163.554C165.243 163.11 166.113 162.888 167.217 162.888ZM169.629 164.58C168.921 164.388 168.261 164.292 167.649 164.292C166.497 164.292 165.921 164.676 165.921 165.444C165.921 165.768 166.053 166.05 166.317 166.29C166.581 166.518 167.001 166.632 167.577 166.632C168.165 166.632 168.645 166.44 169.017 166.056C169.401 165.66 169.605 165.168 169.629 164.58ZM176.528 159.252L178.634 165.552L180.47 159.252H182.63L179.282 169.584C178.934 170.628 178.508 171.378 178.004 171.834C177.512 172.29 176.882 172.518 176.114 172.518C175.334 172.518 174.554 172.326 173.774 171.942V170.07C174.398 170.466 175.028 170.664 175.664 170.664C176.084 170.664 176.426 170.496 176.69 170.16C176.966 169.824 177.188 169.386 177.356 168.846L177.626 168L174.116 159.252H176.528Z" fill="#F1F1F1"/>
</svg>
