<svg width="210" height="212" viewBox="0 0 210 212" fill="none" xmlns="http://www.w3.org/2000/svg">
<circle cx="104.5" cy="66.5" r="66.5" fill="#F1F1F1"/>
<path d="M86.1665 190.62H84.0105L83.8145 192.566H82.7785L82.9745 190.62H81.5885L81.6585 189.864H83.0585L83.3245 187.372H81.9105L81.9945 186.63H83.3945L83.6045 184.698H84.6405L84.4305 186.63H86.5865L86.7965 184.698H87.8185L87.6085 186.63H89.0505L88.9665 187.372H87.5385L87.2725 189.864H88.7145L88.6305 190.62H87.1885L86.9925 192.566H85.9565L86.1665 190.62ZM84.0945 189.864H86.2365L86.5025 187.372H84.3605L84.0945 189.864ZM91.6378 184.194H96.9858V185.146H92.7438V188.072H96.6918V189.024H92.7438V193H91.6378V184.194ZM98.8516 184.88C99.477 184.796 100.023 184.558 100.49 184.166H101.386V193H100.294V185.482C99.827 185.781 99.3463 185.944 98.8516 185.972V184.88ZM104.814 184.194H110.162V185.146H105.92V188.072H109.868V189.024H105.92V193H104.814V184.194ZM112.028 184.88C112.654 184.796 113.2 184.558 113.666 184.166H114.562V193H113.47V185.482C113.004 185.781 112.523 185.944 112.028 185.972V184.88ZM117.991 184.194H123.339V185.146H119.097V188.072H123.045V189.024H119.097V193H117.991V184.194ZM125.205 184.88C125.83 184.796 126.376 184.558 126.843 184.166H127.739V193H126.647V185.482C126.18 185.781 125.699 185.944 125.205 185.972V184.88Z" fill="#BDBDBD"/>
<path d="M59.5548 156.318C61.3308 156.318 62.7648 156.846 63.8568 157.902C64.9608 158.958 65.5128 160.38 65.5128 162.168C65.5128 163.944 64.9608 165.36 63.8568 166.416C62.7648 167.472 61.3308 168 59.5548 168H55.7568V156.318H59.5548ZM57.8988 166.074H59.5548C60.6588 166.074 61.5528 165.702 62.2368 164.958C62.8848 164.238 63.2088 163.308 63.2088 162.168C63.2088 161.004 62.8848 160.062 62.2368 159.342C61.5648 158.61 60.6708 158.244 59.5548 158.244H57.8988V166.074ZM71.5946 162.888C72.2906 162.888 73.0946 163.002 74.0066 163.23V162.366C74.0066 161.754 73.8806 161.304 73.6286 161.016C73.3886 160.716 72.9866 160.566 72.4226 160.566C71.8706 160.566 71.4446 160.68 71.1446 160.908C70.8446 161.124 70.6946 161.436 70.6946 161.844H68.3726C68.3726 160.848 68.7206 160.128 69.4166 159.684C70.1246 159.24 71.1086 159.018 72.3686 159.018C74.1686 159.018 75.3326 159.648 75.8606 160.908C76.0406 161.34 76.1306 161.85 76.1306 162.438V168H74.2766L74.1146 166.83C73.5506 167.778 72.6866 168.252 71.5226 168.252C70.3946 168.252 69.5186 167.976 68.8946 167.424C68.3186 166.896 68.0306 166.23 68.0306 165.426C68.0306 164.61 68.3486 163.986 68.9846 163.554C69.6206 163.11 70.4906 162.888 71.5946 162.888ZM74.0066 164.58C73.2986 164.388 72.6386 164.292 72.0266 164.292C70.8746 164.292 70.2986 164.676 70.2986 165.444C70.2986 165.768 70.4306 166.05 70.6946 166.29C70.9586 166.518 71.3786 166.632 71.9546 166.632C72.5426 166.632 73.0226 166.44 73.3946 166.056C73.7786 165.66 73.9826 165.168 74.0066 164.58ZM81.9503 160.98C82.4783 159.72 83.2703 159.09 84.3263 159.09C84.5303 159.09 84.7883 159.132 85.1003 159.216L85.0643 161.34C84.7283 161.268 84.3983 161.232 84.0743 161.232C82.6583 161.232 81.9503 162.21 81.9503 164.166V168H79.8263V159.234H81.9503V160.98ZM91.0106 163.734L90.0386 164.544V168H87.9146V155.652H90.0386V162.33L93.4946 159.252H96.3746L92.5046 162.492L96.5906 168H93.9986L91.0106 163.734ZM105.083 156.318L107.657 165.192L110.159 157.092H111.599L114.245 165.228L116.981 156.318H119.375L115.361 168H113.129L110.933 161.412L108.755 168H106.523L102.707 156.318H105.083ZM124.13 160.674C124.73 159.57 125.606 159.018 126.758 159.018C127.91 159.018 128.756 159.372 129.296 160.08C129.848 160.788 130.124 161.724 130.124 162.888V168H128V162.888C128 162.24 127.844 161.754 127.532 161.43C127.22 161.094 126.782 160.926 126.218 160.926C125.654 160.926 125.168 161.178 124.76 161.682C124.364 162.186 124.154 162.942 124.13 163.95V168H122.006V155.652H124.13V160.674ZM134 159.234H136.124V168H134V159.234ZM133.748 156.426C133.748 156.042 133.862 155.742 134.09 155.526C134.318 155.298 134.642 155.184 135.062 155.184C135.47 155.184 135.788 155.298 136.016 155.526C136.256 155.742 136.376 156.042 136.376 156.426C136.376 156.81 136.256 157.116 136.016 157.344C135.788 157.56 135.47 157.668 135.062 157.668C134.642 157.668 134.318 157.56 134.09 157.344C133.862 157.116 133.748 156.81 133.748 156.426ZM145.259 167.784C144.467 168.096 143.843 168.252 143.387 168.252C142.931 168.252 142.529 168.198 142.181 168.09C141.845 167.982 141.545 167.82 141.281 167.604C140.729 167.112 140.453 166.434 140.453 165.57V160.674H139.229V159.252H140.453V156.948H142.577V159.252H144.953V160.674H142.577V165.498C142.577 166.218 142.919 166.578 143.603 166.578C143.951 166.578 144.401 166.482 144.953 166.29L145.259 167.784ZM154.13 160.296C154.43 160.68 154.652 161.124 154.796 161.628C154.952 162.132 155.03 162.594 155.03 163.014C155.03 163.434 155.006 163.812 154.958 164.148H149.306C149.33 164.856 149.504 165.432 149.828 165.876C150.152 166.32 150.644 166.542 151.304 166.542C152.18 166.542 152.702 166.158 152.87 165.39H155.012C154.868 166.266 154.466 166.956 153.806 167.46C153.122 167.988 152.288 168.252 151.304 168.252C150.152 168.252 149.186 167.832 148.406 166.992C147.602 166.116 147.2 164.994 147.2 163.626C147.2 162.222 147.602 161.094 148.406 160.242C149.174 159.426 150.14 159.018 151.304 159.018C152.516 159.018 153.458 159.444 154.13 160.296ZM151.322 160.71C150.722 160.71 150.254 160.908 149.918 161.304C149.582 161.688 149.384 162.186 149.324 162.798H153.05C153.05 161.85 152.75 161.214 152.15 160.89C151.922 160.77 151.646 160.71 151.322 160.71Z" fill="#F1F1F1"/>
</svg>
