<svg width="297" height="407" viewBox="0 0 297 407" fill="none" xmlns="http://www.w3.org/2000/svg">
<path fill-rule="evenodd" clip-rule="evenodd" d="M20.8337 389.782C27.6062 389.782 33.1486 395.292 33.6755 402.29C38.1788 401.944 41.2067 401.579 41.2067 401.579C41.2067 401.579 30.534 406.141 20.6972 406.141C10.8605 406.141 1 401.579 1 401.579L1.01098 401.581C1.01463 401.581 1.01918 401.582 1.02463 401.583L1.06803 401.589C1.51631 401.656 4.1472 402.039 7.98474 402.373C8.47461 395.335 14.0341 389.782 20.8337 389.782ZM20.8337 391.126C14.704 391.126 9.69398 396.132 9.25473 402.477C11.1922 402.629 13.3778 402.76 15.7074 402.833L15.7063 402.782L15.7056 402.698C15.7056 399.865 17.9553 397.567 20.7303 397.567C23.5064 397.567 25.7553 399.865 25.7553 402.698C25.7553 402.717 25.7552 402.737 25.755 402.756C28.1322 402.661 30.3881 402.527 32.4046 402.384C31.9234 396.083 26.9328 391.126 20.8337 391.126Z" fill="#F1F1F1"/>
<path fill-rule="evenodd" clip-rule="evenodd" d="M50.268 390.452C49.8114 390.452 49.707 390.603 49.707 390.872V405.81H52.3075C54.8668 405.81 56.3658 403.77 56.3658 397.165C56.3658 392.011 55.0123 390.452 52.2869 390.452H50.268ZM54.4288 397.165C54.4288 403.242 53.414 404.123 52.328 404.123L51.3897 404.103V392.099H52.3482C53.7451 392.099 54.4288 393.107 54.4288 397.165ZM63.7536 404.21V398.284H66.5605C66.8742 398.284 66.8742 397.976 66.8742 396.642H63.7536V392.055H67.0627C67.3941 392.055 67.3941 391.879 67.3941 390.452H62.4C62.0686 390.452 62.0455 390.804 62.0455 390.804V405.81H66.9789C67.31 405.81 67.31 405.701 67.31 404.21H63.7536ZM73.324 390.452H73.199C72.8471 390.452 72.8471 390.804 72.8471 390.804V405.81C74.5731 405.81 74.5529 405.81 74.5529 405.438V399.58H75.2816C75.4042 399.58 75.5314 399.58 75.6563 399.556C76.1739 400.26 77.1527 402.078 77.3823 405.81C77.7568 405.834 78.1931 405.854 78.4632 405.854C79.1716 405.854 79.2332 405.746 79.2332 405.394C79.0242 401.952 77.9228 399.996 77.2754 399.096C78.3406 398.461 79.0904 397.126 79.0904 394.794C79.0904 391.747 77.8817 390.452 75.259 390.452H73.324ZM77.2138 394.578C77.2138 397.033 76.6123 397.938 75.4475 397.938C75.2816 397.938 74.698 397.889 74.5529 397.889V392.055C74.6778 392.031 75.0118 392.011 75.5722 392.011C76.8011 392.011 77.2138 393.018 77.2138 394.578ZM95.5691 404.142H99.1483V405.438C99.1483 405.438 99.1483 405.81 98.8118 405.81H93.8608V390.96C93.8608 390.452 93.9018 390.452 95.5691 390.452V404.142ZM104.619 405.81C106.307 405.81 106.327 405.81 106.327 405.438C106.327 405.438 106.307 402.059 106.307 398.133C106.307 394.794 106.327 390.452 106.327 390.452C104.64 390.452 104.619 390.452 104.619 391.263C104.619 391.263 104.64 394.774 104.64 398.133C104.64 402.059 104.619 405.81 104.619 405.81ZM118.102 405.81H119.375C119.726 405.81 119.726 405.438 119.726 405.438V390.452C118 390.452 118.044 390.452 118.044 390.804V395.982C118.044 397.013 118.082 401.184 118.227 402.499V402.563C117.728 400.92 116.667 397.517 116.252 396.378L113.919 390.452H112.629C112.277 390.452 112.277 390.804 112.277 390.804V405.81C114.006 405.81 113.983 405.81 113.983 405.438V400.128C113.983 399.184 113.878 394.994 113.756 393.571C114.276 395.277 115.357 398.793 115.731 399.776L118.102 405.81ZM128.76 390.124C126.573 390.124 125.325 391.332 125.325 393.39C125.325 394.315 125.676 395.214 126.426 396.202L128.76 399.272C129.631 400.348 129.922 401.071 129.922 402.04C129.922 403.419 129.275 404.318 127.964 404.318C126.885 404.318 126.176 403.966 125.763 403.55C125.49 403.966 125.302 404.777 125.302 405.022C125.302 405.394 126.135 406.142 128.03 406.142C130.921 406.142 131.752 404.23 131.752 401.971C131.752 400.656 131.442 399.668 130.611 398.636L128.112 395.39C127.486 394.603 127.155 393.987 127.155 393.263C127.155 392.251 127.944 391.703 129.173 391.703C130.131 391.703 130.942 392.011 131.212 392.251C131.523 391.791 131.63 391.351 131.63 391.024C131.63 390.76 130.881 390.124 128.76 390.124ZM139.013 404.21V398.284H141.822C142.139 398.284 142.139 397.976 142.139 396.642H139.013V392.055H142.322C142.653 392.055 142.653 391.879 142.653 390.452H137.662C137.33 390.452 137.31 390.804 137.31 390.804V405.81H142.24C142.572 405.81 142.572 405.701 142.572 404.21H139.013ZM153.931 405.81H155.206C155.558 405.81 155.558 405.438 155.558 405.438V390.452C153.83 390.452 153.875 390.452 153.875 390.804V395.982C153.875 397.013 153.911 401.184 154.059 402.499V402.563C153.56 400.92 152.499 397.517 152.081 396.378L149.751 390.452H148.461C148.109 390.452 148.109 390.804 148.109 390.804V405.81C149.832 405.81 149.812 405.81 149.812 405.438V400.128C149.812 399.184 149.71 394.994 149.582 393.571C150.107 395.277 151.188 398.793 151.56 399.776L153.931 405.81ZM161.987 390.452H161.86C161.508 390.452 161.508 390.804 161.508 390.804V405.81C163.236 405.81 163.211 405.81 163.211 405.438V399.58H163.94C166.005 399.58 167.749 398.397 167.749 394.794C167.749 391.747 166.545 390.452 163.92 390.452H161.987ZM165.877 394.578C165.877 397.033 165.276 397.938 164.108 397.938C163.94 397.938 163.359 397.889 163.211 397.889V392.055C163.338 392.031 163.675 392.011 164.236 392.011C165.46 392.011 165.877 393.018 165.877 394.578ZM177.987 405.81C178.405 405.854 178.736 405.854 178.986 405.854C179.654 405.854 179.776 405.721 179.715 405.482L175.993 390.452C175.804 390.408 175.489 390.388 175.203 390.388C174.948 390.388 174.596 390.476 174.555 390.691L170.854 405.79C171.246 405.834 171.685 405.854 171.909 405.854C172.577 405.854 172.638 405.746 172.704 405.506L173.515 401.908H177.074L177.987 405.81ZM174.616 397.165C174.928 395.698 175.223 394.51 175.305 393.459C175.386 394.51 175.657 395.718 175.993 397.165L176.697 400.285H173.892L174.616 397.165ZM189.994 392.119C189.994 392.119 190.351 392.119 190.351 391.747V390.452H183.274C183.274 390.452 182.922 390.452 182.922 390.804V392.119H185.752V405.81C187.455 405.81 187.434 405.81 187.434 405.462V392.119H189.994ZM197.3 404.21V398.284H200.11C200.421 398.284 200.421 397.976 200.421 396.642H197.3V392.055H200.604C200.94 392.055 200.94 391.879 200.94 390.452H195.944C195.612 390.452 195.592 390.804 195.592 390.804V405.81H200.523C200.859 405.81 200.859 405.701 200.859 404.21H197.3Z" fill="#F1F1F1"/>
<path fill-rule="evenodd" clip-rule="evenodd" d="M33.064 309.782C44.0127 309.782 52.9729 318.875 53.8247 330.425C61.1049 329.855 66 329.252 66 329.252C66 329.252 48.746 336.782 32.8434 336.782C16.941 336.782 1 329.252 1 329.252L1.01775 329.255C1.02365 329.256 1.03101 329.257 1.03982 329.258L1.10998 329.269C1.83469 329.38 6.0879 330.012 12.2918 330.562C13.0838 318.947 22.0716 309.782 33.064 309.782ZM33.064 312C23.1545 312 15.0551 320.262 14.345 330.735C17.4771 330.985 21.0106 331.202 24.7767 331.322L24.7748 331.238L24.7737 331.099C24.7737 326.423 28.4107 322.631 32.8969 322.631C37.3848 322.631 41.0206 326.423 41.0206 331.099C41.0206 331.131 41.0204 331.163 41.0201 331.195C44.8631 331.038 48.51 330.818 51.7701 330.581C50.9921 320.181 42.9241 312 33.064 312Z" fill="#F1F1F1"/>
<path fill-rule="evenodd" clip-rule="evenodd" d="M80.8012 311.274C80.1491 311.274 80 311.5 80 311.903V334.284H83.7141C87.3695 334.284 89.5105 331.229 89.5105 321.332C89.5105 313.61 87.5773 311.274 83.6848 311.274H80.8012ZM86.7439 321.332C86.7439 330.438 85.2946 331.757 83.7434 331.757L82.4033 331.728V313.742H83.7723C85.7675 313.742 86.7439 315.251 86.7439 321.332ZM100.062 331.888V323.009H104.071C104.519 323.009 104.519 322.548 104.519 320.548H100.062V313.676H104.788C105.262 313.676 105.262 313.412 105.262 311.274H98.1289C97.6556 311.274 97.6226 311.801 97.6226 311.801V334.284H104.669C105.142 334.284 105.142 334.122 105.142 331.888H100.062ZM113.731 311.274H113.553C113.05 311.274 113.05 311.801 113.05 311.801V334.284C115.515 334.284 115.486 334.284 115.486 333.727V324.951H116.527C116.702 324.951 116.884 324.951 117.062 324.914C117.802 325.969 119.2 328.694 119.527 334.284C120.062 334.32 120.686 334.35 121.071 334.35C122.083 334.35 122.171 334.189 122.171 333.661C121.872 328.504 120.299 325.573 119.375 324.226C120.896 323.273 121.967 321.274 121.967 317.779C121.967 313.215 120.241 311.274 116.495 311.274H113.731ZM119.287 317.456C119.287 321.134 118.428 322.489 116.764 322.489C116.527 322.489 115.694 322.416 115.486 322.416V313.676C115.665 313.64 116.142 313.61 116.942 313.61C118.697 313.61 119.287 315.119 119.287 317.456ZM145.503 331.786H150.615V333.727C150.615 333.727 150.615 334.284 150.134 334.284H143.063V312.035C143.063 311.274 143.122 311.274 145.503 311.274V331.786ZM158.429 334.284C160.839 334.284 160.868 334.284 160.868 333.727C160.868 333.727 160.839 328.665 160.839 322.782C160.839 317.779 160.868 311.274 160.868 311.274C158.458 311.274 158.429 311.274 158.429 312.489C158.429 312.489 158.458 317.749 158.458 322.782C158.458 328.665 158.429 334.284 158.429 334.284ZM177.686 334.284H179.503C180.005 334.284 180.005 333.727 180.005 333.727V311.274C177.541 311.274 177.602 311.274 177.602 311.801V319.559C177.602 321.105 177.657 327.354 177.864 329.324V329.419C177.151 326.958 175.636 321.86 175.043 320.152L171.711 311.274H169.869C169.366 311.274 169.366 311.801 169.366 311.801V334.284C171.835 334.284 171.802 334.284 171.802 333.727V325.771C171.802 324.357 171.653 318.079 171.478 315.947C172.221 318.504 173.765 323.772 174.3 325.244L177.686 334.284ZM192.908 310.782C189.785 310.782 188.001 312.592 188.001 315.676C188.001 317.061 188.504 318.409 189.574 319.889L192.908 324.49C194.153 326.101 194.568 327.185 194.568 328.636C194.568 330.702 193.643 332.05 191.772 332.05C190.23 332.05 189.217 331.522 188.628 330.899C188.238 331.522 187.968 332.738 187.968 333.105C187.968 333.661 189.159 334.782 191.866 334.782C195.995 334.782 197.182 331.918 197.182 328.533C197.182 326.562 196.738 325.083 195.551 323.536L191.983 318.672C191.089 317.492 190.615 316.57 190.615 315.486C190.615 313.97 191.743 313.149 193.498 313.149C194.866 313.149 196.024 313.61 196.41 313.97C196.854 313.28 197.008 312.621 197.008 312.13C197.008 311.735 195.937 310.782 192.908 310.782ZM207.552 331.888V323.009H211.564C212.016 323.009 212.016 322.548 212.016 320.548H207.552V313.676H212.278C212.752 313.676 212.752 313.412 212.752 311.274H205.622C205.149 311.274 205.12 311.801 205.12 311.801V334.284H212.161C212.635 334.284 212.635 334.122 212.635 331.888H207.552ZM228.859 334.284H230.68C231.182 334.284 231.182 333.727 231.182 333.727V311.274C228.714 311.274 228.779 311.274 228.779 311.801V319.559C228.779 321.105 228.83 327.354 229.042 329.324V329.419C228.328 326.958 226.813 321.86 226.216 320.152L222.888 311.274H221.046C220.543 311.274 220.543 311.801 220.543 311.801V334.284C223.004 334.284 222.975 334.284 222.975 333.727V325.771C222.975 324.357 222.83 318.079 222.648 315.947C223.398 318.504 224.941 323.772 225.473 325.244L228.859 334.284ZM240.365 311.274H240.183C239.681 311.274 239.681 311.801 239.681 311.801V334.284C242.149 334.284 242.113 334.284 242.113 333.727V324.951H243.154C246.103 324.951 248.594 323.178 248.594 317.779C248.594 313.215 246.875 311.274 243.125 311.274H240.365ZM245.921 317.456C245.921 321.134 245.062 322.489 243.395 322.489C243.154 322.489 242.325 322.416 242.113 322.416V313.676C242.295 313.64 242.775 313.61 243.576 313.61C245.325 313.61 245.921 315.119 245.921 317.456ZM263.216 334.284C263.814 334.35 264.287 334.35 264.644 334.35C265.598 334.35 265.772 334.152 265.685 333.793L260.369 311.274C260.099 311.207 259.649 311.178 259.24 311.178C258.877 311.178 258.374 311.31 258.316 311.632L253.029 334.255C253.589 334.32 254.215 334.35 254.536 334.35C255.49 334.35 255.577 334.189 255.672 333.83L256.83 328.438H261.913L263.216 334.284ZM258.403 321.332C258.847 319.134 259.27 317.354 259.386 315.779C259.503 317.354 259.888 319.163 260.369 321.332L261.374 326.006H257.369L258.403 321.332ZM280.366 313.771C280.366 313.771 280.876 313.771 280.876 313.215V311.274H270.768C270.768 311.274 270.266 311.274 270.266 311.801V313.771H274.307V334.284C276.739 334.284 276.71 334.284 276.71 333.764V313.771H280.366ZM290.801 331.888V323.009H294.814C295.258 323.009 295.258 322.548 295.258 320.548H290.801V313.676H295.52C296 313.676 296 313.412 296 311.274H288.864C288.391 311.274 288.361 311.801 288.361 311.801V334.284H295.404C295.884 334.284 295.884 334.122 295.884 331.888H290.801Z" fill="#F1F1F1"/>
<path fill-rule="evenodd" clip-rule="evenodd" d="M33.064 211.782C44.0127 211.782 52.9729 220.875 53.8247 232.425C61.1049 231.855 66 231.252 66 231.252C66 231.252 48.746 238.782 32.8434 238.782C16.941 238.782 1 231.252 1 231.252L1.01775 231.255C1.02365 231.256 1.03101 231.257 1.03982 231.258L1.10998 231.269C1.83469 231.38 6.0879 232.012 12.2918 232.562C13.0838 220.947 22.0716 211.782 33.064 211.782ZM33.064 214C23.1545 214 15.0551 222.262 14.345 232.735C17.4771 232.985 21.0106 233.202 24.7767 233.322L24.7748 233.238L24.7737 233.099C24.7737 228.423 28.4107 224.631 32.8969 224.631C37.3848 224.631 41.0206 228.423 41.0206 233.099C41.0206 233.131 41.0204 233.163 41.0201 233.195C44.8631 233.038 48.51 232.818 51.7701 232.581C50.9921 222.181 42.9241 214 33.064 214Z" fill="#F1F1F1"/>
<path fill-rule="evenodd" clip-rule="evenodd" d="M80.8012 213.274C80.1491 213.274 80 213.5 80 213.903V236.284H83.7141C87.3695 236.284 89.5105 233.229 89.5105 223.332C89.5105 215.61 87.5773 213.274 83.6848 213.274H80.8012ZM86.7439 223.332C86.7439 232.438 85.2946 233.757 83.7434 233.757L82.4033 233.728V215.742H83.7723C85.7675 215.742 86.7439 217.251 86.7439 223.332ZM100.062 233.888V225.009H104.071C104.519 225.009 104.519 224.548 104.519 222.548H100.062V215.676H104.788C105.262 215.676 105.262 215.412 105.262 213.274H98.1289C97.6556 213.274 97.6226 213.801 97.6226 213.801V236.284H104.669C105.142 236.284 105.142 236.122 105.142 233.888H100.062ZM113.731 213.274H113.553C113.05 213.274 113.05 213.801 113.05 213.801V236.284C115.515 236.284 115.486 236.284 115.486 235.727V226.951H116.527C116.702 226.951 116.884 226.951 117.062 226.914C117.802 227.969 119.2 230.694 119.527 236.284C120.062 236.32 120.686 236.35 121.071 236.35C122.083 236.35 122.171 236.189 122.171 235.661C121.872 230.504 120.299 227.573 119.375 226.226C120.896 225.273 121.967 223.274 121.967 219.779C121.967 215.215 120.241 213.274 116.495 213.274H113.731ZM119.287 219.456C119.287 223.134 118.428 224.489 116.764 224.489C116.527 224.489 115.694 224.416 115.486 224.416V215.676C115.665 215.64 116.142 215.61 116.942 215.61C118.697 215.61 119.287 217.119 119.287 219.456ZM145.503 233.786H150.615V235.727C150.615 235.727 150.615 236.284 150.134 236.284H143.063V214.035C143.063 213.274 143.122 213.274 145.503 213.274V233.786ZM158.429 236.284C160.839 236.284 160.868 236.284 160.868 235.727C160.868 235.727 160.839 230.665 160.839 224.782C160.839 219.779 160.868 213.274 160.868 213.274C158.458 213.274 158.429 213.274 158.429 214.489C158.429 214.489 158.458 219.749 158.458 224.782C158.458 230.665 158.429 236.284 158.429 236.284ZM177.686 236.284H179.503C180.005 236.284 180.005 235.727 180.005 235.727V213.274C177.541 213.274 177.602 213.274 177.602 213.801V221.559C177.602 223.105 177.657 229.354 177.864 231.324V231.419C177.151 228.958 175.636 223.86 175.043 222.152L171.711 213.274H169.869C169.366 213.274 169.366 213.801 169.366 213.801V236.284C171.835 236.284 171.802 236.284 171.802 235.727V227.771C171.802 226.357 171.653 220.079 171.478 217.947C172.221 220.504 173.765 225.772 174.3 227.244L177.686 236.284ZM192.908 212.782C189.785 212.782 188.001 214.592 188.001 217.676C188.001 219.061 188.504 220.409 189.574 221.889L192.908 226.49C194.153 228.101 194.568 229.185 194.568 230.636C194.568 232.702 193.643 234.05 191.772 234.05C190.23 234.05 189.217 233.522 188.628 232.899C188.238 233.522 187.968 234.738 187.968 235.105C187.968 235.661 189.159 236.782 191.866 236.782C195.995 236.782 197.182 233.918 197.182 230.533C197.182 228.562 196.738 227.083 195.551 225.536L191.983 220.672C191.089 219.492 190.615 218.57 190.615 217.486C190.615 215.97 191.743 215.149 193.498 215.149C194.866 215.149 196.024 215.61 196.41 215.97C196.854 215.28 197.008 214.621 197.008 214.13C197.008 213.735 195.937 212.782 192.908 212.782ZM207.552 233.888V225.009H211.564C212.016 225.009 212.016 224.548 212.016 222.548H207.552V215.676H212.278C212.752 215.676 212.752 215.412 212.752 213.274H205.622C205.149 213.274 205.12 213.801 205.12 213.801V236.284H212.161C212.635 236.284 212.635 236.122 212.635 233.888H207.552ZM228.859 236.284H230.68C231.182 236.284 231.182 235.727 231.182 235.727V213.274C228.714 213.274 228.779 213.274 228.779 213.801V221.559C228.779 223.105 228.83 229.354 229.042 231.324V231.419C228.328 228.958 226.813 223.86 226.216 222.152L222.888 213.274H221.046C220.543 213.274 220.543 213.801 220.543 213.801V236.284C223.004 236.284 222.975 236.284 222.975 235.727V227.771C222.975 226.357 222.83 220.079 222.648 217.947C223.398 220.504 224.941 225.772 225.473 227.244L228.859 236.284ZM240.365 213.274H240.183C239.681 213.274 239.681 213.801 239.681 213.801V236.284C242.149 236.284 242.113 236.284 242.113 235.727V226.951H243.154C246.103 226.951 248.594 225.178 248.594 219.779C248.594 215.215 246.875 213.274 243.125 213.274H240.365ZM245.921 219.456C245.921 223.134 245.062 224.489 243.395 224.489C243.154 224.489 242.325 224.416 242.113 224.416V215.676C242.295 215.64 242.775 215.61 243.576 215.61C245.325 215.61 245.921 217.119 245.921 219.456ZM263.216 236.284C263.814 236.35 264.287 236.35 264.644 236.35C265.598 236.35 265.772 236.152 265.685 235.793L260.369 213.274C260.099 213.207 259.649 213.178 259.24 213.178C258.877 213.178 258.374 213.31 258.316 213.632L253.029 236.255C253.589 236.32 254.215 236.35 254.536 236.35C255.49 236.35 255.577 236.189 255.672 235.83L256.83 230.438H261.913L263.216 236.284ZM258.403 223.332C258.847 221.134 259.27 219.354 259.386 217.779C259.503 219.354 259.888 221.163 260.369 223.332L261.374 228.006H257.369L258.403 223.332ZM280.366 215.771C280.366 215.771 280.876 215.771 280.876 215.215V213.274H270.768C270.768 213.274 270.266 213.274 270.266 213.801V215.771H274.307V236.284C276.739 236.284 276.71 236.284 276.71 235.764V215.771H280.366ZM290.801 233.888V225.009H294.814C295.258 225.009 295.258 224.548 295.258 222.548H290.801V215.676H295.52C296 215.676 296 215.412 296 213.274H288.864C288.391 213.274 288.361 213.801 288.361 213.801V236.284H295.404C295.884 236.284 295.884 236.122 295.884 233.888H290.801Z" fill="#F1F1F1"/>
<path d="M81.2908 244.102V249.65C81.2908 250.459 81.4932 251.043 81.898 251.402C82.3028 251.761 82.8364 251.94 83.4988 251.94C84.1612 251.94 84.6948 251.761 85.0996 251.402C85.5044 251.043 85.7068 250.459 85.7068 249.65V244.102H86.797V249.65C86.797 250.735 86.498 251.554 85.9 252.106C85.302 252.658 84.497 252.934 83.485 252.934C82.4822 252.934 81.6818 252.658 81.0838 252.106C80.495 251.554 80.2006 250.735 80.2006 249.65V244.102H81.2908ZM90.8719 247.455C91.3043 246.499 92.0449 246.02 93.0937 246.02C93.8757 246.02 94.4829 246.278 94.9153 246.793C95.3569 247.308 95.5777 248.012 95.5777 248.904V252.782H94.5013V248.904C94.5013 248.27 94.3495 247.791 94.0459 247.469C93.7515 247.147 93.3283 246.986 92.7763 246.986C92.2243 246.986 91.7781 247.212 91.4377 247.662C91.0973 248.113 90.9179 248.739 90.8995 249.539V252.782H89.8093V246.186H90.7477L90.8719 247.455ZM98.1931 247.8C98.1931 247.258 98.4231 246.825 98.8831 246.503C99.3523 246.181 99.9825 246.02 100.774 246.02C101.565 246.02 102.181 246.186 102.623 246.517C103.074 246.848 103.308 247.267 103.327 247.773H102.264C102.181 247.175 101.675 246.876 100.746 246.876C100.295 246.876 99.9457 246.977 99.6973 247.179C99.4581 247.382 99.3385 247.603 99.3385 247.842C99.3385 248.072 99.4305 248.27 99.6145 248.435C99.7985 248.592 100.093 248.73 100.498 248.849L101.823 249.291C102.384 249.466 102.812 249.691 103.106 249.967C103.41 250.234 103.561 250.606 103.561 251.085C103.561 251.554 103.318 251.982 102.83 252.368C102.342 252.745 101.662 252.934 100.788 252.934C99.9135 252.934 99.2327 252.741 98.7451 252.354C98.2575 251.959 97.9999 251.453 97.9723 250.836H99.0211C99.0395 251.25 99.2051 251.563 99.5179 251.775C99.8399 251.977 100.24 252.078 100.719 252.078C101.197 252.078 101.593 251.977 101.905 251.775C102.218 251.572 102.375 251.333 102.375 251.057C102.375 250.772 102.283 250.556 102.099 250.409C101.915 250.261 101.616 250.133 101.202 250.022L99.9181 249.594C98.7681 249.254 98.1931 248.656 98.1931 247.8ZM108.396 246.02C109.178 246.02 109.799 246.223 110.259 246.627C110.719 247.023 111.018 247.52 111.156 248.118L110.052 248.214C109.933 247.828 109.739 247.529 109.473 247.317C109.206 247.097 108.911 246.986 108.589 246.986C108.001 246.986 107.522 247.207 107.154 247.649C106.795 248.09 106.616 248.693 106.616 249.456C106.616 250.211 106.791 250.818 107.14 251.278C107.499 251.738 107.941 251.968 108.465 251.968C108.999 251.968 109.394 251.848 109.652 251.609C109.919 251.361 110.052 251.011 110.052 250.56H111.17C111.17 251.269 110.922 251.844 110.425 252.285C109.937 252.718 109.298 252.934 108.507 252.934C107.669 252.934 106.956 252.617 106.368 251.982C105.788 251.347 105.498 250.505 105.498 249.456C105.498 248.398 105.788 247.561 106.368 246.945C106.947 246.328 107.623 246.02 108.396 246.02ZM114.794 247.4C115.236 246.48 115.967 246.02 116.989 246.02C117.771 246.02 118.378 246.278 118.81 246.793C119.252 247.308 119.473 248.012 119.473 248.904V252.782H118.396V248.904C118.396 248.27 118.244 247.791 117.941 247.469C117.646 247.147 117.219 246.986 116.657 246.986C116.096 246.986 115.645 247.225 115.305 247.704C114.965 248.173 114.794 248.826 114.794 249.663V252.782H113.704V243.384H114.794V247.4ZM122.433 243.384H123.523V252.782H122.433V243.384ZM130.785 248.504C130.785 247.906 130.661 247.478 130.413 247.221C130.164 246.963 129.801 246.834 129.322 246.834C128.853 246.834 128.471 246.931 128.177 247.124C127.892 247.308 127.749 247.603 127.749 248.007H126.549C126.549 246.995 127.091 246.37 128.177 246.131C128.508 246.057 128.867 246.02 129.253 246.02C130.072 246.02 130.712 246.227 131.172 246.641C131.632 247.055 131.862 247.685 131.862 248.532V252.782H130.923L130.813 251.678C130.408 252.515 129.677 252.934 128.619 252.934C127.91 252.934 127.34 252.736 126.907 252.341C126.484 251.945 126.273 251.453 126.273 250.864C126.273 250.275 126.507 249.815 126.976 249.484C127.455 249.153 128.048 248.987 128.757 248.987C129.465 248.987 130.141 249.107 130.785 249.346V248.504ZM130.785 250.036C130.132 249.852 129.562 249.76 129.074 249.76C128.586 249.76 128.191 249.847 127.887 250.022C127.584 250.197 127.432 250.473 127.432 250.85C127.432 251.678 127.901 252.092 128.839 252.092C129.373 252.092 129.828 251.904 130.206 251.526C130.592 251.14 130.785 250.643 130.785 250.036ZM135.099 252.575C134.547 252.308 134.271 251.899 134.271 251.347C134.271 251.062 134.376 250.813 134.588 250.602C134.809 250.381 135.08 250.234 135.402 250.16C134.905 249.719 134.657 249.139 134.657 248.421C134.657 247.704 134.91 247.124 135.416 246.683C135.931 246.241 136.538 246.02 137.238 246.02C137.937 246.02 138.53 246.186 139.018 246.517C139.082 246.029 139.275 245.638 139.597 245.344C139.929 245.05 140.361 244.902 140.895 244.902L140.798 245.979C139.988 245.979 139.565 246.319 139.528 247C139.85 247.396 140.011 247.869 140.011 248.421C140.011 249.13 139.754 249.714 139.239 250.174C138.733 250.625 138.098 250.85 137.334 250.85C136.81 250.85 136.345 250.744 135.94 250.533C135.756 250.57 135.591 250.657 135.444 250.795C135.296 250.924 135.223 251.103 135.223 251.333C135.223 251.821 135.628 252.065 136.437 252.065H139.004C139.62 252.065 140.108 252.198 140.467 252.465C140.826 252.722 141.005 253.086 141.005 253.555C141.005 254.254 140.651 254.866 139.942 255.39C139.243 255.915 138.355 256.177 137.279 256.177C136.203 256.177 135.356 255.975 134.74 255.57C134.123 255.174 133.815 254.673 133.815 254.066C133.815 253.67 133.93 253.348 134.16 253.1C134.399 252.851 134.712 252.676 135.099 252.575ZM134.892 254.024C134.892 254.374 135.08 254.673 135.457 254.921C135.844 255.179 136.423 255.308 137.196 255.308C137.978 255.308 138.627 255.137 139.142 254.797C139.666 254.466 139.929 254.075 139.929 253.624C139.929 253.412 139.85 253.228 139.694 253.072C139.547 252.925 139.317 252.851 139.004 252.851H136.341C135.871 252.87 135.513 252.98 135.264 253.182C135.016 253.394 134.892 253.675 134.892 254.024ZM138.949 248.421C138.949 247.943 138.806 247.557 138.521 247.262C138.236 246.959 137.84 246.807 137.334 246.807C136.837 246.807 136.446 246.959 136.161 247.262C135.876 247.557 135.733 247.943 135.733 248.421C135.733 248.9 135.876 249.295 136.161 249.608C136.456 249.912 136.851 250.064 137.348 250.064C137.845 250.064 138.236 249.907 138.521 249.594C138.806 249.282 138.949 248.891 138.949 248.421ZM144.116 247.166C144.557 246.402 145.201 246.02 146.048 246.02C146.894 246.02 147.598 246.338 148.159 246.972C148.72 247.598 149.001 248.431 149.001 249.47C149.001 250.501 148.716 251.338 148.145 251.982C147.575 252.617 146.88 252.934 146.061 252.934C145.62 252.934 145.22 252.824 144.861 252.603C144.511 252.382 144.235 252.055 144.033 251.623L143.784 252.782H143.025V243.384H144.116V247.166ZM145.979 246.986C145.454 246.986 145.017 247.156 144.668 247.497C144.318 247.828 144.134 248.293 144.116 248.891V249.967C144.116 250.574 144.295 251.062 144.654 251.43C145.022 251.789 145.463 251.968 145.979 251.968C146.494 251.968 146.94 251.743 147.317 251.292C147.694 250.832 147.883 250.225 147.883 249.47C147.883 248.716 147.694 248.113 147.317 247.662C146.949 247.212 146.503 246.986 145.979 246.986ZM155.569 248.504C155.569 247.906 155.445 247.478 155.197 247.221C154.948 246.963 154.585 246.834 154.106 246.834C153.637 246.834 153.255 246.931 152.961 247.124C152.676 247.308 152.533 247.603 152.533 248.007H151.333C151.333 246.995 151.875 246.37 152.961 246.131C153.292 246.057 153.651 246.02 154.037 246.02C154.856 246.02 155.496 246.227 155.956 246.641C156.416 247.055 156.646 247.685 156.646 248.532V252.782H155.707L155.597 251.678C155.192 252.515 154.461 252.934 153.403 252.934C152.694 252.934 152.124 252.736 151.691 252.341C151.268 251.945 151.057 251.453 151.057 250.864C151.057 250.275 151.291 249.815 151.76 249.484C152.239 249.153 152.832 248.987 153.541 248.987C154.249 248.987 154.925 249.107 155.569 249.346V248.504ZM155.569 250.036C154.916 249.852 154.346 249.76 153.858 249.76C153.37 249.76 152.975 249.847 152.671 250.022C152.368 250.197 152.216 250.473 152.216 250.85C152.216 251.678 152.685 252.092 153.623 252.092C154.157 252.092 154.612 251.904 154.99 251.526C155.376 251.14 155.569 250.643 155.569 250.036ZM162.297 247.11C161.258 247.11 160.72 247.929 160.683 249.567V252.782H159.593V246.172H160.683V247.442C161.014 246.522 161.598 246.062 162.436 246.062C162.702 246.062 162.955 246.103 163.195 246.186L163.139 247.248C162.863 247.156 162.583 247.11 162.297 247.11ZM167.539 252.051C168.45 252.051 168.97 251.651 169.099 250.85H170.217C170.115 251.513 169.821 252.028 169.333 252.396C168.855 252.755 168.257 252.934 167.539 252.934C166.656 252.934 165.939 252.621 165.387 251.996C164.835 251.361 164.559 250.519 164.559 249.47C164.559 248.421 164.835 247.584 165.387 246.959C165.948 246.333 166.688 246.02 167.608 246.02C168.538 246.02 169.228 246.379 169.678 247.097C170.138 247.814 170.299 248.688 170.161 249.719H165.649C165.649 250.399 165.814 250.961 166.146 251.402C166.477 251.835 166.941 252.051 167.539 252.051ZM168.34 247.055C168.128 246.945 167.871 246.89 167.567 246.89C167.006 246.89 166.56 247.083 166.228 247.469C165.906 247.846 165.718 248.32 165.663 248.891H169.182C169.182 247.971 168.901 247.359 168.34 247.055ZM178.399 244.102H179.723L182.635 252.782H181.504L180.758 250.574H177.308L176.563 252.782H175.418L178.399 244.102ZM177.598 249.719H180.482L179.047 245.441L177.598 249.719ZM185.839 247.455C186.272 246.499 187.012 246.02 188.061 246.02C188.843 246.02 189.45 246.278 189.883 246.793C190.324 247.308 190.545 248.012 190.545 248.904V252.782H189.469V248.904C189.469 248.27 189.317 247.791 189.013 247.469C188.719 247.147 188.296 246.986 187.744 246.986C187.192 246.986 186.745 247.212 186.405 247.662C186.065 248.113 185.885 248.739 185.867 249.539V252.782H184.777V246.186H185.715L185.839 247.455ZM193.782 252.575C193.23 252.308 192.954 251.899 192.954 251.347C192.954 251.062 193.059 250.813 193.271 250.602C193.492 250.381 193.763 250.234 194.085 250.16C193.588 249.719 193.34 249.139 193.34 248.421C193.34 247.704 193.593 247.124 194.099 246.683C194.614 246.241 195.221 246.02 195.921 246.02C196.62 246.02 197.213 246.186 197.701 246.517C197.765 246.029 197.958 245.638 198.28 245.344C198.612 245.05 199.044 244.902 199.578 244.902L199.481 245.979C198.671 245.979 198.248 246.319 198.211 247C198.533 247.396 198.694 247.869 198.694 248.421C198.694 249.13 198.437 249.714 197.922 250.174C197.416 250.625 196.781 250.85 196.017 250.85C195.493 250.85 195.028 250.744 194.623 250.533C194.439 250.57 194.274 250.657 194.127 250.795C193.979 250.924 193.906 251.103 193.906 251.333C193.906 251.821 194.311 252.065 195.12 252.065H197.687C198.303 252.065 198.791 252.198 199.15 252.465C199.509 252.722 199.688 253.086 199.688 253.555C199.688 254.254 199.334 254.866 198.625 255.39C197.926 255.915 197.038 256.177 195.962 256.177C194.886 256.177 194.039 255.975 193.423 255.57C192.806 255.174 192.498 254.673 192.498 254.066C192.498 253.67 192.613 253.348 192.843 253.1C193.082 252.851 193.395 252.676 193.782 252.575ZM193.575 254.024C193.575 254.374 193.763 254.673 194.14 254.921C194.527 255.179 195.106 255.308 195.879 255.308C196.661 255.308 197.31 255.137 197.825 254.797C198.349 254.466 198.612 254.075 198.612 253.624C198.612 253.412 198.533 253.228 198.377 253.072C198.23 252.925 198 252.851 197.687 252.851H195.024C194.554 252.87 194.196 252.98 193.947 253.182C193.699 253.394 193.575 253.675 193.575 254.024ZM197.632 248.421C197.632 247.943 197.489 247.557 197.204 247.262C196.919 246.959 196.523 246.807 196.017 246.807C195.52 246.807 195.129 246.959 194.844 247.262C194.559 247.557 194.416 247.943 194.416 248.421C194.416 248.9 194.559 249.295 194.844 249.608C195.139 249.912 195.534 250.064 196.031 250.064C196.528 250.064 196.919 249.907 197.204 249.594C197.489 249.282 197.632 248.891 197.632 248.421ZM203.985 252.051C204.896 252.051 205.416 251.651 205.545 250.85H206.663C206.561 251.513 206.267 252.028 205.779 252.396C205.301 252.755 204.703 252.934 203.985 252.934C203.102 252.934 202.385 252.621 201.833 251.996C201.281 251.361 201.005 250.519 201.005 249.47C201.005 248.421 201.281 247.584 201.833 246.959C202.394 246.333 203.134 246.02 204.054 246.02C204.984 246.02 205.674 246.379 206.124 247.097C206.584 247.814 206.745 248.688 206.607 249.719H202.095C202.095 250.399 202.26 250.961 202.592 251.402C202.923 251.835 203.387 252.051 203.985 252.051ZM204.786 247.055C204.574 246.945 204.317 246.89 204.013 246.89C203.452 246.89 203.006 247.083 202.674 247.469C202.352 247.846 202.164 248.32 202.109 248.891H205.628C205.628 247.971 205.347 247.359 204.786 247.055ZM210.301 247.166C210.742 246.402 211.386 246.02 212.233 246.02C213.079 246.02 213.783 246.338 214.344 246.972C214.905 247.598 215.186 248.431 215.186 249.47C215.186 250.501 214.901 251.338 214.33 251.982C213.76 252.617 213.065 252.934 212.247 252.934C211.805 252.934 211.405 252.824 211.046 252.603C210.696 252.382 210.42 252.055 210.218 251.623L209.97 252.782H209.211V243.384H210.301V247.166ZM212.164 246.986C211.639 246.986 211.202 247.156 210.853 247.497C210.503 247.828 210.319 248.293 210.301 248.891V249.967C210.301 250.574 210.48 251.062 210.839 251.43C211.207 251.789 211.649 251.968 212.164 251.968C212.679 251.968 213.125 251.743 213.502 251.292C213.88 250.832 214.068 250.225 214.068 249.47C214.068 248.716 213.88 248.113 213.502 247.662C213.134 247.212 212.688 246.986 212.164 246.986ZM220.043 246.02C220.963 246.02 221.704 246.319 222.265 246.917C222.835 247.515 223.121 248.371 223.121 249.484C223.121 250.588 222.835 251.439 222.265 252.037C221.704 252.635 220.963 252.934 220.043 252.934C219.123 252.934 218.378 252.635 217.808 252.037C217.246 251.439 216.966 250.588 216.966 249.484C216.966 248.371 217.246 247.515 217.808 246.917C218.378 246.319 219.123 246.02 220.043 246.02ZM222.017 249.484C222.017 248.693 221.851 248.076 221.52 247.635C221.189 247.184 220.701 246.959 220.057 246.959C219.422 246.959 218.935 247.184 218.594 247.635C218.254 248.076 218.084 248.693 218.084 249.484C218.084 250.266 218.245 250.882 218.567 251.333C218.889 251.775 219.367 251.996 220.002 251.996C220.646 251.996 221.143 251.775 221.492 251.333C221.842 250.882 222.017 250.266 222.017 249.484ZM229.053 252.589C228.262 252.957 227.54 253.035 226.886 252.824C226.417 252.676 226.086 252.368 225.893 251.899C225.792 251.669 225.741 251.393 225.741 251.071V247.014H224.678V246.186H225.741V244.35H226.817V246.186H228.887V247.014H226.817V251.057C226.817 251.729 227.13 252.065 227.756 252.065C228.096 252.065 228.478 251.982 228.901 251.816L229.053 252.589ZM233.468 252.051C234.379 252.051 234.899 251.651 235.028 250.85H236.146C236.044 251.513 235.75 252.028 235.262 252.396C234.784 252.755 234.186 252.934 233.468 252.934C232.585 252.934 231.868 252.621 231.316 251.996C230.764 251.361 230.488 250.519 230.488 249.47C230.488 248.421 230.764 247.584 231.316 246.959C231.877 246.333 232.617 246.02 233.537 246.02C234.467 246.02 235.157 246.379 235.607 247.097C236.067 247.814 236.228 248.688 236.09 249.719H231.578C231.578 250.399 231.743 250.961 232.075 251.402C232.406 251.835 232.87 252.051 233.468 252.051ZM234.269 247.055C234.057 246.945 233.8 246.89 233.496 246.89C232.935 246.89 232.489 247.083 232.157 247.469C231.835 247.846 231.647 248.32 231.592 248.891H235.111C235.111 247.971 234.83 247.359 234.269 247.055ZM242.037 247.8C242.037 247.258 242.267 246.825 242.727 246.503C243.196 246.181 243.826 246.02 244.617 246.02C245.409 246.02 246.025 246.186 246.467 246.517C246.917 246.848 247.152 247.267 247.17 247.773H246.108C246.025 247.175 245.519 246.876 244.59 246.876C244.139 246.876 243.789 246.977 243.541 247.179C243.302 247.382 243.182 247.603 243.182 247.842C243.182 248.072 243.274 248.27 243.458 248.435C243.642 248.592 243.937 248.73 244.341 248.849L245.666 249.291C246.227 249.466 246.655 249.691 246.95 249.967C247.253 250.234 247.405 250.606 247.405 251.085C247.405 251.554 247.161 251.982 246.674 252.368C246.186 252.745 245.505 252.934 244.631 252.934C243.757 252.934 243.076 252.741 242.589 252.354C242.101 251.959 241.844 251.453 241.816 250.836H242.865C242.883 251.25 243.049 251.563 243.362 251.775C243.684 251.977 244.084 252.078 244.562 252.078C245.041 252.078 245.436 251.977 245.749 251.775C246.062 251.572 246.218 251.333 246.218 251.057C246.218 250.772 246.126 250.556 245.942 250.409C245.758 250.261 245.459 250.133 245.045 250.022L243.762 249.594C242.612 249.254 242.037 248.656 242.037 247.8ZM252.323 252.051C253.234 252.051 253.753 251.651 253.882 250.85H255C254.899 251.513 254.604 252.028 254.117 252.396C253.638 252.755 253.04 252.934 252.323 252.934C251.44 252.934 250.722 252.621 250.17 251.996C249.618 251.361 249.342 250.519 249.342 249.47C249.342 248.421 249.618 247.584 250.17 246.959C250.731 246.333 251.472 246.02 252.392 246.02C253.321 246.02 254.011 246.379 254.462 247.097C254.922 247.814 255.083 248.688 254.945 249.719H250.432C250.432 250.399 250.598 250.961 250.929 251.402C251.26 251.835 251.725 252.051 252.323 252.051ZM253.123 247.055C252.912 246.945 252.654 246.89 252.35 246.89C251.789 246.89 251.343 247.083 251.012 247.469C250.69 247.846 250.501 248.32 250.446 248.891H253.965C253.965 247.971 253.684 247.359 253.123 247.055ZM257.617 246.172H258.707V252.782H257.617V246.172ZM258.155 244.626C257.934 244.626 257.759 244.567 257.631 244.447C257.511 244.318 257.451 244.153 257.451 243.95C257.451 243.739 257.511 243.573 257.631 243.453C257.759 243.325 257.934 243.26 258.155 243.26C258.376 243.26 258.551 243.325 258.679 243.453C258.817 243.573 258.886 243.739 258.886 243.95C258.886 244.153 258.817 244.318 258.679 244.447C258.551 244.567 258.376 244.626 258.155 244.626ZM265.522 252.589C264.731 252.957 264.008 253.035 263.355 252.824C262.886 252.676 262.555 252.368 262.362 251.899C262.26 251.669 262.21 251.393 262.21 251.071V247.014H261.147V246.186H262.21V244.35H263.286V246.186H265.356V247.014H263.286V251.057C263.286 251.729 263.599 252.065 264.225 252.065C264.565 252.065 264.947 251.982 265.37 251.816L265.522 252.589ZM271.928 251.775H276.965V252.782H270.838V251.499C270.838 250.478 271.224 249.728 271.997 249.249C272.245 249.093 272.521 248.955 272.825 248.835L274.536 248.145C275.419 247.796 275.861 247.221 275.861 246.42C275.861 245.979 275.709 245.62 275.406 245.344C275.102 245.059 274.674 244.916 274.122 244.916C273.579 244.916 273.133 245.031 272.784 245.261C272.443 245.491 272.245 245.836 272.19 246.296H270.99C271.036 245.542 271.339 244.962 271.9 244.557C272.462 244.153 273.179 243.95 274.053 243.95C274.936 243.95 275.654 244.189 276.206 244.668C276.758 245.146 277.034 245.74 277.034 246.448C277.034 247.147 276.85 247.704 276.482 248.118C276.123 248.532 275.626 248.863 274.992 249.111L273.239 249.815C272.797 249.999 272.466 250.211 272.245 250.45C272.034 250.68 271.928 250.984 271.928 251.361V251.775ZM282.472 243.95C283.521 243.95 284.349 244.337 284.956 245.109C285.563 245.882 285.867 246.995 285.867 248.449C285.867 249.893 285.563 251.002 284.956 251.775C284.349 252.548 283.521 252.934 282.472 252.934C281.423 252.934 280.591 252.552 279.974 251.789C279.367 251.025 279.064 249.912 279.064 248.449C279.064 246.977 279.367 245.859 279.974 245.096C280.591 244.332 281.423 243.95 282.472 243.95ZM284.735 248.449C284.735 247.317 284.542 246.453 284.156 245.855C283.769 245.247 283.204 244.944 282.458 244.944C281.722 244.944 281.161 245.247 280.775 245.855C280.388 246.453 280.195 247.317 280.195 248.449C280.195 249.571 280.388 250.436 280.775 251.043C281.161 251.641 281.722 251.94 282.458 251.94C283.204 251.94 283.769 251.641 284.156 251.043C284.542 250.436 284.735 249.571 284.735 248.449ZM287.63 244.778C288.246 244.695 288.784 244.461 289.244 244.074H290.128V252.782H289.051V245.372C288.591 245.666 288.117 245.827 287.63 245.855V244.778ZM292.598 244.778C293.215 244.695 293.753 244.461 294.213 244.074H295.096V252.782H294.02V245.372C293.56 245.666 293.086 245.827 292.598 245.855V244.778Z" fill="#F1F1F1"/>
<g clip-path="url(#clip0)">
<path opacity="0.07" d="M50.1855 0.782227H4.30161C1.86403 0.782227 0 2.64626 0 5.08384V30.8935C0 33.3311 2.00742 35.1951 4.30161 35.1951H50.1855C52.6231 35.1951 54.4871 33.3311 54.4871 30.8935V5.08384C54.4871 2.64626 52.4797 0.782227 50.1855 0.782227Z" fill="#121212"/>
<path d="M50.1857 2.21631C51.7629 2.21631 53.0534 3.50679 53.0534 5.08405V30.8937C53.0534 32.471 51.7629 33.7615 50.1857 33.7615H4.30182C2.72457 33.7615 1.43408 32.471 1.43408 30.8937V5.08405C1.43408 3.50679 2.72457 2.21631 4.30182 2.21631H50.1857Z" fill="#006FCF"/>
<path d="M12.8631 15.5054L13.9729 18.1954H11.7619L12.8631 15.5054ZM35.9126 15.6173H31.644V16.8031H35.8438V18.5797H31.6526V19.9017H35.9212V20.9613L38.8994 17.7423L35.9212 14.387L35.9126 15.6173ZM15.7481 12.262H21.4764L22.7482 15.0366L23.9269 12.2534H38.7961L40.3418 13.9597L41.9406 12.2534H48.7701L43.7243 17.7767L48.7185 23.2655H41.7872L40.2415 21.5592L38.6283 23.2655H14.3816L13.6733 21.5592H12.053L11.3432 23.2655H5.73535L10.4471 12.2534H15.3652L15.7481 12.262ZM28.1697 13.8077H24.9593L22.8085 18.8779L20.4784 13.8077H17.2924V20.7047L14.3386 13.8077H11.4809L8.06539 21.7112H10.2951L11.0034 20.0049H14.7257L15.4341 21.7112H19.3342V16.0689L21.8449 21.7198H23.5512L26.0461 16.0862V21.7213H28.1367L28.1711 13.8063L28.1697 13.8077ZM41.562 17.7767L45.1912 13.8077H42.5787L40.283 16.2826L38.0634 13.8077H29.6122V21.7198H37.943L40.2572 19.2278L42.4769 21.7198H45.1654L41.5635 17.7767H41.562Z" fill="white"/>
</g>
<g clip-path="url(#clip1)">
<path d="M123.794 0.782227H79.6679C79.4841 0.782227 79.2999 0.782227 79.1164 0.783201C78.9615 0.7845 78.8069 0.786124 78.652 0.790345C78.3146 0.799439 77.9743 0.819574 77.6411 0.879329C77.3069 0.93658 76.9831 1.0433 76.6804 1.19597C76.0719 1.50549 75.5773 2.00012 75.2677 2.60866C75.1148 2.91148 75.0081 3.2355 74.9511 3.56994C74.8907 3.90347 74.8709 4.24349 74.8618 4.58059C74.8578 4.73536 74.8555 4.89017 74.8547 5.04499C74.854 5.22815 74.854 5.41196 74.854 5.5961V30.3809C74.854 30.5651 74.854 30.7485 74.8547 30.9327C74.8556 31.0873 74.8576 31.2422 74.8618 31.3971C74.8709 31.7335 74.891 32.0739 74.9511 32.4071C75.008 32.7415 75.1146 33.0655 75.2674 33.3684C75.4211 33.6708 75.6217 33.947 75.8617 34.1868C76.1014 34.4269 76.3776 34.6275 76.6801 34.7811C76.9877 34.9379 77.3027 35.0376 77.6414 35.0983C77.9743 35.1578 78.3146 35.1779 78.652 35.187C78.8069 35.1906 78.9615 35.1925 79.1164 35.1935C79.2999 35.1948 79.4841 35.1948 79.6679 35.1948H123.794C123.978 35.1948 124.162 35.1948 124.345 35.1935C124.5 35.1928 124.655 35.1906 124.81 35.187C125.147 35.1779 125.487 35.1578 125.821 35.0983C126.155 35.041 126.479 34.9341 126.782 34.7811C127.39 34.4711 127.884 33.9766 128.194 33.3684C128.351 33.0608 128.451 32.7458 128.511 32.4071C128.571 32.0739 128.591 31.7335 128.6 31.3971C128.604 31.2422 128.606 31.0873 128.607 30.9327C128.608 30.7485 128.608 30.5651 128.608 30.3809V5.59643C128.608 5.41229 128.608 5.22848 128.607 5.04466C128.606 4.88995 128.604 4.73525 128.6 4.58059C128.591 4.24349 128.571 3.90347 128.511 3.56994C128.454 3.23545 128.348 2.91138 128.194 2.60866C127.885 2.00023 127.39 1.50563 126.782 1.19597C126.479 1.04345 126.155 0.936849 125.821 0.879654C125.487 0.819574 125.147 0.799763 124.81 0.79067C124.655 0.786737 124.5 0.784355 124.345 0.783526C124.162 0.782227 123.978 0.782227 123.794 0.782227Z" fill="#121212"/>
<path d="M123.794 1.9292L124.337 1.93017C124.484 1.93115 124.631 1.93277 124.779 1.93667C125.036 1.94381 125.337 1.95778 125.618 2.00812C125.861 2.05196 126.066 2.11853 126.262 2.21856C126.655 2.41814 126.973 2.73739 127.173 3.13015C127.272 3.32501 127.338 3.5283 127.382 3.77415C127.432 4.05149 127.446 4.35319 127.453 4.61202C127.457 4.75816 127.459 4.9043 127.459 5.05369C127.461 5.23458 127.461 5.41514 127.461 5.59636V30.3812C127.461 30.5624 127.461 30.743 127.46 30.9274C127.459 31.0736 127.457 31.2197 127.453 31.3658C127.446 31.6244 127.432 31.9261 127.381 32.2066C127.345 32.4298 127.274 32.6461 127.172 32.848C126.972 33.2409 126.653 33.5602 126.26 33.7596C126.065 33.859 125.861 33.9256 125.62 33.9691C125.334 34.0201 125.02 34.034 124.784 34.0405C124.636 34.0438 124.488 34.0461 124.336 34.0467C124.156 34.048 123.975 34.048 123.794 34.048H79.6607C79.482 34.048 79.3034 34.048 79.1216 34.0467C78.9754 34.0461 78.8293 34.0441 78.6831 34.0409C78.4415 34.0344 78.1278 34.0201 77.844 33.9694C77.6196 33.932 77.4021 33.8609 77.199 33.7583C77.0042 33.6594 76.8264 33.53 76.6722 33.3751C76.5176 33.2208 76.3885 33.0429 76.2897 32.848C76.1876 32.645 76.1169 32.4276 76.0799 32.2034C76.0292 31.9231 76.0149 31.6227 76.0084 31.3662C76.0048 31.2195 76.0026 31.0728 76.002 30.9261L76.001 30.4952V5.48269L76.0016 5.05239C76.0023 4.90547 76.0045 4.75857 76.0081 4.61169C76.0153 4.35449 76.0292 4.05409 76.0802 3.77155C76.1173 3.54774 76.188 3.33084 76.29 3.1282C76.3887 2.934 76.5173 2.75668 76.6732 2.60112C76.8277 2.44638 77.0057 2.31704 77.2006 2.21791C77.4032 2.11612 77.62 2.0454 77.8436 2.00812C78.1246 1.95778 78.4256 1.94381 78.6835 1.93667C78.8303 1.93277 78.9774 1.93115 79.1232 1.93017L79.6678 1.9292H123.794Z" fill="white"/>
<path d="M88.9831 12.3987C89.4391 11.8287 89.7483 11.0633 89.6667 10.2812C88.9997 10.3144 88.1858 10.7213 87.7143 11.2919C87.2911 11.7803 86.9167 12.5776 87.0141 13.3268C87.763 13.3918 88.5113 12.9527 88.9831 12.3987Z" fill="#121212"/>
<path d="M89.6583 13.4731C88.5703 13.4082 87.6461 14.0902 87.1268 14.0902C86.6072 14.0902 85.8119 13.5056 84.9516 13.5215C83.8321 13.5377 82.7936 14.171 82.2252 15.1778C81.0568 17.1913 81.9167 20.179 83.0534 21.819C83.6051 22.6309 84.2702 23.524 85.1464 23.4919C85.9746 23.4594 86.299 22.956 87.3051 22.956C88.3109 22.956 88.6031 23.4919 89.4797 23.4756C90.3883 23.4594 90.9567 22.6637 91.5084 21.8518C92.1417 20.9263 92.4005 20.0332 92.4168 19.9845C92.4005 19.9683 90.6644 19.3022 90.6481 17.3049C90.6319 15.6324 92.0115 14.8368 92.0764 14.7877C91.2973 13.6355 90.0801 13.5056 89.658 13.4731" fill="#121212"/>
<path d="M100.501 11.21C102.864 11.21 104.511 12.8393 104.511 15.2113C104.511 17.5918 102.831 19.2295 100.442 19.2295H97.8248V23.3916H95.9341V11.21H100.501ZM97.8248 17.6424H99.9942C101.641 17.6424 102.577 16.7562 102.577 15.2197C102.577 13.6836 101.64 12.8055 100.003 12.8055H97.8248V17.6424Z" fill="#121212"/>
<path d="M104.979 20.8674C104.979 19.3056 106.17 18.4109 108.364 18.2758L110.72 18.1323V17.4568C110.72 16.4695 110.07 15.9291 108.913 15.9291C107.959 15.9291 107.267 16.4185 107.124 17.1697H105.418C105.469 15.5914 106.955 14.4434 108.964 14.4434C111.125 14.4434 112.535 15.5745 112.535 17.3305V23.3914H110.787V21.931H110.745C110.247 22.8848 109.149 23.4839 107.959 23.4839C106.204 23.4839 104.979 22.4376 104.979 20.8674ZM110.72 20.0824V19.3985L108.618 19.5336C107.436 19.6096 106.82 20.0483 106.82 20.8164C106.82 21.5594 107.461 22.0407 108.466 22.0407C109.749 22.0407 110.72 21.2217 110.72 20.0824Z" fill="#121212"/>
<path d="M114.141 26.6498V25.1897C114.26 25.2062 114.546 25.2231 114.698 25.2231C115.534 25.2231 116.007 24.8691 116.294 23.9569L116.463 23.4168L113.263 14.5532H115.238L117.467 21.7453H117.509L119.738 14.5532H121.663L118.345 23.864C117.585 25.9999 116.716 26.7008 114.876 26.7008C114.732 26.7008 114.268 26.6839 114.141 26.6498Z" fill="#121212"/>
</g>
<g clip-path="url(#clip2)">
<path fill-rule="evenodd" clip-rule="evenodd" d="M199.16 0.782227H153.276C150.838 0.782227 148.974 2.64626 148.974 5.08384V30.8935C148.974 33.3311 150.982 35.1951 153.276 35.1951H199.16C201.597 35.1951 203.461 33.3311 203.461 30.8935V5.08384C203.461 2.64626 201.454 0.782227 199.16 0.782227Z" fill="#FFB3C7"/>
<path fill-rule="evenodd" clip-rule="evenodd" d="M199.16 2.21631C200.737 2.21631 202.028 3.50679 202.028 5.08405V30.8937C202.028 32.471 200.737 33.7615 199.16 33.7615H153.276C151.699 33.7615 150.408 32.471 150.408 30.8937V5.08405C150.408 3.50679 151.699 2.21631 153.276 2.21631H199.16Z" fill="#FFB3C7"/>
<path d="M197.893 19.6866C197.195 19.6866 196.629 20.2602 196.629 20.9656C196.629 21.6725 197.195 22.2461 197.893 22.2461C198.593 22.2461 199.159 21.6725 199.159 20.9656C199.161 20.6282 199.029 20.3039 198.791 20.0641C198.554 19.8243 198.231 19.6885 197.893 19.6866ZM193.731 18.6972C193.731 17.7279 192.914 16.9436 191.904 16.9436C190.895 16.9436 190.077 17.7279 190.077 18.6958C190.077 19.6637 190.895 20.4494 191.904 20.4494C192.914 20.4494 193.731 19.6637 193.731 18.6958V18.6972ZM193.738 15.2904H195.754V22.1012H193.738V21.6668C193.151 22.0734 192.453 22.291 191.739 22.2905C189.776 22.2905 188.186 20.6817 188.186 18.6958C188.186 16.7113 189.778 15.1025 191.739 15.1025C192.481 15.1025 193.167 15.3319 193.738 15.7263V15.2904ZM177.603 16.1779V15.2904H175.538V22.1012H177.607V18.9224C177.607 17.8484 178.757 17.2734 179.556 17.2734H179.579V15.2918C178.761 15.2918 178.007 15.646 177.603 16.1779ZM172.461 18.6958C172.461 17.7279 171.643 16.9436 170.634 16.9436C169.626 16.9436 168.807 17.7279 168.807 18.6958C168.807 19.6637 169.625 20.4494 170.634 20.4494C171.643 20.4494 172.461 19.6637 172.461 18.6958ZM172.468 15.2904H174.484V22.1012H172.468V21.6668C171.88 22.0736 171.182 22.2913 170.468 22.2905C168.506 22.2905 166.915 20.6817 166.915 18.6958C166.915 16.7113 168.506 15.1025 170.468 15.1025C171.209 15.1025 171.897 15.3319 172.467 15.7263V15.2904H172.468ZM184.603 15.1068C183.798 15.1068 183.036 15.3606 182.527 16.0575V15.2904H180.519V22.1012H182.551V18.5223C182.551 17.487 183.238 16.9795 184.064 16.9795C184.95 16.9795 185.459 17.5157 185.459 18.508V22.1027H187.473V17.771C187.473 16.1851 186.226 15.1068 184.603 15.1068ZM163.979 22.1041H166.09V12.2534H163.979V22.1012V22.1041ZM154.709 22.1041H156.943V12.2534H154.709V22.1041ZM162.524 12.2534C162.53 13.2899 162.331 14.3174 161.939 15.277C161.547 16.2365 160.97 17.1094 160.24 17.8455L163.328 22.1041H160.568L157.212 17.4756L158.078 16.8189C158.784 16.2866 159.356 15.5966 159.749 14.804C160.142 14.0113 160.344 13.1379 160.339 12.2534H162.524Z" fill="#0A0B09"/>
</g>
<g clip-path="url(#clip3)">
<path opacity="0.07" d="M273.647 0.782227H227.763C225.325 0.782227 223.461 2.64626 223.461 5.08384V30.8935C223.461 33.3311 225.469 35.1951 227.763 35.1951H273.647C276.084 35.1951 277.949 33.3311 277.949 30.8935V5.08384C277.949 2.64626 275.941 0.782227 273.647 0.782227Z" fill="#121212"/>
<path d="M273.647 2.21631C275.224 2.21631 276.515 3.50679 276.515 5.08405V30.8937C276.515 32.471 275.224 33.7615 273.647 33.7615H227.763C226.186 33.7615 224.896 32.471 224.896 30.8937V5.08405C224.896 3.50679 226.186 2.21631 227.763 2.21631H273.647Z" fill="white"/>
<path d="M244.97 28.0259C250.513 28.0259 255.007 23.5321 255.007 17.9888C255.007 12.4454 250.513 7.95166 244.97 7.95166C239.426 7.95166 234.933 12.4454 234.933 17.9888C234.933 23.5321 239.426 28.0259 244.97 28.0259Z" fill="#EB001B"/>
<path d="M256.44 28.0259C261.984 28.0259 266.478 23.5321 266.478 17.9888C266.478 12.4454 261.984 7.95166 256.44 7.95166C250.897 7.95166 246.403 12.4454 246.403 17.9888C246.403 23.5321 250.897 28.0259 256.44 28.0259Z" fill="#00A2E5"/>
<path d="M255.007 17.9885C255.007 14.5472 253.286 11.5361 250.705 9.81543C248.124 11.6795 246.403 14.6906 246.403 17.9885C246.403 21.2864 248.124 24.4409 250.705 26.1616C253.286 24.4409 255.007 21.4298 255.007 17.9885Z" fill="#7375CF"/>
</g>
<g clip-path="url(#clip4)">
<path opacity="0.07" d="M273.647 85.1953H227.763C225.325 85.1953 223.461 87.0593 223.461 89.4969V115.307C223.461 117.744 225.469 119.608 227.763 119.608H273.647C276.084 119.608 277.949 117.744 277.949 115.307V89.4969C277.949 87.0593 275.941 85.1953 273.647 85.1953Z" fill="#121212"/>
<path d="M273.647 86.6294C275.224 86.6294 276.515 87.9199 276.515 89.4971V115.307C276.515 116.884 275.224 118.175 273.647 118.175H227.763C226.186 118.175 224.896 116.884 224.896 115.307V89.4971C224.896 87.9199 226.186 86.6294 227.763 86.6294H273.647Z" fill="white"/>
<path d="M264.04 99.6776H263.61C263.036 101.112 262.606 101.828 262.176 103.979H264.9C264.47 101.828 264.47 100.825 264.04 99.6776ZM268.198 108.137H265.761C265.617 108.137 265.617 108.137 265.474 107.994L265.187 106.704L265.044 106.417H261.602C261.459 106.417 261.316 106.417 261.316 106.704L260.886 107.994C260.886 108.137 260.742 108.137 260.742 108.137H257.731L258.018 107.421L262.176 97.6702C262.176 96.9533 262.606 96.6665 263.323 96.6665H265.474C265.617 96.6665 265.761 96.6665 265.761 96.9533L267.768 106.273C267.911 106.847 268.055 107.277 268.055 107.851C268.198 107.994 268.198 107.994 268.198 108.137ZM248.984 107.707L249.558 105.126C249.701 105.126 249.845 105.27 249.845 105.27C250.848 105.7 251.852 105.987 252.856 105.843C253.143 105.843 253.573 105.7 253.86 105.557C254.577 105.27 254.576 104.553 254.003 103.979C253.716 103.692 253.286 103.549 252.856 103.262C252.282 102.976 251.709 102.689 251.279 102.259C249.558 100.825 250.132 98.8173 251.135 97.8136C251.996 97.2401 252.426 96.6665 253.573 96.6665C255.293 96.6665 257.157 96.6665 258.018 96.9533H258.161C258.018 97.8136 257.874 98.5305 257.588 99.3909C256.871 99.1041 256.154 98.8173 255.437 98.8173C255.007 98.8173 254.577 98.8173 254.146 98.9607C253.86 98.9607 253.716 99.1041 253.573 99.2475C253.286 99.5342 253.286 99.9644 253.573 100.251L254.29 100.825C254.863 101.112 255.437 101.398 255.867 101.685C256.584 102.115 257.301 102.832 257.444 103.692C257.731 104.983 257.301 106.13 256.154 106.99C255.437 107.564 255.15 107.851 254.146 107.851C252.139 107.851 250.562 107.994 249.271 107.564C249.128 107.851 249.128 107.851 248.984 107.707ZM243.966 108.137C244.109 107.134 244.109 107.134 244.253 106.704C244.97 103.549 245.687 100.251 246.26 97.0967C246.403 96.8099 246.403 96.6665 246.69 96.6665H249.271C248.984 98.3871 248.698 99.6776 248.267 101.255C247.837 103.406 247.407 105.557 246.834 107.707C246.834 107.994 246.69 107.994 246.403 107.994L243.966 108.137ZM230.631 96.9533C230.631 96.8099 230.918 96.6665 231.061 96.6665H235.936C236.653 96.6665 237.227 97.0967 237.37 97.8136L238.661 104.123C238.661 104.266 238.661 104.266 238.804 104.409C238.804 104.266 238.947 104.266 238.947 104.266L241.958 96.9533C241.815 96.8099 241.958 96.6665 242.102 96.6665H245.113C245.113 96.8099 245.113 96.8099 244.97 96.9533L240.525 107.421C240.381 107.707 240.381 107.851 240.238 107.994C240.094 108.137 239.808 107.994 239.521 107.994H237.37C237.227 107.994 237.083 107.994 237.083 107.707L234.789 98.8173C234.502 98.5305 234.072 98.1004 233.499 97.957C232.638 97.5268 231.061 97.2401 230.774 97.2401L230.631 96.9533Z" fill="#142688"/>
</g>
<g clip-path="url(#clip5)">
<path opacity="0.07" d="M199.16 85.1953H153.276C150.838 85.1953 148.974 87.0593 148.974 89.4969V115.307C148.974 117.744 150.982 119.608 153.276 119.608H199.16C201.597 119.608 203.461 117.744 203.461 115.307V89.4969C203.461 87.0593 201.454 85.1953 199.16 85.1953Z" fill="#121212"/>
<path d="M199.16 86.6294C200.737 86.6294 202.028 87.9199 202.028 89.4971V115.307C202.028 116.884 200.737 118.175 199.16 118.175H153.276C151.699 118.175 150.408 116.884 150.408 115.307V89.4971C150.408 87.9199 151.699 86.6294 153.276 86.6294H199.16Z" fill="#5A31F4"/>
<path d="M179.633 99.1227C179.633 101.514 177.945 103.221 175.588 103.221H173.367C173.33 103.221 173.295 103.232 173.264 103.253C173.234 103.273 173.21 103.302 173.195 103.335C173.186 103.358 173.181 103.382 173.181 103.406V106.549C173.181 106.573 173.176 106.597 173.166 106.62C173.157 106.642 173.143 106.663 173.126 106.68C173.109 106.697 173.088 106.711 173.066 106.72C173.043 106.729 173.019 106.734 172.994 106.734H171.44C171.391 106.734 171.343 106.714 171.308 106.679C171.273 106.644 171.254 106.597 171.254 106.547V95.2125C171.253 95.1756 171.264 95.1394 171.284 95.1086C171.305 95.0779 171.334 95.0541 171.368 95.0405C171.391 95.031 171.415 95.0261 171.44 95.0261H175.598C177.945 95.0261 179.633 96.7324 179.633 99.1241V99.1227ZM177.695 99.1227C177.695 97.7491 176.751 96.7453 175.472 96.7453H173.367C173.343 96.7453 173.318 96.7502 173.296 96.7595C173.273 96.7689 173.253 96.7826 173.235 96.7999C173.218 96.8172 173.204 96.8378 173.195 96.8604C173.186 96.883 173.181 96.9073 173.181 96.9317V101.305C173.18 101.33 173.185 101.354 173.194 101.377C173.204 101.399 173.218 101.42 173.235 101.437C173.252 101.454 173.273 101.468 173.296 101.477C173.318 101.487 173.343 101.492 173.367 101.491H175.472C176.751 101.499 177.695 100.495 177.695 99.1227ZM180.095 104.559C180.078 104.191 180.155 103.826 180.317 103.496C180.479 103.166 180.722 102.882 181.023 102.67C181.629 102.217 182.577 101.982 183.969 101.933L185.45 101.881V101.447C185.45 100.577 184.862 100.21 183.919 100.21C182.975 100.21 182.378 100.541 182.241 101.084C182.23 101.122 182.206 101.156 182.174 101.179C182.141 101.202 182.102 101.214 182.062 101.213H180.597C180.556 101.214 180.517 101.201 180.484 101.177C180.452 101.154 180.428 101.12 180.416 101.081C180.408 101.056 180.406 101.029 180.41 101.003C180.628 99.7149 181.706 98.737 183.986 98.737C186.412 98.737 187.289 99.8597 187.289 102V106.549C187.288 106.573 187.283 106.598 187.274 106.62C187.264 106.643 187.25 106.663 187.232 106.681C187.215 106.698 187.194 106.711 187.171 106.72C187.148 106.73 187.124 106.734 187.099 106.734H185.622C185.573 106.734 185.526 106.714 185.491 106.679C185.456 106.644 185.436 106.597 185.436 106.547V106.209C185.436 106.181 185.428 106.153 185.413 106.13C185.397 106.107 185.375 106.089 185.349 106.078C185.323 106.068 185.294 106.066 185.267 106.071C185.24 106.077 185.215 106.09 185.195 106.11C184.751 106.589 184.037 106.934 182.891 106.934C181.206 106.934 180.095 106.064 180.095 104.559ZM185.45 103.573V103.221L183.53 103.321C182.519 103.373 181.932 103.789 181.932 104.491C181.932 105.128 182.471 105.48 183.414 105.48C184.695 105.48 185.45 104.792 185.45 103.573ZM188.771 110.169V108.852C188.772 108.824 188.778 108.797 188.79 108.772C188.802 108.747 188.82 108.725 188.841 108.708C188.863 108.691 188.888 108.678 188.915 108.672C188.941 108.665 188.969 108.664 188.996 108.669C189.223 108.711 189.452 108.733 189.683 108.733C190.079 108.754 190.47 108.642 190.794 108.414C191.117 108.186 191.355 107.856 191.468 107.476L191.564 107.174C191.579 107.133 191.579 107.089 191.564 107.048L188.489 99.203C188.471 99.1599 188.47 99.1118 188.486 99.068C188.502 99.0242 188.533 98.988 188.575 98.9664C188.602 98.952 188.633 98.9446 188.664 98.9449H190.155C190.193 98.945 190.23 98.9567 190.262 98.9785C190.293 99.0002 190.318 99.031 190.331 99.0668L192.419 104.6C192.432 104.637 192.456 104.669 192.488 104.692C192.52 104.715 192.559 104.727 192.598 104.726C192.637 104.726 192.676 104.714 192.708 104.691C192.74 104.669 192.764 104.637 192.777 104.6L194.591 99.0826C194.604 99.0445 194.628 99.0114 194.66 98.9882C194.693 98.965 194.732 98.9528 194.772 98.9535H196.315C196.361 98.9538 196.406 98.9708 196.44 99.0013C196.475 99.0319 196.498 99.074 196.504 99.1198C196.508 99.1504 196.504 99.1814 196.493 99.2102L193.202 107.922C192.445 109.948 191.147 110.465 189.718 110.465C189.446 110.472 189.175 110.44 188.913 110.37C188.869 110.359 188.831 110.333 188.804 110.296C188.778 110.259 188.766 110.214 188.77 110.169H188.771ZM161.262 94.3723C159.306 94.3577 157.417 95.0894 155.981 96.4184C155.92 96.474 155.882 96.5504 155.874 96.6326C155.867 96.7148 155.89 96.797 155.94 96.8629L156.826 98.0659C156.855 98.1065 156.892 98.1402 156.935 98.1648C156.978 98.1893 157.027 98.204 157.076 98.2078C157.126 98.2117 157.175 98.2045 157.222 98.1869C157.268 98.1694 157.31 98.1418 157.345 98.1061C157.861 97.5936 158.474 97.189 159.148 96.9157C159.822 96.6425 160.544 96.5061 161.271 96.5145C164.311 96.5145 165.898 98.7857 165.898 101.031C165.898 103.469 164.23 105.187 161.833 105.22C159.98 105.22 158.584 104.001 158.584 102.389C158.585 101.982 158.678 101.579 158.855 101.212C159.032 100.845 159.289 100.522 159.606 100.267C159.674 100.211 159.717 100.131 159.726 100.044C159.735 99.9574 159.709 99.8703 159.654 99.8024L158.722 98.6337C158.693 98.5978 158.658 98.568 158.618 98.5459C158.578 98.5239 158.534 98.5102 158.489 98.5057C158.443 98.5011 158.398 98.5058 158.354 98.5194C158.311 98.5331 158.27 98.5554 158.235 98.585C157.665 99.0429 157.203 99.6224 156.885 100.281C156.567 100.939 156.402 101.659 156.402 102.389C156.402 105.164 158.775 107.339 161.814 107.356H161.857C165.466 107.31 168.076 104.655 168.076 101.025C168.076 97.8035 165.686 94.3723 161.262 94.3723Z" fill="white"/>
</g>
<g clip-path="url(#clip6)">
<path opacity="0.07" d="M50.1855 85.1953H4.30161C1.86403 85.1953 0 87.0593 0 89.4969V115.307C0 117.744 2.00742 119.608 4.30161 119.608H50.1855C52.6231 119.608 54.4871 117.744 54.4871 115.307V89.4969C54.4871 87.0593 52.4797 85.1953 50.1855 85.1953Z" fill="#121212"/>
<path d="M50.1857 86.6294C51.7629 86.6294 53.0534 87.9199 53.0534 89.4971V115.307C53.0534 116.884 51.7629 118.175 50.1857 118.175H4.30182C2.72457 118.175 1.43408 116.884 1.43408 115.307V89.4971C1.43408 87.9199 2.72457 86.6294 4.30182 86.6294H50.1857Z" fill="white"/>
<path d="M21.5083 112.439C27.0516 112.439 31.5454 107.945 31.5454 102.402C31.5454 96.8585 27.0516 92.3647 21.5083 92.3647C15.965 92.3647 11.4712 96.8585 11.4712 102.402C11.4712 107.945 15.965 112.439 21.5083 112.439Z" fill="#EB001B"/>
<path d="M32.979 112.439C38.5223 112.439 43.0161 107.945 43.0161 102.402C43.0161 96.8585 38.5223 92.3647 32.979 92.3647C27.4357 92.3647 22.9419 96.8585 22.9419 102.402C22.9419 107.945 27.4357 112.439 32.979 112.439Z" fill="#F79E1B"/>
<path d="M31.5451 102.402C31.5451 98.9603 29.8245 95.9492 27.2435 94.2285C24.6625 96.0925 22.9419 99.1037 22.9419 102.402C22.9419 105.699 24.6625 108.854 27.2435 110.575C29.8245 108.854 31.5451 105.843 31.5451 102.402Z" fill="#FF5F00"/>
</g>
<g clip-path="url(#clip7)">
<path opacity="0.07" d="M124.673 85.1953H78.7889C76.3513 85.1953 74.4873 87.0593 74.4873 89.4969V115.307C74.4873 117.744 76.4947 119.608 78.7889 119.608H124.673C127.11 119.608 128.974 117.744 128.974 115.307V89.4969C128.974 87.0593 126.967 85.1953 124.673 85.1953Z" fill="#121212"/>
<path d="M124.673 86.6294C126.25 86.6294 127.541 87.9199 127.541 89.4971V115.307C127.541 116.884 126.25 118.175 124.673 118.175H78.7891C77.2119 118.175 75.9214 116.884 75.9214 115.307V89.4971C75.9214 87.9199 77.2119 86.6294 78.7891 86.6294H124.673Z" fill="white"/>
<path d="M108.757 97.0965C109.044 95.6626 108.757 94.6589 107.897 93.7986C107.036 92.7949 105.459 92.3647 103.452 92.3647H97.5727C97.1425 92.3647 96.8557 92.6515 96.7123 93.0817L94.5615 107.564C94.5615 107.851 94.7049 108.137 94.9917 108.137H98.8631L99.4367 103.262L102.018 100.108L108.757 97.0965Z" fill="#003087"/>
<path d="M108.757 97.0962L108.47 97.383C107.753 101.398 105.316 102.832 101.874 102.832H100.297C99.8668 102.832 99.58 103.118 99.4366 103.549L98.5763 109.141L98.2896 110.575C98.2896 110.861 98.4329 111.148 98.7197 111.148H101.731C102.161 111.148 102.448 110.861 102.448 110.575V110.431L103.021 106.99V106.847C103.021 106.56 103.451 106.273 103.738 106.273H104.168C107.18 106.273 109.474 105.126 110.047 101.685C110.334 100.251 110.191 99.1036 109.474 98.2433C109.33 97.5264 109.044 97.2396 108.757 97.0962Z" fill="#3086C8"/>
<path d="M107.896 96.8096C107.753 96.6662 107.61 96.6662 107.466 96.6662C107.323 96.6662 107.179 96.6662 107.036 96.5228C106.606 96.3794 106.032 96.3794 105.459 96.3794H101.157C101.014 96.3794 100.87 96.3794 100.87 96.5228C100.584 96.6662 100.44 96.8096 100.44 97.0963L99.4365 103.405V103.549C99.4365 103.119 99.8667 102.832 100.297 102.832H102.161C105.746 102.832 108.04 101.398 108.757 97.3831V97.0963C108.613 96.9529 108.327 96.8096 108.04 96.8096H107.896Z" fill="#012169"/>
</g>
<defs>
<clipPath id="clip0">
<rect width="54.4871" height="34.4129" fill="white" transform="translate(0 0.782227)"/>
</clipPath>
<clipPath id="clip1">
<rect width="54.4871" height="34.4129" fill="white" transform="translate(74.4873 0.782227)"/>
</clipPath>
<clipPath id="clip2">
<rect width="54.4871" height="34.4129" fill="white" transform="translate(148.974 0.782227)"/>
</clipPath>
<clipPath id="clip3">
<rect width="54.4871" height="34.4129" fill="white" transform="translate(223.461 0.782227)"/>
</clipPath>
<clipPath id="clip4">
<rect width="54.4871" height="34.4129" fill="white" transform="translate(223.461 85.1953)"/>
</clipPath>
<clipPath id="clip5">
<rect width="54.4871" height="34.4129" fill="white" transform="translate(148.974 85.1953)"/>
</clipPath>
<clipPath id="clip6">
<rect width="54.4871" height="34.4129" fill="white" transform="translate(0 85.1953)"/>
</clipPath>
<clipPath id="clip7">
<rect width="54.4871" height="34.4129" fill="white" transform="translate(74.4873 85.1953)"/>
</clipPath>
</defs>
</svg>
