<svg width="210" height="212" viewBox="0 0 210 212" fill="none" xmlns="http://www.w3.org/2000/svg">
<circle cx="104.5" cy="66.5" r="66.5" fill="#C5F8FF"/>
<path d="M80.561 190.62H78.405L78.209 192.566H77.173L77.369 190.62H75.983L76.053 189.864H77.453L77.719 187.372H76.305L76.389 186.63H77.789L77.999 184.698H79.035L78.825 186.63H80.981L81.191 184.698H82.213L82.003 186.63H83.445L83.361 187.372H81.933L81.667 189.864H83.109L83.025 190.62H81.583L81.387 192.566H80.351L80.561 190.62ZM78.489 189.864H80.631L80.897 187.372H78.755L78.489 189.864ZM89.0844 184.04C90.027 184.04 90.783 184.278 91.3524 184.754C91.931 185.221 92.3277 185.832 92.5424 186.588L91.3524 186.826C91.1657 186.275 90.8717 185.841 90.4704 185.524C90.0784 185.197 89.6164 185.034 89.0844 185.034C88.347 185.034 87.7357 185.342 87.2504 185.958C86.765 186.574 86.5224 187.433 86.5224 188.534C86.5224 189.626 86.737 190.503 87.1664 191.166C87.605 191.829 88.2444 192.16 89.0844 192.16C89.7844 192.16 90.335 191.978 90.7364 191.614C91.147 191.241 91.3524 190.751 91.3524 190.144H92.5424C92.5424 191.068 92.225 191.801 91.5904 192.342C90.965 192.883 90.1017 193.154 89.0004 193.154C87.9084 193.154 87.0217 192.734 86.3404 191.894C85.6684 191.054 85.3324 189.929 85.3324 188.52C85.3324 187.111 85.6824 186.014 86.3824 185.23C87.0824 184.437 87.983 184.04 89.0844 184.04ZM99.7823 190.144C99.7823 189.033 99.059 188.478 97.6123 188.478H95.2463L95.6243 184.194H100.51V185.202H96.6883L96.4503 187.736C96.9356 187.652 97.3976 187.61 97.8363 187.61C98.7976 187.61 99.5536 187.825 100.104 188.254C100.655 188.674 100.93 189.313 100.93 190.172C100.93 191.031 100.641 191.745 100.062 192.314C99.4836 192.874 98.737 193.154 97.8223 193.154C96.9076 193.154 96.161 192.925 95.5823 192.468C95.0036 192.001 94.7143 191.362 94.7143 190.55H95.8203C95.8203 191.315 96.2123 191.815 96.9963 192.048C97.239 192.113 97.505 192.146 97.7943 192.146C98.3916 192.146 98.8723 191.959 99.2363 191.586C99.6003 191.203 99.7823 190.723 99.7823 190.144ZM103.734 184.194H109.082V185.146H104.84V188.072H108.788V189.024H104.84V193H103.734V184.194ZM113.076 188.548C111.909 188.016 111.326 187.293 111.326 186.378C111.326 185.678 111.615 185.113 112.194 184.684C112.773 184.255 113.538 184.04 114.49 184.04C115.451 184.04 116.24 184.269 116.856 184.726C117.472 185.183 117.78 185.771 117.78 186.49C117.78 186.975 117.617 187.409 117.29 187.792C116.973 188.175 116.501 188.413 115.876 188.506L116.114 188.59C116.758 188.833 117.253 189.122 117.598 189.458C117.943 189.785 118.116 190.233 118.116 190.802C118.116 191.511 117.799 192.081 117.164 192.51C116.539 192.939 115.689 193.154 114.616 193.154C113.552 193.154 112.689 192.916 112.026 192.44C111.363 191.964 111.032 191.367 111.032 190.648C111.032 190.069 111.219 189.598 111.592 189.234C111.975 188.87 112.469 188.641 113.076 188.548ZM114.126 188.954C113.538 189.019 113.067 189.206 112.712 189.514C112.357 189.813 112.18 190.186 112.18 190.634C112.18 191.082 112.404 191.446 112.852 191.726C113.3 192.006 113.883 192.146 114.602 192.146C115.33 192.146 115.904 192.025 116.324 191.782C116.753 191.539 116.968 191.245 116.968 190.9C116.968 190.555 116.856 190.279 116.632 190.074C116.408 189.859 116.1 189.682 115.708 189.542L114.126 188.954ZM112.488 186.518C112.488 186.77 112.591 186.989 112.796 187.176C113.001 187.353 113.295 187.517 113.678 187.666L114.7 188.058C115.26 188.039 115.722 187.895 116.086 187.624C116.45 187.344 116.632 186.985 116.632 186.546C116.632 186.098 116.441 185.739 116.058 185.468C115.675 185.188 115.181 185.048 114.574 185.048C113.967 185.048 113.468 185.183 113.076 185.454C112.684 185.715 112.488 186.07 112.488 186.518ZM120.889 184.194H126.237V185.146H121.995V188.072H125.943V189.024H121.995V193H120.889V184.194ZM128.831 184.194H134.179V185.146H129.937V188.072H133.885V189.024H129.937V193H128.831V184.194Z" fill="#BDBDBD"/>
<path d="M63.0404 166.146H67.8464V168H60.9164V156.318H63.0404V166.146ZM70.5909 159.234H72.7149V168H70.5909V159.234ZM70.3389 156.426C70.3389 156.042 70.4529 155.742 70.6809 155.526C70.9089 155.298 71.2329 155.184 71.6529 155.184C72.0609 155.184 72.3789 155.298 72.6069 155.526C72.8469 155.742 72.9669 156.042 72.9669 156.426C72.9669 156.81 72.8469 157.116 72.6069 157.344C72.3789 157.56 72.0609 157.668 71.6529 157.668C71.2329 157.668 70.9089 157.56 70.6809 157.344C70.4529 157.116 70.3389 156.81 70.3389 156.426ZM77.6732 164.418C76.9652 163.818 76.6112 163.068 76.6112 162.168C76.6112 161.22 76.9832 160.452 77.7272 159.864C78.4472 159.3 79.2692 159.018 80.1932 159.018C81.1292 159.018 81.9092 159.192 82.5332 159.54C82.6052 158.856 82.8992 158.304 83.4152 157.884C83.9192 157.464 84.5132 157.254 85.1972 157.254L85.0892 159.288C84.0572 159.288 83.5232 159.63 83.4872 160.314C83.9312 160.866 84.1532 161.43 84.1532 162.006C84.1532 162.582 84.0512 163.068 83.8472 163.464C83.6432 163.848 83.3672 164.172 83.0192 164.436C82.2992 165.012 81.4232 165.3 80.3912 165.3C79.8032 165.3 79.2692 165.21 78.7892 165.03C78.3092 165.174 78.0692 165.462 78.0692 165.894C78.0692 166.434 78.5252 166.704 79.4372 166.704H82.3712C84.3632 166.704 85.3592 167.4 85.3592 168.792C85.3592 169.26 85.2392 169.716 84.9992 170.16C84.7712 170.616 84.4352 171.018 83.9912 171.366C83.0072 172.134 81.7712 172.518 80.2832 172.518C78.8432 172.518 77.6732 172.224 76.7732 171.636C75.9332 171.072 75.5132 170.382 75.5132 169.566C75.5132 169.026 75.6752 168.594 75.9992 168.27C76.3352 167.958 76.7732 167.76 77.3132 167.676C76.6052 167.244 76.2512 166.71 76.2512 166.074C76.2512 165.654 76.3832 165.306 76.6472 165.03C76.9112 164.742 77.2532 164.538 77.6732 164.418ZM79.2932 168.198C78.1652 168.246 77.6012 168.672 77.6012 169.476C77.6012 169.884 77.8352 170.208 78.3032 170.448C78.7832 170.7 79.3472 170.826 79.9952 170.826C80.6432 170.826 81.1472 170.772 81.5072 170.664C81.8792 170.556 82.1912 170.412 82.4432 170.232C82.9832 169.872 83.2532 169.44 83.2532 168.936C83.2532 168.72 83.1752 168.54 83.0192 168.396C82.8752 168.264 82.6592 168.198 82.3712 168.198H79.2932ZM82.0472 162.15C82.0472 161.658 81.9092 161.262 81.6332 160.962C81.3692 160.65 80.9612 160.494 80.4092 160.494C79.8572 160.494 79.4372 160.65 79.1492 160.962C78.8612 161.262 78.7172 161.658 78.7172 162.15C78.7172 162.63 78.8612 163.026 79.1492 163.338C79.4372 163.65 79.8572 163.806 80.4092 163.806C80.9612 163.806 81.3692 163.65 81.6332 163.338C81.9092 163.026 82.0472 162.63 82.0472 162.15ZM90.1177 160.674C90.7177 159.57 91.5937 159.018 92.7457 159.018C93.8977 159.018 94.7437 159.372 95.2837 160.08C95.8357 160.788 96.1117 161.724 96.1117 162.888V168H93.9877V162.888C93.9877 162.24 93.8317 161.754 93.5197 161.43C93.2077 161.094 92.7697 160.926 92.2057 160.926C91.6417 160.926 91.1557 161.178 90.7477 161.682C90.3517 162.186 90.1417 162.942 90.1177 163.95V168H87.9937V155.652H90.1177V160.674ZM104.741 167.784C103.949 168.096 103.325 168.252 102.869 168.252C102.413 168.252 102.011 168.198 101.663 168.09C101.327 167.982 101.027 167.82 100.763 167.604C100.211 167.112 99.9346 166.434 99.9346 165.57V160.674H98.7106V159.252H99.9346V156.948H102.059V159.252H104.435V160.674H102.059V165.498C102.059 166.218 102.401 166.578 103.085 166.578C103.433 166.578 103.883 166.482 104.435 166.29L104.741 167.784ZM112.663 156.318H117.379C118.675 156.318 119.677 156.624 120.385 157.236C121.057 157.8 121.393 158.526 121.393 159.414C121.393 160.074 121.207 160.638 120.835 161.106C120.475 161.574 119.965 161.904 119.305 162.096C119.965 162.228 120.511 162.528 120.943 162.996C121.375 163.452 121.591 164.04 121.591 164.76C121.591 166.2 120.877 167.184 119.449 167.712C118.909 167.904 118.225 168 117.397 168H112.663V156.318ZM117.343 166.146C118.027 166.146 118.519 166.008 118.819 165.732C119.131 165.456 119.287 165.09 119.287 164.634C119.287 164.178 119.125 163.812 118.801 163.536C118.489 163.248 118.003 163.104 117.343 163.104H114.787V166.146H117.343ZM114.787 161.25H117.289C117.925 161.25 118.405 161.112 118.729 160.836C119.053 160.56 119.215 160.188 119.215 159.72C119.215 159.24 119.053 158.862 118.729 158.586C118.417 158.298 117.943 158.154 117.307 158.154H114.787V161.25ZM124.935 155.652H127.059V168H124.935V155.652ZM136.816 166.416C136.264 167.58 135.376 168.162 134.152 168.162C132.604 168.162 131.584 167.556 131.092 166.344C130.912 165.924 130.822 165.414 130.822 164.814V159.234H132.946V164.598C132.946 165.174 133.084 165.606 133.36 165.894C133.636 166.17 133.972 166.308 134.368 166.308C134.776 166.308 135.118 166.254 135.394 166.146C135.67 166.026 135.91 165.852 136.114 165.624C136.558 165.108 136.792 164.418 136.816 163.554V159.234H138.94V168H136.816V166.416ZM148.989 160.296C149.289 160.68 149.511 161.124 149.655 161.628C149.811 162.132 149.889 162.594 149.889 163.014C149.889 163.434 149.865 163.812 149.817 164.148H144.165C144.189 164.856 144.363 165.432 144.687 165.876C145.011 166.32 145.503 166.542 146.163 166.542C147.039 166.542 147.561 166.158 147.729 165.39H149.871C149.727 166.266 149.325 166.956 148.665 167.46C147.981 167.988 147.147 168.252 146.163 168.252C145.011 168.252 144.045 167.832 143.265 166.992C142.461 166.116 142.059 164.994 142.059 163.626C142.059 162.222 142.461 161.094 143.265 160.242C144.033 159.426 144.999 159.018 146.163 159.018C147.375 159.018 148.317 159.444 148.989 160.296ZM146.181 160.71C145.581 160.71 145.113 160.908 144.777 161.304C144.441 161.688 144.243 162.186 144.183 162.798H147.909C147.909 161.85 147.609 161.214 147.009 160.89C146.781 160.77 146.505 160.71 146.181 160.71Z" fill="#F1F1F1"/>
</svg>
