<svg width="141" height="379" viewBox="0 0 141 379" fill="none" xmlns="http://www.w3.org/2000/svg">
<path d="M9.10407 375.35C8.18153 375.35 7.4337 376.118 7.4337 377.066C7.4337 378.014 8.18156 378.782 9.10407 378.782C10.0266 378.782 10.7744 378.014 10.7744 377.066C10.7745 376.118 10.0266 375.35 9.10407 375.35ZM9.10407 378.019C8.59155 378.019 8.17609 377.593 8.17609 377.066C8.17609 376.539 8.59155 376.112 9.10407 376.112C9.61658 376.112 10.032 376.539 10.032 377.066C10.0321 377.593 9.61658 378.019 9.10407 378.019Z" fill="#F1F1F1"/>
<path d="M16.1566 375.35C15.2341 375.35 14.4862 376.118 14.4862 377.066C14.4862 378.014 15.2341 378.782 16.1566 378.782C17.0791 378.782 17.827 378.014 17.827 377.066C17.827 376.118 17.0791 375.35 16.1566 375.35ZM16.1566 378.019C15.6441 378.019 15.2286 377.593 15.2286 377.066C15.2286 376.539 15.6441 376.112 16.1566 376.112C16.6691 376.112 17.0846 376.539 17.0846 377.066C17.0846 377.593 16.6691 378.019 16.1566 378.019Z" fill="#F1F1F1"/>
<path d="M19.9243 365.338C19.847 365.251 19.7413 365.197 19.6274 365.185L7.54494 365.013L7.21087 363.965C6.97552 363.263 6.3365 362.79 5.61471 362.782H4.3712C4.16618 362.782 4 362.953 4 363.164C4 363.374 4.16618 363.545 4.3712 363.545H5.61471C6.0183 363.554 6.37369 363.82 6.50559 364.213L8.8627 371.516L8.67711 371.955C8.47011 372.504 8.53228 373.121 8.84415 373.614C9.15304 374.099 9.67269 374.398 10.2362 374.415H17.4559C17.661 374.415 17.8271 374.244 17.8271 374.034C17.8271 373.823 17.661 373.652 17.4559 373.652H10.2361C9.91792 373.644 9.62502 373.472 9.4566 373.195C9.29006 372.921 9.25585 372.583 9.36381 372.279L9.5123 371.936L17.326 371.097C18.1843 371 18.8903 370.358 19.0892 369.495L19.9801 365.662C20.0202 365.551 19.9989 365.427 19.9243 365.338ZM18.3653 369.323C18.2448 369.879 17.7856 370.289 17.2332 370.334L9.5123 371.154L7.78622 365.776L19.1634 365.948L18.3653 369.323Z" fill="#F1F1F1"/>
<path d="M58.6561 373.633C57.2723 373.633 56.1505 374.786 56.1505 376.208C56.1505 377.63 57.2723 378.782 58.6561 378.782C60.0399 378.782 61.1616 377.63 61.1616 376.208C61.1617 374.786 60.0399 373.633 58.6561 373.633ZM58.6561 377.638C57.8873 377.638 57.2641 376.998 57.2641 376.208C57.2641 375.418 57.8873 374.778 58.6561 374.778C59.4249 374.778 60.048 375.418 60.048 376.208C60.0481 376.998 59.4249 377.638 58.6561 377.638Z" fill="#F1F1F1"/>
<path d="M69.2348 373.633C67.851 373.633 66.7293 374.786 66.7293 376.208C66.7293 377.63 67.8511 378.782 69.2348 378.782C70.6186 378.782 71.7404 377.63 71.7404 376.208C71.7404 374.786 70.6186 373.633 69.2348 373.633ZM69.2348 377.638C68.4661 377.638 67.8429 376.998 67.8429 376.208C67.8429 375.418 68.4661 374.778 69.2348 374.778C70.0036 374.778 70.6268 375.418 70.6268 376.208C70.6269 376.998 70.0036 377.638 69.2348 377.638Z" fill="#F1F1F1"/>
<path d="M74.8865 358.615C74.7705 358.485 74.6119 358.404 74.441 358.387L56.3174 358.129L55.8163 356.556C55.4633 355.504 54.5047 354.794 53.4221 354.782H51.5568C51.2493 354.782 51 355.038 51 355.354C51 355.67 51.2493 355.926 51.5568 355.926H53.4221C54.0274 355.94 54.5605 356.34 54.7584 356.928L58.294 367.884L58.0157 368.542C57.7051 369.364 57.7984 370.29 58.2662 371.03C58.7295 371.757 59.509 372.206 60.3542 372.232H71.1839C71.4914 372.232 71.7407 371.975 71.7407 371.66C71.7407 371.344 71.4914 371.087 71.1839 371.087H60.3541C59.8769 371.075 59.4375 370.817 59.1849 370.401C58.9351 369.99 58.8837 369.483 59.0457 369.028L59.2684 368.513L70.9889 367.254C72.2764 367.109 73.3354 366.146 73.6337 364.851L74.9701 359.102C75.0303 358.936 74.9983 358.75 74.8865 358.615ZM72.548 364.594C72.3672 365.428 71.6784 366.043 70.8498 366.11L59.2684 367.34L56.6793 359.273L73.745 359.531L72.548 364.594Z" fill="#F1F1F1"/>
<path d="M116.208 371.917C114.363 371.917 112.867 373.454 112.867 375.35C112.867 377.245 114.363 378.782 116.208 378.782C118.053 378.782 119.549 377.245 119.549 375.35C119.549 373.454 118.053 371.917 116.208 371.917ZM116.208 377.257C115.183 377.257 114.352 376.403 114.352 375.35C114.352 374.296 115.183 373.443 116.208 373.443C117.233 373.443 118.064 374.296 118.064 375.35C118.064 376.403 117.233 377.257 116.208 377.257Z" fill="#F1F1F1"/>
<path d="M130.313 371.917C128.468 371.917 126.972 373.454 126.972 375.35C126.972 377.245 128.468 378.782 130.313 378.782C132.158 378.782 133.654 377.245 133.654 375.35C133.654 373.454 132.158 371.917 130.313 371.917ZM130.313 377.257C129.288 377.257 128.457 376.403 128.457 375.35C128.457 374.296 129.288 373.443 130.313 373.443C131.338 373.443 132.169 374.296 132.169 375.35C132.169 376.403 131.338 377.257 130.313 377.257Z" fill="#F1F1F1"/>
<path d="M137.849 351.893C137.694 351.72 137.482 351.611 137.255 351.588L113.09 351.245L112.422 349.147C111.951 347.745 110.673 346.798 109.229 346.782H106.742C106.332 346.782 106 347.124 106 347.545C106 347.966 106.332 348.308 106.742 348.308H109.229C110.037 348.326 110.747 348.859 111.011 349.643L115.725 364.251L115.354 365.128C114.94 366.225 115.065 367.46 115.688 368.446C116.306 369.415 117.345 370.013 118.472 370.048H132.912C133.322 370.048 133.654 369.707 133.654 369.285C133.654 368.864 133.322 368.522 132.912 368.522H118.472C117.836 368.506 117.25 368.162 116.913 367.607C116.58 367.059 116.512 366.383 116.728 365.776L117.025 365.09L132.652 363.412C134.368 363.217 135.781 361.934 136.178 360.208L137.96 352.541C138.04 352.321 137.998 352.072 137.849 351.893ZM134.731 359.865C134.49 360.976 133.571 361.796 132.466 361.886L117.025 363.526L113.572 352.77L136.327 353.114L134.731 359.865Z" fill="#F1F1F1"/>
<path d="M139.317 294.11C139.387 294.518 139.775 294.791 140.183 294.721C140.592 294.651 140.865 294.263 140.795 293.854L139.317 294.11ZM111.169 293.854C111.099 294.262 111.372 294.65 111.781 294.721C112.189 294.791 112.577 294.517 112.647 294.109L111.169 293.854ZM125.976 284.161C125.978 284.161 125.98 284.161 125.982 284.161L125.982 282.661C125.98 282.661 125.977 282.661 125.976 282.661V284.161ZM125.982 284.161C131.85 284.163 135.154 286.678 137.013 289.149C137.952 290.397 138.531 291.649 138.875 292.588C139.047 293.057 139.158 293.446 139.227 293.713C139.261 293.847 139.284 293.951 139.299 294.018C139.306 294.052 139.311 294.077 139.314 294.093C139.315 294.1 139.316 294.106 139.317 294.108C139.317 294.11 139.317 294.111 139.317 294.111C139.317 294.111 139.317 294.111 139.317 294.111C139.317 294.111 139.317 294.11 139.317 294.11C139.317 294.11 139.317 294.11 140.056 293.982C140.795 293.854 140.795 293.854 140.795 293.853C140.795 293.853 140.795 293.853 140.795 293.852C140.794 293.851 140.794 293.85 140.794 293.849C140.794 293.847 140.793 293.844 140.792 293.84C140.791 293.833 140.789 293.823 140.787 293.811C140.782 293.786 140.775 293.752 140.766 293.708C140.748 293.621 140.72 293.497 140.68 293.342C140.601 293.032 140.475 292.595 140.284 292.073C139.903 291.031 139.26 289.641 138.212 288.247C136.096 285.434 132.364 282.663 125.982 282.661L125.982 284.161ZM125.988 282.661C125.986 282.661 125.984 282.661 125.982 282.661L125.982 284.161C125.984 284.161 125.986 284.161 125.988 284.161V282.661ZM125.982 282.661C119.6 282.663 115.868 285.434 113.752 288.247C112.704 289.641 112.061 291.031 111.68 292.073C111.489 292.595 111.363 293.032 111.284 293.342C111.244 293.497 111.216 293.621 111.198 293.708C111.189 293.752 111.182 293.786 111.177 293.81C111.175 293.823 111.173 293.833 111.172 293.84C111.171 293.844 111.17 293.847 111.17 293.849C111.17 293.85 111.17 293.851 111.17 293.852C111.169 293.852 111.169 293.853 111.169 293.853C111.169 293.854 111.169 293.854 111.908 293.982C112.647 294.109 112.647 294.11 112.647 294.11C112.647 294.11 112.647 294.11 112.647 294.11C112.647 294.111 112.647 294.111 112.647 294.111C112.647 294.11 112.647 294.11 112.647 294.108C112.648 294.105 112.649 294.1 112.65 294.092C112.653 294.077 112.658 294.052 112.665 294.018C112.68 293.95 112.703 293.847 112.737 293.713C112.806 293.446 112.917 293.057 113.089 292.588C113.433 291.649 114.012 290.397 114.951 289.149C116.809 286.678 120.114 284.163 125.982 284.161L125.982 282.661ZM126 280.636C130.282 280.636 133.75 277.168 133.75 272.886H132.25C132.25 276.34 129.453 279.136 126 279.136V280.636ZM133.75 272.886C133.75 268.605 130.282 265.136 126 265.136V266.636C129.453 266.636 132.25 269.433 132.25 272.886H133.75ZM126 265.136C121.718 265.136 118.25 268.605 118.25 272.886H119.75C119.75 269.433 122.547 266.636 126 266.636V265.136ZM118.25 272.886C118.25 277.168 121.718 280.636 126 280.636V279.136C122.547 279.136 119.75 276.34 119.75 272.886H118.25Z" fill="#F1F1F1"/>
<path d="M23.9244 294.705C23.9949 295.113 24.3829 295.387 24.7911 295.316C25.1992 295.246 25.473 294.858 25.4026 294.449L23.9244 294.705ZM4.57294 294.449C4.50248 294.857 4.77626 295.245 5.18444 295.316C5.59261 295.386 5.98062 295.113 6.05108 294.704L4.57294 294.449ZM14.9831 288.06L14.9875 288.06L14.9878 286.56L14.9834 286.56L14.9831 288.06ZM14.9874 288.06C18.9418 288.061 21.1467 289.75 22.3844 291.395C23.0129 292.231 23.4011 293.07 23.6316 293.7C23.7465 294.014 23.8212 294.273 23.8665 294.45C23.8891 294.539 23.9043 294.607 23.9135 294.65C23.9181 294.672 23.9212 294.688 23.923 294.697C23.9239 294.702 23.9244 294.705 23.9246 294.706C23.9248 294.707 23.9248 294.707 23.9248 294.707C23.9247 294.706 23.9247 294.706 23.9246 294.706C23.9246 294.706 23.9246 294.705 23.9245 294.705C23.9245 294.705 23.9244 294.705 24.6635 294.577C25.4026 294.449 25.4025 294.449 25.4024 294.449C25.4024 294.448 25.4023 294.448 25.4022 294.447C25.4021 294.447 25.4019 294.446 25.4018 294.445C25.4014 294.443 25.401 294.44 25.4005 294.438C25.3994 294.432 25.398 294.424 25.3963 294.415C25.3928 294.397 25.3878 294.372 25.3812 294.34C25.3679 294.278 25.3479 294.189 25.3198 294.079C25.2637 293.859 25.1746 293.551 25.0403 293.184C24.7725 292.452 24.3208 291.474 23.5831 290.494C22.0883 288.506 19.4553 286.561 14.9879 286.56L14.9874 288.06ZM14.9918 286.56L14.9875 286.56L14.9878 288.06L14.9922 288.06L14.9918 286.56ZM14.9874 286.56C10.5201 286.561 7.8871 288.506 6.39233 290.493C5.65468 291.474 5.20302 292.452 4.93518 293.184C4.80094 293.551 4.71185 293.859 4.65567 294.079C4.62756 294.189 4.60762 294.277 4.59435 294.34C4.58771 294.372 4.58273 294.397 4.57923 294.415C4.57747 294.424 4.57609 294.432 4.57505 294.437C4.57453 294.44 4.5741 294.443 4.57375 294.445C4.57357 294.446 4.57342 294.447 4.57328 294.447C4.57322 294.448 4.57313 294.448 4.5731 294.448C4.57302 294.449 4.57294 294.449 5.31201 294.577C6.05108 294.704 6.05102 294.705 6.05095 294.705C6.05094 294.705 6.05088 294.706 6.05086 294.706C6.0508 294.706 6.05076 294.706 6.05074 294.706C6.0507 294.707 6.05074 294.706 6.05086 294.706C6.05109 294.705 6.05163 294.702 6.05251 294.697C6.05426 294.688 6.05735 294.672 6.06195 294.65C6.07116 294.607 6.08639 294.539 6.10901 294.45C6.15431 294.273 6.22899 294.014 6.34389 293.699C6.57435 293.069 6.96255 292.231 7.5911 291.395C8.82874 289.75 11.0336 288.061 14.9879 288.06L14.9874 286.56ZM15 285.636C18.0731 285.636 20.5625 283.147 20.5625 280.074H19.0625C19.0625 282.318 17.2447 284.136 15 284.136V285.636ZM20.5625 280.074C20.5625 277.001 18.0731 274.511 15 274.511V276.011C17.2447 276.011 19.0625 277.829 19.0625 280.074H20.5625ZM15 274.511C11.9268 274.511 9.43747 277.001 9.43747 280.074H10.9375C10.9375 277.829 12.7553 276.011 15 276.011V274.511ZM9.43747 280.074C9.43747 283.147 11.9268 285.636 15 285.636V284.136C12.7553 284.136 10.9375 282.318 10.9375 280.074H9.43747Z" fill="#F1F1F1"/>
<path d="M67.9945 286.857L67.9999 286.857M67.9999 286.857C78.4447 286.86 80 295.886 80 295.886M67.9999 286.857L68.0053 286.857M67.9999 286.857C57.5552 286.86 56 295.886 56 295.886M68.0152 283.845C71.3128 283.845 73.9838 281.169 73.9838 277.866C73.9838 274.562 71.3128 271.886 68.0152 271.886C64.7176 271.886 62.0467 274.562 62.0467 277.866C62.0467 281.169 64.7176 283.845 68.0152 283.845Z" stroke="#FEF17F" stroke-width="1.5" stroke-linejoin="round"/>
<path d="M4.40399 211.487C3.86534 212.036 3.86534 212.926 4.40399 213.475C4.94264 214.023 5.81598 214.023 6.35463 213.475L12 207.723L17.6454 213.475C18.184 214.023 19.0574 214.023 19.596 213.475C20.1347 212.926 20.1347 212.036 19.596 211.487L13.9506 205.736L19.3005 200.285C19.8392 199.736 19.8392 198.847 19.3005 198.298C18.7619 197.749 17.8886 197.749 17.3499 198.298L12 203.748L6.6501 198.298C6.11144 197.749 5.23811 197.749 4.69946 198.298C4.1608 198.847 4.1608 199.736 4.69946 200.285L10.0494 205.736L4.40399 211.487Z" fill="#FEE46D"/>
<path d="M50.606 210.288C49.798 211.111 49.798 212.446 50.606 213.269C51.414 214.092 52.724 214.092 53.5319 213.269L62 204.641L70.4681 213.269C71.276 214.092 72.586 214.092 73.394 213.269C74.202 212.446 74.202 211.111 73.394 210.288L64.926 201.66L72.9508 193.485C73.7588 192.661 73.7588 191.327 72.9508 190.504C72.1428 189.68 70.8328 189.68 70.0249 190.504L62 198.679L53.9751 190.504C53.1672 189.68 51.8572 189.68 51.0492 190.504C50.2412 191.327 50.2412 192.661 51.0492 193.485L59.074 201.66L50.606 210.288Z" fill="#FEE46D"/>
<path fill-rule="evenodd" clip-rule="evenodd" d="M39.7952 69.3541C39.449 69.0317 38.9125 69.0317 38.5662 69.354C38.1831 69.7107 38.183 70.3175 38.5661 70.6742L41.9598 73.8341L38.5662 76.9936C38.183 77.3503 38.183 77.9571 38.5661 78.3139C38.9125 78.6363 39.4491 78.6363 39.7954 78.3139L44.6071 73.8341L39.7952 69.3541ZM48.5452 69.3541C48.199 69.0317 47.6625 69.0317 47.3162 69.354C46.9331 69.7107 46.933 70.3175 47.3161 70.6742L50.7098 73.8341L47.3162 76.9936C46.933 77.3503 46.933 77.9571 47.3161 78.3139C47.6625 78.6363 48.1991 78.6363 48.5454 78.3139L53.3571 73.8341L48.5452 69.3541Z" fill="#FEE46D"/>
<path fill-rule="evenodd" clip-rule="evenodd" d="M92.3691 78.0782C91.9537 78.4719 91.3019 78.4685 90.8905 78.0705L83.3574 70.7822L90.8817 63.5025C91.2968 63.1009 91.9555 63.1009 92.3706 63.5025C92.8048 63.9226 92.8056 64.6186 92.3724 65.0397L86.4487 70.7977L92.3772 76.534C92.8146 76.9572 92.8109 77.6596 92.3691 78.0782Z" fill="#FEE46D"/>
<path fill-rule="evenodd" clip-rule="evenodd" d="M4.39099 73.1359C4.59487 72.9387 4.91841 72.9387 5.12227 73.136L7.85742 75.7822L5.12237 78.4284C4.91846 78.6257 4.59484 78.6257 4.39094 78.4284C4.1773 78.2217 4.17731 77.8791 4.39096 77.6724L6.34468 75.7822L4.39093 73.8918C4.1773 73.6851 4.17733 73.3426 4.39099 73.1359Z" fill="#BDBDBD"/>
<g filter="url(#filter0_d)">
<circle cx="8" cy="8.78223" r="4" fill="#FEE46D"/>
</g>
<g filter="url(#filter1_d)">
<circle cx="46" cy="8.78223" r="4" fill="#F1F1F1"/>
</g>
<path fill-rule="evenodd" clip-rule="evenodd" d="M123.434 130.005C123.791 129.66 124.357 129.66 124.713 130.005L129.5 134.636L124.714 139.267C124.357 139.612 123.79 139.612 123.434 139.267C123.06 138.905 123.06 138.306 123.434 137.944L126.853 134.636L123.434 131.328C123.06 130.966 123.06 130.367 123.434 130.005Z" fill="#FEE46D"/>
<path fill-rule="evenodd" clip-rule="evenodd" d="M92.0663 138.767C91.7095 139.112 91.1433 139.112 90.7865 138.767L86 134.136L90.7863 129.505C91.1432 129.16 91.7095 129.16 92.0663 129.505C92.4402 129.867 92.4402 130.467 92.0663 130.828L88.6473 134.136L92.0664 137.444C92.4402 137.806 92.4402 138.406 92.0663 138.767Z" fill="#FEE46D"/>
<path fill-rule="evenodd" clip-rule="evenodd" d="M13.881 133.82C14.2261 134.177 14.2261 134.743 13.881 135.1L9.25 139.886L4.61921 135.1C4.27397 134.743 4.27398 134.177 4.61923 133.82C4.98097 133.446 5.58045 133.446 5.94218 133.82L9.25 137.239L12.5582 133.82C12.9199 133.446 13.5194 133.446 13.881 133.82Z" fill="#FEE46D"/>
<path fill-rule="evenodd" clip-rule="evenodd" d="M45.119 138.952C44.7739 138.596 44.7739 138.029 45.119 137.673L49.75 132.886L54.3808 137.673C54.726 138.029 54.726 138.596 54.3808 138.953C54.019 139.326 53.4196 139.326 53.0578 138.953L49.75 135.534L46.4418 138.953C46.0801 139.326 45.4806 139.326 45.119 138.952Z" fill="#FEE46D"/>
<defs>
<filter id="filter0_d" x="0" y="0.782227" width="16" height="16" filterUnits="userSpaceOnUse" color-interpolation-filters="sRGB">
<feFlood flood-opacity="0" result="BackgroundImageFix"/>
<feColorMatrix in="SourceAlpha" type="matrix" values="0 0 0 0 0 0 0 0 0 0 0 0 0 0 0 0 0 0 127 0"/>
<feOffset/>
<feGaussianBlur stdDeviation="2"/>
<feColorMatrix type="matrix" values="0 0 0 0 0 0 0 0 0 0 0 0 0 0 0 0 0 0 0.7 0"/>
<feBlend mode="normal" in2="BackgroundImageFix" result="effect1_dropShadow"/>
<feBlend mode="normal" in="SourceGraphic" in2="effect1_dropShadow" result="shape"/>
</filter>
<filter id="filter1_d" x="38" y="0.782227" width="16" height="16" filterUnits="userSpaceOnUse" color-interpolation-filters="sRGB">
<feFlood flood-opacity="0" result="BackgroundImageFix"/>
<feColorMatrix in="SourceAlpha" type="matrix" values="0 0 0 0 0 0 0 0 0 0 0 0 0 0 0 0 0 0 127 0"/>
<feOffset/>
<feGaussianBlur stdDeviation="2"/>
<feColorMatrix type="matrix" values="0 0 0 0 0 0 0 0 0 0 0 0 0 0 0 0 0 0 0.7 0"/>
<feBlend mode="normal" in2="BackgroundImageFix" result="effect1_dropShadow"/>
<feBlend mode="normal" in="SourceGraphic" in2="effect1_dropShadow" result="shape"/>
</filter>
</defs>
</svg>
