<svg width="210" height="212" viewBox="0 0 210 212" fill="none" xmlns="http://www.w3.org/2000/svg">
<circle cx="104.5" cy="66.5" r="66.5" fill="white"/>
<path d="M82.1059 190.62H79.9499L79.7539 192.566H78.7179L78.9139 190.62H77.5279L77.5979 189.864H78.9979L79.2639 187.372H77.8499L77.9339 186.63H79.3339L79.5439 184.698H80.5799L80.3699 186.63H82.5259L82.7359 184.698H83.7579L83.5479 186.63H84.9899L84.9059 187.372H83.4779L83.2119 189.864H84.6539L84.5699 190.62H83.1279L82.9319 192.566H81.8959L82.1059 190.62ZM80.0339 189.864H82.1759L82.4419 187.372H80.2999L80.0339 189.864ZM87.5773 184.194H92.9253V185.146H88.6833V188.072H92.6313V189.024H88.6833V193H87.5773V184.194ZM95.5191 184.194H100.867V185.146H96.6251V188.072H100.573V189.024H96.6251V193H95.5191V184.194ZM103.461 184.194H108.809V185.146H104.567V188.072H108.515V189.024H104.567V193H103.461V184.194ZM111.403 184.194H116.751V185.146H112.509V188.072H116.457V189.024H112.509V193H111.403V184.194ZM119.344 184.194H124.692V185.146H120.45V188.072H124.398V189.024H120.45V193H119.344V184.194ZM127.286 184.194H132.634V185.146H128.392V188.072H132.34V189.024H128.392V193H127.286V184.194Z" fill="#BDBDBD"/>
<path d="M80.9598 156.318L83.5338 165.192L86.0358 157.092H87.4758L90.1218 165.228L92.8578 156.318H95.2518L91.2378 168H89.0058L86.8098 161.412L84.6318 168H82.3998L78.5838 156.318H80.9598ZM100.007 160.674C100.607 159.57 101.483 159.018 102.635 159.018C103.787 159.018 104.633 159.372 105.173 160.08C105.725 160.788 106.001 161.724 106.001 162.888V168H103.877V162.888C103.877 162.24 103.721 161.754 103.409 161.43C103.097 161.094 102.659 160.926 102.095 160.926C101.531 160.926 101.045 161.178 100.637 161.682C100.241 162.186 100.031 162.942 100.007 163.95V168H97.8826V155.652H100.007V160.674ZM109.877 159.234H112.001V168H109.877V159.234ZM109.625 156.426C109.625 156.042 109.739 155.742 109.967 155.526C110.195 155.298 110.519 155.184 110.939 155.184C111.347 155.184 111.665 155.298 111.893 155.526C112.133 155.742 112.253 156.042 112.253 156.426C112.253 156.81 112.133 157.116 111.893 157.344C111.665 157.56 111.347 157.668 110.939 157.668C110.519 157.668 110.195 157.56 109.967 157.344C109.739 157.116 109.625 156.81 109.625 156.426ZM121.136 167.784C120.344 168.096 119.72 168.252 119.264 168.252C118.808 168.252 118.406 168.198 118.058 168.09C117.722 167.982 117.422 167.82 117.158 167.604C116.606 167.112 116.33 166.434 116.33 165.57V160.674H115.106V159.252H116.33V156.948H118.454V159.252H120.83V160.674H118.454V165.498C118.454 166.218 118.796 166.578 119.48 166.578C119.828 166.578 120.278 166.482 120.83 166.29L121.136 167.784ZM130.007 160.296C130.307 160.68 130.529 161.124 130.673 161.628C130.829 162.132 130.907 162.594 130.907 163.014C130.907 163.434 130.883 163.812 130.835 164.148H125.183C125.207 164.856 125.381 165.432 125.705 165.876C126.029 166.32 126.521 166.542 127.181 166.542C128.057 166.542 128.579 166.158 128.747 165.39H130.889C130.745 166.266 130.343 166.956 129.683 167.46C128.999 167.988 128.165 168.252 127.181 168.252C126.029 168.252 125.063 167.832 124.283 166.992C123.479 166.116 123.077 164.994 123.077 163.626C123.077 162.222 123.479 161.094 124.283 160.242C125.051 159.426 126.017 159.018 127.181 159.018C128.393 159.018 129.335 159.444 130.007 160.296ZM127.199 160.71C126.599 160.71 126.131 160.908 125.795 161.304C125.459 161.688 125.261 162.186 125.201 162.798H128.927C128.927 161.85 128.627 161.214 128.027 160.89C127.799 160.77 127.523 160.71 127.199 160.71Z" fill="#F1F1F1"/>
</svg>
