<svg width="210" height="212" viewBox="0 0 210 212" fill="none" xmlns="http://www.w3.org/2000/svg">
<circle cx="104.5" cy="66.5" r="66" fill="#121212" stroke="#606060"/>
<path d="M79.1938 190.62H77.0378L76.8418 192.566H75.8058L76.0018 190.62H74.6158L74.6858 189.864H76.0858L76.3518 187.372H74.9378L75.0218 186.63H76.4218L76.6318 184.698H77.6678L77.4578 186.63H79.6138L79.8238 184.698H80.8458L80.6358 186.63H82.0778L81.9938 187.372H80.5658L80.2998 189.864H81.7418L81.6578 190.62H80.2158L80.0198 192.566H78.9838L79.1938 190.62ZM77.1218 189.864H79.2638L79.5298 187.372H77.3878L77.1218 189.864ZM87.4232 184.04C88.4872 184.04 89.3272 184.432 89.9432 185.216C90.5592 186 90.8672 187.129 90.8672 188.604C90.8672 190.069 90.5592 191.194 89.9432 191.978C89.3272 192.762 88.4872 193.154 87.4232 193.154C86.3592 193.154 85.5145 192.767 84.8892 191.992C84.2732 191.217 83.9652 190.088 83.9652 188.604C83.9652 187.111 84.2732 185.977 84.8892 185.202C85.5145 184.427 86.3592 184.04 87.4232 184.04ZM89.7192 188.604C89.7192 187.456 89.5232 186.579 89.1312 185.972C88.7392 185.356 88.1652 185.048 87.4092 185.048C86.6625 185.048 86.0932 185.356 85.7012 185.972C85.3092 186.579 85.1132 187.456 85.1132 188.604C85.1132 189.743 85.3092 190.62 85.7012 191.236C86.0932 191.843 86.6625 192.146 87.4092 192.146C88.1652 192.146 88.7392 191.843 89.1312 191.236C89.5232 190.62 89.7192 189.743 89.7192 188.604ZM96.3357 184.04C97.3997 184.04 98.2397 184.432 98.8557 185.216C99.4717 186 99.7797 187.129 99.7797 188.604C99.7797 190.069 99.4717 191.194 98.8557 191.978C98.2397 192.762 97.3997 193.154 96.3357 193.154C95.2717 193.154 94.427 192.767 93.8017 191.992C93.1857 191.217 92.8777 190.088 92.8777 188.604C92.8777 187.111 93.1857 185.977 93.8017 185.202C94.427 184.427 95.2717 184.04 96.3357 184.04ZM98.6317 188.604C98.6317 187.456 98.4357 186.579 98.0437 185.972C97.6517 185.356 97.0777 185.048 96.3217 185.048C95.575 185.048 95.0057 185.356 94.6137 185.972C94.2217 186.579 94.0257 187.456 94.0257 188.604C94.0257 189.743 94.2217 190.62 94.6137 191.236C95.0057 191.843 95.575 192.146 96.3217 192.146C97.0777 192.146 97.6517 191.843 98.0437 191.236C98.4357 190.62 98.6317 189.743 98.6317 188.604ZM105.248 184.04C106.312 184.04 107.152 184.432 107.768 185.216C108.384 186 108.692 187.129 108.692 188.604C108.692 190.069 108.384 191.194 107.768 191.978C107.152 192.762 106.312 193.154 105.248 193.154C104.184 193.154 103.34 192.767 102.714 191.992C102.098 191.217 101.79 190.088 101.79 188.604C101.79 187.111 102.098 185.977 102.714 185.202C103.34 184.427 104.184 184.04 105.248 184.04ZM107.544 188.604C107.544 187.456 107.348 186.579 106.956 185.972C106.564 185.356 105.99 185.048 105.234 185.048C104.488 185.048 103.918 185.356 103.526 185.972C103.134 186.579 102.938 187.456 102.938 188.604C102.938 189.743 103.134 190.62 103.526 191.236C103.918 191.843 104.488 192.146 105.234 192.146C105.99 192.146 106.564 191.843 106.956 191.236C107.348 190.62 107.544 189.743 107.544 188.604ZM114.161 184.04C115.225 184.04 116.065 184.432 116.681 185.216C117.297 186 117.605 187.129 117.605 188.604C117.605 190.069 117.297 191.194 116.681 191.978C116.065 192.762 115.225 193.154 114.161 193.154C113.097 193.154 112.252 192.767 111.627 191.992C111.011 191.217 110.703 190.088 110.703 188.604C110.703 187.111 111.011 185.977 111.627 185.202C112.252 184.427 113.097 184.04 114.161 184.04ZM116.457 188.604C116.457 187.456 116.261 186.579 115.869 185.972C115.477 185.356 114.903 185.048 114.147 185.048C113.4 185.048 112.831 185.356 112.439 185.972C112.047 186.579 111.851 187.456 111.851 188.604C111.851 189.743 112.047 190.62 112.439 191.236C112.831 191.843 113.4 192.146 114.147 192.146C114.903 192.146 115.477 191.843 115.869 191.236C116.261 190.62 116.457 189.743 116.457 188.604ZM123.073 184.04C124.137 184.04 124.977 184.432 125.593 185.216C126.209 186 126.517 187.129 126.517 188.604C126.517 190.069 126.209 191.194 125.593 191.978C124.977 192.762 124.137 193.154 123.073 193.154C122.009 193.154 121.165 192.767 120.539 191.992C119.923 191.217 119.615 190.088 119.615 188.604C119.615 187.111 119.923 185.977 120.539 185.202C121.165 184.427 122.009 184.04 123.073 184.04ZM125.369 188.604C125.369 187.456 125.173 186.579 124.781 185.972C124.389 185.356 123.815 185.048 123.059 185.048C122.313 185.048 121.743 185.356 121.351 185.972C120.959 186.579 120.763 187.456 120.763 188.604C120.763 189.743 120.959 190.62 121.351 191.236C121.743 191.843 122.313 192.146 123.059 192.146C123.815 192.146 124.389 191.843 124.781 191.236C125.173 190.62 125.369 189.743 125.369 188.604ZM131.986 184.04C133.05 184.04 133.89 184.432 134.506 185.216C135.122 186 135.43 187.129 135.43 188.604C135.43 190.069 135.122 191.194 134.506 191.978C133.89 192.762 133.05 193.154 131.986 193.154C130.922 193.154 130.077 192.767 129.452 191.992C128.836 191.217 128.528 190.088 128.528 188.604C128.528 187.111 128.836 185.977 129.452 185.202C130.077 184.427 130.922 184.04 131.986 184.04ZM134.282 188.604C134.282 187.456 134.086 186.579 133.694 185.972C133.302 185.356 132.728 185.048 131.972 185.048C131.225 185.048 130.656 185.356 130.264 185.972C129.872 186.579 129.676 187.456 129.676 188.604C129.676 189.743 129.872 190.62 130.264 191.236C130.656 191.843 131.225 192.146 131.972 192.146C132.728 192.146 133.302 191.843 133.694 191.236C134.086 190.62 134.282 189.743 134.282 188.604Z" fill="#BDBDBD"/>
<path d="M81.6996 156.318H86.4156C87.7116 156.318 88.7136 156.624 89.4216 157.236C90.0936 157.8 90.4296 158.526 90.4296 159.414C90.4296 160.074 90.2436 160.638 89.8716 161.106C89.5116 161.574 89.0016 161.904 88.3416 162.096C89.0016 162.228 89.5476 162.528 89.9796 162.996C90.4116 163.452 90.6276 164.04 90.6276 164.76C90.6276 166.2 89.9136 167.184 88.4856 167.712C87.9456 167.904 87.2616 168 86.4336 168H81.6996V156.318ZM86.3796 166.146C87.0636 166.146 87.5556 166.008 87.8556 165.732C88.1676 165.456 88.3236 165.09 88.3236 164.634C88.3236 164.178 88.1616 163.812 87.8376 163.536C87.5256 163.248 87.0396 163.104 86.3796 163.104H83.8236V166.146H86.3796ZM83.8236 161.25H86.3256C86.9616 161.25 87.4416 161.112 87.7656 160.836C88.0896 160.56 88.2516 160.188 88.2516 159.72C88.2516 159.24 88.0896 158.862 87.7656 158.586C87.4536 158.298 86.9796 158.154 86.3436 158.154H83.8236V161.25ZM93.9715 155.652H96.0955V168H93.9715V155.652ZM102.918 162.888C103.614 162.888 104.418 163.002 105.33 163.23V162.366C105.33 161.754 105.204 161.304 104.952 161.016C104.712 160.716 104.31 160.566 103.746 160.566C103.194 160.566 102.768 160.68 102.468 160.908C102.168 161.124 102.018 161.436 102.018 161.844H99.6963C99.6963 160.848 100.044 160.128 100.74 159.684C101.448 159.24 102.432 159.018 103.692 159.018C105.492 159.018 106.656 159.648 107.184 160.908C107.364 161.34 107.454 161.85 107.454 162.438V168H105.6L105.438 166.83C104.874 167.778 104.01 168.252 102.846 168.252C101.718 168.252 100.842 167.976 100.218 167.424C99.6423 166.896 99.3543 166.23 99.3543 165.426C99.3543 164.61 99.6723 163.986 100.308 163.554C100.944 163.11 101.814 162.888 102.918 162.888ZM105.33 164.58C104.622 164.388 103.962 164.292 103.35 164.292C102.198 164.292 101.622 164.676 101.622 165.444C101.622 165.768 101.754 166.05 102.018 166.29C102.282 166.518 102.702 166.632 103.278 166.632C103.866 166.632 104.346 166.44 104.718 166.056C105.102 165.66 105.306 165.168 105.33 164.58ZM114.48 159.018C115.032 159.018 115.524 159.114 115.956 159.306C116.4 159.486 116.772 159.726 117.072 160.026C117.672 160.602 118.026 161.328 118.134 162.204L115.992 162.258C115.896 161.874 115.716 161.556 115.452 161.304C115.2 161.052 114.906 160.926 114.57 160.926C114.234 160.926 113.946 160.98 113.706 161.088C113.466 161.184 113.256 161.34 113.076 161.556C112.668 162.06 112.464 162.756 112.464 163.644C112.464 164.532 112.656 165.204 113.04 165.66C113.424 166.104 113.886 166.326 114.426 166.326C114.978 166.326 115.374 166.2 115.614 165.948C115.866 165.684 115.992 165.33 115.992 164.886H118.134C118.134 165.846 117.816 166.644 117.18 167.28C116.532 167.928 115.626 168.252 114.462 168.252C113.31 168.252 112.344 167.832 111.564 166.992C110.736 166.092 110.322 164.97 110.322 163.626C110.322 162.21 110.736 161.076 111.564 160.224C112.344 159.42 113.316 159.018 114.48 159.018ZM124.391 163.734L123.419 164.544V168H121.295V155.652H123.419V162.33L126.875 159.252H129.755L125.885 162.492L129.971 168H127.379L124.391 163.734Z" fill="#F1F1F1"/>
</svg>
