<svg width="210" height="212" viewBox="0 0 210 212" fill="none" xmlns="http://www.w3.org/2000/svg">
<circle cx="104.5" cy="66.5" r="66.5" fill="#FEF17F"/>
<path d="M83.5825 190.62H81.4265L81.2305 192.566H80.1945L80.3905 190.62H79.0045L79.0745 189.864H80.4745L80.7405 187.372H79.3265L79.4105 186.63H80.8105L81.0205 184.698H82.0565L81.8465 186.63H84.0025L84.2125 184.698H85.2345L85.0245 186.63H86.4665L86.3825 187.372H84.9545L84.6885 189.864H86.1305L86.0465 190.62H84.6045L84.4085 192.566H83.3725L83.5825 190.62ZM81.5105 189.864H83.6525L83.9185 187.372H81.7765L81.5105 189.864ZM89.0538 184.194H94.4018V185.146H90.1598V188.072H94.1078V189.024H90.1598V193H89.0538V184.194ZM96.9816 184.194H102.4V185.146H98.0876V188.1H102.148V189.038H98.0876V192.034H102.4V193H96.9816V184.194ZM105.457 184.194H110.805V185.146H106.563V188.072H110.511V189.024H106.563V193H105.457V184.194ZM112.671 184.88C113.296 184.796 113.842 184.558 114.309 184.166H115.205V193H114.113V185.482C113.646 185.781 113.165 185.944 112.671 185.972V184.88ZM123.548 184.194V185.216L119.516 193H118.032L122.26 185.258H117.556V184.194H123.548ZM125.81 184.194H131.158V185.146H126.916V188.072H130.864V189.024H126.916V193H125.81V184.194Z" fill="#BDBDBD"/>
<path d="M54.5654 166.146H59.3714V168H52.4414V156.318H54.5654V166.146ZM62.1159 159.234H64.2399V168H62.1159V159.234ZM61.8639 156.426C61.8639 156.042 61.9779 155.742 62.2059 155.526C62.4339 155.298 62.7579 155.184 63.1779 155.184C63.5859 155.184 63.9039 155.298 64.1319 155.526C64.3719 155.742 64.4919 156.042 64.4919 156.426C64.4919 156.81 64.3719 157.116 64.1319 157.344C63.9039 157.56 63.5859 157.668 63.1779 157.668C62.7579 157.668 62.4339 157.56 62.2059 157.344C61.9779 157.116 61.8639 156.81 61.8639 156.426ZM69.1982 164.418C68.4902 163.818 68.1362 163.068 68.1362 162.168C68.1362 161.22 68.5082 160.452 69.2522 159.864C69.9722 159.3 70.7942 159.018 71.7182 159.018C72.6542 159.018 73.4342 159.192 74.0582 159.54C74.1302 158.856 74.4242 158.304 74.9402 157.884C75.4442 157.464 76.0382 157.254 76.7222 157.254L76.6142 159.288C75.5822 159.288 75.0482 159.63 75.0122 160.314C75.4562 160.866 75.6782 161.43 75.6782 162.006C75.6782 162.582 75.5762 163.068 75.3722 163.464C75.1682 163.848 74.8922 164.172 74.5442 164.436C73.8242 165.012 72.9482 165.3 71.9162 165.3C71.3282 165.3 70.7942 165.21 70.3142 165.03C69.8342 165.174 69.5942 165.462 69.5942 165.894C69.5942 166.434 70.0502 166.704 70.9622 166.704H73.8962C75.8882 166.704 76.8842 167.4 76.8842 168.792C76.8842 169.26 76.7642 169.716 76.5242 170.16C76.2962 170.616 75.9602 171.018 75.5162 171.366C74.5322 172.134 73.2962 172.518 71.8082 172.518C70.3682 172.518 69.1982 172.224 68.2982 171.636C67.4582 171.072 67.0382 170.382 67.0382 169.566C67.0382 169.026 67.2002 168.594 67.5242 168.27C67.8602 167.958 68.2982 167.76 68.8382 167.676C68.1302 167.244 67.7762 166.71 67.7762 166.074C67.7762 165.654 67.9082 165.306 68.1722 165.03C68.4362 164.742 68.7782 164.538 69.1982 164.418ZM70.8182 168.198C69.6902 168.246 69.1262 168.672 69.1262 169.476C69.1262 169.884 69.3602 170.208 69.8282 170.448C70.3082 170.7 70.8722 170.826 71.5202 170.826C72.1682 170.826 72.6722 170.772 73.0322 170.664C73.4042 170.556 73.7162 170.412 73.9682 170.232C74.5082 169.872 74.7782 169.44 74.7782 168.936C74.7782 168.72 74.7002 168.54 74.5442 168.396C74.4002 168.264 74.1842 168.198 73.8962 168.198H70.8182ZM73.5722 162.15C73.5722 161.658 73.4342 161.262 73.1582 160.962C72.8942 160.65 72.4862 160.494 71.9342 160.494C71.3822 160.494 70.9622 160.65 70.6742 160.962C70.3862 161.262 70.2422 161.658 70.2422 162.15C70.2422 162.63 70.3862 163.026 70.6742 163.338C70.9622 163.65 71.3822 163.806 71.9342 163.806C72.4862 163.806 72.8942 163.65 73.1582 163.338C73.4342 163.026 73.5722 162.63 73.5722 162.15ZM81.6427 160.674C82.2427 159.57 83.1187 159.018 84.2707 159.018C85.4227 159.018 86.2687 159.372 86.8087 160.08C87.3607 160.788 87.6367 161.724 87.6367 162.888V168H85.5127V162.888C85.5127 162.24 85.3567 161.754 85.0447 161.43C84.7327 161.094 84.2947 160.926 83.7307 160.926C83.1667 160.926 82.6807 161.178 82.2727 161.682C81.8767 162.186 81.6667 162.942 81.6427 163.95V168H79.5187V155.652H81.6427V160.674ZM96.2656 167.784C95.4736 168.096 94.8496 168.252 94.3936 168.252C93.9376 168.252 93.5356 168.198 93.1876 168.09C92.8516 167.982 92.5516 167.82 92.2876 167.604C91.7356 167.112 91.4596 166.434 91.4596 165.57V160.674H90.2356V159.252H91.4596V156.948H93.5836V159.252H95.9596V160.674H93.5836V165.498C93.5836 166.218 93.9256 166.578 94.6096 166.578C94.9576 166.578 95.4076 166.482 95.9596 166.29L96.2656 167.784ZM105.322 156.318L107.896 160.98L110.596 156.318H113.098L108.94 163.176V168H106.816V163.176L102.802 156.318H105.322ZM120.294 160.296C120.594 160.68 120.816 161.124 120.96 161.628C121.116 162.132 121.194 162.594 121.194 163.014C121.194 163.434 121.17 163.812 121.122 164.148H115.47C115.494 164.856 115.668 165.432 115.992 165.876C116.316 166.32 116.808 166.542 117.468 166.542C118.344 166.542 118.866 166.158 119.034 165.39H121.176C121.032 166.266 120.63 166.956 119.97 167.46C119.286 167.988 118.452 168.252 117.468 168.252C116.316 168.252 115.35 167.832 114.57 166.992C113.766 166.116 113.364 164.994 113.364 163.626C113.364 162.222 113.766 161.094 114.57 160.242C115.338 159.426 116.304 159.018 117.468 159.018C118.68 159.018 119.622 159.444 120.294 160.296ZM117.486 160.71C116.886 160.71 116.418 160.908 116.082 161.304C115.746 161.688 115.548 162.186 115.488 162.798H119.214C119.214 161.85 118.914 161.214 118.314 160.89C118.086 160.77 117.81 160.71 117.486 160.71ZM124.337 155.652H126.461V168H124.337V155.652ZM130.404 155.652H132.528V168H130.404V155.652ZM139.909 159.018C140.497 159.018 141.049 159.114 141.565 159.306C142.081 159.486 142.525 159.768 142.897 160.152C143.725 160.992 144.139 162.156 144.139 163.644C144.139 165.108 143.725 166.26 142.897 167.1C142.153 167.868 141.157 168.252 139.909 168.252C138.661 168.252 137.653 167.868 136.885 167.1C136.057 166.272 135.643 165.12 135.643 163.644C135.643 162.144 136.057 160.98 136.885 160.152C137.641 159.396 138.649 159.018 139.909 159.018ZM142.015 163.626C142.015 162.702 141.835 162.012 141.475 161.556C141.115 161.088 140.611 160.854 139.963 160.854C139.327 160.854 138.805 161.088 138.397 161.556C137.989 162.012 137.785 162.702 137.785 163.626C137.785 164.55 137.965 165.246 138.325 165.714C138.697 166.17 139.201 166.398 139.837 166.398C140.473 166.398 140.995 166.17 141.403 165.714C141.811 165.246 142.015 164.55 142.015 163.626ZM148.04 159.252L149.804 165.498L151.478 159.738H153.404L155.078 165.516L156.86 159.252H158.984L156.104 168H154.016L152.396 162.762L150.812 168H148.706L145.808 159.252H148.04Z" fill="#F1F1F1"/>
</svg>
