<svg width="210" height="212" viewBox="0 0 210 212" fill="none" xmlns="http://www.w3.org/2000/svg">
<circle cx="104.5" cy="66.5" r="66.5" fill="#BDBDBD"/>
<path d="M77.1841 190.62H75.0281L74.8321 192.566H73.7961L73.9921 190.62H72.6061L72.6761 189.864H74.0761L74.3421 187.372H72.9281L73.0121 186.63H74.4121L74.6221 184.698H75.6581L75.4481 186.63H77.6041L77.8141 184.698H78.8361L78.6261 186.63H80.0681L79.9841 187.372H78.5561L78.2901 189.864H79.7321L79.6481 190.62H78.2061L78.0101 192.566H76.9741L77.1841 190.62ZM75.1121 189.864H77.2541L77.5201 187.372H75.3781L75.1121 189.864ZM82.6554 184.194H85.9454C86.8694 184.194 87.5787 184.413 88.0734 184.852C88.5774 185.291 88.8294 185.841 88.8294 186.504C88.8294 187.008 88.6894 187.447 88.4094 187.82C88.1387 188.193 87.7234 188.445 87.1634 188.576C87.7141 188.669 88.1527 188.907 88.4794 189.29C88.8154 189.673 88.9834 190.107 88.9834 190.592C88.9834 191.675 88.4561 192.407 87.4014 192.79C87.0094 192.93 86.5287 193 85.9594 193H82.6554V184.194ZM85.9314 192.034C86.6034 192.034 87.0841 191.899 87.3734 191.628C87.6627 191.357 87.8074 190.998 87.8074 190.55C87.8074 190.102 87.6487 189.747 87.3314 189.486C87.0141 189.215 86.5474 189.08 85.9314 189.08H83.7614V192.034H85.9314ZM83.7614 188.128H85.9174C86.4587 188.128 86.8881 187.997 87.2054 187.736C87.5321 187.465 87.6954 187.097 87.6954 186.63C87.6954 186.163 87.5367 185.799 87.2194 185.538C86.9114 185.277 86.4774 185.146 85.9174 185.146H83.7614V188.128ZM94.5404 184.194C95.8657 184.194 96.9251 184.595 97.7184 185.398C98.5211 186.191 98.9224 187.26 98.9224 188.604C98.9224 189.939 98.5211 191.007 97.7184 191.81C96.9251 192.603 95.8657 193 94.5404 193H91.9504V184.194H94.5404ZM93.0564 192.034H94.5404C95.5204 192.034 96.2997 191.712 96.8784 191.068C97.4571 190.415 97.7464 189.589 97.7464 188.59C97.7464 187.591 97.4524 186.775 96.8644 186.14C96.2857 185.496 95.5111 185.174 94.5404 185.174H93.0564V192.034ZM101.82 184.194H105.11C106.034 184.194 106.744 184.413 107.238 184.852C107.742 185.291 107.994 185.841 107.994 186.504C107.994 187.008 107.854 187.447 107.574 187.82C107.304 188.193 106.888 188.445 106.328 188.576C106.879 188.669 107.318 188.907 107.644 189.29C107.98 189.673 108.148 190.107 108.148 190.592C108.148 191.675 107.621 192.407 106.566 192.79C106.174 192.93 105.694 193 105.124 193H101.82V184.194ZM105.096 192.034C105.768 192.034 106.249 191.899 106.538 191.628C106.828 191.357 106.972 190.998 106.972 190.55C106.972 190.102 106.814 189.747 106.496 189.486C106.179 189.215 105.712 189.08 105.096 189.08H102.926V192.034H105.096ZM102.926 188.128H105.082C105.624 188.128 106.053 187.997 106.37 187.736C106.697 187.465 106.86 187.097 106.86 186.63C106.86 186.163 106.702 185.799 106.384 185.538C106.076 185.277 105.642 185.146 105.082 185.146H102.926V188.128ZM113.705 184.194C115.031 184.194 116.09 184.595 116.883 185.398C117.686 186.191 118.087 187.26 118.087 188.604C118.087 189.939 117.686 191.007 116.883 191.81C116.09 192.603 115.031 193 113.705 193H111.115V184.194H113.705ZM112.221 192.034H113.705C114.685 192.034 115.465 191.712 116.043 191.068C116.622 190.415 116.911 189.589 116.911 188.59C116.911 187.591 116.617 186.775 116.029 186.14C115.451 185.496 114.676 185.174 113.705 185.174H112.221V192.034ZM120.985 184.194H124.275C125.199 184.194 125.908 184.413 126.403 184.852C126.907 185.291 127.159 185.841 127.159 186.504C127.159 187.008 127.019 187.447 126.739 187.82C126.468 188.193 126.053 188.445 125.493 188.576C126.044 188.669 126.482 188.907 126.809 189.29C127.145 189.673 127.313 190.107 127.313 190.592C127.313 191.675 126.786 192.407 125.731 192.79C125.339 192.93 124.858 193 124.289 193H120.985V184.194ZM124.261 192.034C124.933 192.034 125.414 191.899 125.703 191.628C125.992 191.357 126.137 190.998 126.137 190.55C126.137 190.102 125.978 189.747 125.661 189.486C125.344 189.215 124.877 189.08 124.261 189.08H122.091V192.034H124.261ZM122.091 188.128H124.247C124.788 188.128 125.218 187.997 125.535 187.736C125.862 187.465 126.025 187.097 126.025 186.63C126.025 186.163 125.866 185.799 125.549 185.538C125.241 185.277 124.807 185.146 124.247 185.146H122.091V188.128ZM132.87 184.194C134.195 184.194 135.255 184.595 136.048 185.398C136.851 186.191 137.252 187.26 137.252 188.604C137.252 189.939 136.851 191.007 136.048 191.81C135.255 192.603 134.195 193 132.87 193H130.28V184.194H132.87ZM131.386 192.034H132.87C133.85 192.034 134.629 191.712 135.208 191.068C135.787 190.415 136.076 189.589 136.076 188.59C136.076 187.591 135.782 186.775 135.194 186.14C134.615 185.496 133.841 185.174 132.87 185.174H131.386V192.034Z" fill="#BDBDBD"/>
<path d="M93.7954 166.146C93.2914 167.55 92.3254 168.252 90.8974 168.252C89.4334 168.252 88.2274 167.7 87.2794 166.596C86.2954 165.456 85.8034 163.998 85.8034 162.222C85.8034 160.35 86.3314 158.85 87.3874 157.722C88.4074 156.63 89.7214 156.084 91.3294 156.084C92.4214 156.084 93.3334 156.324 94.0654 156.804C94.8094 157.272 95.3914 158.016 95.8114 159.036L93.6334 159.54C92.9974 158.52 92.1934 158.01 91.2214 158.01C90.3334 158.01 89.5954 158.388 89.0074 159.144C88.3954 159.912 88.0894 160.938 88.0894 162.222C88.0894 163.434 88.3654 164.418 88.9174 165.174C89.4574 165.918 90.1774 166.29 91.0774 166.29C91.8454 166.29 92.4754 166.044 92.9674 165.552C93.4714 165.048 93.7234 164.358 93.7234 163.482V163.41L91.0954 163.356V161.988H95.7574V168H94.0294L93.7954 166.146ZM101.537 160.98C102.065 159.72 102.857 159.09 103.913 159.09C104.117 159.09 104.375 159.132 104.687 159.216L104.651 161.34C104.315 161.268 103.985 161.232 103.661 161.232C102.245 161.232 101.537 162.21 101.537 164.166V168H99.4131V159.234H101.537V160.98ZM113.603 160.296C113.903 160.68 114.125 161.124 114.269 161.628C114.425 162.132 114.503 162.594 114.503 163.014C114.503 163.434 114.479 163.812 114.431 164.148H108.779C108.803 164.856 108.977 165.432 109.301 165.876C109.625 166.32 110.117 166.542 110.777 166.542C111.653 166.542 112.175 166.158 112.343 165.39H114.485C114.341 166.266 113.939 166.956 113.279 167.46C112.595 167.988 111.761 168.252 110.777 168.252C109.625 168.252 108.659 167.832 107.879 166.992C107.075 166.116 106.673 164.994 106.673 163.626C106.673 162.222 107.075 161.094 107.879 160.242C108.647 159.426 109.613 159.018 110.777 159.018C111.989 159.018 112.931 159.444 113.603 160.296ZM110.795 160.71C110.195 160.71 109.727 160.908 109.391 161.304C109.055 161.688 108.857 162.186 108.797 162.798H112.523C112.523 161.85 112.223 161.214 111.623 160.89C111.395 160.77 111.119 160.71 110.795 160.71ZM118.726 159.252L120.832 165.552L122.668 159.252H124.828L121.48 169.584C121.132 170.628 120.706 171.378 120.202 171.834C119.71 172.29 119.08 172.518 118.312 172.518C117.532 172.518 116.752 172.326 115.972 171.942V170.07C116.596 170.466 117.226 170.664 117.862 170.664C118.282 170.664 118.624 170.496 118.888 170.16C119.164 169.824 119.386 169.386 119.554 168.846L119.824 168L116.314 159.252H118.726Z" fill="#F1F1F1"/>
</svg>
