<svg width="210" height="212" viewBox="0 0 210 212" fill="none" xmlns="http://www.w3.org/2000/svg">
<circle cx="104.5" cy="66.5" r="66" fill="#121212"/>
<circle cx="104.5" cy="66.5" r="66" fill="white" fill-opacity="0.11"/>
<circle cx="104.5" cy="66.5" r="66" stroke="#606060"/>
<path d="M7.85065 184.88C8.47598 184.796 9.02198 184.558 9.48865 184.166H10.3847V193H9.29265V185.482C8.82598 185.781 8.34532 185.944 7.85065 185.972V184.88ZM13.0854 184.88C13.7107 184.796 14.2567 184.558 14.7234 184.166H15.6194V193H14.5274V185.482C14.0607 185.781 13.5801 185.944 13.0854 185.972V184.88ZM20.2662 184.04C20.7608 184.04 21.1855 184.217 21.5402 184.572C21.8948 184.927 22.0722 185.421 22.0722 186.056C22.0722 186.691 21.8948 187.185 21.5402 187.54C21.1948 187.885 20.7702 188.058 20.2662 188.058C19.7622 188.058 19.3375 187.881 18.9922 187.526C18.6562 187.171 18.4882 186.681 18.4882 186.056C18.4882 185.431 18.6608 184.941 19.0062 184.586C19.3515 184.222 19.7715 184.04 20.2662 184.04ZM21.1762 186.056C21.1762 185.617 21.0922 185.295 20.9242 185.09C20.7562 184.885 20.5368 184.782 20.2662 184.782C19.9955 184.782 19.7762 184.885 19.6082 185.09C19.4402 185.295 19.3562 185.617 19.3562 186.056C19.3562 186.495 19.4402 186.812 19.6082 187.008C19.7762 187.204 19.9955 187.302 20.2662 187.302C20.5368 187.302 20.7562 187.204 20.9242 187.008C21.0922 186.812 21.1762 186.495 21.1762 186.056ZM25.1102 184.194H26.2582L20.3362 193H19.2022L25.1102 184.194ZM25.1662 189.136C25.6702 189.136 26.0948 189.313 26.4402 189.668C26.7948 190.013 26.9722 190.508 26.9722 191.152C26.9722 191.787 26.7948 192.281 26.4402 192.636C26.0948 192.981 25.6702 193.154 25.1662 193.154C24.6622 193.154 24.2375 192.977 23.8922 192.622C23.5562 192.267 23.3882 191.777 23.3882 191.152C23.3882 190.517 23.5562 190.023 23.8922 189.668C24.2375 189.313 24.6622 189.136 25.1662 189.136ZM25.1662 189.878C24.8955 189.878 24.6762 189.981 24.5082 190.186C24.3402 190.391 24.2562 190.713 24.2562 191.152C24.2562 191.591 24.3402 191.908 24.5082 192.104C24.6762 192.3 24.8955 192.398 25.1662 192.398C25.4368 192.398 25.6562 192.3 25.8242 192.104C25.9922 191.908 26.0762 191.591 26.0762 191.152C26.0762 190.713 25.9922 190.391 25.8242 190.186C25.6562 189.981 25.4368 189.878 25.1662 189.878ZM36.1503 186.14C37.0837 186.14 37.835 186.443 38.4043 187.05C38.983 187.657 39.2723 188.525 39.2723 189.654C39.2723 190.774 38.983 191.637 38.4043 192.244C37.835 192.851 37.0837 193.154 36.1503 193.154C35.217 193.154 34.461 192.851 33.8823 192.244C33.313 191.637 33.0283 190.774 33.0283 189.654C33.0283 188.525 33.313 187.657 33.8823 187.05C34.461 186.443 35.217 186.14 36.1503 186.14ZM38.1523 189.654C38.1523 188.851 37.9843 188.226 37.6483 187.778C37.3123 187.321 36.8177 187.092 36.1643 187.092C35.5203 187.092 35.0257 187.321 34.6803 187.778C34.335 188.226 34.1623 188.851 34.1623 189.654C34.1623 190.447 34.3257 191.073 34.6523 191.53C34.979 191.978 35.4643 192.202 36.1083 192.202C36.7617 192.202 37.2657 191.978 37.6203 191.53C37.975 191.073 38.1523 190.447 38.1523 189.654ZM43.0209 187.33C43.4596 186.537 44.1129 186.14 44.9809 186.14C45.8582 186.14 46.5862 186.462 47.1649 187.106C47.7529 187.75 48.0469 188.599 48.0469 189.654C48.0469 190.709 47.7529 191.558 47.1649 192.202C46.5769 192.837 45.8536 193.154 44.9949 193.154C44.1362 193.154 43.5016 192.832 43.0909 192.188V196.29H41.9849V186.308H42.8949L43.0209 187.33ZM44.9389 192.174C45.4616 192.174 45.9189 191.95 46.3109 191.502C46.7122 191.054 46.9129 190.443 46.9129 189.668C46.9129 188.884 46.7216 188.263 46.3389 187.806C45.9656 187.349 45.5082 187.12 44.9669 187.12C44.4256 187.12 43.9822 187.293 43.6369 187.638C43.2916 187.974 43.1096 188.431 43.0909 189.01V190.284C43.0909 190.872 43.2682 191.334 43.6229 191.67C43.9776 192.006 44.4162 192.174 44.9389 192.174ZM55.0414 188.66C55.0414 188.053 54.9154 187.619 54.6634 187.358C54.4114 187.097 54.0427 186.966 53.5574 186.966C53.0814 186.966 52.6941 187.064 52.3954 187.26C52.1061 187.447 51.9614 187.745 51.9614 188.156H50.7434C50.7434 187.129 51.2941 186.495 52.3954 186.252C52.7314 186.177 53.0954 186.14 53.4874 186.14C54.3181 186.14 54.9667 186.35 55.4334 186.77C55.9001 187.19 56.1334 187.829 56.1334 188.688V193H55.1814L55.0694 191.88C54.6587 192.729 53.9167 193.154 52.8434 193.154C52.1247 193.154 51.5461 192.953 51.1074 192.552C50.6781 192.151 50.4634 191.651 50.4634 191.054C50.4634 190.457 50.7014 189.99 51.1774 189.654C51.6627 189.318 52.2647 189.15 52.9834 189.15C53.7021 189.15 54.3881 189.271 55.0414 189.514V188.66ZM55.0414 190.214C54.3787 190.027 53.8001 189.934 53.3054 189.934C52.8107 189.934 52.4094 190.023 52.1014 190.2C51.7934 190.377 51.6394 190.657 51.6394 191.04C51.6394 191.88 52.1154 192.3 53.0674 192.3C53.6087 192.3 54.0707 192.109 54.4534 191.726C54.8454 191.334 55.0414 190.83 55.0414 190.214ZM61.5574 186.14C62.3507 186.14 62.9807 186.345 63.4474 186.756C63.9141 187.157 64.2174 187.661 64.3574 188.268L63.2374 188.366C63.1161 187.974 62.9201 187.671 62.6494 187.456C62.3787 187.232 62.0801 187.12 61.7534 187.12C61.1561 187.12 60.6707 187.344 60.2974 187.792C59.9334 188.24 59.7514 188.851 59.7514 189.626C59.7514 190.391 59.9287 191.007 60.2834 191.474C60.6474 191.941 61.0954 192.174 61.6274 192.174C62.1687 192.174 62.5701 192.053 62.8314 191.81C63.1021 191.558 63.2374 191.203 63.2374 190.746H64.3714C64.3714 191.465 64.1194 192.048 63.6154 192.496C63.1207 192.935 62.4721 193.154 61.6694 193.154C60.8201 193.154 60.0967 192.832 59.4994 192.188C58.9114 191.544 58.6174 190.69 58.6174 189.626C58.6174 188.553 58.9114 187.703 59.4994 187.078C60.0874 186.453 60.7734 186.14 61.5574 186.14ZM67.2065 186.294H68.3125V193H67.2065V186.294ZM67.7525 184.726C67.5285 184.726 67.3511 184.665 67.2205 184.544C67.0991 184.413 67.0385 184.245 67.0385 184.04C67.0385 183.825 67.0991 183.657 67.2205 183.536C67.3511 183.405 67.5285 183.34 67.7525 183.34C67.9765 183.34 68.1538 183.405 68.2845 183.536C68.4245 183.657 68.4945 183.825 68.4945 184.04C68.4945 184.245 68.4245 184.413 68.2845 184.544C68.1538 184.665 67.9765 184.726 67.7525 184.726ZM75.4201 192.804C74.6174 193.177 73.8847 193.257 73.2221 193.042C72.7461 192.893 72.4101 192.58 72.2141 192.104C72.1114 191.871 72.0601 191.591 72.0601 191.264V187.148H70.9821V186.308H72.0601V184.446H73.1521V186.308H75.2521V187.148H73.1521V191.25C73.1521 191.931 73.4694 192.272 74.1041 192.272C74.4494 192.272 74.8367 192.188 75.2661 192.02L75.4201 192.804ZM76.4397 194.946C76.8971 195.301 77.3777 195.478 77.8817 195.478C78.2551 195.478 78.5771 195.291 78.8477 194.918C79.0437 194.647 79.2211 194.237 79.3797 193.686L79.5757 193L76.8317 186.308H78.0637L80.0937 191.642L81.6757 186.308H82.7957L80.2897 194.33C80.0751 195.011 79.7904 195.534 79.4357 195.898C79.0904 196.262 78.6471 196.444 78.1057 196.444C77.5737 196.444 77.0184 196.281 76.4397 195.954V194.946ZM93.0069 190.62H90.8509L90.6549 192.566H89.6189L89.8149 190.62H88.4289L88.4989 189.864H89.8989L90.1649 187.372H88.7509L88.8349 186.63H90.2349L90.4449 184.698H91.4809L91.2709 186.63H93.4269L93.6369 184.698H94.6589L94.4489 186.63H95.8909L95.8069 187.372H94.3789L94.1129 189.864H95.5549L95.4709 190.62H94.0289L93.8329 192.566H92.7969L93.0069 190.62ZM90.9349 189.864H93.0769L93.3429 187.372H91.2009L90.9349 189.864ZM98.4783 184.194H103.826V185.146H99.5843V188.072H103.532V189.024H99.5843V193H98.4783V184.194ZM106.42 184.194H111.768V185.146H107.526V188.072H111.474V189.024H107.526V193H106.42V184.194ZM114.362 184.194H119.71V185.146H115.468V188.072H119.416V189.024H115.468V193H114.362V184.194ZM122.304 184.194H127.652V185.146H123.41V188.072H127.358V189.024H123.41V193H122.304V184.194ZM130.245 184.194H135.593V185.146H131.351V188.072H135.299V189.024H131.351V193H130.245V184.194ZM138.187 184.194H143.535V185.146H139.293V188.072H143.241V189.024H139.293V193H138.187V184.194ZM146.185 193.07C145.97 193.051 145.793 192.981 145.653 192.86C145.513 192.739 145.443 192.575 145.443 192.37C145.443 192.165 145.513 191.992 145.653 191.852C145.802 191.712 146.008 191.642 146.269 191.642C146.54 191.642 146.764 191.749 146.941 191.964C147.118 192.169 147.207 192.431 147.207 192.748C147.207 193.065 147.104 193.387 146.899 193.714C146.694 194.05 146.381 194.321 145.961 194.526L145.135 194.12C145.714 193.84 146.064 193.49 146.185 193.07ZM157.51 190.62H155.354L155.158 192.566H154.122L154.318 190.62H152.932L153.002 189.864H154.402L154.668 187.372H153.254L153.338 186.63H154.738L154.948 184.698H155.984L155.774 186.63H157.93L158.14 184.698H159.162L158.952 186.63H160.394L160.31 187.372H158.882L158.616 189.864H160.058L159.974 190.62H158.532L158.336 192.566H157.3L157.51 190.62ZM155.438 189.864H157.58L157.846 187.372H155.704L155.438 189.864ZM162.254 184.88C162.879 184.796 163.425 184.558 163.892 184.166H164.788V193H163.696V185.482C163.229 185.781 162.748 185.944 162.254 185.972V184.88ZM168.805 191.978H173.915V193H167.699V191.698C167.699 190.662 168.091 189.901 168.875 189.416C169.127 189.257 169.407 189.117 169.715 188.996L171.451 188.296C172.347 187.941 172.795 187.358 172.795 186.546C172.795 186.098 172.641 185.734 172.333 185.454C172.025 185.165 171.591 185.02 171.031 185.02C170.48 185.02 170.027 185.137 169.673 185.37C169.327 185.603 169.127 185.953 169.071 186.42H167.853C167.899 185.655 168.207 185.067 168.777 184.656C169.346 184.245 170.074 184.04 170.961 184.04C171.857 184.04 172.585 184.283 173.145 184.768C173.705 185.253 173.985 185.855 173.985 186.574C173.985 187.283 173.798 187.848 173.425 188.268C173.061 188.688 172.557 189.024 171.913 189.276L170.135 189.99C169.687 190.177 169.351 190.391 169.127 190.634C168.912 190.867 168.805 191.175 168.805 191.558V191.978ZM176.21 184.88C176.835 184.796 177.381 184.558 177.848 184.166H178.744V193H177.652V185.482C177.185 185.781 176.704 185.944 176.21 185.972V184.88ZM182.76 191.978H187.87V193H181.654V191.698C181.654 190.662 182.046 189.901 182.83 189.416C183.082 189.257 183.362 189.117 183.67 188.996L185.406 188.296C186.302 187.941 186.75 187.358 186.75 186.546C186.75 186.098 186.596 185.734 186.288 185.454C185.98 185.165 185.546 185.02 184.986 185.02C184.436 185.02 183.983 185.137 183.628 185.37C183.283 185.603 183.082 185.953 183.026 186.42H181.808C181.855 185.655 182.163 185.067 182.732 184.656C183.302 184.245 184.03 184.04 184.916 184.04C185.812 184.04 186.54 184.283 187.1 184.768C187.66 185.253 187.94 185.855 187.94 186.574C187.94 187.283 187.754 187.848 187.38 188.268C187.016 188.688 186.512 189.024 185.868 189.276L184.09 189.99C183.642 190.177 183.306 190.391 183.082 190.634C182.868 190.867 182.76 191.175 182.76 191.558V191.978ZM190.165 184.88C190.791 184.796 191.337 184.558 191.803 184.166H192.699V193H191.607V185.482C191.141 185.781 190.66 185.944 190.165 185.972V184.88ZM196.716 191.978H201.826V193H195.61V191.698C195.61 190.662 196.002 189.901 196.786 189.416C197.038 189.257 197.318 189.117 197.626 188.996L199.362 188.296C200.258 187.941 200.706 187.358 200.706 186.546C200.706 186.098 200.552 185.734 200.244 185.454C199.936 185.165 199.502 185.02 198.942 185.02C198.392 185.02 197.939 185.137 197.584 185.37C197.239 185.603 197.038 185.953 196.982 186.42H195.764C195.811 185.655 196.119 185.067 196.688 184.656C197.258 184.245 197.986 184.04 198.872 184.04C199.768 184.04 200.496 184.283 201.056 184.768C201.616 185.253 201.896 185.855 201.896 186.574C201.896 187.283 201.71 187.848 201.336 188.268C200.972 188.688 200.468 189.024 199.824 189.276L198.046 189.99C197.598 190.177 197.262 190.391 197.038 190.634C196.824 190.867 196.716 191.175 196.716 191.558V191.978Z" fill="#BDBDBD"/>
<path d="M25.6601 157.2C26.5601 157.068 27.3521 156.75 28.0361 156.246H29.6381V168H27.5141V158.784C26.9021 159.084 26.2841 159.234 25.6601 159.234V157.2ZM32.6937 157.2C33.5937 157.068 34.3857 156.75 35.0697 156.246H36.6717V168H34.5477V158.784C33.9357 159.084 33.3177 159.234 32.6937 159.234V157.2ZM42.5353 156.084C42.8593 156.084 43.1713 156.144 43.4713 156.264C43.7713 156.372 44.0353 156.54 44.2633 156.768C44.7553 157.236 45.0013 157.914 45.0013 158.802C45.0013 159.678 44.7553 160.362 44.2633 160.854C43.8073 161.31 43.2253 161.538 42.5173 161.538C41.8333 161.538 41.2633 161.31 40.8073 160.854C40.3153 160.362 40.0693 159.678 40.0693 158.802C40.0693 157.914 40.3153 157.236 40.8073 156.768C41.2753 156.312 41.8513 156.084 42.5353 156.084ZM43.3993 158.802C43.3993 157.89 43.1053 157.434 42.5173 157.434C41.9413 157.434 41.6533 157.89 41.6533 158.802C41.6533 159.726 41.9413 160.188 42.5173 160.188C43.1053 160.188 43.3993 159.726 43.3993 158.802ZM48.7993 156.318H50.9413L43.0393 168H40.8793L48.7993 156.318ZM49.2853 162.78C49.9693 162.78 50.5453 163.008 51.0133 163.464C51.5053 163.932 51.7513 164.61 51.7513 165.498C51.7513 166.386 51.5053 167.076 51.0133 167.568C50.5573 168.024 49.9813 168.252 49.2853 168.252C48.5893 168.252 48.0133 168.024 47.5573 167.568C47.0653 167.076 46.8193 166.386 46.8193 165.498C46.8193 164.61 47.0653 163.932 47.5573 163.464C48.0253 163.008 48.6013 162.78 49.2853 162.78ZM49.2853 164.13C48.7093 164.13 48.4213 164.592 48.4213 165.516C48.4213 166.428 48.7093 166.884 49.2853 166.884C49.5373 166.884 49.7473 166.782 49.9153 166.578C50.0833 166.362 50.1673 166.008 50.1673 165.516C50.1673 165.012 50.0833 164.658 49.9153 164.454C49.7473 164.238 49.5373 164.13 49.2853 164.13ZM61.2237 156.318L63.7977 165.192L66.2997 157.092H67.7397L70.3857 165.228L73.1217 156.318H75.5157L71.5017 168H69.2697L67.0737 161.412L64.8957 168H62.6637L58.8477 156.318H61.2237ZM80.2705 160.674C80.8705 159.57 81.7465 159.018 82.8985 159.018C84.0505 159.018 84.8965 159.372 85.4365 160.08C85.9885 160.788 86.2645 161.724 86.2645 162.888V168H84.1405V162.888C84.1405 162.24 83.9845 161.754 83.6725 161.43C83.3605 161.094 82.9225 160.926 82.3585 160.926C81.7945 160.926 81.3085 161.178 80.9005 161.682C80.5045 162.186 80.2945 162.942 80.2705 163.95V168H78.1465V155.652H80.2705V160.674ZM90.1413 159.234H92.2653V168H90.1413V159.234ZM89.8893 156.426C89.8893 156.042 90.0033 155.742 90.2313 155.526C90.4593 155.298 90.7833 155.184 91.2033 155.184C91.6113 155.184 91.9293 155.298 92.1573 155.526C92.3973 155.742 92.5173 156.042 92.5173 156.426C92.5173 156.81 92.3973 157.116 92.1573 157.344C91.9293 157.56 91.6113 157.668 91.2033 157.668C90.7833 157.668 90.4593 157.56 90.2313 157.344C90.0033 157.116 89.8893 156.81 89.8893 156.426ZM101.4 167.784C100.608 168.096 99.9835 168.252 99.5275 168.252C99.0715 168.252 98.6695 168.198 98.3215 168.09C97.9855 167.982 97.6855 167.82 97.4215 167.604C96.8695 167.112 96.5935 166.434 96.5935 165.57V160.674H95.3695V159.252H96.5935V156.948H98.7175V159.252H101.094V160.674H98.7175V165.498C98.7175 166.218 99.0595 166.578 99.7435 166.578C100.092 166.578 100.542 166.482 101.094 166.29L101.4 167.784ZM110.271 160.296C110.571 160.68 110.793 161.124 110.937 161.628C111.093 162.132 111.171 162.594 111.171 163.014C111.171 163.434 111.147 163.812 111.099 164.148H105.447C105.471 164.856 105.645 165.432 105.969 165.876C106.293 166.32 106.785 166.542 107.445 166.542C108.321 166.542 108.843 166.158 109.011 165.39H111.153C111.009 166.266 110.607 166.956 109.947 167.46C109.263 167.988 108.429 168.252 107.445 168.252C106.293 168.252 105.327 167.832 104.547 166.992C103.743 166.116 103.341 164.994 103.341 163.626C103.341 162.222 103.743 161.094 104.547 160.242C105.315 159.426 106.281 159.018 107.445 159.018C108.657 159.018 109.599 159.444 110.271 160.296ZM107.463 160.71C106.863 160.71 106.395 160.908 106.059 161.304C105.723 161.688 105.525 162.186 105.465 162.798H109.191C109.191 161.85 108.891 161.214 108.291 160.89C108.063 160.77 107.787 160.71 107.463 160.71ZM123.949 156.084C124.729 156.084 125.443 156.216 126.091 156.48C126.739 156.732 127.297 157.11 127.765 157.614C128.749 158.67 129.241 160.182 129.241 162.15C129.241 164.13 128.749 165.66 127.765 166.74C126.829 167.748 125.551 168.252 123.931 168.252C122.323 168.252 121.051 167.736 120.115 166.704C119.131 165.636 118.639 164.118 118.639 162.15C118.639 160.158 119.131 158.634 120.115 157.578C121.039 156.582 122.317 156.084 123.949 156.084ZM127.045 162.186C127.045 160.842 126.763 159.81 126.199 159.09C125.647 158.358 124.897 157.992 123.949 157.992C123.001 157.992 122.245 158.358 121.681 159.09C121.117 159.81 120.835 160.842 120.835 162.186C120.835 163.518 121.117 164.544 121.681 165.264C122.245 165.972 123.001 166.326 123.949 166.326C124.897 166.326 125.647 165.972 126.199 165.264C126.763 164.544 127.045 163.518 127.045 162.186ZM133.344 159.252L135.342 165.894L137.358 159.252H139.806L136.548 168H134.154L130.896 159.252H133.344ZM148.39 160.296C148.69 160.68 148.912 161.124 149.056 161.628C149.212 162.132 149.29 162.594 149.29 163.014C149.29 163.434 149.266 163.812 149.218 164.148H143.566C143.59 164.856 143.764 165.432 144.088 165.876C144.412 166.32 144.904 166.542 145.564 166.542C146.44 166.542 146.962 166.158 147.13 165.39H149.272C149.128 166.266 148.726 166.956 148.066 167.46C147.382 167.988 146.548 168.252 145.564 168.252C144.412 168.252 143.446 167.832 142.666 166.992C141.862 166.116 141.46 164.994 141.46 163.626C141.46 162.222 141.862 161.094 142.666 160.242C143.434 159.426 144.4 159.018 145.564 159.018C146.776 159.018 147.718 159.444 148.39 160.296ZM145.582 160.71C144.982 160.71 144.514 160.908 144.178 161.304C143.842 161.688 143.644 162.186 143.584 162.798H147.31C147.31 161.85 147.01 161.214 146.41 160.89C146.182 160.77 145.906 160.71 145.582 160.71ZM154.557 160.98C155.085 159.72 155.877 159.09 156.933 159.09C157.137 159.09 157.395 159.132 157.707 159.216L157.671 161.34C157.335 161.268 157.005 161.232 156.681 161.232C155.265 161.232 154.557 162.21 154.557 164.166V168H152.433V159.234H154.557V160.98ZM160.521 155.652H162.645V168H160.521V155.652ZM169.468 162.888C170.164 162.888 170.968 163.002 171.88 163.23V162.366C171.88 161.754 171.754 161.304 171.502 161.016C171.262 160.716 170.86 160.566 170.296 160.566C169.744 160.566 169.318 160.68 169.018 160.908C168.718 161.124 168.568 161.436 168.568 161.844H166.246C166.246 160.848 166.594 160.128 167.29 159.684C167.998 159.24 168.982 159.018 170.242 159.018C172.042 159.018 173.206 159.648 173.734 160.908C173.914 161.34 174.004 161.85 174.004 162.438V168H172.15L171.988 166.83C171.424 167.778 170.56 168.252 169.396 168.252C168.268 168.252 167.392 167.976 166.768 167.424C166.192 166.896 165.904 166.23 165.904 165.426C165.904 164.61 166.222 163.986 166.858 163.554C167.494 163.11 168.364 162.888 169.468 162.888ZM171.88 164.58C171.172 164.388 170.512 164.292 169.9 164.292C168.748 164.292 168.172 164.676 168.172 165.444C168.172 165.768 168.304 166.05 168.568 166.29C168.832 166.518 169.252 166.632 169.828 166.632C170.416 166.632 170.896 166.44 171.268 166.056C171.652 165.66 171.856 165.168 171.88 164.58ZM178.78 159.252L180.886 165.552L182.722 159.252H184.882L181.534 169.584C181.186 170.628 180.76 171.378 180.256 171.834C179.764 172.29 179.134 172.518 178.366 172.518C177.586 172.518 176.806 172.326 176.026 171.942V170.07C176.65 170.466 177.28 170.664 177.916 170.664C178.336 170.664 178.678 170.496 178.942 170.16C179.218 169.824 179.44 169.386 179.608 168.846L179.878 168L176.368 159.252H178.78Z" fill="#F1F1F1"/>
</svg>
