<svg width="210" height="212" viewBox="0 0 210 212" fill="none" xmlns="http://www.w3.org/2000/svg">
<circle cx="104.5" cy="66.5" r="66" fill="#121212"/>
<circle cx="104.5" cy="66.5" r="66" fill="white" fill-opacity="0.02"/>
<circle cx="104.5" cy="66.5" r="66" stroke="#606060"/>
<path d="M10.0409 191.978H15.1509V193H8.93486V191.698C8.93486 190.662 9.32686 189.901 10.1109 189.416C10.3629 189.257 10.6429 189.117 10.9509 188.996L12.6869 188.296C13.5829 187.941 14.0309 187.358 14.0309 186.546C14.0309 186.098 13.8769 185.734 13.5689 185.454C13.2609 185.165 12.8269 185.02 12.2669 185.02C11.7162 185.02 11.2635 185.137 10.9089 185.37C10.5635 185.603 10.3629 185.953 10.3069 186.42H9.08886C9.13553 185.655 9.44353 185.067 10.0129 184.656C10.5822 184.245 11.3102 184.04 12.1969 184.04C13.0929 184.04 13.8209 184.283 14.3809 184.768C14.9409 185.253 15.2209 185.855 15.2209 186.574C15.2209 187.283 15.0342 187.848 14.6609 188.268C14.2969 188.688 13.7929 189.024 13.1489 189.276L11.3709 189.99C10.9229 190.177 10.5869 190.391 10.3629 190.634C10.1482 190.867 10.0409 191.175 10.0409 191.558V191.978ZM19.392 184.04C19.8866 184.04 20.3113 184.217 20.666 184.572C21.0206 184.927 21.198 185.421 21.198 186.056C21.198 186.691 21.0206 187.185 20.666 187.54C20.3206 187.885 19.896 188.058 19.392 188.058C18.888 188.058 18.4633 187.881 18.118 187.526C17.782 187.171 17.614 186.681 17.614 186.056C17.614 185.431 17.7866 184.941 18.132 184.586C18.4773 184.222 18.8973 184.04 19.392 184.04ZM20.302 186.056C20.302 185.617 20.218 185.295 20.05 185.09C19.882 184.885 19.6626 184.782 19.392 184.782C19.1213 184.782 18.902 184.885 18.734 185.09C18.566 185.295 18.482 185.617 18.482 186.056C18.482 186.495 18.566 186.812 18.734 187.008C18.902 187.204 19.1213 187.302 19.392 187.302C19.6626 187.302 19.882 187.204 20.05 187.008C20.218 186.812 20.302 186.495 20.302 186.056ZM24.236 184.194H25.384L19.462 193H18.328L24.236 184.194ZM24.292 189.136C24.796 189.136 25.2206 189.313 25.566 189.668C25.9206 190.013 26.098 190.508 26.098 191.152C26.098 191.787 25.9206 192.281 25.566 192.636C25.2206 192.981 24.796 193.154 24.292 193.154C23.788 193.154 23.3633 192.977 23.018 192.622C22.682 192.267 22.514 191.777 22.514 191.152C22.514 190.517 22.682 190.023 23.018 189.668C23.3633 189.313 23.788 189.136 24.292 189.136ZM24.292 189.878C24.0213 189.878 23.802 189.981 23.634 190.186C23.466 190.391 23.382 190.713 23.382 191.152C23.382 191.591 23.466 191.908 23.634 192.104C23.802 192.3 24.0213 192.398 24.292 192.398C24.5626 192.398 24.782 192.3 24.95 192.104C25.118 191.908 25.202 191.591 25.202 191.152C25.202 190.713 25.118 190.391 24.95 190.186C24.782 189.981 24.5626 189.878 24.292 189.878ZM35.2761 186.14C36.2094 186.14 36.9608 186.443 37.5301 187.05C38.1088 187.657 38.3981 188.525 38.3981 189.654C38.3981 190.774 38.1088 191.637 37.5301 192.244C36.9608 192.851 36.2094 193.154 35.2761 193.154C34.3428 193.154 33.5868 192.851 33.0081 192.244C32.4388 191.637 32.1541 190.774 32.1541 189.654C32.1541 188.525 32.4388 187.657 33.0081 187.05C33.5868 186.443 34.3428 186.14 35.2761 186.14ZM37.2781 189.654C37.2781 188.851 37.1101 188.226 36.7741 187.778C36.4381 187.321 35.9434 187.092 35.2901 187.092C34.6461 187.092 34.1514 187.321 33.8061 187.778C33.4608 188.226 33.2881 188.851 33.2881 189.654C33.2881 190.447 33.4514 191.073 33.7781 191.53C34.1048 191.978 34.5901 192.202 35.2341 192.202C35.8874 192.202 36.3914 191.978 36.7461 191.53C37.1008 191.073 37.2781 190.447 37.2781 189.654ZM42.1467 187.33C42.5853 186.537 43.2387 186.14 44.1067 186.14C44.984 186.14 45.712 186.462 46.2907 187.106C46.8787 187.75 47.1727 188.599 47.1727 189.654C47.1727 190.709 46.8787 191.558 46.2907 192.202C45.7027 192.837 44.9793 193.154 44.1207 193.154C43.262 193.154 42.6273 192.832 42.2167 192.188V196.29H41.1107V186.308H42.0207L42.1467 187.33ZM44.0647 192.174C44.5873 192.174 45.0447 191.95 45.4367 191.502C45.838 191.054 46.0387 190.443 46.0387 189.668C46.0387 188.884 45.8473 188.263 45.4647 187.806C45.0913 187.349 44.634 187.12 44.0927 187.12C43.5513 187.12 43.108 187.293 42.7627 187.638C42.4173 187.974 42.2353 188.431 42.2167 189.01V190.284C42.2167 190.872 42.394 191.334 42.7487 191.67C43.1033 192.006 43.542 192.174 44.0647 192.174ZM54.1672 188.66C54.1672 188.053 54.0412 187.619 53.7892 187.358C53.5372 187.097 53.1685 186.966 52.6832 186.966C52.2072 186.966 51.8198 187.064 51.5212 187.26C51.2318 187.447 51.0872 187.745 51.0872 188.156H49.8692C49.8692 187.129 50.4198 186.495 51.5212 186.252C51.8572 186.177 52.2212 186.14 52.6132 186.14C53.4438 186.14 54.0925 186.35 54.5592 186.77C55.0258 187.19 55.2592 187.829 55.2592 188.688V193H54.3072L54.1952 191.88C53.7845 192.729 53.0425 193.154 51.9692 193.154C51.2505 193.154 50.6718 192.953 50.2332 192.552C49.8038 192.151 49.5892 191.651 49.5892 191.054C49.5892 190.457 49.8272 189.99 50.3032 189.654C50.7885 189.318 51.3905 189.15 52.1092 189.15C52.8278 189.15 53.5138 189.271 54.1672 189.514V188.66ZM54.1672 190.214C53.5045 190.027 52.9258 189.934 52.4312 189.934C51.9365 189.934 51.5352 190.023 51.2272 190.2C50.9192 190.377 50.7652 190.657 50.7652 191.04C50.7652 191.88 51.2412 192.3 52.1932 192.3C52.7345 192.3 53.1965 192.109 53.5792 191.726C53.9712 191.334 54.1672 190.83 54.1672 190.214ZM60.6832 186.14C61.4765 186.14 62.1065 186.345 62.5732 186.756C63.0398 187.157 63.3432 187.661 63.4832 188.268L62.3632 188.366C62.2418 187.974 62.0458 187.671 61.7752 187.456C61.5045 187.232 61.2058 187.12 60.8792 187.12C60.2818 187.12 59.7965 187.344 59.4232 187.792C59.0592 188.24 58.8772 188.851 58.8772 189.626C58.8772 190.391 59.0545 191.007 59.4092 191.474C59.7732 191.941 60.2212 192.174 60.7532 192.174C61.2945 192.174 61.6958 192.053 61.9572 191.81C62.2278 191.558 62.3632 191.203 62.3632 190.746H63.4972C63.4972 191.465 63.2452 192.048 62.7412 192.496C62.2465 192.935 61.5978 193.154 60.7952 193.154C59.9458 193.154 59.2225 192.832 58.6252 192.188C58.0372 191.544 57.7432 190.69 57.7432 189.626C57.7432 188.553 58.0372 187.703 58.6252 187.078C59.2132 186.453 59.8992 186.14 60.6832 186.14ZM66.3322 186.294H67.4382V193H66.3322V186.294ZM66.8782 184.726C66.6542 184.726 66.4769 184.665 66.3462 184.544C66.2249 184.413 66.1642 184.245 66.1642 184.04C66.1642 183.825 66.2249 183.657 66.3462 183.536C66.4769 183.405 66.6542 183.34 66.8782 183.34C67.1022 183.34 67.2796 183.405 67.4102 183.536C67.5502 183.657 67.6202 183.825 67.6202 184.04C67.6202 184.245 67.5502 184.413 67.4102 184.544C67.2796 184.665 67.1022 184.726 66.8782 184.726ZM74.5458 192.804C73.7432 193.177 73.0105 193.257 72.3478 193.042C71.8718 192.893 71.5358 192.58 71.3398 192.104C71.2372 191.871 71.1858 191.591 71.1858 191.264V187.148H70.1078V186.308H71.1858V184.446H72.2778V186.308H74.3778V187.148H72.2778V191.25C72.2778 191.931 72.5952 192.272 73.2298 192.272C73.5752 192.272 73.9625 192.188 74.3918 192.02L74.5458 192.804ZM75.5655 194.946C76.0228 195.301 76.5035 195.478 77.0075 195.478C77.3808 195.478 77.7028 195.291 77.9735 194.918C78.1695 194.647 78.3468 194.237 78.5055 193.686L78.7015 193L75.9575 186.308H77.1895L79.2195 191.642L80.8015 186.308H81.9215L79.4155 194.33C79.2008 195.011 78.9162 195.534 78.5615 195.898C78.2162 196.262 77.7728 196.444 77.2315 196.444C76.6995 196.444 76.1442 196.281 75.5655 195.954V194.946ZM92.1327 190.62H89.9767L89.7807 192.566H88.7447L88.9407 190.62H87.5547L87.6247 189.864H89.0247L89.2907 187.372H87.8767L87.9607 186.63H89.3607L89.5707 184.698H90.6067L90.3967 186.63H92.5527L92.7627 184.698H93.7847L93.5747 186.63H95.0167L94.9327 187.372H93.5047L93.2387 189.864H94.6807L94.5967 190.62H93.1547L92.9587 192.566H91.9227L92.1327 190.62ZM90.0607 189.864H92.2027L92.4687 187.372H90.3267L90.0607 189.864ZM97.604 184.194H102.952V185.146H98.71V188.072H102.658V189.024H98.71V193H97.604V184.194ZM105.546 184.194H110.894V185.146H106.652V188.072H110.6V189.024H106.652V193H105.546V184.194ZM113.488 184.194H118.836V185.146H114.594V188.072H118.542V189.024H114.594V193H113.488V184.194ZM121.429 184.194H126.777V185.146H122.535V188.072H126.483V189.024H122.535V193H121.429V184.194ZM129.371 184.194H134.719V185.146H130.477V188.072H134.425V189.024H130.477V193H129.371V184.194ZM137.313 184.194H142.661V185.146H138.419V188.072H142.367V189.024H138.419V193H137.313V184.194ZM145.311 193.07C145.096 193.051 144.919 192.981 144.779 192.86C144.639 192.739 144.569 192.575 144.569 192.37C144.569 192.165 144.639 191.992 144.779 191.852C144.928 191.712 145.133 191.642 145.395 191.642C145.665 191.642 145.889 191.749 146.067 191.964C146.244 192.169 146.333 192.431 146.333 192.748C146.333 193.065 146.23 193.387 146.025 193.714C145.819 194.05 145.507 194.321 145.087 194.526L144.261 194.12C144.839 193.84 145.189 193.49 145.311 193.07ZM156.636 190.62H154.48L154.284 192.566H153.248L153.444 190.62H152.058L152.128 189.864H153.528L153.794 187.372H152.38L152.464 186.63H153.864L154.074 184.698H155.11L154.9 186.63H157.056L157.266 184.698H158.288L158.078 186.63H159.52L159.436 187.372H158.008L157.742 189.864H159.184L159.1 190.62H157.658L157.462 192.566H156.426L156.636 190.62ZM154.564 189.864H156.706L156.972 187.372H154.83L154.564 189.864ZM161.38 184.88C162.005 184.796 162.551 184.558 163.018 184.166H163.914V193H162.822V185.482C162.355 185.781 161.874 185.944 161.38 185.972V184.88ZM167.93 191.978H173.04V193H166.824V191.698C166.824 190.662 167.216 189.901 168 189.416C168.252 189.257 168.532 189.117 168.84 188.996L170.576 188.296C171.472 187.941 171.92 187.358 171.92 186.546C171.92 186.098 171.766 185.734 171.458 185.454C171.15 185.165 170.716 185.02 170.156 185.02C169.606 185.02 169.153 185.137 168.798 185.37C168.453 185.603 168.252 185.953 168.196 186.42H166.978C167.025 185.655 167.333 185.067 167.902 184.656C168.472 184.245 169.2 184.04 170.086 184.04C170.982 184.04 171.71 184.283 172.27 184.768C172.83 185.253 173.11 185.855 173.11 186.574C173.11 187.283 172.924 187.848 172.55 188.268C172.186 188.688 171.682 189.024 171.038 189.276L169.26 189.99C168.812 190.177 168.476 190.391 168.252 190.634C168.038 190.867 167.93 191.175 167.93 191.558V191.978ZM175.335 184.88C175.961 184.796 176.507 184.558 176.973 184.166H177.869V193H176.777V185.482C176.311 185.781 175.83 185.944 175.335 185.972V184.88ZM181.886 191.978H186.996V193H180.78V191.698C180.78 190.662 181.172 189.901 181.956 189.416C182.208 189.257 182.488 189.117 182.796 188.996L184.532 188.296C185.428 187.941 185.876 187.358 185.876 186.546C185.876 186.098 185.722 185.734 185.414 185.454C185.106 185.165 184.672 185.02 184.112 185.02C183.562 185.02 183.109 185.137 182.754 185.37C182.409 185.603 182.208 185.953 182.152 186.42H180.934C180.981 185.655 181.289 185.067 181.858 184.656C182.428 184.245 183.156 184.04 184.042 184.04C184.938 184.04 185.666 184.283 186.226 184.768C186.786 185.253 187.066 185.855 187.066 186.574C187.066 187.283 186.88 187.848 186.506 188.268C186.142 188.688 185.638 189.024 184.994 189.276L183.216 189.99C182.768 190.177 182.432 190.391 182.208 190.634C181.994 190.867 181.886 191.175 181.886 191.558V191.978ZM189.291 184.88C189.917 184.796 190.463 184.558 190.929 184.166H191.825V193H190.733V185.482C190.267 185.781 189.786 185.944 189.291 185.972V184.88ZM195.842 191.978H200.952V193H194.736V191.698C194.736 190.662 195.128 189.901 195.912 189.416C196.164 189.257 196.444 189.117 196.752 188.996L198.488 188.296C199.384 187.941 199.832 187.358 199.832 186.546C199.832 186.098 199.678 185.734 199.37 185.454C199.062 185.165 198.628 185.02 198.068 185.02C197.517 185.02 197.065 185.137 196.71 185.37C196.365 185.603 196.164 185.953 196.108 186.42H194.89C194.937 185.655 195.245 185.067 195.814 184.656C196.383 184.245 197.111 184.04 197.998 184.04C198.894 184.04 199.622 184.283 200.182 184.768C200.742 185.253 201.022 185.855 201.022 186.574C201.022 187.283 200.835 187.848 200.462 188.268C200.098 188.688 199.594 189.024 198.95 189.276L197.172 189.99C196.724 190.177 196.388 190.391 196.164 190.634C195.949 190.867 195.842 191.175 195.842 191.558V191.978Z" fill="#BDBDBD"/>
<path d="M29.3925 166.056H36.0705V168H27.2685V166.002C27.2685 164.598 27.7665 163.578 28.7625 162.942C29.0985 162.726 29.4885 162.534 29.9325 162.366L32.3265 161.448C32.8545 161.244 33.2385 160.992 33.4785 160.692C33.7305 160.38 33.8565 159.996 33.8565 159.54C33.8565 159.084 33.6945 158.706 33.3705 158.406C33.0465 158.094 32.5845 157.938 31.9845 157.938C31.3845 157.938 30.8865 158.082 30.4905 158.37C30.1065 158.658 29.8845 159.084 29.8245 159.648H27.4665C27.4905 158.508 27.9285 157.614 28.7805 156.966C29.5605 156.378 30.6105 156.084 31.9305 156.084C33.1425 156.084 34.1445 156.408 34.9365 157.056C35.7405 157.728 36.1425 158.55 36.1425 159.522C36.1425 160.494 35.8965 161.274 35.4045 161.862C34.9245 162.438 34.1745 162.924 33.1545 163.32L30.7245 164.256C30.2565 164.436 29.9145 164.64 29.6985 164.868C29.4945 165.084 29.3925 165.366 29.3925 165.714V166.056ZM41.2509 156.084C41.5749 156.084 41.8869 156.144 42.1869 156.264C42.4869 156.372 42.7509 156.54 42.9789 156.768C43.4709 157.236 43.7169 157.914 43.7169 158.802C43.7169 159.678 43.4709 160.362 42.9789 160.854C42.5229 161.31 41.9409 161.538 41.2329 161.538C40.5489 161.538 39.9789 161.31 39.5229 160.854C39.0309 160.362 38.7849 159.678 38.7849 158.802C38.7849 157.914 39.0309 157.236 39.5229 156.768C39.9909 156.312 40.5669 156.084 41.2509 156.084ZM42.1149 158.802C42.1149 157.89 41.8209 157.434 41.2329 157.434C40.6569 157.434 40.3689 157.89 40.3689 158.802C40.3689 159.726 40.6569 160.188 41.2329 160.188C41.8209 160.188 42.1149 159.726 42.1149 158.802ZM47.5149 156.318H49.6569L41.7549 168H39.5949L47.5149 156.318ZM48.0009 162.78C48.6849 162.78 49.2609 163.008 49.7289 163.464C50.2209 163.932 50.4669 164.61 50.4669 165.498C50.4669 166.386 50.2209 167.076 49.7289 167.568C49.2729 168.024 48.6969 168.252 48.0009 168.252C47.3049 168.252 46.7289 168.024 46.2729 167.568C45.7809 167.076 45.5349 166.386 45.5349 165.498C45.5349 164.61 45.7809 163.932 46.2729 163.464C46.7409 163.008 47.3169 162.78 48.0009 162.78ZM48.0009 164.13C47.4249 164.13 47.1369 164.592 47.1369 165.516C47.1369 166.428 47.4249 166.884 48.0009 166.884C48.2529 166.884 48.4629 166.782 48.6309 166.578C48.7989 166.362 48.8829 166.008 48.8829 165.516C48.8829 165.012 48.7989 164.658 48.6309 164.454C48.4629 164.238 48.2529 164.13 48.0009 164.13ZM59.9393 156.318L62.5133 165.192L65.0153 157.092H66.4553L69.1013 165.228L71.8373 156.318H74.2313L70.2173 168H67.9853L65.7893 161.412L63.6113 168H61.3793L57.5633 156.318H59.9393ZM78.9861 160.674C79.5861 159.57 80.4621 159.018 81.6141 159.018C82.7661 159.018 83.6121 159.372 84.1521 160.08C84.7041 160.788 84.9801 161.724 84.9801 162.888V168H82.8561V162.888C82.8561 162.24 82.7001 161.754 82.3881 161.43C82.0761 161.094 81.6381 160.926 81.0741 160.926C80.5101 160.926 80.0241 161.178 79.6161 161.682C79.2201 162.186 79.0101 162.942 78.9861 163.95V168H76.8621V155.652H78.9861V160.674ZM88.8569 159.234H90.9809V168H88.8569V159.234ZM88.6049 156.426C88.6049 156.042 88.7189 155.742 88.9469 155.526C89.1749 155.298 89.4989 155.184 89.9189 155.184C90.3269 155.184 90.6449 155.298 90.8729 155.526C91.1129 155.742 91.2329 156.042 91.2329 156.426C91.2329 156.81 91.1129 157.116 90.8729 157.344C90.6449 157.56 90.3269 157.668 89.9189 157.668C89.4989 157.668 89.1749 157.56 88.9469 157.344C88.7189 157.116 88.6049 156.81 88.6049 156.426ZM100.115 167.784C99.3232 168.096 98.6992 168.252 98.2432 168.252C97.7872 168.252 97.3852 168.198 97.0372 168.09C96.7012 167.982 96.4012 167.82 96.1372 167.604C95.5852 167.112 95.3092 166.434 95.3092 165.57V160.674H94.0852V159.252H95.3092V156.948H97.4332V159.252H99.8092V160.674H97.4332V165.498C97.4332 166.218 97.7752 166.578 98.4592 166.578C98.8072 166.578 99.2572 166.482 99.8092 166.29L100.115 167.784ZM108.987 160.296C109.287 160.68 109.509 161.124 109.653 161.628C109.809 162.132 109.887 162.594 109.887 163.014C109.887 163.434 109.863 163.812 109.815 164.148H104.163C104.187 164.856 104.361 165.432 104.685 165.876C105.009 166.32 105.501 166.542 106.161 166.542C107.037 166.542 107.559 166.158 107.727 165.39H109.869C109.725 166.266 109.323 166.956 108.663 167.46C107.979 167.988 107.145 168.252 106.161 168.252C105.009 168.252 104.043 167.832 103.263 166.992C102.459 166.116 102.057 164.994 102.057 163.626C102.057 162.222 102.459 161.094 103.263 160.242C104.031 159.426 104.997 159.018 106.161 159.018C107.373 159.018 108.315 159.444 108.987 160.296ZM106.179 160.71C105.579 160.71 105.111 160.908 104.775 161.304C104.439 161.688 104.241 162.186 104.181 162.798H107.907C107.907 161.85 107.607 161.214 107.007 160.89C106.779 160.77 106.503 160.71 106.179 160.71ZM122.664 156.084C123.444 156.084 124.158 156.216 124.806 156.48C125.454 156.732 126.012 157.11 126.48 157.614C127.464 158.67 127.956 160.182 127.956 162.15C127.956 164.13 127.464 165.66 126.48 166.74C125.544 167.748 124.266 168.252 122.646 168.252C121.038 168.252 119.766 167.736 118.83 166.704C117.846 165.636 117.354 164.118 117.354 162.15C117.354 160.158 117.846 158.634 118.83 157.578C119.754 156.582 121.032 156.084 122.664 156.084ZM125.76 162.186C125.76 160.842 125.478 159.81 124.914 159.09C124.362 158.358 123.612 157.992 122.664 157.992C121.716 157.992 120.96 158.358 120.396 159.09C119.832 159.81 119.55 160.842 119.55 162.186C119.55 163.518 119.832 164.544 120.396 165.264C120.96 165.972 121.716 166.326 122.664 166.326C123.612 166.326 124.362 165.972 124.914 165.264C125.478 164.544 125.76 163.518 125.76 162.186ZM132.06 159.252L134.058 165.894L136.074 159.252H138.522L135.264 168H132.87L129.612 159.252H132.06ZM147.105 160.296C147.405 160.68 147.627 161.124 147.771 161.628C147.927 162.132 148.005 162.594 148.005 163.014C148.005 163.434 147.981 163.812 147.933 164.148H142.281C142.305 164.856 142.479 165.432 142.803 165.876C143.127 166.32 143.619 166.542 144.279 166.542C145.155 166.542 145.677 166.158 145.845 165.39H147.987C147.843 166.266 147.441 166.956 146.781 167.46C146.097 167.988 145.263 168.252 144.279 168.252C143.127 168.252 142.161 167.832 141.381 166.992C140.577 166.116 140.175 164.994 140.175 163.626C140.175 162.222 140.577 161.094 141.381 160.242C142.149 159.426 143.115 159.018 144.279 159.018C145.491 159.018 146.433 159.444 147.105 160.296ZM144.297 160.71C143.697 160.71 143.229 160.908 142.893 161.304C142.557 161.688 142.359 162.186 142.299 162.798H146.025C146.025 161.85 145.725 161.214 145.125 160.89C144.897 160.77 144.621 160.71 144.297 160.71ZM153.272 160.98C153.8 159.72 154.592 159.09 155.648 159.09C155.852 159.09 156.11 159.132 156.422 159.216L156.386 161.34C156.05 161.268 155.72 161.232 155.396 161.232C153.98 161.232 153.272 162.21 153.272 164.166V168H151.148V159.234H153.272V160.98ZM159.237 155.652H161.361V168H159.237V155.652ZM168.183 162.888C168.879 162.888 169.683 163.002 170.595 163.23V162.366C170.595 161.754 170.469 161.304 170.217 161.016C169.977 160.716 169.575 160.566 169.011 160.566C168.459 160.566 168.033 160.68 167.733 160.908C167.433 161.124 167.283 161.436 167.283 161.844H164.961C164.961 160.848 165.309 160.128 166.005 159.684C166.713 159.24 167.697 159.018 168.957 159.018C170.757 159.018 171.921 159.648 172.449 160.908C172.629 161.34 172.719 161.85 172.719 162.438V168H170.865L170.703 166.83C170.139 167.778 169.275 168.252 168.111 168.252C166.983 168.252 166.107 167.976 165.483 167.424C164.907 166.896 164.619 166.23 164.619 165.426C164.619 164.61 164.937 163.986 165.573 163.554C166.209 163.11 167.079 162.888 168.183 162.888ZM170.595 164.58C169.887 164.388 169.227 164.292 168.615 164.292C167.463 164.292 166.887 164.676 166.887 165.444C166.887 165.768 167.019 166.05 167.283 166.29C167.547 166.518 167.967 166.632 168.543 166.632C169.131 166.632 169.611 166.44 169.983 166.056C170.367 165.66 170.571 165.168 170.595 164.58ZM177.495 159.252L179.601 165.552L181.437 159.252H183.597L180.249 169.584C179.901 170.628 179.475 171.378 178.971 171.834C178.479 172.29 177.849 172.518 177.081 172.518C176.301 172.518 175.521 172.326 174.741 171.942V170.07C175.365 170.466 175.995 170.664 176.631 170.664C177.051 170.664 177.393 170.496 177.657 170.16C177.933 169.824 178.155 169.386 178.323 168.846L178.593 168L175.083 159.252H177.495Z" fill="#F1F1F1"/>
</svg>
