<svg width="210" height="212" viewBox="0 0 210 212" fill="none" xmlns="http://www.w3.org/2000/svg">
<circle cx="104.5" cy="66.5" r="66.5" fill="#83F1FF"/>
<path d="M82.3589 190.62H80.2029L80.0069 192.566H78.9709L79.1669 190.62H77.7809L77.8509 189.864H79.2509L79.5169 187.372H78.1029L78.1869 186.63H79.5869L79.7969 184.698H80.8329L80.6229 186.63H82.7789L82.9889 184.698H84.0109L83.8009 186.63H85.2429L85.1589 187.372H83.7309L83.4649 189.864H84.9069L84.8229 190.62H83.3809L83.1849 192.566H82.1489L82.3589 190.62ZM80.2869 189.864H82.4289L82.6949 187.372H80.5529L80.2869 189.864ZM89.2302 188.548C88.0635 188.016 87.4802 187.293 87.4802 186.378C87.4802 185.678 87.7695 185.113 88.3482 184.684C88.9269 184.255 89.6922 184.04 90.6442 184.04C91.6055 184.04 92.3942 184.269 93.0102 184.726C93.6262 185.183 93.9342 185.771 93.9342 186.49C93.9342 186.975 93.7709 187.409 93.4442 187.792C93.1269 188.175 92.6555 188.413 92.0302 188.506L92.2682 188.59C92.9122 188.833 93.4069 189.122 93.7522 189.458C94.0975 189.785 94.2702 190.233 94.2702 190.802C94.2702 191.511 93.9529 192.081 93.3182 192.51C92.6929 192.939 91.8435 193.154 90.7702 193.154C89.7062 193.154 88.8429 192.916 88.1802 192.44C87.5175 191.964 87.1862 191.367 87.1862 190.648C87.1862 190.069 87.3729 189.598 87.7462 189.234C88.1289 188.87 88.6235 188.641 89.2302 188.548ZM90.2802 188.954C89.6922 189.019 89.2209 189.206 88.8662 189.514C88.5115 189.813 88.3342 190.186 88.3342 190.634C88.3342 191.082 88.5582 191.446 89.0062 191.726C89.4542 192.006 90.0375 192.146 90.7562 192.146C91.4842 192.146 92.0582 192.025 92.4782 191.782C92.9075 191.539 93.1222 191.245 93.1222 190.9C93.1222 190.555 93.0102 190.279 92.7862 190.074C92.5622 189.859 92.2542 189.682 91.8622 189.542L90.2802 188.954ZM88.6422 186.518C88.6422 186.77 88.7449 186.989 88.9502 187.176C89.1555 187.353 89.4495 187.517 89.8322 187.666L90.8542 188.058C91.4142 188.039 91.8762 187.895 92.2402 187.624C92.6042 187.344 92.7862 186.985 92.7862 186.546C92.7862 186.098 92.5949 185.739 92.2122 185.468C91.8295 185.188 91.3349 185.048 90.7282 185.048C90.1215 185.048 89.6222 185.183 89.2302 185.454C88.8382 185.715 88.6422 186.07 88.6422 186.518ZM102.699 186.448C102.699 187.381 102.186 188.03 101.159 188.394C101.719 188.553 102.172 188.814 102.517 189.178C102.863 189.542 103.035 190.009 103.035 190.578C103.035 191.353 102.741 191.978 102.153 192.454C101.565 192.921 100.791 193.154 99.8295 193.154C98.8682 193.154 98.0468 192.907 97.3655 192.412C96.6935 191.908 96.3575 191.203 96.3575 190.298H97.5055C97.5242 190.895 97.7435 191.353 98.1635 191.67C98.5928 191.987 99.1342 192.146 99.7875 192.146C100.441 192.146 100.945 191.992 101.299 191.684C101.663 191.367 101.845 190.979 101.845 190.522C101.845 190.055 101.673 189.677 101.327 189.388C100.982 189.089 100.422 188.94 99.6475 188.94H98.6395V188.058H99.3255C99.9975 188.058 100.529 187.927 100.921 187.666C101.313 187.395 101.509 187.036 101.509 186.588C101.509 186.14 101.351 185.771 101.033 185.482C100.716 185.193 100.296 185.048 99.7735 185.048C99.2508 185.048 98.8122 185.141 98.4575 185.328C98.1122 185.505 97.8788 185.841 97.7575 186.336H96.6095C96.7122 185.561 97.0342 184.987 97.5755 184.614C98.1168 184.231 98.8122 184.04 99.6615 184.04C100.52 184.04 101.239 184.269 101.817 184.726C102.405 185.174 102.699 185.748 102.699 186.448ZM105.915 184.194H111.263V185.146H107.021V188.072H110.969V189.024H107.021V193H105.915V184.194ZM113.129 184.88C113.754 184.796 114.3 184.558 114.767 184.166H115.663V193H114.571V185.482C114.104 185.781 113.623 185.944 113.129 185.972V184.88ZM119.092 184.194H124.44V185.146H120.198V188.072H124.146V189.024H120.198V193H119.092V184.194ZM127.033 184.194H132.381V185.146H128.139V188.072H132.087V189.024H128.139V193H127.033V184.194Z" fill="#BDBDBD"/>
<path d="M66.4466 156.318C68.2226 156.318 69.6566 156.846 70.7486 157.902C71.8526 158.958 72.4046 160.38 72.4046 162.168C72.4046 163.944 71.8526 165.36 70.7486 166.416C69.6566 167.472 68.2226 168 66.4466 168H62.6486V156.318H66.4466ZM64.7906 166.074H66.4466C67.5506 166.074 68.4446 165.702 69.1286 164.958C69.7766 164.238 70.1006 163.308 70.1006 162.168C70.1006 161.004 69.7766 160.062 69.1286 159.342C68.4566 158.61 67.5626 158.244 66.4466 158.244H64.7906V166.074ZM78.4864 162.888C79.1824 162.888 79.9864 163.002 80.8984 163.23V162.366C80.8984 161.754 80.7724 161.304 80.5204 161.016C80.2804 160.716 79.8784 160.566 79.3144 160.566C78.7624 160.566 78.3364 160.68 78.0364 160.908C77.7364 161.124 77.5864 161.436 77.5864 161.844H75.2644C75.2644 160.848 75.6124 160.128 76.3084 159.684C77.0164 159.24 78.0004 159.018 79.2604 159.018C81.0604 159.018 82.2244 159.648 82.7524 160.908C82.9324 161.34 83.0224 161.85 83.0224 162.438V168H81.1684L81.0064 166.83C80.4424 167.778 79.5784 168.252 78.4144 168.252C77.2864 168.252 76.4104 167.976 75.7864 167.424C75.2104 166.896 74.9224 166.23 74.9224 165.426C74.9224 164.61 75.2404 163.986 75.8764 163.554C76.5124 163.11 77.3824 162.888 78.4864 162.888ZM80.8984 164.58C80.1904 164.388 79.5304 164.292 78.9184 164.292C77.7664 164.292 77.1904 164.676 77.1904 165.444C77.1904 165.768 77.3224 166.05 77.5864 166.29C77.8504 166.518 78.2704 166.632 78.8464 166.632C79.4344 166.632 79.9144 166.44 80.2864 166.056C80.6704 165.66 80.8744 165.168 80.8984 164.58ZM88.8421 160.98C89.3701 159.72 90.1621 159.09 91.2181 159.09C91.4221 159.09 91.6801 159.132 91.9921 159.216L91.9561 161.34C91.6201 161.268 91.2901 161.232 90.9661 161.232C89.5501 161.232 88.8421 162.21 88.8421 164.166V168H86.7181V159.234H88.8421V160.98ZM97.9024 163.734L96.9304 164.544V168H94.8064V155.652H96.9304V162.33L100.386 159.252H103.266L99.3964 162.492L103.482 168H100.89L97.9024 163.734ZM110.913 156.318H115.629C116.925 156.318 117.927 156.624 118.635 157.236C119.307 157.8 119.643 158.526 119.643 159.414C119.643 160.074 119.457 160.638 119.085 161.106C118.725 161.574 118.215 161.904 117.555 162.096C118.215 162.228 118.761 162.528 119.193 162.996C119.625 163.452 119.841 164.04 119.841 164.76C119.841 166.2 119.127 167.184 117.699 167.712C117.159 167.904 116.475 168 115.647 168H110.913V156.318ZM115.593 166.146C116.277 166.146 116.769 166.008 117.069 165.732C117.381 165.456 117.537 165.09 117.537 164.634C117.537 164.178 117.375 163.812 117.051 163.536C116.739 163.248 116.253 163.104 115.593 163.104H113.037V166.146H115.593ZM113.037 161.25H115.539C116.175 161.25 116.655 161.112 116.979 160.836C117.303 160.56 117.465 160.188 117.465 159.72C117.465 159.24 117.303 158.862 116.979 158.586C116.667 158.298 116.193 158.154 115.557 158.154H113.037V161.25ZM123.185 155.652H125.309V168H123.185V155.652ZM135.065 166.416C134.513 167.58 133.625 168.162 132.401 168.162C130.853 168.162 129.833 167.556 129.341 166.344C129.161 165.924 129.071 165.414 129.071 164.814V159.234H131.195V164.598C131.195 165.174 131.333 165.606 131.609 165.894C131.885 166.17 132.221 166.308 132.617 166.308C133.025 166.308 133.367 166.254 133.643 166.146C133.919 166.026 134.159 165.852 134.363 165.624C134.807 165.108 135.041 164.418 135.065 163.554V159.234H137.189V168H135.065V166.416ZM147.238 160.296C147.538 160.68 147.76 161.124 147.904 161.628C148.06 162.132 148.138 162.594 148.138 163.014C148.138 163.434 148.114 163.812 148.066 164.148H142.414C142.438 164.856 142.612 165.432 142.936 165.876C143.26 166.32 143.752 166.542 144.412 166.542C145.288 166.542 145.81 166.158 145.978 165.39H148.12C147.976 166.266 147.574 166.956 146.914 167.46C146.23 167.988 145.396 168.252 144.412 168.252C143.26 168.252 142.294 167.832 141.514 166.992C140.71 166.116 140.308 164.994 140.308 163.626C140.308 162.222 140.71 161.094 141.514 160.242C142.282 159.426 143.248 159.018 144.412 159.018C145.624 159.018 146.566 159.444 147.238 160.296ZM144.43 160.71C143.83 160.71 143.362 160.908 143.026 161.304C142.69 161.688 142.492 162.186 142.432 162.798H146.158C146.158 161.85 145.858 161.214 145.258 160.89C145.03 160.77 144.754 160.71 144.43 160.71Z" fill="#F1F1F1"/>
</svg>
