<svg width="210" height="212" viewBox="0 0 210 212" fill="none" xmlns="http://www.w3.org/2000/svg">
<circle cx="104.5" cy="66.5" r="66" fill="#121212" stroke="#606060"/>
<path d="M84.9975 190.62H82.8415L82.6455 192.566H81.6095L81.8055 190.62H80.4195L80.4895 189.864H81.8895L82.1555 187.372H80.7415L80.8255 186.63H82.2255L82.4355 184.698H83.4715L83.2615 186.63H85.4175L85.6275 184.698H86.6495L86.4395 186.63H87.8815L87.7975 187.372H86.3695L86.1035 189.864H87.5455L87.4615 190.62H86.0195L85.8235 192.566H84.7875L84.9975 190.62ZM82.9255 189.864H85.0675L85.3335 187.372H83.1915L82.9255 189.864ZM89.7409 184.88C90.3662 184.796 90.9122 184.558 91.3789 184.166H92.2749V193H91.1829V185.482C90.7162 185.781 90.2355 185.944 89.7409 185.972V184.88ZM96.2916 191.978H101.402V193H95.1856V191.698C95.1856 190.662 95.5776 189.901 96.3616 189.416C96.6136 189.257 96.8936 189.117 97.2016 188.996L98.9376 188.296C99.8336 187.941 100.282 187.358 100.282 186.546C100.282 186.098 100.128 185.734 99.8196 185.454C99.5116 185.165 99.0776 185.02 98.5176 185.02C97.967 185.02 97.5143 185.137 97.1596 185.37C96.8143 185.603 96.6136 185.953 96.5576 186.42H95.3396C95.3863 185.655 95.6943 185.067 96.2636 184.656C96.833 184.245 97.561 184.04 98.4476 184.04C99.3436 184.04 100.072 184.283 100.632 184.768C101.192 185.253 101.472 185.855 101.472 186.574C101.472 187.283 101.285 187.848 100.912 188.268C100.548 188.688 100.044 189.024 99.3996 189.276L97.6216 189.99C97.1736 190.177 96.8376 190.391 96.6136 190.634C96.399 190.867 96.2916 191.175 96.2916 191.558V191.978ZM103.697 184.88C104.322 184.796 104.868 184.558 105.335 184.166H106.231V193H105.139V185.482C104.672 185.781 104.191 185.944 103.697 185.972V184.88ZM110.248 191.978H115.358V193H109.142V191.698C109.142 190.662 109.534 189.901 110.318 189.416C110.57 189.257 110.85 189.117 111.158 188.996L112.894 188.296C113.79 187.941 114.238 187.358 114.238 186.546C114.238 186.098 114.084 185.734 113.776 185.454C113.468 185.165 113.034 185.02 112.474 185.02C111.923 185.02 111.47 185.137 111.116 185.37C110.77 185.603 110.57 185.953 110.514 186.42H109.296C109.342 185.655 109.65 185.067 110.22 184.656C110.789 184.245 111.517 184.04 112.404 184.04C113.3 184.04 114.028 184.283 114.588 184.768C115.148 185.253 115.428 185.855 115.428 186.574C115.428 187.283 115.241 187.848 114.868 188.268C114.504 188.688 114 189.024 113.356 189.276L111.578 189.99C111.13 190.177 110.794 190.391 110.57 190.634C110.355 190.867 110.248 191.175 110.248 191.558V191.978ZM117.653 184.88C118.278 184.796 118.824 184.558 119.291 184.166H120.187V193H119.095V185.482C118.628 185.781 118.147 185.944 117.653 185.972V184.88ZM124.203 191.978H129.313V193H123.097V191.698C123.097 190.662 123.489 189.901 124.273 189.416C124.525 189.257 124.805 189.117 125.113 188.996L126.849 188.296C127.745 187.941 128.193 187.358 128.193 186.546C128.193 186.098 128.039 185.734 127.731 185.454C127.423 185.165 126.989 185.02 126.429 185.02C125.879 185.02 125.426 185.137 125.071 185.37C124.726 185.603 124.525 185.953 124.469 186.42H123.251C123.298 185.655 123.606 185.067 124.175 184.656C124.745 184.245 125.473 184.04 126.359 184.04C127.255 184.04 127.983 184.283 128.543 184.768C129.103 185.253 129.383 185.855 129.383 186.574C129.383 187.283 129.197 187.848 128.823 188.268C128.459 188.688 127.955 189.024 127.311 189.276L125.533 189.99C125.085 190.177 124.749 190.391 124.525 190.634C124.311 190.867 124.203 191.175 124.203 191.558V191.978Z" fill="#BDBDBD"/>
<path d="M65.4096 156.318L70.5576 164.598V156.318H72.6816V168H70.5216L65.2116 159.432V168H63.0876V156.318H65.4096ZM80.064 159.018C80.652 159.018 81.204 159.114 81.72 159.306C82.236 159.486 82.68 159.768 83.052 160.152C83.88 160.992 84.294 162.156 84.294 163.644C84.294 165.108 83.88 166.26 83.052 167.1C82.308 167.868 81.312 168.252 80.064 168.252C78.816 168.252 77.808 167.868 77.04 167.1C76.212 166.272 75.798 165.12 75.798 163.644C75.798 162.144 76.212 160.98 77.04 160.152C77.796 159.396 78.804 159.018 80.064 159.018ZM82.17 163.626C82.17 162.702 81.99 162.012 81.63 161.556C81.27 161.088 80.766 160.854 80.118 160.854C79.482 160.854 78.96 161.088 78.552 161.556C78.144 162.012 77.94 162.702 77.94 163.626C77.94 164.55 78.12 165.246 78.48 165.714C78.852 166.17 79.356 166.398 79.992 166.398C80.628 166.398 81.15 166.17 81.558 165.714C81.966 165.246 82.17 164.55 82.17 163.626ZM92.3533 167.784C91.5613 168.096 90.9373 168.252 90.4813 168.252C90.0253 168.252 89.6233 168.198 89.2753 168.09C88.9393 167.982 88.6393 167.82 88.3753 167.604C87.8233 167.112 87.5473 166.434 87.5473 165.57V160.674H86.3233V159.252H87.5473V156.948H89.6713V159.252H92.0473V160.674H89.6713V165.498C89.6713 166.218 90.0133 166.578 90.6973 166.578C91.0453 166.578 91.4953 166.482 92.0473 166.29L92.3533 167.784ZM100.276 156.318H104.992C106.288 156.318 107.29 156.624 107.998 157.236C108.67 157.8 109.006 158.526 109.006 159.414C109.006 160.074 108.82 160.638 108.448 161.106C108.088 161.574 107.578 161.904 106.918 162.096C107.578 162.228 108.124 162.528 108.556 162.996C108.988 163.452 109.204 164.04 109.204 164.76C109.204 166.2 108.49 167.184 107.062 167.712C106.522 167.904 105.838 168 105.01 168H100.276V156.318ZM104.956 166.146C105.64 166.146 106.132 166.008 106.432 165.732C106.744 165.456 106.9 165.09 106.9 164.634C106.9 164.178 106.738 163.812 106.414 163.536C106.102 163.248 105.616 163.104 104.956 163.104H102.4V166.146H104.956ZM102.4 161.25H104.902C105.538 161.25 106.018 161.112 106.342 160.836C106.666 160.56 106.828 160.188 106.828 159.72C106.828 159.24 106.666 158.862 106.342 158.586C106.03 158.298 105.556 158.154 104.92 158.154H102.4V161.25ZM112.547 155.652H114.671V168H112.547V155.652ZM121.494 162.888C122.19 162.888 122.994 163.002 123.906 163.23V162.366C123.906 161.754 123.78 161.304 123.528 161.016C123.288 160.716 122.886 160.566 122.322 160.566C121.77 160.566 121.344 160.68 121.044 160.908C120.744 161.124 120.594 161.436 120.594 161.844H118.272C118.272 160.848 118.62 160.128 119.316 159.684C120.024 159.24 121.008 159.018 122.268 159.018C124.068 159.018 125.232 159.648 125.76 160.908C125.94 161.34 126.03 161.85 126.03 162.438V168H124.176L124.014 166.83C123.45 167.778 122.586 168.252 121.422 168.252C120.294 168.252 119.418 167.976 118.794 167.424C118.218 166.896 117.93 166.23 117.93 165.426C117.93 164.61 118.248 163.986 118.884 163.554C119.52 163.11 120.39 162.888 121.494 162.888ZM123.906 164.58C123.198 164.388 122.538 164.292 121.926 164.292C120.774 164.292 120.198 164.676 120.198 165.444C120.198 165.768 120.33 166.05 120.594 166.29C120.858 166.518 121.278 166.632 121.854 166.632C122.442 166.632 122.922 166.44 123.294 166.056C123.678 165.66 123.882 165.168 123.906 164.58ZM133.056 159.018C133.608 159.018 134.1 159.114 134.532 159.306C134.976 159.486 135.348 159.726 135.648 160.026C136.248 160.602 136.602 161.328 136.71 162.204L134.568 162.258C134.472 161.874 134.292 161.556 134.028 161.304C133.776 161.052 133.482 160.926 133.146 160.926C132.81 160.926 132.522 160.98 132.282 161.088C132.042 161.184 131.832 161.34 131.652 161.556C131.244 162.06 131.04 162.756 131.04 163.644C131.04 164.532 131.232 165.204 131.616 165.66C132 166.104 132.462 166.326 133.002 166.326C133.554 166.326 133.95 166.2 134.19 165.948C134.442 165.684 134.568 165.33 134.568 164.886H136.71C136.71 165.846 136.392 166.644 135.756 167.28C135.108 167.928 134.202 168.252 133.038 168.252C131.886 168.252 130.92 167.832 130.14 166.992C129.312 166.092 128.898 164.97 128.898 163.626C128.898 162.21 129.312 161.076 130.14 160.224C130.92 159.42 131.892 159.018 133.056 159.018ZM142.967 163.734L141.995 164.544V168H139.871V155.652H141.995V162.33L145.451 159.252H148.331L144.461 162.492L148.547 168H145.955L142.967 163.734Z" fill="#F1F1F1"/>
</svg>
