<svg width="210" height="212" viewBox="0 0 210 212" fill="none" xmlns="http://www.w3.org/2000/svg">
<circle cx="104.5" cy="66.5" r="66.5" fill="#FEE46D"/>
<path d="M80.0483 190.62H77.8923L77.6963 192.566H76.6603L76.8563 190.62H75.4703L75.5403 189.864H76.9403L77.2063 187.372H75.7923L75.8763 186.63H77.2763L77.4863 184.698H78.5223L78.3123 186.63H80.4683L80.6783 184.698H81.7003L81.4903 186.63H82.9323L82.8483 187.372H81.4203L81.1543 189.864H82.5963L82.5123 190.62H81.0703L80.8743 192.566H79.8383L80.0483 190.62ZM77.9763 189.864H80.1183L80.3843 187.372H78.2423L77.9763 189.864ZM85.5197 184.194H90.8677V185.146H86.6257V188.072H90.5737V189.024H86.6257V193H85.5197V184.194ZM93.4475 184.194H98.8655V185.146H94.5535V188.1H98.6135V189.038H94.5535V192.034H98.8655V193H93.4475V184.194ZM101.909 184.194H107.327V185.146H103.015V188.1H107.075V189.038H103.015V192.034H107.327V193H101.909V184.194ZM114.962 184.068V189.92H116.488V190.872H114.962V193H113.884V190.872H109.334V190.018L113.94 184.068H114.962ZM110.65 190.018H113.912V185.818L110.65 190.018ZM123.34 186.42C123.182 185.505 122.682 185.048 121.842 185.048C121.002 185.048 120.354 185.393 119.896 186.084C119.448 186.775 119.224 187.717 119.224 188.912C119.224 189.407 119.248 189.817 119.294 190.144C119.35 189.285 119.612 188.665 120.078 188.282C120.554 187.89 121.161 187.694 121.898 187.694C122.636 187.694 123.27 187.955 123.802 188.478C124.334 188.991 124.6 189.654 124.6 190.466C124.6 191.269 124.325 191.922 123.774 192.426C123.224 192.921 122.5 193.168 121.604 193.168C120.559 193.168 119.714 192.748 119.07 191.908C118.426 191.068 118.104 189.967 118.104 188.604C118.104 187.232 118.431 186.131 119.084 185.3C119.738 184.46 120.629 184.04 121.758 184.04C122.542 184.04 123.182 184.259 123.676 184.698C124.171 185.137 124.456 185.711 124.53 186.42H123.34ZM121.604 188.674C121.082 188.674 120.643 188.842 120.288 189.178C119.943 189.505 119.77 189.925 119.77 190.438C119.77 190.951 119.943 191.367 120.288 191.684C120.634 191.992 121.072 192.146 121.604 192.146C122.136 192.146 122.575 191.992 122.92 191.684C123.275 191.376 123.452 190.951 123.452 190.41C123.452 189.869 123.275 189.444 122.92 189.136C122.575 188.828 122.136 188.674 121.604 188.674ZM130.006 184.194C131.331 184.194 132.39 184.595 133.184 185.398C133.986 186.191 134.388 187.26 134.388 188.604C134.388 189.939 133.986 191.007 133.184 191.81C132.39 192.603 131.331 193 130.006 193H127.416V184.194H130.006ZM128.522 192.034H130.006C130.986 192.034 131.765 191.712 132.344 191.068C132.922 190.415 133.212 189.589 133.212 188.59C133.212 187.591 132.918 186.775 132.33 186.14C131.751 185.496 130.976 185.174 130.006 185.174H128.522V192.034Z" fill="#BDBDBD"/>
<path d="M57.9716 156.318C59.7476 156.318 61.1816 156.846 62.2736 157.902C63.3776 158.958 63.9296 160.38 63.9296 162.168C63.9296 163.944 63.3776 165.36 62.2736 166.416C61.1816 167.472 59.7476 168 57.9716 168H54.1736V156.318H57.9716ZM56.3156 166.074H57.9716C59.0756 166.074 59.9696 165.702 60.6536 164.958C61.3016 164.238 61.6256 163.308 61.6256 162.168C61.6256 161.004 61.3016 160.062 60.6536 159.342C59.9816 158.61 59.0876 158.244 57.9716 158.244H56.3156V166.074ZM70.0114 162.888C70.7074 162.888 71.5114 163.002 72.4234 163.23V162.366C72.4234 161.754 72.2974 161.304 72.0454 161.016C71.8054 160.716 71.4034 160.566 70.8394 160.566C70.2874 160.566 69.8614 160.68 69.5614 160.908C69.2614 161.124 69.1114 161.436 69.1114 161.844H66.7894C66.7894 160.848 67.1374 160.128 67.8334 159.684C68.5414 159.24 69.5254 159.018 70.7854 159.018C72.5854 159.018 73.7494 159.648 74.2774 160.908C74.4574 161.34 74.5474 161.85 74.5474 162.438V168H72.6934L72.5314 166.83C71.9674 167.778 71.1034 168.252 69.9394 168.252C68.8114 168.252 67.9354 167.976 67.3114 167.424C66.7354 166.896 66.4474 166.23 66.4474 165.426C66.4474 164.61 66.7654 163.986 67.4014 163.554C68.0374 163.11 68.9074 162.888 70.0114 162.888ZM72.4234 164.58C71.7154 164.388 71.0554 164.292 70.4434 164.292C69.2914 164.292 68.7154 164.676 68.7154 165.444C68.7154 165.768 68.8474 166.05 69.1114 166.29C69.3754 166.518 69.7954 166.632 70.3714 166.632C70.9594 166.632 71.4394 166.44 71.8114 166.056C72.1954 165.66 72.3994 165.168 72.4234 164.58ZM80.3671 160.98C80.8951 159.72 81.6871 159.09 82.7431 159.09C82.9471 159.09 83.2051 159.132 83.5171 159.216L83.4811 161.34C83.1451 161.268 82.8151 161.232 82.4911 161.232C81.0751 161.232 80.3671 162.21 80.3671 164.166V168H78.2431V159.234H80.3671V160.98ZM89.4274 163.734L88.4554 164.544V168H86.3314V155.652H88.4554V162.33L91.9114 159.252H94.7914L90.9214 162.492L95.0074 168H92.4154L89.4274 163.734ZM103.572 156.318L106.146 160.98L108.846 156.318H111.348L107.19 163.176V168H105.066V163.176L101.052 156.318H103.572ZM118.544 160.296C118.844 160.68 119.066 161.124 119.21 161.628C119.366 162.132 119.444 162.594 119.444 163.014C119.444 163.434 119.42 163.812 119.372 164.148H113.72C113.744 164.856 113.918 165.432 114.242 165.876C114.566 166.32 115.058 166.542 115.718 166.542C116.594 166.542 117.116 166.158 117.284 165.39H119.426C119.282 166.266 118.88 166.956 118.22 167.46C117.536 167.988 116.702 168.252 115.718 168.252C114.566 168.252 113.6 167.832 112.82 166.992C112.016 166.116 111.614 164.994 111.614 163.626C111.614 162.222 112.016 161.094 112.82 160.242C113.588 159.426 114.554 159.018 115.718 159.018C116.93 159.018 117.872 159.444 118.544 160.296ZM115.736 160.71C115.136 160.71 114.668 160.908 114.332 161.304C113.996 161.688 113.798 162.186 113.738 162.798H117.464C117.464 161.85 117.164 161.214 116.564 160.89C116.336 160.77 116.06 160.71 115.736 160.71ZM122.587 155.652H124.711V168H122.587V155.652ZM128.654 155.652H130.778V168H128.654V155.652ZM138.158 159.018C138.746 159.018 139.298 159.114 139.814 159.306C140.33 159.486 140.774 159.768 141.146 160.152C141.974 160.992 142.388 162.156 142.388 163.644C142.388 165.108 141.974 166.26 141.146 167.1C140.402 167.868 139.406 168.252 138.158 168.252C136.91 168.252 135.902 167.868 135.134 167.1C134.306 166.272 133.892 165.12 133.892 163.644C133.892 162.144 134.306 160.98 135.134 160.152C135.89 159.396 136.898 159.018 138.158 159.018ZM140.264 163.626C140.264 162.702 140.084 162.012 139.724 161.556C139.364 161.088 138.86 160.854 138.212 160.854C137.576 160.854 137.054 161.088 136.646 161.556C136.238 162.012 136.034 162.702 136.034 163.626C136.034 164.55 136.214 165.246 136.574 165.714C136.946 166.17 137.45 166.398 138.086 166.398C138.722 166.398 139.244 166.17 139.652 165.714C140.06 165.246 140.264 164.55 140.264 163.626ZM146.29 159.252L148.054 165.498L149.728 159.738H151.654L153.328 165.516L155.11 159.252H157.234L154.354 168H152.266L150.646 162.762L149.062 168H146.956L144.058 159.252H146.29Z" fill="#F1F1F1"/>
</svg>
