<svg width="210" height="212" viewBox="0 0 210 212" fill="none" xmlns="http://www.w3.org/2000/svg">
<circle cx="104.5" cy="66.5" r="66" fill="#121212"/>
<circle cx="104.5" cy="66.5" r="66" fill="white" fill-opacity="0.11"/>
<circle cx="104.5" cy="66.5" r="66" stroke="#606060"/>
<path d="M5.58462 191.978H10.6946V193H4.47862V191.698C4.47862 190.662 4.87062 189.901 5.65462 189.416C5.90662 189.257 6.18662 189.117 6.49462 188.996L8.23062 188.296C9.12662 187.941 9.57462 187.358 9.57462 186.546C9.57462 186.098 9.42062 185.734 9.11262 185.454C8.80462 185.165 8.37062 185.02 7.81062 185.02C7.25995 185.02 6.80729 185.137 6.45262 185.37C6.10729 185.603 5.90662 185.953 5.85062 186.42H4.63262C4.67929 185.655 4.98729 185.067 5.55662 184.656C6.12595 184.245 6.85395 184.04 7.74062 184.04C8.63662 184.04 9.36462 184.283 9.92462 184.768C10.4846 185.253 10.7646 185.855 10.7646 186.574C10.7646 187.283 10.578 187.848 10.2046 188.268C9.84062 188.688 9.33662 189.024 8.69262 189.276L6.91462 189.99C6.46662 190.177 6.13062 190.391 5.90662 190.634C5.69195 190.867 5.58462 191.175 5.58462 191.558V191.978ZM16.4757 184.04C17.5397 184.04 18.3797 184.432 18.9957 185.216C19.6117 186 19.9197 187.129 19.9197 188.604C19.9197 190.069 19.6117 191.194 18.9957 191.978C18.3797 192.762 17.5397 193.154 16.4757 193.154C15.4117 193.154 14.567 192.767 13.9417 191.992C13.3257 191.217 13.0177 190.088 13.0177 188.604C13.0177 187.111 13.3257 185.977 13.9417 185.202C14.567 184.427 15.4117 184.04 16.4757 184.04ZM18.7717 188.604C18.7717 187.456 18.5757 186.579 18.1837 185.972C17.7917 185.356 17.2177 185.048 16.4617 185.048C15.715 185.048 15.1457 185.356 14.7537 185.972C14.3617 186.579 14.1657 187.456 14.1657 188.604C14.1657 189.743 14.3617 190.62 14.7537 191.236C15.1457 191.843 15.715 192.146 16.4617 192.146C17.2177 192.146 17.7917 191.843 18.1837 191.236C18.5757 190.62 18.7717 189.743 18.7717 188.604ZM23.8482 184.04C24.3429 184.04 24.7675 184.217 25.1222 184.572C25.4769 184.927 25.6542 185.421 25.6542 186.056C25.6542 186.691 25.4769 187.185 25.1222 187.54C24.7769 187.885 24.3522 188.058 23.8482 188.058C23.3442 188.058 22.9195 187.881 22.5742 187.526C22.2382 187.171 22.0702 186.681 22.0702 186.056C22.0702 185.431 22.2429 184.941 22.5882 184.586C22.9335 184.222 23.3535 184.04 23.8482 184.04ZM24.7582 186.056C24.7582 185.617 24.6742 185.295 24.5062 185.09C24.3382 184.885 24.1189 184.782 23.8482 184.782C23.5775 184.782 23.3582 184.885 23.1902 185.09C23.0222 185.295 22.9382 185.617 22.9382 186.056C22.9382 186.495 23.0222 186.812 23.1902 187.008C23.3582 187.204 23.5775 187.302 23.8482 187.302C24.1189 187.302 24.3382 187.204 24.5062 187.008C24.6742 186.812 24.7582 186.495 24.7582 186.056ZM28.6922 184.194H29.8402L23.9182 193H22.7842L28.6922 184.194ZM28.7482 189.136C29.2522 189.136 29.6769 189.313 30.0222 189.668C30.3769 190.013 30.5542 190.508 30.5542 191.152C30.5542 191.787 30.3769 192.281 30.0222 192.636C29.6769 192.981 29.2522 193.154 28.7482 193.154C28.2442 193.154 27.8195 192.977 27.4742 192.622C27.1382 192.267 26.9702 191.777 26.9702 191.152C26.9702 190.517 27.1382 190.023 27.4742 189.668C27.8195 189.313 28.2442 189.136 28.7482 189.136ZM28.7482 189.878C28.4775 189.878 28.2582 189.981 28.0902 190.186C27.9222 190.391 27.8382 190.713 27.8382 191.152C27.8382 191.591 27.9222 191.908 28.0902 192.104C28.2582 192.3 28.4775 192.398 28.7482 192.398C29.0189 192.398 29.2382 192.3 29.4062 192.104C29.5742 191.908 29.6582 191.591 29.6582 191.152C29.6582 190.713 29.5742 190.391 29.4062 190.186C29.2382 189.981 29.0189 189.878 28.7482 189.878ZM39.7324 186.14C40.6657 186.14 41.417 186.443 41.9864 187.05C42.565 187.657 42.8544 188.525 42.8544 189.654C42.8544 190.774 42.565 191.637 41.9864 192.244C41.417 192.851 40.6657 193.154 39.7324 193.154C38.799 193.154 38.043 192.851 37.4644 192.244C36.895 191.637 36.6104 190.774 36.6104 189.654C36.6104 188.525 36.895 187.657 37.4644 187.05C38.043 186.443 38.799 186.14 39.7324 186.14ZM41.7344 189.654C41.7344 188.851 41.5664 188.226 41.2304 187.778C40.8944 187.321 40.3997 187.092 39.7464 187.092C39.1024 187.092 38.6077 187.321 38.2624 187.778C37.917 188.226 37.7444 188.851 37.7444 189.654C37.7444 190.447 37.9077 191.073 38.2344 191.53C38.561 191.978 39.0464 192.202 39.6904 192.202C40.3437 192.202 40.8477 191.978 41.2024 191.53C41.557 191.073 41.7344 190.447 41.7344 189.654ZM46.6029 187.33C47.0416 186.537 47.6949 186.14 48.5629 186.14C49.4403 186.14 50.1683 186.462 50.7469 187.106C51.3349 187.75 51.6289 188.599 51.6289 189.654C51.6289 190.709 51.3349 191.558 50.7469 192.202C50.1589 192.837 49.4356 193.154 48.5769 193.154C47.7183 193.154 47.0836 192.832 46.6729 192.188V196.29H45.5669V186.308H46.4769L46.6029 187.33ZM48.5209 192.174C49.0436 192.174 49.5009 191.95 49.8929 191.502C50.2943 191.054 50.4949 190.443 50.4949 189.668C50.4949 188.884 50.3036 188.263 49.9209 187.806C49.5476 187.349 49.0903 187.12 48.5489 187.12C48.0076 187.12 47.5643 187.293 47.2189 187.638C46.8736 187.974 46.6916 188.431 46.6729 189.01V190.284C46.6729 190.872 46.8503 191.334 47.2049 191.67C47.5596 192.006 47.9983 192.174 48.5209 192.174ZM58.6234 188.66C58.6234 188.053 58.4974 187.619 58.2454 187.358C57.9934 187.097 57.6248 186.966 57.1394 186.966C56.6634 186.966 56.2761 187.064 55.9774 187.26C55.6881 187.447 55.5434 187.745 55.5434 188.156H54.3254C54.3254 187.129 54.8761 186.495 55.9774 186.252C56.3134 186.177 56.6774 186.14 57.0694 186.14C57.9001 186.14 58.5488 186.35 59.0154 186.77C59.4821 187.19 59.7154 187.829 59.7154 188.688V193H58.7634L58.6514 191.88C58.2408 192.729 57.4988 193.154 56.4254 193.154C55.7068 193.154 55.1281 192.953 54.6894 192.552C54.2601 192.151 54.0454 191.651 54.0454 191.054C54.0454 190.457 54.2834 189.99 54.7594 189.654C55.2448 189.318 55.8468 189.15 56.5654 189.15C57.2841 189.15 57.9701 189.271 58.6234 189.514V188.66ZM58.6234 190.214C57.9608 190.027 57.3821 189.934 56.8874 189.934C56.3928 189.934 55.9914 190.023 55.6834 190.2C55.3754 190.377 55.2214 190.657 55.2214 191.04C55.2214 191.88 55.6974 192.3 56.6494 192.3C57.1908 192.3 57.6528 192.109 58.0354 191.726C58.4274 191.334 58.6234 190.83 58.6234 190.214ZM65.1394 186.14C65.9328 186.14 66.5628 186.345 67.0294 186.756C67.4961 187.157 67.7994 187.661 67.9394 188.268L66.8194 188.366C66.6981 187.974 66.5021 187.671 66.2314 187.456C65.9607 187.232 65.6621 187.12 65.3354 187.12C64.7381 187.12 64.2527 187.344 63.8794 187.792C63.5154 188.24 63.3334 188.851 63.3334 189.626C63.3334 190.391 63.5107 191.007 63.8654 191.474C64.2294 191.941 64.6774 192.174 65.2094 192.174C65.7507 192.174 66.1521 192.053 66.4134 191.81C66.6841 191.558 66.8194 191.203 66.8194 190.746H67.9534C67.9534 191.465 67.7014 192.048 67.1974 192.496C66.7027 192.935 66.0541 193.154 65.2514 193.154C64.4021 193.154 63.6787 192.832 63.0814 192.188C62.4934 191.544 62.1994 190.69 62.1994 189.626C62.1994 188.553 62.4934 187.703 63.0814 187.078C63.6694 186.453 64.3554 186.14 65.1394 186.14ZM70.7885 186.294H71.8945V193H70.7885V186.294ZM71.3345 184.726C71.1105 184.726 70.9332 184.665 70.8025 184.544C70.6812 184.413 70.6205 184.245 70.6205 184.04C70.6205 183.825 70.6812 183.657 70.8025 183.536C70.9332 183.405 71.1105 183.34 71.3345 183.34C71.5585 183.34 71.7358 183.405 71.8665 183.536C72.0065 183.657 72.0765 183.825 72.0765 184.04C72.0765 184.245 72.0065 184.413 71.8665 184.544C71.7358 184.665 71.5585 184.726 71.3345 184.726ZM79.0021 192.804C78.1994 193.177 77.4668 193.257 76.8041 193.042C76.3281 192.893 75.9921 192.58 75.7961 192.104C75.6934 191.871 75.6421 191.591 75.6421 191.264V187.148H74.5641V186.308H75.6421V184.446H76.7341V186.308H78.8341V187.148H76.7341V191.25C76.7341 191.931 77.0514 192.272 77.6861 192.272C78.0314 192.272 78.4188 192.188 78.8481 192.02L79.0021 192.804ZM80.0218 194.946C80.4791 195.301 80.9598 195.478 81.4638 195.478C81.8371 195.478 82.1591 195.291 82.4298 194.918C82.6258 194.647 82.8031 194.237 82.9618 193.686L83.1578 193L80.4138 186.308H81.6458L83.6758 191.642L85.2578 186.308H86.3778L83.8718 194.33C83.6571 195.011 83.3724 195.534 83.0178 195.898C82.6724 196.262 82.2291 196.444 81.6878 196.444C81.1558 196.444 80.6004 196.281 80.0218 195.954V194.946ZM96.5889 190.62H94.4329L94.2369 192.566H93.2009L93.3969 190.62H92.0109L92.0809 189.864H93.4809L93.7469 187.372H92.3329L92.4169 186.63H93.8169L94.0269 184.698H95.0629L94.8529 186.63H97.0089L97.2189 184.698H98.2409L98.0309 186.63H99.4729L99.3889 187.372H97.9609L97.6949 189.864H99.1369L99.0529 190.62H97.6109L97.4149 192.566H96.3789L96.5889 190.62ZM94.5169 189.864H96.6589L96.9249 187.372H94.7829L94.5169 189.864ZM102.06 184.194H107.408V185.146H103.166V188.072H107.114V189.024H103.166V193H102.06V184.194ZM110.002 184.194H115.35V185.146H111.108V188.072H115.056V189.024H111.108V193H110.002V184.194ZM117.944 184.194H123.292V185.146H119.05V188.072H122.998V189.024H119.05V193H117.944V184.194ZM125.886 184.194H131.234V185.146H126.992V188.072H130.94V189.024H126.992V193H125.886V184.194ZM133.827 184.194H139.175V185.146H134.933V188.072H138.881V189.024H134.933V193H133.827V184.194ZM141.769 184.194H147.117V185.146H142.875V188.072H146.823V189.024H142.875V193H141.769V184.194ZM149.767 193.07C149.552 193.051 149.375 192.981 149.235 192.86C149.095 192.739 149.025 192.575 149.025 192.37C149.025 192.165 149.095 191.992 149.235 191.852C149.384 191.712 149.59 191.642 149.851 191.642C150.122 191.642 150.346 191.749 150.523 191.964C150.7 192.169 150.789 192.431 150.789 192.748C150.789 193.065 150.686 193.387 150.481 193.714C150.276 194.05 149.963 194.321 149.543 194.526L148.717 194.12C149.296 193.84 149.646 193.49 149.767 193.07ZM161.092 190.62H158.936L158.74 192.566H157.704L157.9 190.62H156.514L156.584 189.864H157.984L158.25 187.372H156.836L156.92 186.63H158.32L158.53 184.698H159.566L159.356 186.63H161.512L161.722 184.698H162.744L162.534 186.63H163.976L163.892 187.372H162.464L162.198 189.864H163.64L163.556 190.62H162.114L161.918 192.566H160.882L161.092 190.62ZM159.02 189.864H161.162L161.428 187.372H159.286L159.02 189.864ZM165.836 184.88C166.461 184.796 167.007 184.558 167.474 184.166H168.37V193H167.278V185.482C166.811 185.781 166.33 185.944 165.836 185.972V184.88ZM172.387 191.978H177.497V193H171.281V191.698C171.281 190.662 171.673 189.901 172.457 189.416C172.709 189.257 172.989 189.117 173.297 188.996L175.033 188.296C175.929 187.941 176.377 187.358 176.377 186.546C176.377 186.098 176.223 185.734 175.915 185.454C175.607 185.165 175.173 185.02 174.613 185.02C174.062 185.02 173.609 185.137 173.255 185.37C172.909 185.603 172.709 185.953 172.653 186.42H171.435C171.481 185.655 171.789 185.067 172.359 184.656C172.928 184.245 173.656 184.04 174.543 184.04C175.439 184.04 176.167 184.283 176.727 184.768C177.287 185.253 177.567 185.855 177.567 186.574C177.567 187.283 177.38 187.848 177.007 188.268C176.643 188.688 176.139 189.024 175.495 189.276L173.717 189.99C173.269 190.177 172.933 190.391 172.709 190.634C172.494 190.867 172.387 191.175 172.387 191.558V191.978ZM179.792 184.88C180.417 184.796 180.963 184.558 181.43 184.166H182.326V193H181.234V185.482C180.767 185.781 180.286 185.944 179.792 185.972V184.88ZM186.342 191.978H191.452V193H185.236V191.698C185.236 190.662 185.628 189.901 186.412 189.416C186.664 189.257 186.944 189.117 187.252 188.996L188.988 188.296C189.884 187.941 190.332 187.358 190.332 186.546C190.332 186.098 190.178 185.734 189.87 185.454C189.562 185.165 189.128 185.02 188.568 185.02C188.018 185.02 187.565 185.137 187.21 185.37C186.865 185.603 186.664 185.953 186.608 186.42H185.39C185.437 185.655 185.745 185.067 186.314 184.656C186.884 184.245 187.612 184.04 188.498 184.04C189.394 184.04 190.122 184.283 190.682 184.768C191.242 185.253 191.522 185.855 191.522 186.574C191.522 187.283 191.336 187.848 190.962 188.268C190.598 188.688 190.094 189.024 189.45 189.276L187.672 189.99C187.224 190.177 186.888 190.391 186.664 190.634C186.45 190.867 186.342 191.175 186.342 191.558V191.978ZM193.748 184.88C194.373 184.796 194.919 184.558 195.386 184.166H196.282V193H195.19V185.482C194.723 185.781 194.242 185.944 193.748 185.972V184.88ZM200.298 191.978H205.408V193H199.192V191.698C199.192 190.662 199.584 189.901 200.368 189.416C200.62 189.257 200.9 189.117 201.208 188.996L202.944 188.296C203.84 187.941 204.288 187.358 204.288 186.546C204.288 186.098 204.134 185.734 203.826 185.454C203.518 185.165 203.084 185.02 202.524 185.02C201.974 185.02 201.521 185.137 201.166 185.37C200.821 185.603 200.62 185.953 200.564 186.42H199.346C199.393 185.655 199.701 185.067 200.27 184.656C200.84 184.245 201.568 184.04 202.454 184.04C203.35 184.04 204.078 184.283 204.638 184.768C205.198 185.253 205.478 185.855 205.478 186.574C205.478 187.283 205.292 187.848 204.918 188.268C204.554 188.688 204.05 189.024 203.406 189.276L201.628 189.99C201.18 190.177 200.844 190.391 200.62 190.634C200.406 190.867 200.298 191.175 200.298 191.558V191.978Z" fill="#BDBDBD"/>
<path d="M23.3972 166.056H30.0752V168H21.2732V166.002C21.2732 164.598 21.7712 163.578 22.7672 162.942C23.1032 162.726 23.4932 162.534 23.9372 162.366L26.3312 161.448C26.8592 161.244 27.2432 160.992 27.4832 160.692C27.7352 160.38 27.8612 159.996 27.8612 159.54C27.8612 159.084 27.6992 158.706 27.3752 158.406C27.0512 158.094 26.5892 157.938 25.9892 157.938C25.3892 157.938 24.8912 158.082 24.4952 158.37C24.1112 158.658 23.8892 159.084 23.8292 159.648H21.4712C21.4952 158.508 21.9332 157.614 22.7852 156.966C23.5652 156.378 24.6152 156.084 25.9352 156.084C27.1472 156.084 28.1492 156.408 28.9412 157.056C29.7452 157.728 30.1472 158.55 30.1472 159.522C30.1472 160.494 29.9012 161.274 29.4092 161.862C28.9292 162.438 28.1792 162.924 27.1592 163.32L24.7292 164.256C24.2612 164.436 23.9192 164.64 23.7032 164.868C23.4992 165.084 23.3972 165.366 23.3972 165.714V166.056ZM37.3796 156.084C38.0996 156.084 38.7536 156.21 39.3416 156.462C39.9416 156.702 40.4516 157.074 40.8716 157.578C41.7836 158.646 42.2396 160.176 42.2396 162.168C42.2396 164.16 41.7836 165.69 40.8716 166.758C40.0316 167.754 38.8736 168.252 37.3976 168.252C35.9096 168.252 34.7396 167.754 33.8876 166.758C32.9876 165.714 32.5376 164.184 32.5376 162.168C32.5376 160.152 32.9876 158.622 33.8876 157.578C34.7396 156.582 35.9036 156.084 37.3796 156.084ZM40.0436 162.168C40.0436 160.824 39.8096 159.798 39.3416 159.09C38.8856 158.37 38.2316 158.01 37.3796 158.01C36.5396 158.01 35.8856 158.37 35.4176 159.09C34.9616 159.798 34.7336 160.824 34.7336 162.168C34.7336 163.512 34.9616 164.538 35.4176 165.246C35.8856 165.942 36.5396 166.29 37.3796 166.29C38.2316 166.29 38.8856 165.942 39.3416 165.246C39.8096 164.538 40.0436 163.512 40.0436 162.168ZM47.2462 156.084C47.5702 156.084 47.8822 156.144 48.1822 156.264C48.4822 156.372 48.7462 156.54 48.9742 156.768C49.4662 157.236 49.7122 157.914 49.7122 158.802C49.7122 159.678 49.4662 160.362 48.9742 160.854C48.5182 161.31 47.9362 161.538 47.2282 161.538C46.5442 161.538 45.9742 161.31 45.5182 160.854C45.0262 160.362 44.7802 159.678 44.7802 158.802C44.7802 157.914 45.0262 157.236 45.5182 156.768C45.9862 156.312 46.5622 156.084 47.2462 156.084ZM48.1102 158.802C48.1102 157.89 47.8162 157.434 47.2282 157.434C46.6522 157.434 46.3642 157.89 46.3642 158.802C46.3642 159.726 46.6522 160.188 47.2282 160.188C47.8162 160.188 48.1102 159.726 48.1102 158.802ZM53.5102 156.318H55.6522L47.7502 168H45.5902L53.5102 156.318ZM53.9962 162.78C54.6802 162.78 55.2562 163.008 55.7242 163.464C56.2162 163.932 56.4622 164.61 56.4622 165.498C56.4622 166.386 56.2162 167.076 55.7242 167.568C55.2682 168.024 54.6922 168.252 53.9962 168.252C53.3002 168.252 52.7242 168.024 52.2682 167.568C51.7762 167.076 51.5302 166.386 51.5302 165.498C51.5302 164.61 51.7762 163.932 52.2682 163.464C52.7362 163.008 53.3122 162.78 53.9962 162.78ZM53.9962 164.13C53.4202 164.13 53.1322 164.592 53.1322 165.516C53.1322 166.428 53.4202 166.884 53.9962 166.884C54.2482 166.884 54.4582 166.782 54.6262 166.578C54.7942 166.362 54.8782 166.008 54.8782 165.516C54.8782 165.012 54.7942 164.658 54.6262 164.454C54.4582 164.238 54.2482 164.13 53.9962 164.13ZM65.9346 156.318L68.5086 165.192L71.0106 157.092H72.4506L75.0966 165.228L77.8326 156.318H80.2266L76.2126 168H73.9806L71.7846 161.412L69.6066 168H67.3746L63.5586 156.318H65.9346ZM84.9814 160.674C85.5814 159.57 86.4574 159.018 87.6094 159.018C88.7614 159.018 89.6074 159.372 90.1474 160.08C90.6994 160.788 90.9754 161.724 90.9754 162.888V168H88.8514V162.888C88.8514 162.24 88.6954 161.754 88.3834 161.43C88.0714 161.094 87.6334 160.926 87.0694 160.926C86.5054 160.926 86.0194 161.178 85.6114 161.682C85.2154 162.186 85.0054 162.942 84.9814 163.95V168H82.8574V155.652H84.9814V160.674ZM94.8522 159.234H96.9762V168H94.8522V159.234ZM94.6002 156.426C94.6002 156.042 94.7142 155.742 94.9422 155.526C95.1702 155.298 95.4942 155.184 95.9142 155.184C96.3222 155.184 96.6402 155.298 96.8682 155.526C97.1082 155.742 97.2282 156.042 97.2282 156.426C97.2282 156.81 97.1082 157.116 96.8682 157.344C96.6402 157.56 96.3222 157.668 95.9142 157.668C95.4942 157.668 95.1702 157.56 94.9422 157.344C94.7142 157.116 94.6002 156.81 94.6002 156.426ZM106.11 167.784C105.318 168.096 104.694 168.252 104.238 168.252C103.782 168.252 103.38 168.198 103.032 168.09C102.696 167.982 102.396 167.82 102.132 167.604C101.58 167.112 101.304 166.434 101.304 165.57V160.674H100.08V159.252H101.304V156.948H103.428V159.252H105.804V160.674H103.428V165.498C103.428 166.218 103.77 166.578 104.454 166.578C104.802 166.578 105.252 166.482 105.804 166.29L106.11 167.784ZM114.982 160.296C115.282 160.68 115.504 161.124 115.648 161.628C115.804 162.132 115.882 162.594 115.882 163.014C115.882 163.434 115.858 163.812 115.81 164.148H110.158C110.182 164.856 110.356 165.432 110.68 165.876C111.004 166.32 111.496 166.542 112.156 166.542C113.032 166.542 113.554 166.158 113.722 165.39H115.864C115.72 166.266 115.318 166.956 114.658 167.46C113.974 167.988 113.14 168.252 112.156 168.252C111.004 168.252 110.038 167.832 109.258 166.992C108.454 166.116 108.052 164.994 108.052 163.626C108.052 162.222 108.454 161.094 109.258 160.242C110.026 159.426 110.992 159.018 112.156 159.018C113.368 159.018 114.31 159.444 114.982 160.296ZM112.174 160.71C111.574 160.71 111.106 160.908 110.77 161.304C110.434 161.688 110.236 162.186 110.176 162.798H113.902C113.902 161.85 113.602 161.214 113.002 160.89C112.774 160.77 112.498 160.71 112.174 160.71ZM128.66 156.084C129.44 156.084 130.154 156.216 130.802 156.48C131.45 156.732 132.008 157.11 132.476 157.614C133.46 158.67 133.952 160.182 133.952 162.15C133.952 164.13 133.46 165.66 132.476 166.74C131.54 167.748 130.262 168.252 128.642 168.252C127.034 168.252 125.762 167.736 124.826 166.704C123.842 165.636 123.35 164.118 123.35 162.15C123.35 160.158 123.842 158.634 124.826 157.578C125.75 156.582 127.028 156.084 128.66 156.084ZM131.756 162.186C131.756 160.842 131.474 159.81 130.91 159.09C130.358 158.358 129.608 157.992 128.66 157.992C127.712 157.992 126.956 158.358 126.392 159.09C125.828 159.81 125.546 160.842 125.546 162.186C125.546 163.518 125.828 164.544 126.392 165.264C126.956 165.972 127.712 166.326 128.66 166.326C129.608 166.326 130.358 165.972 130.91 165.264C131.474 164.544 131.756 163.518 131.756 162.186ZM138.055 159.252L140.053 165.894L142.069 159.252H144.517L141.259 168H138.865L135.607 159.252H138.055ZM153.101 160.296C153.401 160.68 153.623 161.124 153.767 161.628C153.923 162.132 154.001 162.594 154.001 163.014C154.001 163.434 153.977 163.812 153.929 164.148H148.277C148.301 164.856 148.475 165.432 148.799 165.876C149.123 166.32 149.615 166.542 150.275 166.542C151.151 166.542 151.673 166.158 151.841 165.39H153.983C153.839 166.266 153.437 166.956 152.777 167.46C152.093 167.988 151.259 168.252 150.275 168.252C149.123 168.252 148.157 167.832 147.377 166.992C146.573 166.116 146.171 164.994 146.171 163.626C146.171 162.222 146.573 161.094 147.377 160.242C148.145 159.426 149.111 159.018 150.275 159.018C151.487 159.018 152.429 159.444 153.101 160.296ZM150.293 160.71C149.693 160.71 149.225 160.908 148.889 161.304C148.553 161.688 148.355 162.186 148.295 162.798H152.021C152.021 161.85 151.721 161.214 151.121 160.89C150.893 160.77 150.617 160.71 150.293 160.71ZM159.268 160.98C159.796 159.72 160.588 159.09 161.644 159.09C161.848 159.09 162.106 159.132 162.418 159.216L162.382 161.34C162.046 161.268 161.716 161.232 161.392 161.232C159.976 161.232 159.268 162.21 159.268 164.166V168H157.144V159.234H159.268V160.98ZM165.232 155.652H167.356V168H165.232V155.652ZM174.179 162.888C174.875 162.888 175.679 163.002 176.591 163.23V162.366C176.591 161.754 176.465 161.304 176.213 161.016C175.973 160.716 175.571 160.566 175.007 160.566C174.455 160.566 174.029 160.68 173.729 160.908C173.429 161.124 173.279 161.436 173.279 161.844H170.957C170.957 160.848 171.305 160.128 172.001 159.684C172.709 159.24 173.693 159.018 174.953 159.018C176.753 159.018 177.917 159.648 178.445 160.908C178.625 161.34 178.715 161.85 178.715 162.438V168H176.861L176.699 166.83C176.135 167.778 175.271 168.252 174.107 168.252C172.979 168.252 172.103 167.976 171.479 167.424C170.903 166.896 170.615 166.23 170.615 165.426C170.615 164.61 170.933 163.986 171.569 163.554C172.205 163.11 173.075 162.888 174.179 162.888ZM176.591 164.58C175.883 164.388 175.223 164.292 174.611 164.292C173.459 164.292 172.883 164.676 172.883 165.444C172.883 165.768 173.015 166.05 173.279 166.29C173.543 166.518 173.963 166.632 174.539 166.632C175.127 166.632 175.607 166.44 175.979 166.056C176.363 165.66 176.567 165.168 176.591 164.58ZM183.491 159.252L185.597 165.552L187.433 159.252H189.593L186.245 169.584C185.897 170.628 185.471 171.378 184.967 171.834C184.475 172.29 183.845 172.518 183.077 172.518C182.297 172.518 181.517 172.326 180.737 171.942V170.07C181.361 170.466 181.991 170.664 182.627 170.664C183.047 170.664 183.389 170.496 183.653 170.16C183.929 169.824 184.151 169.386 184.319 168.846L184.589 168L181.079 159.252H183.491Z" fill="#F1F1F1"/>
</svg>
