<svg width="210" height="212" viewBox="0 0 210 212" fill="none" xmlns="http://www.w3.org/2000/svg">
<circle cx="104.5" cy="66.5" r="66.5" fill="#606060"/>
<path d="M79.6245 190.62H77.4685L77.2725 192.566H76.2365L76.4325 190.62H75.0465L75.1165 189.864H76.5165L76.7825 187.372H75.3685L75.4525 186.63H76.8525L77.0625 184.698H78.0985L77.8885 186.63H80.0445L80.2545 184.698H81.2765L81.0665 186.63H82.5085L82.4245 187.372H80.9965L80.7305 189.864H82.1725L82.0885 190.62H80.6465L80.4505 192.566H79.4145L79.6245 190.62ZM77.5525 189.864H79.6945L79.9605 187.372H77.8185L77.5525 189.864ZM89.6318 186.42C89.4732 185.505 88.9738 185.048 88.1338 185.048C87.2938 185.048 86.6452 185.393 86.1878 186.084C85.7398 186.775 85.5158 187.717 85.5158 188.912C85.5158 189.407 85.5392 189.817 85.5858 190.144C85.6418 189.285 85.9032 188.665 86.3698 188.282C86.8458 187.89 87.4525 187.694 88.1898 187.694C88.9272 187.694 89.5618 187.955 90.0938 188.478C90.6258 188.991 90.8918 189.654 90.8918 190.466C90.8918 191.269 90.6165 191.922 90.0658 192.426C89.5152 192.921 88.7918 193.168 87.8958 193.168C86.8505 193.168 86.0058 192.748 85.3618 191.908C84.7178 191.068 84.3958 189.967 84.3958 188.604C84.3958 187.232 84.7225 186.131 85.3758 185.3C86.0292 184.46 86.9205 184.04 88.0498 184.04C88.8338 184.04 89.4732 184.259 89.9678 184.698C90.4625 185.137 90.7472 185.711 90.8218 186.42H89.6318ZM87.8958 188.674C87.3732 188.674 86.9345 188.842 86.5798 189.178C86.2345 189.505 86.0618 189.925 86.0618 190.438C86.0618 190.951 86.2345 191.367 86.5798 191.684C86.9252 191.992 87.3638 192.146 87.8958 192.146C88.4278 192.146 88.8665 191.992 89.2118 191.684C89.5665 191.376 89.7438 190.951 89.7438 190.41C89.7438 189.869 89.5665 189.444 89.2118 189.136C88.8665 188.828 88.4278 188.674 87.8958 188.674ZM96.4792 184.04C97.5432 184.04 98.3832 184.432 98.9992 185.216C99.6152 186 99.9232 187.129 99.9232 188.604C99.9232 190.069 99.6152 191.194 98.9992 191.978C98.3832 192.762 97.5432 193.154 96.4792 193.154C95.4152 193.154 94.5706 192.767 93.9452 191.992C93.3292 191.217 93.0212 190.088 93.0212 188.604C93.0212 187.111 93.3292 185.977 93.9452 185.202C94.5706 184.427 95.4152 184.04 96.4792 184.04ZM98.7752 188.604C98.7752 187.456 98.5792 186.579 98.1872 185.972C97.7952 185.356 97.2212 185.048 96.4652 185.048C95.7186 185.048 95.1492 185.356 94.7572 185.972C94.3652 186.579 94.1692 187.456 94.1692 188.604C94.1692 189.743 94.3652 190.62 94.7572 191.236C95.1492 191.843 95.7186 192.146 96.4652 192.146C97.2212 192.146 97.7952 191.843 98.1872 191.236C98.5792 190.62 98.7752 189.743 98.7752 188.604ZM107.17 186.42C107.011 185.505 106.512 185.048 105.672 185.048C104.832 185.048 104.183 185.393 103.726 186.084C103.278 186.775 103.054 187.717 103.054 188.912C103.054 189.407 103.077 189.817 103.124 190.144C103.18 189.285 103.441 188.665 103.908 188.282C104.384 187.89 104.99 187.694 105.728 187.694C106.465 187.694 107.1 187.955 107.632 188.478C108.164 188.991 108.43 189.654 108.43 190.466C108.43 191.269 108.154 191.922 107.604 192.426C107.053 192.921 106.33 193.168 105.434 193.168C104.388 193.168 103.544 192.748 102.9 191.908C102.256 191.068 101.934 189.967 101.934 188.604C101.934 187.232 102.26 186.131 102.914 185.3C103.567 184.46 104.458 184.04 105.588 184.04C106.372 184.04 107.011 184.259 107.506 184.698C108 185.137 108.285 185.711 108.36 186.42H107.17ZM105.434 188.674C104.911 188.674 104.472 188.842 104.118 189.178C103.772 189.505 103.6 189.925 103.6 190.438C103.6 190.951 103.772 191.367 104.118 191.684C104.463 191.992 104.902 192.146 105.434 192.146C105.966 192.146 106.404 191.992 106.75 191.684C107.104 191.376 107.282 190.951 107.282 190.41C107.282 189.869 107.104 189.444 106.75 189.136C106.404 188.828 105.966 188.674 105.434 188.674ZM114.017 184.04C115.081 184.04 115.921 184.432 116.537 185.216C117.153 186 117.461 187.129 117.461 188.604C117.461 190.069 117.153 191.194 116.537 191.978C115.921 192.762 115.081 193.154 114.017 193.154C112.953 193.154 112.108 192.767 111.483 191.992C110.867 191.217 110.559 190.088 110.559 188.604C110.559 187.111 110.867 185.977 111.483 185.202C112.108 184.427 112.953 184.04 114.017 184.04ZM116.313 188.604C116.313 187.456 116.117 186.579 115.725 185.972C115.333 185.356 114.759 185.048 114.003 185.048C113.256 185.048 112.687 185.356 112.295 185.972C111.903 186.579 111.707 187.456 111.707 188.604C111.707 189.743 111.903 190.62 112.295 191.236C112.687 191.843 113.256 192.146 114.003 192.146C114.759 192.146 115.333 191.843 115.725 191.236C116.117 190.62 116.313 189.743 116.313 188.604ZM124.708 186.42C124.549 185.505 124.05 185.048 123.21 185.048C122.37 185.048 121.721 185.393 121.264 186.084C120.816 186.775 120.592 187.717 120.592 188.912C120.592 189.407 120.615 189.817 120.662 190.144C120.718 189.285 120.979 188.665 121.446 188.282C121.922 187.89 122.528 187.694 123.266 187.694C124.003 187.694 124.638 187.955 125.17 188.478C125.702 188.991 125.968 189.654 125.968 190.466C125.968 191.269 125.692 191.922 125.142 192.426C124.591 192.921 123.868 193.168 122.972 193.168C121.926 193.168 121.082 192.748 120.438 191.908C119.794 191.068 119.472 189.967 119.472 188.604C119.472 187.232 119.798 186.131 120.452 185.3C121.105 184.46 121.996 184.04 123.126 184.04C123.91 184.04 124.549 184.259 125.044 184.698C125.538 185.137 125.823 185.711 125.898 186.42H124.708ZM122.972 188.674C122.449 188.674 122.01 188.842 121.656 189.178C121.31 189.505 121.138 189.925 121.138 190.438C121.138 190.951 121.31 191.367 121.656 191.684C122.001 191.992 122.44 192.146 122.972 192.146C123.504 192.146 123.942 191.992 124.288 191.684C124.642 191.376 124.82 190.951 124.82 190.41C124.82 189.869 124.642 189.444 124.288 189.136C123.942 188.828 123.504 188.674 122.972 188.674ZM131.555 184.04C132.619 184.04 133.459 184.432 134.075 185.216C134.691 186 134.999 187.129 134.999 188.604C134.999 190.069 134.691 191.194 134.075 191.978C133.459 192.762 132.619 193.154 131.555 193.154C130.491 193.154 129.646 192.767 129.021 191.992C128.405 191.217 128.097 190.088 128.097 188.604C128.097 187.111 128.405 185.977 129.021 185.202C129.646 184.427 130.491 184.04 131.555 184.04ZM133.851 188.604C133.851 187.456 133.655 186.579 133.263 185.972C132.871 185.356 132.297 185.048 131.541 185.048C130.794 185.048 130.225 185.356 129.833 185.972C129.441 186.579 129.245 187.456 129.245 188.604C129.245 189.743 129.441 190.62 129.833 191.236C130.225 191.843 130.794 192.146 131.541 192.146C132.297 192.146 132.871 191.843 133.263 191.236C133.655 190.62 133.851 189.743 133.851 188.604Z" fill="#BDBDBD"/>
<path d="M66.2884 156.318C68.0644 156.318 69.4984 156.846 70.5904 157.902C71.6944 158.958 72.2464 160.38 72.2464 162.168C72.2464 163.944 71.6944 165.36 70.5904 166.416C69.4984 167.472 68.0644 168 66.2884 168H62.4904V156.318H66.2884ZM64.6324 166.074H66.2884C67.3924 166.074 68.2864 165.702 68.9704 164.958C69.6184 164.238 69.9424 163.308 69.9424 162.168C69.9424 161.004 69.6184 160.062 68.9704 159.342C68.2984 158.61 67.4044 158.244 66.2884 158.244H64.6324V166.074ZM78.3282 162.888C79.0242 162.888 79.8282 163.002 80.7402 163.23V162.366C80.7402 161.754 80.6142 161.304 80.3622 161.016C80.1222 160.716 79.7202 160.566 79.1562 160.566C78.6042 160.566 78.1782 160.68 77.8782 160.908C77.5782 161.124 77.4282 161.436 77.4282 161.844H75.1062C75.1062 160.848 75.4542 160.128 76.1502 159.684C76.8582 159.24 77.8422 159.018 79.1022 159.018C80.9022 159.018 82.0662 159.648 82.5942 160.908C82.7742 161.34 82.8642 161.85 82.8642 162.438V168H81.0102L80.8482 166.83C80.2842 167.778 79.4202 168.252 78.2562 168.252C77.1282 168.252 76.2522 167.976 75.6282 167.424C75.0522 166.896 74.7642 166.23 74.7642 165.426C74.7642 164.61 75.0822 163.986 75.7182 163.554C76.3542 163.11 77.2242 162.888 78.3282 162.888ZM80.7402 164.58C80.0322 164.388 79.3722 164.292 78.7602 164.292C77.6082 164.292 77.0322 164.676 77.0322 165.444C77.0322 165.768 77.1642 166.05 77.4282 166.29C77.6922 166.518 78.1122 166.632 78.6882 166.632C79.2762 166.632 79.7562 166.44 80.1282 166.056C80.5122 165.66 80.7162 165.168 80.7402 164.58ZM88.6839 160.98C89.2119 159.72 90.0039 159.09 91.0599 159.09C91.2639 159.09 91.5219 159.132 91.8339 159.216L91.7979 161.34C91.4619 161.268 91.1319 161.232 90.8079 161.232C89.3919 161.232 88.6839 162.21 88.6839 164.166V168H86.5599V159.234H88.6839V160.98ZM97.7442 163.734L96.7722 164.544V168H94.6482V155.652H96.7722V162.33L100.228 159.252H103.108L99.2382 162.492L103.324 168H100.732L97.7442 163.734ZM117.918 166.146C117.414 167.55 116.448 168.252 115.02 168.252C113.556 168.252 112.35 167.7 111.402 166.596C110.418 165.456 109.926 163.998 109.926 162.222C109.926 160.35 110.454 158.85 111.51 157.722C112.53 156.63 113.844 156.084 115.452 156.084C116.544 156.084 117.456 156.324 118.188 156.804C118.932 157.272 119.514 158.016 119.934 159.036L117.756 159.54C117.12 158.52 116.316 158.01 115.344 158.01C114.456 158.01 113.718 158.388 113.13 159.144C112.518 159.912 112.212 160.938 112.212 162.222C112.212 163.434 112.488 164.418 113.04 165.174C113.58 165.918 114.3 166.29 115.2 166.29C115.968 166.29 116.598 166.044 117.09 165.552C117.594 165.048 117.846 164.358 117.846 163.482V163.41L115.218 163.356V161.988H119.88V168H118.152L117.918 166.146ZM125.66 160.98C126.188 159.72 126.98 159.09 128.036 159.09C128.24 159.09 128.498 159.132 128.81 159.216L128.774 161.34C128.438 161.268 128.108 161.232 127.784 161.232C126.368 161.232 125.66 162.21 125.66 164.166V168H123.536V159.234H125.66V160.98ZM137.726 160.296C138.026 160.68 138.248 161.124 138.392 161.628C138.548 162.132 138.626 162.594 138.626 163.014C138.626 163.434 138.602 163.812 138.554 164.148H132.902C132.926 164.856 133.1 165.432 133.424 165.876C133.748 166.32 134.24 166.542 134.9 166.542C135.776 166.542 136.298 166.158 136.466 165.39H138.608C138.464 166.266 138.062 166.956 137.402 167.46C136.718 167.988 135.884 168.252 134.9 168.252C133.748 168.252 132.782 167.832 132.002 166.992C131.198 166.116 130.796 164.994 130.796 163.626C130.796 162.222 131.198 161.094 132.002 160.242C132.77 159.426 133.736 159.018 134.9 159.018C136.112 159.018 137.054 159.444 137.726 160.296ZM134.918 160.71C134.318 160.71 133.85 160.908 133.514 161.304C133.178 161.688 132.98 162.186 132.92 162.798H136.646C136.646 161.85 136.346 161.214 135.746 160.89C135.518 160.77 135.242 160.71 134.918 160.71ZM142.849 159.252L144.955 165.552L146.791 159.252H148.951L145.603 169.584C145.255 170.628 144.829 171.378 144.325 171.834C143.833 172.29 143.203 172.518 142.435 172.518C141.655 172.518 140.875 172.326 140.095 171.942V170.07C140.719 170.466 141.349 170.664 141.985 170.664C142.405 170.664 142.747 170.496 143.011 170.16C143.287 169.824 143.509 169.386 143.677 168.846L143.947 168L140.437 159.252H142.849Z" fill="#F1F1F1"/>
</svg>
