<svg width="210" height="212" viewBox="0 0 210 212" fill="none" xmlns="http://www.w3.org/2000/svg">
<circle cx="104.5" cy="66.5" r="66.5" fill="#FF2D5E"/>
<path d="M80.2124 190.62H78.0564L77.8604 192.566H76.8244L77.0204 190.62H75.6344L75.7044 189.864H77.1044L77.3704 187.372H75.9564L76.0404 186.63H77.4404L77.6504 184.698H78.6864L78.4764 186.63H80.6324L80.8424 184.698H81.8644L81.6544 186.63H83.0964L83.0124 187.372H81.5844L81.3184 189.864H82.7604L82.6764 190.62H81.2344L81.0384 192.566H80.0024L80.2124 190.62ZM78.1404 189.864H80.2824L80.5484 187.372H78.4064L78.1404 189.864ZM85.6837 184.194H91.0317V185.146H86.7897V188.072H90.7377V189.024H86.7897V193H85.6837V184.194ZM93.6255 184.194H98.9735V185.146H94.7315V188.072H98.6795V189.024H94.7315V193H93.6255V184.194ZM102.155 191.978H107.265V193H101.049V191.698C101.049 190.662 101.441 189.901 102.225 189.416C102.477 189.257 102.757 189.117 103.065 188.996L104.801 188.296C105.697 187.941 106.145 187.358 106.145 186.546C106.145 186.098 105.991 185.734 105.683 185.454C105.375 185.165 104.941 185.02 104.381 185.02C103.831 185.02 103.378 185.137 103.023 185.37C102.678 185.603 102.477 185.953 102.421 186.42H101.203C101.25 185.655 101.558 185.067 102.127 184.656C102.697 184.245 103.425 184.04 104.311 184.04C105.207 184.04 105.935 184.283 106.495 184.768C107.055 185.253 107.335 185.855 107.335 186.574C107.335 187.283 107.149 187.848 106.775 188.268C106.411 188.688 105.907 189.024 105.263 189.276L103.485 189.99C103.037 190.177 102.701 190.391 102.477 190.634C102.263 190.867 102.155 191.175 102.155 191.558V191.978ZM112.864 184.194C114.19 184.194 115.249 184.595 116.042 185.398C116.845 186.191 117.246 187.26 117.246 188.604C117.246 189.939 116.845 191.007 116.042 191.81C115.249 192.603 114.19 193 112.864 193H110.274V184.194H112.864ZM111.38 192.034H112.864C113.844 192.034 114.624 191.712 115.202 191.068C115.781 190.415 116.07 189.589 116.07 188.59C116.07 187.591 115.776 186.775 115.188 186.14C114.61 185.496 113.835 185.174 112.864 185.174H111.38V192.034ZM124.708 190.144C124.708 189.033 123.985 188.478 122.538 188.478H120.172L120.55 184.194H125.436V185.202H121.614L121.376 187.736C121.862 187.652 122.324 187.61 122.762 187.61C123.724 187.61 124.48 187.825 125.03 188.254C125.581 188.674 125.856 189.313 125.856 190.172C125.856 191.031 125.567 191.745 124.988 192.314C124.41 192.874 123.663 193.154 122.748 193.154C121.834 193.154 121.087 192.925 120.508 192.468C119.93 192.001 119.64 191.362 119.64 190.55H120.746C120.746 191.315 121.138 191.815 121.922 192.048C122.165 192.113 122.431 192.146 122.72 192.146C123.318 192.146 123.798 191.959 124.162 191.586C124.526 191.203 124.708 190.723 124.708 190.144ZM128.646 184.194H134.064V185.146H129.752V188.1H133.812V189.038H129.752V192.034H134.064V193H128.646V184.194Z" fill="#BDBDBD"/>
<path d="M53.0361 166.146H57.8421V168H50.9121V156.318H53.0361V166.146ZM60.5866 159.234H62.7106V168H60.5866V159.234ZM60.3346 156.426C60.3346 156.042 60.4486 155.742 60.6766 155.526C60.9046 155.298 61.2286 155.184 61.6486 155.184C62.0566 155.184 62.3746 155.298 62.6026 155.526C62.8426 155.742 62.9626 156.042 62.9626 156.426C62.9626 156.81 62.8426 157.116 62.6026 157.344C62.3746 157.56 62.0566 157.668 61.6486 157.668C61.2286 157.668 60.9046 157.56 60.6766 157.344C60.4486 157.116 60.3346 156.81 60.3346 156.426ZM68.8569 160.44C69.4089 159.492 70.2489 159.018 71.3769 159.018C72.4569 159.018 73.3809 159.426 74.1489 160.242C74.9649 161.106 75.3729 162.234 75.3729 163.626C75.3729 165.03 74.9589 166.164 74.1309 167.028C73.3629 167.844 72.4449 168.252 71.3769 168.252C70.3089 168.252 69.5289 167.934 69.0369 167.298V172.266H66.9129V159.252H68.6589L68.8569 160.44ZM70.9989 166.326C71.2509 166.326 71.5089 166.272 71.7729 166.164C72.0489 166.056 72.2949 165.888 72.5109 165.66C72.9909 165.156 73.2309 164.484 73.2309 163.644C73.2309 162.792 73.0209 162.126 72.6009 161.646C72.1929 161.166 71.6889 160.926 71.0889 160.926C70.5009 160.926 70.0149 161.1 69.6309 161.448C69.2589 161.784 69.0609 162.27 69.0369 162.906V164.472C69.0369 165.036 69.2349 165.492 69.6309 165.84C70.0029 166.164 70.4589 166.326 70.9989 166.326ZM79.6872 165.336C79.7112 166.164 80.3172 166.578 81.5052 166.578C81.9612 166.578 82.3332 166.482 82.6212 166.29C82.9212 166.086 83.0712 165.852 83.0712 165.588C83.0712 165.324 82.9812 165.12 82.8012 164.976C82.6212 164.832 82.3392 164.7 81.9552 164.58L80.0472 163.896C78.6312 163.404 77.9232 162.6 77.9232 161.484C77.9232 160.74 78.2532 160.146 78.9132 159.702C79.5852 159.246 80.4792 159.018 81.5952 159.018C82.7232 159.018 83.5872 159.264 84.1872 159.756C84.7992 160.248 85.1172 160.866 85.1412 161.61H83.1432C83.1192 161.322 82.9812 161.094 82.7292 160.926C82.4772 160.758 82.1172 160.674 81.6492 160.674C81.1812 160.674 80.8152 160.77 80.5512 160.962C80.2992 161.142 80.1732 161.352 80.1732 161.592C80.1732 162.012 80.5272 162.324 81.2352 162.528L83.3052 163.302C83.9892 163.53 84.5112 163.824 84.8712 164.184C85.2432 164.532 85.4292 164.988 85.4292 165.552C85.4292 166.272 85.0872 166.896 84.4032 167.424C83.6952 167.976 82.7592 168.252 81.5952 168.252C80.4312 168.252 79.4952 168 78.7872 167.496C78.0792 166.98 77.7192 166.26 77.7072 165.336H79.6872ZM93.5234 167.784C92.7314 168.096 92.1074 168.252 91.6514 168.252C91.1954 168.252 90.7934 168.198 90.4454 168.09C90.1094 167.982 89.8094 167.82 89.5454 167.604C88.9934 167.112 88.7174 166.434 88.7174 165.57V160.674H87.4934V159.252H88.7174V156.948H90.8414V159.252H93.2174V160.674H90.8414V165.498C90.8414 166.218 91.1834 166.578 91.8674 166.578C92.2154 166.578 92.6654 166.482 93.2174 166.29L93.5234 167.784ZM96.4729 159.234H98.5969V168H96.4729V159.234ZM96.2209 156.426C96.2209 156.042 96.3349 155.742 96.5629 155.526C96.7909 155.298 97.1149 155.184 97.5349 155.184C97.9429 155.184 98.2609 155.298 98.4889 155.526C98.7289 155.742 98.8489 156.042 98.8489 156.426C98.8489 156.81 98.7289 157.116 98.4889 157.344C98.2609 157.56 97.9429 157.668 97.5349 157.668C97.1149 157.668 96.7909 157.56 96.5629 157.344C96.3349 157.116 96.2209 156.81 96.2209 156.426ZM106.129 159.018C106.681 159.018 107.173 159.114 107.605 159.306C108.049 159.486 108.421 159.726 108.721 160.026C109.321 160.602 109.675 161.328 109.783 162.204L107.641 162.258C107.545 161.874 107.365 161.556 107.101 161.304C106.849 161.052 106.555 160.926 106.219 160.926C105.883 160.926 105.595 160.98 105.355 161.088C105.115 161.184 104.905 161.34 104.725 161.556C104.317 162.06 104.113 162.756 104.113 163.644C104.113 164.532 104.305 165.204 104.689 165.66C105.073 166.104 105.535 166.326 106.075 166.326C106.627 166.326 107.023 166.2 107.263 165.948C107.515 165.684 107.641 165.33 107.641 164.886H109.783C109.783 165.846 109.465 166.644 108.829 167.28C108.181 167.928 107.275 168.252 106.111 168.252C104.959 168.252 103.993 167.832 103.213 166.992C102.385 166.092 101.971 164.97 101.971 163.626C101.971 162.21 102.385 161.076 103.213 160.224C103.993 159.42 104.965 159.018 106.129 159.018ZM116.04 163.734L115.068 164.544V168H112.944V155.652H115.068V162.33L118.524 159.252H121.404L117.534 162.492L121.62 168H119.028L116.04 163.734ZM137.726 159.9C137.726 160.728 137.492 161.436 137.024 162.024C136.556 162.612 135.884 163.02 135.008 163.248L138.14 168H135.368L132.794 163.446H131.174V168H129.05V156.318H133.37C134.75 156.318 135.824 156.648 136.592 157.308C137.348 157.944 137.726 158.808 137.726 159.9ZM133.172 162.024C133.952 162.024 134.54 161.85 134.936 161.502C135.332 161.142 135.53 160.674 135.53 160.098C135.53 159.51 135.35 159.042 134.99 158.694C134.63 158.334 134.09 158.154 133.37 158.154H131.174V162.024H133.172ZM147.336 160.296C147.636 160.68 147.858 161.124 148.002 161.628C148.158 162.132 148.236 162.594 148.236 163.014C148.236 163.434 148.212 163.812 148.164 164.148H142.512C142.536 164.856 142.71 165.432 143.034 165.876C143.358 166.32 143.85 166.542 144.51 166.542C145.386 166.542 145.908 166.158 146.076 165.39H148.218C148.074 166.266 147.672 166.956 147.012 167.46C146.328 167.988 145.494 168.252 144.51 168.252C143.358 168.252 142.392 167.832 141.612 166.992C140.808 166.116 140.406 164.994 140.406 163.626C140.406 162.222 140.808 161.094 141.612 160.242C142.38 159.426 143.346 159.018 144.51 159.018C145.722 159.018 146.664 159.444 147.336 160.296ZM144.528 160.71C143.928 160.71 143.46 160.908 143.124 161.304C142.788 161.688 142.59 162.186 142.53 162.798H146.256C146.256 161.85 145.956 161.214 145.356 160.89C145.128 160.77 144.852 160.71 144.528 160.71ZM157.085 166.65C156.545 167.718 155.717 168.252 154.601 168.252C153.485 168.252 152.549 167.826 151.793 166.974C151.013 166.086 150.623 164.958 150.623 163.59C150.623 162.222 150.995 161.112 151.739 160.26C152.471 159.432 153.383 159.018 154.475 159.018C155.567 159.018 156.389 159.456 156.941 160.332V155.652H159.083V168H157.337L157.085 166.65ZM154.871 160.926C154.271 160.926 153.767 161.172 153.359 161.664C152.963 162.144 152.765 162.792 152.765 163.608C152.765 164.424 152.969 165.084 153.377 165.588C153.785 166.08 154.301 166.326 154.925 166.326C155.441 166.326 155.903 166.122 156.311 165.714C156.731 165.294 156.941 164.766 156.941 164.13V162.996C156.917 162.372 156.707 161.862 156.311 161.466C155.951 161.106 155.471 160.926 154.871 160.926Z" fill="#F1F1F1"/>
</svg>
