<svg width="550" height="696" viewBox="0 0 550 696" fill="none" xmlns="http://www.w3.org/2000/svg">
<path d="M312.118 41.7316C244.812 -5.65319 69.0824 0.233116 69.0824 0.233116C69.0824 0.233116 21.7708 0.23311 4.02887 89.1164C-13.713 178 33.5987 198.602 21.7708 254.227C9.94283 309.853 21.7708 320.448 160.045 371.954C298.319 423.459 270.72 371.954 333.803 320.448C396.885 268.943 379.425 89.1164 312.118 41.7316Z" fill="#FDFF92"/>
<path fill-rule="evenodd" clip-rule="evenodd" d="M96.4411 526.211C114.363 526.651 133.143 527.682 146.361 539.782C160.044 552.308 165.68 571.118 165.753 589.66C165.825 608.28 159.705 626.541 146.752 639.928C133.585 653.536 115.301 663.065 96.4411 661.295C78.7214 659.632 66.5088 644.662 54.7702 631.296C44.0803 619.123 35.3722 605.749 33.5296 589.66C31.423 571.265 30.96 550.417 44.0015 537.264C57.0719 524.082 77.8753 525.754 96.4411 526.211Z" fill="#0C0093"/>
<path fill-rule="evenodd" clip-rule="evenodd" d="M442.833 493.206C469.675 492.665 498.825 487.289 519.492 504.429C541.386 522.587 554.069 553.147 548.818 581.107C544.023 606.637 512.957 614.533 495.246 633.533C476.195 653.971 470.393 690.226 442.833 694.807C414.227 699.563 389.676 675.292 369.527 654.431C349.809 634.016 333.077 609.493 333.014 581.107C332.951 552.669 347.002 525.223 369.2 507.455C389.492 491.213 416.85 493.729 442.833 493.206Z" fill="#FFA7A7"/>
</svg>
