<svg width="166" height="16" viewBox="0 0 166 16" fill="none" xmlns="http://www.w3.org/2000/svg">
<path d="M2.016 4.83V2.418H8.568V10.626C8.568 12.126 8.178 13.248 7.398 13.992C6.63 14.736 5.64 15.108 4.428 15.108C2.916 15.108 1.596 14.526 0.468 13.362L1.926 11.346C2.682 12.162 3.474 12.57 4.302 12.57C4.698 12.57 5.034 12.42 5.31 12.12C5.598 11.808 5.742 11.346 5.742 10.734V4.83H2.016ZM17.526 10.536V5.316H20.244V15H17.526V13.722C16.854 14.67 15.984 15.144 14.916 15.144C13.86 15.144 12.972 14.814 12.252 14.154C11.532 13.482 11.172 12.492 11.172 11.184V5.316H13.89V10.59C13.89 12.078 14.436 12.822 15.528 12.822C16.068 12.822 16.536 12.63 16.932 12.246C17.328 11.85 17.526 11.28 17.526 10.536ZM16.824 4.002H14.25L16.536 0.815999L19.326 1.986L16.824 4.002ZM25.4936 15H22.7936V1.644H25.4936V15ZM30.7495 15H28.0495V5.316H30.7495V15ZM28.2655 4.092C27.9655 3.78 27.8155 3.402 27.8155 2.958C27.8155 2.514 27.9655 2.142 28.2655 1.842C28.5775 1.53 28.9555 1.374 29.3995 1.374C29.8435 1.374 30.2155 1.53 30.5155 1.842C30.8275 2.142 30.9835 2.514 30.9835 2.958C30.9835 3.402 30.8275 3.78 30.5155 4.092C30.2155 4.392 29.8435 4.542 29.3995 4.542C28.9555 4.542 28.5775 4.392 28.2655 4.092ZM41.5313 15H38.9933V13.83C38.2973 14.706 37.4333 15.144 36.4013 15.144C35.3813 15.144 34.5233 14.85 33.8273 14.262C33.1313 13.662 32.7833 12.87 32.7833 11.886C32.7833 10.89 33.1433 10.146 33.8633 9.654C34.5833 9.162 35.5673 8.916 36.8153 8.916H38.8313V8.862C38.8313 7.83 38.2853 7.314 37.1933 7.314C36.7253 7.314 36.2273 7.41 35.6993 7.602C35.1833 7.782 34.7453 8.01 34.3853 8.286L33.1793 6.54C34.4513 5.616 35.9033 5.154 37.5353 5.154C38.7113 5.154 39.6713 5.448 40.4153 6.036C41.1593 6.624 41.5313 7.554 41.5313 8.826V15ZM38.8133 11.31V10.842H37.1213C36.0413 10.842 35.5013 11.178 35.5013 11.85C35.5013 12.198 35.6273 12.468 35.8793 12.66C36.1433 12.84 36.5153 12.93 36.9953 12.93C37.4753 12.93 37.8953 12.786 38.2553 12.498C38.6273 12.198 38.8133 11.802 38.8133 11.31ZM60.2769 7.08L56.8749 13.956H55.2009L51.8169 7.08V15H49.0089V2.418H52.8069L56.0469 9.33L59.3049 2.418H63.0849V15H60.2769V7.08ZM74.1388 15H71.6008V13.83C70.9048 14.706 70.0408 15.144 69.0088 15.144C67.9888 15.144 67.1308 14.85 66.4348 14.262C65.7388 13.662 65.3908 12.87 65.3908 11.886C65.3908 10.89 65.7508 10.146 66.4708 9.654C67.1908 9.162 68.1748 8.916 69.4228 8.916H71.4388V8.862C71.4388 7.83 70.8928 7.314 69.8008 7.314C69.3328 7.314 68.8348 7.41 68.3068 7.602C67.7908 7.782 67.3528 8.01 66.9928 8.286L65.7868 6.54C67.0588 5.616 68.5108 5.154 70.1428 5.154C71.3188 5.154 72.2788 5.448 73.0228 6.036C73.7668 6.624 74.1388 7.554 74.1388 8.826V15ZM71.4208 11.31V10.842H69.7288C68.6488 10.842 68.1088 11.178 68.1088 11.85C68.1088 12.198 68.2348 12.468 68.4868 12.66C68.7508 12.84 69.1228 12.93 69.6028 12.93C70.0828 12.93 70.5028 12.786 70.8628 12.498C71.2348 12.198 71.4208 11.802 71.4208 11.31ZM81.6943 7.692C80.8903 7.692 80.2903 7.98 79.8943 8.556C79.4983 9.12 79.3003 9.87 79.3003 10.806V15H76.6003V5.316H79.3003V6.594C79.6483 6.198 80.0803 5.862 80.5963 5.586C81.1243 5.31 81.6583 5.166 82.1983 5.154L82.2163 7.692H81.6943ZM84.0007 5.316H86.7007V15H84.0007V5.316ZM86.6647 4.002H84.0907L86.3767 0.815999L89.1667 1.986L86.6647 4.002ZM99.7806 15H94.2726V2.418H99.1686C100.021 2.418 100.753 2.52 101.365 2.724C101.989 2.928 102.457 3.204 102.769 3.552C103.333 4.2 103.615 4.932 103.615 5.748C103.615 6.732 103.297 7.464 102.661 7.944C102.445 8.112 102.295 8.22 102.211 8.268C102.127 8.304 101.977 8.37 101.761 8.466C102.541 8.634 103.159 8.988 103.615 9.528C104.083 10.056 104.317 10.716 104.317 11.508C104.317 12.384 104.017 13.158 103.417 13.83C102.721 14.61 101.509 15 99.7806 15ZM97.0806 7.512H98.4126C99.1926 7.512 99.7686 7.428 100.141 7.26C100.525 7.092 100.717 6.732 100.717 6.18C100.717 5.616 100.543 5.244 100.195 5.064C99.8466 4.884 99.2586 4.794 98.4306 4.794H97.0806V7.512ZM97.0806 12.624H99.0066C99.8106 12.624 100.411 12.528 100.807 12.336C101.215 12.132 101.419 11.742 101.419 11.166C101.419 10.578 101.203 10.194 100.771 10.014C100.351 9.822 99.6726 9.726 98.7366 9.726H97.0806V12.624ZM114.801 13.596C113.709 14.628 112.425 15.144 110.949 15.144C109.485 15.144 108.273 14.694 107.313 13.794C106.353 12.882 105.873 11.664 105.873 10.14C105.873 8.616 106.359 7.404 107.331 6.504C108.315 5.604 109.473 5.154 110.805 5.154C112.137 5.154 113.265 5.556 114.189 6.36C115.125 7.164 115.593 8.268 115.593 9.672V11.112H108.537C108.621 11.64 108.897 12.072 109.365 12.408C109.833 12.744 110.361 12.912 110.949 12.912C111.897 12.912 112.677 12.594 113.289 11.958L114.801 13.596ZM112.857 9.186C112.797 8.61 112.581 8.166 112.209 7.854C111.837 7.542 111.381 7.386 110.841 7.386C110.313 7.386 109.827 7.548 109.383 7.872C108.939 8.196 108.681 8.634 108.609 9.186H112.857ZM122.634 7.692C121.83 7.692 121.23 7.98 120.834 8.556C120.438 9.12 120.24 9.87 120.24 10.806V15H117.54V5.316H120.24V6.594C120.588 6.198 121.02 5.862 121.536 5.586C122.064 5.31 122.598 5.166 123.138 5.154L123.156 7.692H122.634ZM127.64 9.6V15H124.94V5.316H127.64V6.396C128.456 5.568 129.374 5.154 130.394 5.154C131.414 5.154 132.266 5.514 132.95 6.234C133.646 6.954 133.994 7.914 133.994 9.114V15H131.294V9.528C131.294 8.04 130.748 7.296 129.656 7.296C129.116 7.296 128.642 7.494 128.234 7.89C127.838 8.274 127.64 8.844 127.64 9.6ZM144.662 15H142.124V13.83C141.428 14.706 140.564 15.144 139.532 15.144C138.512 15.144 137.654 14.85 136.958 14.262C136.262 13.662 135.914 12.87 135.914 11.886C135.914 10.89 136.274 10.146 136.994 9.654C137.714 9.162 138.698 8.916 139.946 8.916H141.962V8.862C141.962 7.83 141.416 7.314 140.324 7.314C139.856 7.314 139.358 7.41 138.83 7.602C138.314 7.782 137.876 8.01 137.516 8.286L136.31 6.54C137.582 5.616 139.034 5.154 140.666 5.154C141.842 5.154 142.802 5.448 143.546 6.036C144.29 6.624 144.662 7.554 144.662 8.826V15ZM141.944 11.31V10.842H140.252C139.172 10.842 138.632 11.178 138.632 11.85C138.632 12.198 138.758 12.468 139.01 12.66C139.274 12.84 139.646 12.93 140.126 12.93C140.606 12.93 141.026 12.786 141.386 12.498C141.758 12.198 141.944 11.802 141.944 11.31ZM153.37 10.536V5.316H156.088V15H153.37V13.722C152.698 14.67 151.828 15.144 150.76 15.144C149.704 15.144 148.816 14.814 148.096 14.154C147.376 13.482 147.016 12.492 147.016 11.184V5.316H149.734V10.59C149.734 12.078 150.28 12.822 151.372 12.822C151.912 12.822 152.38 12.63 152.776 12.246C153.172 11.85 153.37 11.28 153.37 10.536ZM165.927 11.994C165.927 12.942 165.573 13.704 164.865 14.28C164.169 14.856 163.281 15.144 162.201 15.144C161.481 15.144 160.731 15.018 159.951 14.766C159.171 14.502 158.469 14.118 157.845 13.614L159.033 11.922C160.041 12.702 161.115 13.092 162.255 13.092C162.603 13.092 162.879 13.026 163.083 12.894C163.287 12.75 163.389 12.564 163.389 12.336C163.389 12.108 163.245 11.898 162.957 11.706C162.681 11.514 162.273 11.334 161.733 11.166C161.205 10.998 160.797 10.854 160.509 10.734C160.233 10.614 159.915 10.44 159.555 10.212C158.823 9.756 158.457 9.084 158.457 8.196C158.457 7.296 158.817 6.564 159.537 6C160.257 5.436 161.187 5.154 162.327 5.154C163.467 5.154 164.607 5.538 165.747 6.306L164.739 8.106C163.899 7.53 163.059 7.242 162.219 7.242C161.391 7.242 160.977 7.47 160.977 7.926C160.977 8.178 161.109 8.376 161.373 8.52C161.637 8.664 162.075 8.832 162.687 9.024C163.299 9.216 163.731 9.366 163.983 9.474C164.247 9.57 164.559 9.726 164.919 9.942C165.591 10.35 165.927 11.034 165.927 11.994Z" fill="white"/>
</svg>
